<svg xmlns="http://www.w3.org/2000/svg" xmlns:xlink="http://www.w3.org/1999/xlink" width="59.106" height="15.554" viewBox="0 0 59.106 15.554">
  <defs>
    <clipPath id="clip-path">
      <rect id="Rectangle_22902" data-name="Rectangle 22902" width="59.106" height="15.554" fill="none"/>
    </clipPath>
  </defs>
  <g id="Group_19021" data-name="Group 19021" clip-path="url(#clip-path)">
    <path id="Path_62603" data-name="Path 62603" d="M14.58,0h.788V15.554H14.58Zm8.275,2.022V1.944h3.152V9.721a3.941,3.941,0,0,1-7.881,0h3.152a.788.788,0,0,0,1.576,0Zm11.383,4.1a3.764,3.764,0,0,1,.8,1.346,5.25,5.25,0,0,1,.269,1.727c0,.152-.006.29-.017.41a.848.848,0,0,1-.063.3l-.087.173H29.687a1.549,1.549,0,0,0,.119.347,1.758,1.758,0,0,0,.945.88,1.816,1.816,0,0,0,.678.125,1.64,1.64,0,0,0,1.079-.306l.128-.108,2.311.635-.246.358a3.528,3.528,0,0,1-.813.836,3.87,3.87,0,0,1-1.1.559,4.348,4.348,0,0,1-1.361.2,4.48,4.48,0,0,1-1.611-.294,3.954,3.954,0,0,1-1.352-.862,4.207,4.207,0,0,1-.928-1.376,4.647,4.647,0,0,1-.348-1.84,4.505,4.505,0,0,1,.331-1.753,4.212,4.212,0,0,1,.894-1.351,4.074,4.074,0,0,1,1.3-.876,3.887,3.887,0,0,1,1.527-.313,4.575,4.575,0,0,1,1.7.3,3.563,3.563,0,0,1,1.3.87M29.76,8.135h3.024a1.686,1.686,0,0,0-.066-.207,1.217,1.217,0,0,0-.283-.428,1.446,1.446,0,0,0-.48-.306,1.884,1.884,0,0,0-.7-.116,1.593,1.593,0,0,0-.637.121,1.507,1.507,0,0,0-.476.321,1.654,1.654,0,0,0-.319.458,1.511,1.511,0,0,0-.063.157M49.29,6.182a4.156,4.156,0,0,1,.9,1.369,4.516,4.516,0,0,1,.322,1.719A4.575,4.575,0,0,1,50.194,11a4.136,4.136,0,0,1-.9,1.378,4.206,4.206,0,0,1-1.363.908,4.626,4.626,0,0,1-3.421,0,4.1,4.1,0,0,1-1.365-.91A4.19,4.19,0,0,1,42.248,11a4.571,4.571,0,0,1-.322-1.725,4.511,4.511,0,0,1,.323-1.719,4.209,4.209,0,0,1,.894-1.368,4.1,4.1,0,0,1,1.365-.91,4.631,4.631,0,0,1,3.42,0,4.214,4.214,0,0,1,1.363.908m-1.4,4.02a2.6,2.6,0,0,0,.153-.932,2.54,2.54,0,0,0-.152-.922,1.876,1.876,0,0,0-.4-.642,1.617,1.617,0,0,0-.574-.378,1.985,1.985,0,0,0-1.4,0,1.543,1.543,0,0,0-.563.375,2.036,2.036,0,0,0-.409.649,2.429,2.429,0,0,0-.158.918,2.487,2.487,0,0,0,.159.928,2.019,2.019,0,0,0,.408.655,1.62,1.62,0,0,0,.568.385,1.877,1.877,0,0,0,1.386,0,1.707,1.707,0,0,0,.579-.388,1.862,1.862,0,0,0,.4-.648m11.03-3.187a4.153,4.153,0,0,1,.188,1.26v5.1H56.647V8.586a1.686,1.686,0,0,0-.3-1.009,1.385,1.385,0,0,0-1.9.039,1.7,1.7,0,0,0-.338,1.079v4.682H51.651V5.18h2.411v.452a2.415,2.415,0,0,1,.552-.353,3.447,3.447,0,0,1,2.762-.056,2.652,2.652,0,0,1,.973.733,3.182,3.182,0,0,1,.568,1.059m-18.513,4.21c.158-.02.2-.029.214-.032l.392-.1v2.1l-.2.078a3.264,3.264,0,0,1-1.237.194,2.646,2.646,0,0,1-1.907-.679,2.505,2.505,0,0,1-.71-1.887V7.4h-.946V5.18h.945V2.862H39.4V5.18H41V7.4H39.4v3.2a.7.7,0,0,0,.14.5.772.772,0,0,0,.522.138,2.779,2.779,0,0,0,.339-.021M.811,5.1a.078.078,0,0,1-.089-.113A5.878,5.878,0,0,1,4.381,2.144a5.961,5.961,0,0,1,4.61.657.078.078,0,0,1-.02.142Zm10-.578a5.781,5.781,0,0,1,.992,3.653.078.078,0,0,1-.059.07L1.093,11.063a.081.081,0,0,1-.086-.032A5.78,5.78,0,0,1,.014,7.378a.079.079,0,0,1,.059-.07L10.729,4.491a.08.08,0,0,1,.086.032m.2,5.931a.078.078,0,0,1,.089.113A5.879,5.879,0,0,1,7.44,13.41a5.961,5.961,0,0,1-4.609-.657.078.078,0,0,1,.02-.142Z" transform="translate(0 0)" fill="#ed4c14"/>
  </g>
</svg>
