<svg xmlns="http://www.w3.org/2000/svg" xmlns:xlink="http://www.w3.org/1999/xlink" width="35.121" height="12.004" viewBox="0 0 35.121 12.004">
  <defs>
    <clipPath id="clip-path">
      <path id="Path_62584" data-name="Path 62584" d="M23.987,3.677c-.22,0-.235.015-.235.242q0,3.86,0,7.721c0,.237.016.253.255.253h2.429c.243,0,.254-.012.254-.251q0-1.919,0-3.839,0-1.948,0-3.9c0-.214-.016-.23-.231-.23H23.987M21.793,3.57a5.566,5.566,0,0,0-1.6.307,2.994,2.994,0,0,0-1.93,1.879,4.722,4.722,0,0,0-.234,1.525c-.009.712,0,1.424,0,2.136q0,1.11,0,2.22c0,.238.017.254.253.255h2.457c.242,0,.254-.012.254-.251,0-1.21,0-2.42,0-3.63a6.351,6.351,0,0,1,.072-.889,1.124,1.124,0,0,1,.909-.993,5.758,5.758,0,0,1,.729-.115c.133-.015.187-.064.187-.2q-.006-1.019,0-2.039c0-.142-.056-.209-.2-.209l-.28,0-.275,0c-.117,0-.234,0-.351.008M12.281.705l-2.533.5c-.238.047-.242.052-.242.289q0,5.075,0,10.15c0,.233.014.248.243.248h2.541c.228,0,.241-.014.241-.25q0-1.382,0-2.764V8.7l.031-.011a.481.481,0,0,1,.041.053c.085.145.174.286.251.435a11.665,11.665,0,0,1,.917,2.512c.037.148.1.213.259.206.172-.009.344,0,.516,0h2.694c.188,0,.211-.029.156-.2-.064-.2-.129-.408-.205-.608a24.01,24.01,0,0,0-1.513-3.142.414.414,0,0,1,.03-.532,12.684,12.684,0,0,0,1.864-3.528c.072-.208.061-.224-.157-.224h-3c-.227,0-.228,0-.314.216a10.217,10.217,0,0,1-1.444,2.476c-.029.037-.063.069-.095.1l-.03-.016V6.239q0-2.667,0-5.333c0-.17-.006-.223-.095-.223a.906.906,0,0,0-.154.022M34.9.7q-1.244.221-2.487.445c-.225.041-.229.047-.229.268q0,5.124,0,10.248c0,.22.015.235.241.235h2.429c.261,0,.268-.007.268-.265V3.113q0-1.111,0-2.221c0-.16-.01-.21-.1-.21A.754.754,0,0,0,34.9.7m-4.255,0q-1.257.223-2.514.45c-.206.037-.217.052-.217.266q0,5.123,0,10.245c0,.217.021.237.243.237h2.428c.259,0,.266-.007.266-.266q0-2.673,0-5.346,0-2.7,0-5.4c0-.151-.011-.2-.1-.2a.662.662,0,0,0-.109.013M4.009.672A4.991,4.991,0,0,0,1.871,1.2,3.247,3.247,0,0,0,0,4.19,3.014,3.014,0,0,0,1.754,7.065a6.1,6.1,0,0,0,2.226.59,4.332,4.332,0,0,1,.862.148.727.727,0,0,1,.474.931.965.965,0,0,1-.648.642,3.255,3.255,0,0,1-1.318.189,9.194,9.194,0,0,1-2.961-.57c-.157-.058-.179-.043-.18.125,0,.377,0,.754,0,1.131q0,.524,0,1.047c0,.265,0,.268.255.325a15.026,15.026,0,0,0,4.3.352,4.94,4.94,0,0,0,2.379-.726A3.266,3.266,0,0,0,8.776,8.329,3.144,3.144,0,0,0,6.809,5.394,6.808,6.808,0,0,0,4.392,4.82a2.877,2.877,0,0,1-.717-.156.648.648,0,0,1-.441-.622.72.72,0,0,1,.376-.725,1.953,1.953,0,0,1,.508-.184,4.441,4.441,0,0,1,1.5-.016,9.891,9.891,0,0,1,2.548.654c.14.059.175.037.175-.105,0-.745,0-1.489,0-2.234a.18.18,0,0,0-.141-.2c-.182-.056-.362-.121-.545-.175A10.559,10.559,0,0,0,4.64.659q-.315,0-.63.013m19.769.768A1.442,1.442,0,1,0,25.236,0h-.011a1.457,1.457,0,0,0-1.447,1.44" transform="translate(0)" fill="none"/>
    </clipPath>
    <linearGradient id="linear-gradient" x1="0.001" y1="0.995" x2="0.005" y2="0.995" gradientUnits="objectBoundingBox">
      <stop offset="0" stop-color="#4e164c"/>
      <stop offset="1" stop-color="#39194a"/>
    </linearGradient>
  </defs>
  <g id="Group_19013" data-name="Group 19013" clip-path="url(#clip-path)">
    <rect id="Rectangle_22898" data-name="Rectangle 22898" width="35.14" height="12.067" transform="translate(-0.019 -1)" fill="url(#linear-gradient)"/>
  </g>
</svg>
