<svg xmlns="http://www.w3.org/2000/svg" width="157.351" height="15" viewBox="0 0 157.351 15">
  <g id="Group_19668" data-name="Group 19668" opacity="0.57">
    <path id="Path_64963" data-name="Path 64963" d="M32,82.219H26.328l5.676-15h5.676Z" transform="translate(-26.328 -67.218)" fill="#fff" opacity="0.22"/>
    <path id="Path_64964" data-name="Path 64964" d="M44.17,82.219H38.495l5.676-15h5.676Z" transform="translate(-26.328 -67.218)" fill="#fff" opacity="0.22"/>
    <path id="Path_64965" data-name="Path 64965" d="M56.337,82.219H50.661l5.676-15h5.676Z" transform="translate(-26.328 -67.218)" fill="#fff" opacity="0.22"/>
    <path id="Path_64966" data-name="Path 64966" d="M68.5,82.219H62.828l5.676-15h5.676Z" transform="translate(-26.328 -67.218)" fill="#fff" opacity="0.22"/>
    <path id="Path_64967" data-name="Path 64967" d="M80.67,82.219H74.994l5.676-15h5.676Z" transform="translate(-26.328 -67.218)" fill="#fff" opacity="0.22"/>
    <path id="Path_64968" data-name="Path 64968" d="M92.837,82.219H87.161l5.676-15h5.676Z" transform="translate(-26.328 -67.218)" fill="#fff" opacity="0.22"/>
    <path id="Path_64969" data-name="Path 64969" d="M105,82.219H99.328l5.676-15h5.676Z" transform="translate(-26.328 -67.218)" fill="#fff" opacity="0.22"/>
    <path id="Path_64970" data-name="Path 64970" d="M117.17,82.219h-5.676l5.676-15h5.676Z" transform="translate(-26.328 -67.218)" fill="#fff" opacity="0.22"/>
    <path id="Path_64971" data-name="Path 64971" d="M129.337,82.219h-5.676l5.676-15h5.676Z" transform="translate(-26.328 -67.218)" fill="#fff" opacity="0.22"/>
    <path id="Path_64972" data-name="Path 64972" d="M141.5,82.219h-5.676l5.676-15h5.676Z" transform="translate(-26.328 -67.218)" fill="#fff" opacity="0.22"/>
    <path id="Path_64973" data-name="Path 64973" d="M153.67,82.219h-5.676l5.676-15h5.676Z" transform="translate(-26.328 -67.218)" fill="#fff" opacity="0.22"/>
    <path id="Path_64974" data-name="Path 64974" d="M165.837,82.219h-5.676l5.676-15h5.676Z" transform="translate(-26.328 -67.218)" fill="#fff" opacity="0.22"/>
    <path id="Path_64975" data-name="Path 64975" d="M178,82.219h-5.676l5.676-15h5.676Z" transform="translate(-26.328 -67.218)" fill="#fff" opacity="0.22"/>
  </g>
</svg>
