<svg xmlns="http://www.w3.org/2000/svg" xmlns:xlink="http://www.w3.org/1999/xlink" width="45.434" height="60.792" viewBox="0 0 45.434 60.792"><defs><linearGradient id="a" x1="0.819" y1="0.62" x2="0.43" y2="0.197" gradientUnits="objectBoundingBox"><stop offset="0" stop-color="#0071ba" stop-opacity="0"/><stop offset="0.092" stop-color="#0376bb" stop-opacity="0.043"/><stop offset="0.238" stop-color="#0c84be" stop-opacity="0.157"/><stop offset="0.419" stop-color="#1b9cc4" stop-opacity="0.345"/><stop offset="0.548" stop-color="#28b0c9" stop-opacity="0.502"/><stop offset="1" stop-color="#28b0c9"/></linearGradient></defs><g transform="translate(208 -127)"><path d="M16.01,75.8c4.715,8.868,17.458,26.693,22.237,31.447,2.584,2.57,5.312,4.089,9.231,3.925,5.668-.24,10.556-4.428,11.072-9.867.93-9.776,1.731-29.447,1.319-39.258-.283-6.692-6.939-11.94-14.433-11.45-9.149.6-22.2,7.252-25.566,9.566-.518.354-1.706,1.383-1.706,1.383a11.907,11.907,0,0,0-3.606,9.05A12.116,12.116,0,0,0,16.01,75.8Z" transform="translate(-222.547 76.612)" fill="#0071ba"/><path d="M16.01,75.68c4.715,8.868,17.458,26.693,22.237,31.447,2.584,2.57,5.312,4.089,9.231,3.923,5.668-.238,10.556-4.427,11.072-9.865.93-9.777,1.731-29.448,1.319-39.26-.283-6.692-6.939-11.94-14.433-11.449-9.149.6-22.2,7.252-25.566,9.565-.518.356-1.706,1.384-1.706,1.384a11.9,11.9,0,0,0-3.606,9.05A12.128,12.128,0,0,0,16.01,75.68Z" transform="translate(-222.547 76.556)" fill="url(#a)"/><g transform="translate(-191.283 138.029)"><path d="M45.879,72.967a.485.485,0,0,0-.411-.226H40.944a.486.486,0,0,0-.442.281l-2.63,5.841-2.63-5.841a.489.489,0,0,0-.442-.281H30.3a.486.486,0,0,0-.439.7l7.488,15.777a.489.489,0,0,0,.441.278h.173a.487.487,0,0,0,.439-.278l7.511-15.776A.49.49,0,0,0,45.879,72.967Z" transform="translate(-23.809 -50.583)" fill="#fff"/><path d="M36.935,65.1a4.773,4.773,0,0,0-1.128.149v-.013a3.729,3.729,0,0,0-.77-7.378H26.522a.744.744,0,0,0-.744.743V74.012a.583.583,0,0,0,.583.582H36.935a4.749,4.749,0,0,0,0-9.5Z" transform="translate(-25.778 -57.854)" fill="#fff"/></g></g></svg>