<?xml version="1.0" encoding="utf-8"?>
<!-- Generator: Adobe Illustrator 24.0.1, SVG Export Plug-In . SVG Version: 6.00 Build 0)  -->
<svg version="1.1" id="Capa_1" xmlns="http://www.w3.org/2000/svg" xmlns:xlink="http://www.w3.org/1999/xlink" x="0px" y="0px"
	 width="35px" height="36.5px" viewBox="0 0 35 36.5" style="enable-background:new 0 0 35 36.5;" xml:space="preserve">
	 <style>
	@keyframes wave{0%{opacity:1}100%{opacity:0}}.path-1{fill:#d6d4eb;opacity:0;animation:wave 1s .1s infinite}.path-2{fill:#d6d4eb;opacity:0;animation:wave 1s .2s infinite}.path-3{fill:#d6d4eb;opacity:0;animation:wave 1s .3s infinite}.path-4{fill:#d6d4eb;opacity:0;animation:wave 1s .4s infinite}.path-5{fill:#d6d4eb;opacity:0;animation:wave 1s .5s infinite}.path-6{fill:#d6d4eb;opacity:0;animation:wave 1s .6s infinite}.path-7{fill:#d6d4eb;opacity:0;animation:wave 1s .7s infinite}.path-8{fill:#d6d4eb;opacity:0;animation:wave 1s .8s infinite}
</style>
<g>
	<g>
		<path class="path-5" d="M8,25.9c-0.9,0-1.7,0.3-2.3,1c-0.6,0.6-1,1.4-1,2.3c0,0.9,0.3,1.7,1,2.3c0.6,0.6,1.4,1,2.3,1c0.9,0,1.7-0.3,2.3-1
			c0.6-0.6,1-1.4,1-2.3c0-0.9-0.3-1.7-1-2.3C9.7,26.2,8.9,25.9,8,25.9z"/>
		<path class="path-6" d="M7.3,19c0-1-0.4-1.9-1.1-2.6c-0.7-0.7-1.6-1.1-2.6-1.1c-1,0-1.9,0.4-2.6,1.1C0.4,17.1,0,18,0,19c0,1,0.4,1.9,1.1,2.6
			c0.7,0.7,1.6,1.1,2.6,1.1c1,0,1.9-0.4,2.6-1.1C6.9,20.8,7.3,20,7.3,19z"/>
		<path class="path-1" d="M28.4,10.6c0.5,0,0.9-0.2,1.3-0.5c0.4-0.4,0.5-0.8,0.5-1.3c0-0.5-0.2-0.9-0.5-1.3c-0.4-0.4-0.8-0.5-1.3-0.5
			c-0.5,0-0.9,0.2-1.3,0.5c-0.4,0.4-0.5,0.8-0.5,1.3c0,0.5,0.2,0.9,0.5,1.3C27.5,10.4,27.9,10.6,28.4,10.6z"/>
		<path class="path-7" d="M8,4.7C6.9,4.7,6,5.1,5.2,5.9C4.4,6.7,4,7.6,4,8.8c0,1.1,0.4,2.1,1.2,2.8C6,12.4,6.9,12.8,8,12.8s2.1-0.4,2.8-1.2
			c0.8-0.8,1.2-1.7,1.2-2.8c0-1.1-0.4-2.1-1.2-2.8C10.1,5.1,9.1,4.7,8,4.7z"/>
		<path class="path-2" d="M34.4,17.4c-0.4-0.4-0.9-0.6-1.5-0.6c-0.6,0-1.1,0.2-1.5,0.6c-0.4,0.4-0.6,0.9-0.6,1.6c0,0.6,0.2,1.1,0.6,1.5
			c0.4,0.4,0.9,0.6,1.5,0.6c0.6,0,1.1-0.2,1.5-0.6c0.4-0.4,0.6-0.9,0.6-1.5C35,18.4,34.8,17.8,34.4,17.4z"/>
		<path class="path-3" d="M28.4,26.6c-0.7,0-1.3,0.3-1.8,0.8c-0.5,0.5-0.8,1.1-0.8,1.8c0,0.7,0.3,1.3,0.8,1.8c0.5,0.5,1.1,0.8,1.8,0.8
			c0.7,0,1.3-0.3,1.8-0.8c0.5-0.5,0.8-1.1,0.8-1.8c0-0.7-0.3-1.3-0.8-1.8C29.7,26.9,29.1,26.6,28.4,26.6z"/>
		<path class="path-4" d="M18.2,30.6c-0.8,0-1.5,0.3-2.1,0.9c-0.6,0.6-0.9,1.3-0.9,2.1s0.3,1.5,0.9,2.1c0.6,0.6,1.3,0.9,2.1,0.9
			c0.8,0,1.5-0.3,2.1-0.9c0.6-0.6,0.9-1.3,0.9-2.1s-0.3-1.5-0.9-2.1C19.7,30.9,19,30.6,18.2,30.6z"/>
		<path class="path-8" d="M18.2,0C17,0,16,0.4,15.1,1.3c-0.9,0.9-1.3,1.9-1.3,3.1c0,1.2,0.4,2.2,1.3,3.1C16,8.3,17,8.7,18.2,8.7
			c1.2,0,2.2-0.4,3.1-1.3c0.9-0.9,1.3-1.9,1.3-3.1c0-1.2-0.4-2.2-1.3-3.1C20.5,0.4,19.4,0,18.2,0z"/>
	</g>
</g>
</svg>
