<svg xmlns="http://www.w3.org/2000/svg" xmlns:xlink="http://www.w3.org/1999/xlink" width="156" height="60.792" viewBox="0 0 156 60.792"><defs><linearGradient id="a" x1="0.819" y1="0.62" x2="0.43" y2="0.197" gradientUnits="objectBoundingBox"><stop offset="0" stop-color="#0071ba" stop-opacity="0"/><stop offset="0.092" stop-color="#0376bb" stop-opacity="0.043"/><stop offset="0.238" stop-color="#0c84be" stop-opacity="0.157"/><stop offset="0.419" stop-color="#1b9cc4" stop-opacity="0.345"/><stop offset="0.548" stop-color="#28b0c9" stop-opacity="0.502"/><stop offset="1" stop-color="#28b0c9"/></linearGradient></defs><g transform="translate(-14.547 -50.445)"><path d="M16.01,75.8c4.715,8.868,17.458,26.693,22.237,31.447,2.584,2.57,5.312,4.089,9.231,3.925,5.668-.24,10.556-4.428,11.072-9.867.93-9.776,1.731-29.447,1.319-39.258-.283-6.692-6.939-11.94-14.433-11.45-9.149.6-22.2,7.252-25.566,9.566-.518.354-1.706,1.383-1.706,1.383a11.907,11.907,0,0,0-3.606,9.05A12.116,12.116,0,0,0,16.01,75.8Z" transform="translate(0 0.057)" fill="#0071ba"/><path d="M16.01,75.68c4.715,8.868,17.458,26.693,22.237,31.447,2.584,2.57,5.312,4.089,9.231,3.923,5.668-.238,10.556-4.427,11.072-9.865.93-9.777,1.731-29.448,1.319-39.26-.283-6.692-6.939-11.94-14.433-11.449-9.149.6-22.2,7.252-25.566,9.565-.518.356-1.706,1.384-1.706,1.384a11.9,11.9,0,0,0-3.606,9.05A12.128,12.128,0,0,0,16.01,75.68Z" transform="translate(0 0)" fill="url(#a)"/><g transform="translate(31.263 61.473)"><path d="M45.879,72.967a.485.485,0,0,0-.411-.226H40.944a.486.486,0,0,0-.442.281l-2.63,5.841-2.63-5.841a.489.489,0,0,0-.442-.281H30.3a.486.486,0,0,0-.439.7l7.488,15.777a.489.489,0,0,0,.441.278h.173a.487.487,0,0,0,.439-.278l7.511-15.776A.49.49,0,0,0,45.879,72.967Z" transform="translate(-23.809 -50.583)" fill="#fff"/><path d="M36.935,65.1a4.773,4.773,0,0,0-1.128.149v-.013a3.729,3.729,0,0,0-.77-7.378H26.522a.744.744,0,0,0-.744.743V74.012a.583.583,0,0,0,.583.582H36.935a4.749,4.749,0,0,0,0-9.5Z" transform="translate(-25.778 -57.854)" fill="#fff"/></g><g transform="translate(69.928 69.129)"><g transform="translate(0 1.502)"><path d="M51.755,64.007H59.3c4.575,0,8.13,1.146,8.13,4.982a4.615,4.615,0,0,1-2.905,4.334v.125a4.685,4.685,0,0,1,3.992,4.726c0,4.087-3.792,5.916-8.587,5.916H51.755Zm7.314,8.045c2.419,0,3.489-.932,3.489-2.392,0-1.548-1.13-2.148-3.453-2.148H56.738v4.54Zm.454,8.536c2.716,0,4.12-.881,4.12-2.707,0-1.761-1.38-2.478-4.12-2.478H56.738v5.186Z" transform="translate(-51.755 -64.007)" fill="#fff"/><path d="M65.255,75a7.842,7.842,0,0,1,7.914-8.02c4.779,0,7.146,3.164,7.146,7.338a9.4,9.4,0,0,1-.207,2H70.07c.447,2.216,2.114,3.233,4.352,3.233a7.515,7.515,0,0,0,3.629-1l1.645,2.73a11.68,11.68,0,0,1-5.954,1.722C68.96,83.007,65.255,80.06,65.255,75Zm10.813-1.676c0-1.68-.8-2.892-2.788-2.892a3.219,3.219,0,0,0-3.266,2.892Z" transform="translate(-45.161 -62.554)" fill="#fff"/><path d="M79.342,78.289V72.115H77.05V68.556l2.57.006.046-4.06h4.647v4.06h4.022v3.553H84.313v6.12c0,1.733.863,2.429,2.172,2.429a5.346,5.346,0,0,0,1.6-.292l.783,3.291a12.913,12.913,0,0,1-3.727.554C80.99,84.218,79.342,81.832,79.342,78.289Z" transform="translate(-39.401 -63.765)" fill="#fff"/></g><path d="M86.928,64.007H92.2l2.657,9.359c.656,2.2,1.1,4.223,1.767,6.439h.135c.667-2.216,1.137-4.243,1.765-6.439l2.6-9.359h5.095L99.574,84.09H93.587Z" transform="translate(-34.576 -62.505)" fill="#fff"/><rect width="4.972" height="15.286" transform="translate(74.606 6.299)" fill="#fff"/><path d="M108.834,79.832V63h4.971V80.017c0,.973.494,1.28.9,1.28a2.326,2.326,0,0,0,.607-.063l.594,3.34a6.944,6.944,0,0,1-2.5.378C110,84.952,108.834,82.925,108.834,79.832Z" transform="translate(-23.877 -62.998)" fill="#fff"/><path d="M116.016,67.23h4.971V82.516h-4.971Z" transform="translate(-20.369 -60.931)" fill="#fff"/><circle cx="2.486" cy="2.486" r="2.486" transform="translate(95.647)" fill="#fff"/><circle cx="2.486" cy="2.486" r="2.486" transform="translate(74.606)" fill="#fff"/></g></g></svg>