<svg id="XMLID_1127_" xmlns="http://www.w3.org/2000/svg" width="45" height="45" viewBox="0 0 45 45">
  <g id="XMLID_1324_" transform="translate(0)">
    <path id="XMLID_1353_" d="M40.781,18.668a15.583,15.583,0,0,0-9.6-4.852A15.649,15.649,0,0,0,7.818,2.1.879.879,0,0,0,8.7,3.617,13.879,13.879,0,1,1,3.521,8.868a.879.879,0,0,0-1.534-.859,15.649,15.649,0,0,0,11.83,23.173A15.645,15.645,0,1,0,40.781,18.668ZM23.07,29.412a1.787,1.787,0,0,0,.263.233l2.07,1.494-.791,2.429a1.72,1.72,0,0,0,.634,1.955,1.721,1.721,0,0,0,2.055,0l2.066-1.505,2.055,1.493a1.747,1.747,0,0,0,2.687-1.958l-.791-2.412,2.065-1.5a1.747,1.747,0,0,0-1.025-3.161H31.794l-.785-2.422a1.716,1.716,0,0,0-1.486-1.2,15.548,15.548,0,0,0,1.112-2.734A9.317,9.317,0,1,1,20.126,30.634a15.55,15.55,0,0,0,2.944-1.222Zm1.844-1.172h2.633a.879.879,0,0,0,.837-.61l.963-3,.972,3a.879.879,0,0,0,.836.608h3.167l-2.556,1.853a.879.879,0,0,0-.319.986l.981,2.989-2.544-1.849a.879.879,0,0,0-1.034,0L26.293,34.08l.98-3.006a.879.879,0,0,0-.321-.985l-2.3-1.66C24.74,28.367,24.827,28.3,24.914,28.239Zm4.442,15A13.932,13.932,0,0,1,15.6,31.289h.041a15.674,15.674,0,0,0,2.765-.245A11.075,11.075,0,1,0,31.044,18.41a15.679,15.679,0,0,0,.245-2.766c0-.014,0-.028,0-.042a13.887,13.887,0,0,1-1.933,27.639Z" transform="translate(0)" fill="#fff"/>
    <path id="XMLID_1361_" d="M63.074,74.148A11.074,11.074,0,1,0,52,63.074,11.087,11.087,0,0,0,63.074,74.148Zm0-20.391a9.316,9.316,0,1,1-9.316,9.316A9.327,9.327,0,0,1,63.074,53.758Z" transform="translate(-47.43 -47.43)" fill="#fff"/>
    <path id="XMLID_1387_" d="M101.922,110.793l2.07,1.494-.791,2.429a1.72,1.72,0,0,0,.634,1.955,1.721,1.721,0,0,0,2.055,0l2.066-1.505,2.055,1.493A1.747,1.747,0,0,0,112.7,114.7l-.791-2.412,2.065-1.5a1.747,1.747,0,0,0-1.025-3.161h-2.562l-.785-2.422A1.72,1.72,0,0,0,107.936,104h0a1.72,1.72,0,0,0-1.661,1.212l-.777,2.418h-2.551a1.747,1.747,0,0,0-1.023,3.163Zm4.214-1.405a.879.879,0,0,0,.837-.61l.963-3,.972,3a.879.879,0,0,0,.836.608h3.167l-2.556,1.853a.879.879,0,0,0-.319.986l.981,2.989-2.544-1.849a.879.879,0,0,0-1.034,0l-2.555,1.862.98-3.006a.879.879,0,0,0-.321-.985l-2.562-1.85Z" transform="translate(-92.3 -94.859)" fill="#fff"/>
    <path id="XMLID_1390_" d="M49.259,51.8a.879.879,0,1,0-.621-.258.886.886,0,0,0,.621.258Z" transform="translate(-44.128 -45.642)" fill="#fff"/>
  </g>
</svg>
