<svg xmlns="http://www.w3.org/2000/svg" width="39.201" height="38.917" viewBox="0 0 39.201 38.917">
  <g id="time-left" transform="translate(0 -1.688)">
    <g id="Layer_2_16_" transform="translate(0 1.688)">
      <g id="Group_20613" data-name="Group 20613" transform="translate(0 0)">
        <path id="Path_65863" data-name="Path 65863" d="M254.936,423.2c-.323.081-.653.152-.98.212a1.576,1.576,0,0,0,.574,3.1c.39-.072.782-.157,1.167-.253a1.576,1.576,0,0,0-.762-3.058Z" transform="translate(-231.376 -387.639)" fill="#fff"/>
        <path id="Path_65864" data-name="Path 65864" d="M412.917,139.314a1.576,1.576,0,0,0,2.992-.991c-.125-.376-.263-.754-.41-1.122a1.576,1.576,0,1,0-2.926,1.17C412.7,138.681,412.812,139,412.917,139.314Z" transform="translate(-377.703 -124.874)" fill="#fff"/>
        <path id="Path_65865" data-name="Path 65865" d="M322.509,394.173c-.278.184-.565.361-.854.528a1.576,1.576,0,1,0,1.575,2.73c.344-.2.685-.409,1.016-.628a1.576,1.576,0,0,0-1.737-2.63Z" transform="translate(-293.828 -360.859)" fill="#fff"/>
        <path id="Path_65866" data-name="Path 65866" d="M430.785,208.826a1.576,1.576,0,1,0-3.149.124c.013.332.016.67.009,1a1.576,1.576,0,1,0,3.151.07C430.8,209.624,430.8,209.222,430.785,208.826Z" transform="translate(-391.599 -189.984)" fill="#fff"/>
        <path id="Path_65867" data-name="Path 65867" d="M379.965,344.384a1.575,1.575,0,0,0-2.207.315c-.2.267-.411.53-.626.784a1.576,1.576,0,0,0,.178,2.221c.038.032.076.061.116.089a1.576,1.576,0,0,0,2.106-.267c.258-.3.509-.617.748-.936A1.576,1.576,0,0,0,379.965,344.384Z" transform="translate(-345.008 -315.217)" fill="#fff"/>
        <path id="Path_65868" data-name="Path 65868" d="M416.159,279.424a1.576,1.576,0,0,0-1.975,1.032c-.1.317-.21.636-.329.948a1.576,1.576,0,0,0,2.945,1.122c.141-.371.273-.75.391-1.128A1.576,1.576,0,0,0,416.159,279.424Z" transform="translate(-378.886 -255.953)" fill="#fff"/>
        <path id="Path_65869" data-name="Path 65869" d="M16.685,37.477a16.272,16.272,0,0,1-4.042-1.285c-.015-.008-.029-.017-.045-.024-.3-.142-.6-.294-.9-.454l0,0a16.811,16.811,0,0,1-1.568-.98A16.445,16.445,0,0,1,10.2,7.8l.056-.039a16.473,16.473,0,0,1,18.462-.148L27.486,9.388c-.342.5-.132.856.468.8L33.3,9.711a.881.881,0,0,0,.8-1.152L32.663,3.384c-.161-.58-.572-.65-.915-.154L30.514,5.013A19.462,19.462,0,0,0,16.253,1.981q-.757.131-1.492.319l-.01,0-.057.016A19.432,19.432,0,0,0,3.919,9.539c-.023.027-.046.053-.067.082-.089.12-.178.244-.265.367-.142.2-.282.409-.416.616-.017.025-.03.05-.044.076A19.429,19.429,0,0,0,.021,22.139c0,.013,0,.027,0,.04.018.4.049.8.092,1.191,0,.025.008.05.012.075.044.4.1.794.168,1.192A19.449,19.449,0,0,0,5.777,35.184l.02.021.007.006a19.857,19.857,0,0,0,2.511,2.1,19.431,19.431,0,0,0,7.814,3.27,1.576,1.576,0,0,0,.556-3.1Z" transform="translate(0 -1.688)" fill="#fff"/>
        <path id="Path_65870" data-name="Path 65870" d="M207.263,83.2a1.275,1.275,0,0,0-1.276,1.275v12.7l11.618,6.006a1.275,1.275,0,0,0,1.171-2.265l-10.239-5.294V84.473A1.275,1.275,0,0,0,207.263,83.2Z" transform="translate(-188.629 -76.329)" fill="#fff"/>
      </g>
    </g>
  </g>
</svg>
