<?xml version="1.0" encoding="UTF-8"?>
<svg width="213px" height="130px" viewBox="0 0 213 130" version="1.1" xmlns="http://www.w3.org/2000/svg" xmlns:xlink="http://www.w3.org/1999/xlink">
    <title>Group</title>
    <defs>
        <radialGradient cx="50%" cy="50%" fx="50%" fy="50%" r="50%" gradientTransform="translate(0.500000,0.500000),scale(0.992366,1.000000),rotate(90.000000),translate(-0.500000,-0.500000)" id="radialGradient-1">
            <stop stop-color="#067FFF" offset="0%"></stop>
            <stop stop-color="#062853" stop-opacity="0.1" offset="100%"></stop>
        </radialGradient>
        <polygon id="path-2" points="0 0.445523631 49.4926592 0.445523631 49.4926592 66.9113818 0 66.9113818"></polygon>
        <path d="M34.5352672,0.256224 C34.2401771,0.259488 33.945087,0.270912 33.6483756,0.290496 L33.6483756,0.290496 C23.6817893,0.948192 9.46558168,8.2416 5.79965496,10.77936 L5.79965496,10.77936 C5.23379542,11.167776 3.93993893,12.295488 3.93993893,12.295488 L3.93993893,12.295488 C1.38465344,14.805504 -0.150787786,18.346944 0.0113496183,22.218048 L0.0113496183,22.218048 C0.0972824427,24.290688 0.689083969,26.20992 1.59381069,27.925152 L1.59381069,27.925152 C6.73194504,37.646976 20.6109069,57.195072 25.8171389,62.406048 L25.8171389,62.406048 C28.6318443,65.224512 31.6054443,66.889152 35.8745221,66.709632 L35.8745221,66.709632 C42.0487145,66.448512 47.3716855,61.8528 47.9343023,55.891104 L47.9343023,55.891104 C48.9492824,45.172128 49.8215817,23.603616 49.3708397,12.84384 L49.3708397,12.84384 C49.0789924,5.881728 42.5335053,0.34272 34.8887267,0.256224 L34.8887267,0.256224 L34.5352672,0.256224 Z" id="path-4"></path>
    </defs>
    <g id="Symbols" stroke="none" stroke-width="1" fill="none" fill-rule="evenodd">
        <g id="Login_reg_bg" transform="translate(-596.000000, -128.000000)">
            <g id="Group" transform="translate(596.000000, 128.000000)">
                <ellipse id="Oval" fill="url(#radialGradient-1)" cx="65.5" cy="65" rx="65.5" ry="65"></ellipse>
                <g transform="translate(36.000000, 27.000000)" id="Toto_Logo">
                    <g id="Group-3" transform="translate(0.000000, 0.015939)">
                        <mask id="mask-3" fill="white">
                            <use xlink:href="#path-2"></use>
                        </mask>
                        <g id="Clip-2"></g>
                        <path d="M1.59397282,28.1151168 C6.7304858,37.8385728 20.611069,57.3834048 25.8173011,62.5960128 C28.6320064,65.4144768 31.6056064,67.0791168 35.8746843,66.8979648 C42.0488766,66.6368448 47.3718476,62.0443968 47.9344644,56.0810688 C48.9478232,45.3620928 49.8217438,23.7935808 49.3710018,13.0338048 C49.0645621,5.6979648 41.812156,-0.0580992 33.6485377,0.4804608 C23.6819515,1.1381568 9.46574382,8.4315648 5.79819573,10.9693248 C5.23557893,11.3577408 3.94010107,12.4854528 3.94010107,12.4854528 C1.38481557,14.9938368 -0.150625649,18.5352768 0.0115117557,22.4080128 C0.0990659542,24.4790208 0.687624733,26.4015168 1.59397282,28.1151168" id="Fill-1" fill="#2E82C4" mask="url(#mask-3)"></path>
                    </g>
                    <g id="Group" transform="translate(0.000000, 0.015939)">
                        <g id="Group-6">
                            <mask id="mask-5" fill="white">
                                <use xlink:href="#path-4"></use>
                            </mask>
                            <g id="Clip-5"></g>
                            <path d="M34.5352672,0.256224 C34.2401771,0.259488 33.945087,0.270912 33.6483756,0.290496 L33.6483756,0.290496 C23.6817893,0.948192 9.46558168,8.2416 5.79965496,10.77936 L5.79965496,10.77936 C5.23379542,11.167776 3.93993893,12.295488 3.93993893,12.295488 L3.93993893,12.295488 C1.38465344,14.805504 -0.150787786,18.346944 0.0113496183,22.218048 L0.0113496183,22.218048 C0.0972824427,24.290688 0.689083969,26.20992 1.59381069,27.925152 L1.59381069,27.925152 C6.73194504,37.646976 20.6109069,57.195072 25.8171389,62.406048 L25.8171389,62.406048 C28.6318443,65.224512 31.6054443,66.889152 35.8745221,66.709632 L35.8745221,66.709632 C42.0487145,66.448512 47.3716855,61.8528 47.9343023,55.891104 L47.9343023,55.891104 C48.9492824,45.172128 49.8215817,23.603616 49.3708397,12.84384 L49.3708397,12.84384 C49.0789924,5.881728 42.5335053,0.34272 34.8887267,0.256224 L34.8887267,0.256224 L34.5352672,0.256224 Z" id="Fill-4" mask="url(#mask-5)"></path>
                        </g>
                        <path d="M42.2526834,36.8928288 C42.1554009,36.7377888 41.9851566,36.6447648 41.8035627,36.6447648 L36.8745856,36.6447648 C36.6686711,36.6447648 36.4805918,36.7639008 36.3930376,36.9515808 L33.5280696,43.3555488 L30.6647231,36.9532128 C30.5771689,36.7639008 30.3890895,36.6447648 30.183175,36.6447648 L25.2768971,36.6447648 C25.0953032,36.6447648 24.9250589,36.7377888 24.8277765,36.8928288 C24.730494,37.0478688 24.7191444,37.2420768 24.7969704,37.4052768 L32.9557246,54.7044768 C33.0432788,54.8905248 33.2297368,55.0112928 33.4356513,55.0112928 L33.6221093,55.0112928 C33.8280238,55.0112928 34.0128605,54.8905248 34.102036,54.7044768 L42.2834895,37.4069088 C42.3613154,37.2420768 42.3499658,37.0478688 42.2526834,36.8928288" id="Fill-7" fill="#FEFEFE"></path>
                        <path d="M30.3631475,20.289024 C29.9383475,20.289024 29.5313826,20.355936 29.1357673,20.453856 L29.134146,20.437536 C30.9760269,20.04912 32.3590589,18.407328 32.3590589,16.437504 C32.3590589,14.178816 30.5398773,12.347712 28.2975169,12.347712 C28.2910315,12.347712 28.284546,12.349344 28.2764391,12.350976 C28.2748177,12.349344 28.2731963,12.347712 28.271575,12.347712 L19.0200147,12.347712 C18.5741368,12.347712 18.210949,12.71328 18.210949,13.16208 L18.210949,30.064704 C18.210949,30.417216 18.4946895,30.702816 18.8449063,30.702816 L29.8151231,30.702816 L30.3631475,30.702816 C33.2200085,30.702816 35.5369521,28.37232 35.5369521,25.496736 C35.5369521,22.621152 33.2200085,20.289024 30.3631475,20.289024" id="Fill-9" fill="#FEFEFE"></path>
                    </g>
                    <g id="Group-25" transform="translate(59.600509, 20.315198)" fill="#2E82C4">
                        <path d="M9.18952774,20.2703023 C12.1501567,20.2703023 13.6791125,19.3041583 13.6791125,17.3033263 C13.6791125,15.3726703 12.1760987,14.5844143 9.18952774,14.5844143 L6.1559369,14.5844143 L6.1559369,20.2703023 L9.18952774,20.2703023 Z M8.69663003,10.9107823 C11.3297415,10.9107823 12.4971308,9.89078234 12.4971308,8.28979034 C12.4971308,6.59087834 11.2665079,5.93318234 8.735543,5.93318234 L6.1559369,5.93318234 L6.1559369,10.9107823 L8.69663003,10.9107823 Z M0.729197964,2.09145434 L8.947943,2.09145434 C13.9320468,2.09145434 17.8022667,3.34646234 17.8022667,7.55375834 C17.8022667,9.52684634 16.5975858,11.6304943 14.6389659,12.3061423 L14.6389659,12.4432303 C17.0921048,13.0258543 18.9858697,14.6839663 18.9858697,17.6248303 C18.9858697,22.1046703 14.8546087,24.1120303 9.63216285,24.1120303 L0.729197964,24.1120303 L0.729197964,2.09145434 Z" id="Fill-11"></path>
                        <path d="M34.3967058,13.9007695 C34.3967058,12.0582415 33.5211638,10.7281615 31.3582508,10.7281615 C29.6477012,10.7281615 28.1706294,11.7824335 27.8025775,13.9007695 L34.3967058,13.9007695 Z M22.6158019,15.7367695 C22.6158019,10.2989455 26.8475882,6.94355354 31.2366477,6.94355354 C36.4445012,6.94355354 39.0224859,10.4148175 39.0224859,14.9893135 C39.0224859,15.8836495 38.9008828,16.7763535 38.7971149,17.1843535 L27.8625683,17.1843535 C28.3489806,19.6144015 30.1649195,20.7290575 32.6034661,20.7290575 C33.9848767,20.7290575 35.230092,20.3455375 36.556376,19.6339855 L38.3479943,22.6287055 C36.4736859,23.8168015 34.0286538,24.5152975 31.8624981,24.5152975 C26.6514019,24.5152975 22.6158019,21.2839375 22.6158019,15.7367695 L22.6158019,15.7367695 Z" id="Fill-13"></path>
                        <path d="M44.2374734,18.0150415 L44.2374734,11.2455055 L41.7405574,11.2455055 L41.7405574,7.34339354 L44.5406703,7.34992154 L44.5909329,2.89782554 L49.6528627,2.89782554 L49.6528627,7.34992154 L54.0338154,7.34992154 L54.0338154,11.2455055 L49.6528627,11.2455055 L49.6528627,17.9562895 C49.6528627,19.8575695 50.594881,20.6197135 52.0184474,20.6197135 C52.6215986,20.6197135 53.2750123,20.4614095 53.7565604,20.2998415 L54.6094032,23.9081935 C53.6398215,24.1888975 52.3216444,24.5152975 50.5494825,24.5152975 C46.0323345,24.5152975 44.2374734,21.9008335 44.2374734,18.0150415" id="Fill-15"></path>
                        <path d="M57.756328,2.09112794 L63.5008563,2.09112794 L66.395009,12.3515119 C67.1116563,14.7603439 67.591583,16.9831279 68.3195799,19.4131759 L68.4655036,19.4131759 C69.1951219,16.9831279 69.7058548,14.7603439 70.391696,12.3515119 L73.2242364,2.09112794 L78.7741998,2.09112794 L71.5331433,24.1117039 L65.0119769,24.1117039 L57.756328,2.09112794 Z" id="Fill-17"></path>
                        <polygon id="Fill-19" points="81.9989506 24.1107247 87.4143399 24.1107247 87.4143399 7.35008474 81.9989506 7.35008474"></polygon>
                        <path d="M93.2744722,18.9028495 L93.2744722,0.443297541 L98.6898615,0.443297541 L98.6898615,19.1052175 C98.6898615,20.1709135 99.2281577,20.5071055 99.6691714,20.5071055 C99.8783287,20.5071055 100.025874,20.5071055 100.333935,20.4385615 L100.979242,24.1024015 C100.380955,24.3374095 99.4924416,24.5152975 98.2601974,24.5152975 C94.544008,24.5152975 93.2744722,22.2941455 93.2744722,18.9028495" id="Fill-21"></path>
                        <polygon id="Fill-22" points="104.918694 24.1107247 110.335705 24.1107247 110.335705 7.35008474 104.918694 7.35008474"></polygon>
                        <path d="M110.335381,3.16939034 C110.335381,4.67409434 109.122593,5.89483034 107.627686,5.89483034 C106.131158,5.89483034 104.91837,4.67409434 104.91837,3.16939034 C104.91837,1.66468634 106.131158,0.443950341 107.627686,0.443950341 C109.122593,0.443950341 110.335381,1.66468634 110.335381,3.16939034" id="Fill-23"></path>
                        <path d="M87.4143399,3.16939034 C87.4143399,4.67409434 86.2015522,5.89483034 84.7066453,5.89483034 C83.210117,5.89483034 81.9989506,4.67409434 81.9989506,3.16939034 C81.9989506,1.66468634 83.210117,0.443950341 84.7066453,0.443950341 C86.2015522,0.443950341 87.4143399,1.66468634 87.4143399,3.16939034" id="Fill-24"></path>
                    </g>
                    <path d="M62.8214885,62.56 L62.8214885,59.67272 L64.9171145,59.67272 C67.6964198,59.67272 69.4353435,58.2216 69.4353435,55.88784 C69.4353435,53.53912 67.6964198,52.088 64.9171145,52.088 L60.4137481,52.088 L60.4137481,62.56 L62.8214885,62.56 Z M64.7833511,57.698 L62.8214885,57.698 L62.8214885,54.06272 L64.7833511,54.06272 C66.2547481,54.06272 66.9978779,54.73592 66.9978779,55.88784 C66.9978779,57.0248 66.2547481,57.698 64.7833511,57.698 Z M75.6425038,62.56 L76.5639847,60.316 L81.3943282,60.316 L82.3158092,62.56 L84.8424504,62.56 L80.190458,52.088 L77.8124427,52.088 L73.175313,62.56 L75.6425038,62.56 Z M80.6363359,58.47592 L77.3368397,58.47592 L78.9865878,54.46664 L80.6363359,58.47592 Z M92.2534809,62.56 L92.2534809,59.6428 L94.4680076,59.6428 L96.474458,62.56 L99.0605496,62.56 L96.7271221,59.194 C98.0796183,58.61056 98.8673359,57.45864 98.8673359,55.88784 C98.8673359,53.53912 97.1284122,52.088 94.3491069,52.088 L89.8457405,52.088 L89.8457405,62.56 L92.2534809,62.56 Z M94.2153435,57.71296 L92.2534809,57.71296 L92.2534809,54.06272 L94.2153435,54.06272 C95.6867405,54.06272 96.4298702,54.73592 96.4298702,55.88784 C96.4298702,57.0248 95.6867405,57.71296 94.2153435,57.71296 Z M109.10226,62.56 L109.10226,54.06272 L112.431481,54.06272 L112.431481,52.088 L103.365298,52.088 L103.365298,54.06272 L106.694519,54.06272 L106.694519,62.56 L109.10226,62.56 Z M120.020863,62.56 L120.020863,56.202 L125.207908,62.56 L127.184634,62.56 L127.184634,52.088 L124.806618,52.088 L124.806618,58.446 L119.634435,52.088 L117.642847,52.088 L117.642847,62.56 L120.020863,62.56 Z M141.625672,62.56 L141.625672,60.6152 L135.963023,60.6152 L135.963023,58.19168 L140.793366,58.19168 L140.793366,56.30672 L135.963023,56.30672 L135.963023,54.0328 L141.432458,54.0328 L141.432458,52.088 L133.570145,52.088 L133.570145,62.56 L141.625672,62.56 Z M149.869008,62.56 L149.869008,59.6428 L152.083534,59.6428 L154.089985,62.56 L156.676076,62.56 L154.342649,59.194 C155.695145,58.61056 156.482863,57.45864 156.482863,55.88784 C156.482863,53.53912 154.743939,52.088 151.964634,52.088 L147.461267,52.088 L147.461267,62.56 L149.869008,62.56 Z M151.83087,57.71296 L149.869008,57.71296 L149.869008,54.06272 L151.83087,54.06272 C153.302267,54.06272 154.045397,54.73592 154.045397,55.88784 C154.045397,57.0248 153.302267,57.71296 151.83087,57.71296 Z M165.721992,62.73952 C168.694511,62.73952 170.136183,61.24352 170.136183,59.4932 C170.136183,55.64848 164.087107,56.97992 164.087107,55.05008 C164.087107,54.39184 164.637023,53.85328 166.063832,53.85328 C166.985313,53.85328 167.981107,54.12256 168.947176,54.67608 L169.690305,52.836 C168.724237,52.22264 167.386603,51.90848 166.078695,51.90848 C163.121038,51.90848 161.694229,53.38952 161.694229,55.16976 C161.694229,59.05936 167.743305,57.71296 167.743305,59.67272 C167.743305,60.316 167.163664,60.79472 165.736855,60.79472 C164.488397,60.79472 163.180489,60.34592 162.303595,59.70264 L161.486153,61.52776 C162.407634,62.24584 164.072244,62.73952 165.721992,62.73952 Z" id="PARTNERS" fill="#FFFFFF" fill-rule="nonzero"></path>
                </g>
            </g>
        </g>
    </g>
</svg>