<svg xmlns="http://www.w3.org/2000/svg" width="58.965" height="29.413" viewBox="0 0 58.965 29.413"><g opacity="1"><path d="M2311.027,1215.73h8.109a1,1,0,0,1,1.031.647,1.04,1.04,0,0,1-.328,1.114q-3.5,3.482-6.971,6.989-3.16,3.172-6.318,6.345c-.967.973-1.92,1.961-2.9,2.924a1.39,1.39,0,0,1-.665.367.954.954,0,0,1-1.135-.892,3.036,3.036,0,0,1-.007-.327q0-7.98,0-15.958c0-.854.354-1.209,1.206-1.209Z" transform="translate(-2261.254 -1215.704)" fill="#fff"/><path d="M2212.875,1215.725h8.1a.929.929,0,0,1,.959.585,1.036,1.036,0,0,1-.245,1.137q-3.354,3.346-6.687,6.712t-6.679,6.711q-1.428,1.436-2.844,2.885a1.051,1.051,0,0,1-1.184.306,1.028,1.028,0,0,1-.64-1.072q0-5.066,0-10.133,0-2.958,0-5.916A1.1,1.1,0,0,1,2204,1216a1.266,1.266,0,0,1,.7-.258C2207.428,1215.719,2210.152,1215.725,2212.875,1215.725Z" transform="translate(-2183.349 -1215.699)" fill="#fff"/><path d="M2123.683,1224.84q0,4.071,0,8.142a.927.927,0,0,1-.595.985,1.014,1.014,0,0,1-1.131-.272q-3.083-3.113-6.183-6.207c-1.335-1.338-2.677-2.669-4.01-4.007q-3.031-3.04-6.052-6.09a.955.955,0,0,1-.339-.986,1.008,1.008,0,0,1,1.018-.8c.12,0,.24-.005.359-.005h15.66c.13,0,.26.012.39.025a.9.9,0,0,1,.882.971Q2123.684,1220.72,2123.683,1224.84Z" transform="translate(-2105.334 -1215.604)" fill="#fff"/><path d="M2207.1,1325.813c-.347.671-.675,1.3-1,1.937-.3.58-.595,1.161-.886,1.745a.379.379,0,0,1-.4.252c-.288-.018-.578,0-.867,0-.192,0-.3-.055-.3-.28q.009-3.382,0-6.765c0-.206.06-.3.279-.291.377.012.755,0,1.181,0v4.294l.074.012.9-1.818c.16-.321.3-.651.488-.958a.545.545,0,0,1,.34-.207.8.8,0,0,1,.988.6c.322.8.745,1.56,1.17,2.427a1.9,1.9,0,0,0,.067-.309c0-1.241-.008-2.483-.023-3.724,0-.239.07-.336.318-.319a6.449,6.449,0,0,0,.816,0c.23-.013.3.075.3.3-.01.741,0,1.481,0,2.222,0,1.471-.006,2.941,0,4.412,0,.286-.07.4-.384.4-1.042-.006-1.036,0-1.5-.921-.471-.943-.957-1.879-1.438-2.817C2207.2,1325.955,2207.163,1325.907,2207.1,1325.813Z" transform="translate(-2183.34 -1300.349)" fill="#fff"/><path d="M2369.529,1322.34v7.339c-.381,0-.753.014-1.124-.01-.09-.006-.194-.124-.253-.216q-1.235-1.934-2.46-3.875a.61.61,0,0,0-.241-.233v.4c0,1.177-.006,2.354,0,3.53,0,.3-.063.453-.407.4a3.042,3.042,0,0,0-.707,0c-.254.021-.319-.092-.318-.323.007-1.068,0-2.135,0-3.2,0-1.166.006-2.332,0-3.5,0-.243.075-.3.314-.323a1.229,1.229,0,0,1,1.4.716c.623,1.154,1.367,2.243,2.063,3.358.076.122.166.235.306.432v-.639c0-1.155.006-2.31,0-3.465,0-.283.064-.425.384-.4S2369.159,1322.34,2369.529,1322.34Z" transform="translate(-2310.59 -1300.273)" fill="#fff"/><path d="M2301.824,1326.048c0-1.1.008-2.2,0-3.3,0-.258.073-.34.332-.336.8.015,1.611,0,2.416.006a2.361,2.361,0,0,1,2.551,2.084,7.746,7.746,0,0,1-.042,3.31,2.354,2.354,0,0,1-2.536,1.93c-.8,0-1.6-.007-2.406.013-.252.006-.316-.071-.314-.311C2301.83,1328.313,2301.824,1327.18,2301.824,1326.048Zm1.5-2.393c0,1.61,0,3.121.009,4.632a.3.3,0,0,0,.207.2,8.663,8.663,0,0,0,1.139-.036.978.978,0,0,0,.906-.771,7.658,7.658,0,0,0,.035-3.094.91.91,0,0,0-.707-.812C2304.4,1323.69,2303.88,1323.693,2303.321,1323.655Z" transform="translate(-2261.235 -1300.351)" fill="#fff"/><path d="M2335.01,1329.737c-.735,0-.735,0-.952-.724-.2-.66-.2-.659-.88-.662-.484,0-.967,0-1.45-.014a.343.343,0,0,0-.4.289c-.068.273-.19.533-.259.806a.356.356,0,0,1-.394.3c-.354,0-.709,0-1.063.007-.192.005-.234-.074-.176-.24q.634-1.827,1.27-3.654c.368-1.055.746-2.107,1.1-3.165a.346.346,0,0,1,.4-.278,5.281,5.281,0,0,0,.784,0,.391.391,0,0,1,.467.323c.462,1.369.941,2.733,1.415,4.1.3.85.588,1.7.895,2.549.095.263.015.368-.25.368Zm-1.581-2.671-.757-2.382-.095,0-.757,2.38Z" transform="translate(-2283.128 -1300.337)" fill="#fff"/><path d="M2240.475,1329.741c.066-.229.114-.424.179-.612q1.116-3.215,2.234-6.429c.07-.2.169-.313.4-.288a3.49,3.49,0,0,0,.392,0c.761,0,.76,0,1.006.711q1.091,3.151,2.188,6.3c.088.252.052.332-.224.318-.342-.017-.687.019-1.028-.009a.448.448,0,0,1-.313-.229,9.147,9.147,0,0,1-.307-.925.282.282,0,0,0-.327-.229q-.949.025-1.9,0a.313.313,0,0,0-.363.275,9.036,9.036,0,0,1-.314.924.32.32,0,0,1-.22.179C2241.426,1329.75,2240.978,1329.741,2240.475,1329.741Zm3.286-5.038-.1-.012c-.249.784-.5,1.569-.75,2.365h1.595Z" transform="translate(-2212.561 -1300.347)" fill="#fff"/><path d="M2275.123,1328.451c.932,0,1.781.011,2.63-.006.284-.006.394.07.369.364s-.005.562-.005.868c-.141.009-.246.022-.35.022-1.4,0-2.8-.007-4.2,0-.293,0-.367-.083-.4-.383a2.588,2.588,0,0,1,.609-1.637c.734-1.281,1.485-2.554,2.228-3.83.025-.044.04-.1.079-.19-.144-.01-.258-.025-.371-.025-.741,0-1.482-.009-2.222,0-.242,0-.336-.077-.314-.321.026-.3-.081-.713.077-.873s.57-.075.87-.077c1.188-.005,2.375.006,3.563-.007.276,0,.321.1.355.356.1.756-.4,1.265-.719,1.84-.67,1.2-1.376,2.39-2.066,3.585A2.772,2.772,0,0,0,2275.123,1328.451Z" transform="translate(-2238.485 -1300.301)" fill="#fff"/></g></svg>