<svg xmlns="http://www.w3.org/2000/svg" width="86.15" height="26.647" viewBox="0 0 86.15 26.647"><g transform="translate(0)" opacity="1"><path d="M2079.29,386.076l1.734.826a21.711,21.711,0,0,0-.017-2.508,6.166,6.166,0,0,1,1.026-3.683,20.212,20.212,0,0,1,4.206-5.05c.364-.355.739-.7,1.151-1.089.219.725.417,1.385.625,2.075a.815.815,0,0,0,.594-.683c.271-1.159.574-2.31.875-3.5,1.75.974,3.472,1.815,5.058,2.862a11.621,11.621,0,0,1,2.267,2.282c.662.78,1.249,1.19,2.34.644,1-.5,1.056-.367,1.532.644.908,1.93,1.837,3.851,2.732,5.787a1.539,1.539,0,0,1,.092.818c-.2,1.435-.435,2.866-.659,4.3-.046.3-.1.6-.171.975l1.619-.33c-.547,1.345-1.173,2.69-1.637,4.088a2.924,2.924,0,0,1-2.09,2.045c-2.223.72-4.393,1.608-6.586,2.425a1.068,1.068,0,0,1-.388.11c-1.45-.068-2.909-.072-4.346-.253a16.023,16.023,0,0,1-2.8-.77c-1.057-.338-2.1-.721-3.146-1.094a.834.834,0,0,1-.421-.254q-.981-1.558-1.923-3.14a10.358,10.358,0,0,1-1-3.679c-.21-1.192-.435-2.383-.651-3.574C2079.294,386.264,2079.3,386.183,2079.29,386.076Zm14.65,10.144c.094-.779.242-1.538.267-2.3.062-1.861.079-3.723.084-5.585,0-.377.115-.6.475-.642.574-.061,1.15-.094,1.728-.117.914-.036,1.829-.054,2.814-.082v-4.843l-14.947.182v5.021h5.145c.13,2.778.261,5.549.393,8.365Z" transform="translate(-2079.29 -372.46)" fill="#fff"/><path d="M2298.416,455.777c.129,1.229.255,2.426.389,3.7l-2-.106c-.126-3.034-.25-6.028-.374-9.033.583-.125,1.061-.248,1.546-.326.374-.061.589.127.7.5.319,1.115.688,2.217.99,3.336.132.484.377.577.871.415-.077-.873-.152-1.752-.235-2.631-.043-.457-.12-.912-.138-1.37,0-.1.17-.218.268-.322.017-.017.066,0,.1,0,1.621-.109,1.722-.011,1.731,1.575q.021,3.793.063,7.586c0,.281-.108.353-.361.353-.478,0-.959.053-1.434.015a.63.63,0,0,1-.435-.368c-.265-.846-.5-1.7-.715-2.562C2299.257,456.038,2299.064,455.672,2298.416,455.777Z" transform="translate(-2257.36 -435.969)" fill="#fff"/><path d="M2530.8,458.922c-.5.059-.923.117-1.348.157a.708.708,0,0,1-.839-.555c-.213-.645-.521-1.26-.78-1.89a.7.7,0,0,0-.854-.462c0,.475.006.95,0,1.424a5.211,5.211,0,0,1-.061.612c-.118.871-.13.884-.994.912-.34.011-.681,0-1.093,0v-9.472h2.2c-.059,1.156-.118,2.335-.179,3.522a.978.978,0,0,0,1.121-.864,13.28,13.28,0,0,0,.235-2.178c.017-.368.1-.518.489-.518.628,0,1.255-.05,1.909-.08a5.416,5.416,0,0,1-1.729,4.942C2529.922,455.776,2530.911,457.1,2530.8,458.922Z" transform="translate(-2444.66 -435.664)" fill="#fff"/><path d="M2231.262,460.014c-.656-.086-1.25-.144-1.834-.257-.113-.022-.253-.25-.262-.391a16.292,16.292,0,0,1-.037-1.894.958.958,0,0,0-.672-1.038,1.94,1.94,0,0,0-.287,1.333,19.739,19.739,0,0,1,.192,2.271h-2.137c-.111-3.213-.222-6.443-.336-9.733h2.107c.032,1.113.076,2.25.094,3.386.015.967,0,.967,1.05,1v-4.021h2.124Z" transform="translate(-2199.509 -436.298)" fill="#fff"/><path d="M2435.4,453.641c.59.159.867-.068.976-.544.206-.9.425-1.788.6-2.689.056-.291.136-.421.445-.409.475.019.95,0,1.469,0a5.838,5.838,0,0,1-.792,3.794c-.629.862-.877,1.558-.089,2.526a7.519,7.519,0,0,1,1.142,3.2c-.654,0-1.252.019-1.846-.017-.116-.007-.275-.209-.32-.351a5.986,5.986,0,0,0-1.2-2.515c-.045-.047-.1-.081-.3-.233-.021.855-.086,1.592-.042,2.322.031.512-.12.74-.623.8-.367.045-.726.16-1.16.26-.52-3.193-.2-6.365-.365-9.558h2.271C2435.51,451.372,2435.453,452.5,2435.4,453.641Z" transform="translate(-2369.596 -436.046)" fill="#fff"/><path d="M2265.24,456.411c0-1.05,0-2.1,0-3.159.005-1.5.022-3.006.016-4.509,0-.351.109-.49.471-.469.457.026.916.006,1.448.006,0,.346,0,.716,0,1.085-.022,1.963,0,3.929-.093,5.889a4.83,4.83,0,0,1-.53,1.993,2.554,2.554,0,0,1-2.992.8,2.041,2.041,0,0,1-1.562-2.088c-.032-2.034-.034-4.067-.047-6.1,0-.407,0-.814,0-1.229h2.135c.133,2.7-.2,5.348.134,8.025Z" transform="translate(-2229.084 -434.631)" fill="#fff"/><path d="M2404.143,459.257l-1.6.091c-.2-.844-.389-1.671-.594-2.494-.2-.79-.206-.788-1.115-.774v3.135h-1.543c-.062-1.2-.141-2.349-.176-3.5-.053-1.775-.068-3.55-.118-5.325-.01-.363.078-.53.473-.525.969.013,1.944-.077,2.9.01a2.008,2.008,0,0,1,1.724,1.423,3.829,3.829,0,0,1-.553,4.045,1.012,1.012,0,0,0-.088.75c.18.868.41,1.725.614,2.587C2404.107,458.841,2404.113,459.012,2404.143,459.257Zm-3.295-7.683v2.86a11.447,11.447,0,0,0,1.523-.6c.468-.264.275-.779.192-1.159a4.766,4.766,0,0,0-.529-1.093c-.008-.016-.064-.011-.1-.011Z" transform="translate(-2341.468 -435.913)" fill="#fff"/><path d="M2334.468,449.166a18.493,18.493,0,0,1,2.659.191,3.019,3.019,0,0,1,2.374,2.74c-.025,1.158.05,2.321-.032,3.474a2.843,2.843,0,0,1-2.386,2.814,17.141,17.141,0,0,1-2.272.314c-.493.038-.653-.2-.637-.7q.125-4.042.245-8.085C2334.425,449.7,2334.447,449.483,2334.468,449.166Zm1.763,1.85v6l.121.1a4.49,4.49,0,0,0,.83-.955,6.265,6.265,0,0,0,.3-4.292A1.125,1.125,0,0,0,2336.231,451.016Z" transform="translate(-2288.309 -435.364)" fill="#fff"/><path d="M2491.793,456.354h1.54c0,.462.03.921-.007,1.373a1.375,1.375,0,0,1-1.13,1.351,6.77,6.77,0,0,1-2.108.164,2.2,2.2,0,0,1-1.977-2.411c-.041-1.719.031-3.444.13-5.163a2.657,2.657,0,0,1,2.354-1.973,2.614,2.614,0,0,1,3.07,2.8h-1.745c-.01-.087-.023-.164-.029-.242a.809.809,0,0,0-.81-.866.924.924,0,0,0-1.036.843q-.05,2.378-.029,4.758c0,.579.515.834.864,1.191A2.054,2.054,0,0,0,2491.793,456.354Z" transform="translate(-2414.538 -435.788)" fill="#fff"/><path d="M2371.846,456.806V459h2.481v1.485h-4.441v-9.3h1.692c.735,0,1.47-.015,2.2.013.149.006.395.161.416.28a11.759,11.759,0,0,1,.1,1.336c-.689,0-1.332.018-1.972-.007-.367-.014-.526.079-.508.48.03.643.009,1.289.009,1.963h1.7c0,.443.021.882-.016,1.315-.008.092-.218.23-.342.239C2372.752,456.824,2372.327,456.806,2371.846,456.806Z" transform="translate(-2317.598 -437.008)" fill="#fff"/><path d="M2470.388,448.569l2.125-.387v9.465l-2.125.113Z" transform="translate(-2400.014 -434.557)" fill="#fff"/></g></svg>