<svg xmlns="http://www.w3.org/2000/svg" width="105.491" height="45.563" viewBox="0 0 105.491 45.563"><g transform="translate(0)" opacity="1"><path d="M2342.315,972.164a16.107,16.107,0,1,1-16.157-16.067A16.137,16.137,0,0,1,2342.315,972.164Zm-2.021.112a14.086,14.086,0,1,0-14.15,14.046A14.1,14.1,0,0,0,2340.294,972.276Z" transform="translate(-2242.5 -942.763)" fill="#fff"/><path d="M2331.236,893.291c-.118.244-.241.486-.354.733a10.537,10.537,0,0,0-.869,3.482,17.333,17.333,0,0,0,.273,4.823c.054.281-.042.368-.3.4a16.681,16.681,0,0,0-6.69,2.2c-.3.175-.322.162-.433-.161a18.252,18.252,0,0,0-3.254-5.893,8.853,8.853,0,0,0-2.3-1.935c-.073-.043-.143-.091-.216-.136l0-.084a3.337,3.337,0,0,1,.556-.051,6.585,6.585,0,0,1,3.706,1.546,11,11,0,0,1,2.153,2.422c.048.071.1.137.182.242-.126-.752-.267-1.453-.357-2.159-.2-1.553-.4-3.107-.549-4.665-.1-1.067-.128-2.142-.179-3.214a2.232,2.232,0,0,1,.052-.527.3.3,0,0,1,.143-.192c.035-.017.141.058.181.115.2.282.4.563.57.863a64.545,64.545,0,0,1,3.383,6.9c.228.542.439,1.091.708,1.644.034-.293.066-.587.1-.88a7.487,7.487,0,0,1,1.83-4.309,11.59,11.59,0,0,1,1.332-1.109,1.042,1.042,0,0,1,.259-.112Z" transform="translate(-2248.08 -890.113)" fill="#fff"/><path d="M2135.1,1019.726l-.895,2.564c-.243.7-.495,1.394-.727,2.1a.359.359,0,0,1-.411.286,8.038,8.038,0,0,0-.828,0,.4.4,0,0,1-.449-.321c-.5-1.454-1.016-2.9-1.526-4.352a.915.915,0,0,0-.177-.331c-.046.31-.094.619-.137.929q-.248,1.815-.492,3.63c-.06.438-.064.44-.521.441-.257,0-.513,0-.77,0-.354,0-.377-.026-.322-.375.139-.9.284-1.79.427-2.685q.375-2.363.749-4.727c.07-.441.063-.443.517-.443.227,0,.455.014.68,0a.4.4,0,0,1,.47.328c.6,1.762,1.222,3.519,1.837,5.278.031.089.069.175.133.337.07-.182.114-.288.151-.395q.914-2.625,1.823-5.251c.072-.21.175-.308.4-.3a7.1,7.1,0,0,0,.828,0c.26-.017.369.09.406.342.153,1.043.32,2.083.482,3.124.229,1.469.455,2.938.692,4.406.04.252-.012.374-.29.365-.335-.012-.67-.008-1.006,0-.2,0-.293-.079-.323-.289-.214-1.549-.439-3.1-.66-4.645Z" transform="translate(-2097.057 -990.905)" fill="#fff"/><path d="M2087.789,1016.486c-.333.328-.641.647-.972.939-.054.048-.24.017-.316-.041a4.477,4.477,0,0,0-1.844-.9,2.7,2.7,0,0,0-3.229,2.483,3.407,3.407,0,0,0,.5,2.291,2.715,2.715,0,0,0,3.631.715,3.594,3.594,0,0,0,.68-.563,2.842,2.842,0,0,0,.328-.562l-.061-.089h-.575c-.5,0-1.006-.008-1.509,0-.2,0-.3-.061-.3-.267,0-.316,0-.631-.007-.947,0-.177.083-.244.254-.244q1.879,0,3.757,0c.211,0,.268.1.272.289a4.068,4.068,0,0,1-3.578,4.2,4.415,4.415,0,0,1-4.328-1.744,4.356,4.356,0,0,1-.438-4.52,4.135,4.135,0,0,1,3.55-2.489,5.375,5.375,0,0,1,4.07,1.329A1,1,0,0,1,2087.789,1016.486Z" transform="translate(-2058.601 -989.76)" fill="#fff"/><path d="M2038.556,1024.431c.136-.356.242-.64.353-.922q1.41-3.573,2.817-7.148c.088-.223.195-.337.45-.317a7.638,7.638,0,0,0,.886,0,.321.321,0,0,1,.35.241q1.588,3.932,3.186,7.859c.029.071.045.147.087.288h-.9c-.9,0-.9,0-1.243-.844-.333-.822-.333-.822-1.23-.822-.661,0-1.321.011-1.981-.006a.431.431,0,0,0-.479.331c-.136.38-.292.753-.456,1.122-.038.086-.137.2-.211.205C2039.666,1024.44,2039.146,1024.431,2038.556,1024.431Zm5.083-3.317c-.373-.98-.735-1.93-1.1-2.885l-1.048,2.885Z" transform="translate(-2025.827 -990.595)" fill="#fff"/><path d="M2189.478,1024.436c-.576,0-1.116.01-1.654-.01-.08,0-.187-.131-.228-.224-.173-.387-.332-.779-.483-1.176a.343.343,0,0,0-.373-.255c-.9.009-1.793.008-2.69,0a.326.326,0,0,0-.354.239c-.154.405-.317.807-.495,1.2-.041.092-.151.212-.234.215-.509.02-1.02.01-1.58.01.039-.139.058-.24.1-.334q1.526-3.877,3.052-7.755a.383.383,0,0,1,.433-.3,8.764,8.764,0,0,0,.886,0,.326.326,0,0,1,.359.232q1.59,3.931,3.187,7.86A2.937,2.937,0,0,1,2189.478,1024.436Zm-5.176-3.316h2.151c-.373-.976-.736-1.926-1.1-2.887Z" transform="translate(-2139.796 -990.6)" fill="#fff"/><path d="M2010.348,1021.135l1.959,3.616a3.078,3.078,0,0,1-.308.038c-.395,0-.79-.018-1.183.008a.513.513,0,0,1-.557-.357c-.437-.883-.9-1.756-1.364-2.623a1.987,1.987,0,0,0-.387-.394,2.79,2.79,0,0,0-.1.512q-.016,1.227,0,2.455c0,.249-.092.335-.329.326-.276-.011-.552-.007-.828,0-.208.005-.3-.073-.3-.294q.007-3.83,0-7.66c0-.16.041-.278.226-.272.954.029,1.915,0,2.86.1,2.012.225,2.325,2.617,1.441,3.782a1.541,1.541,0,0,1-.387.356C2010.859,1020.878,2010.608,1020.995,2010.348,1021.135Zm-1.947-2.262c0,.226-.012.453.006.678.006.077.081.211.131.214a2.3,2.3,0,0,0,1.378-.192.761.761,0,0,0,.41-.729.784.784,0,0,0-.469-.693,2.424,2.424,0,0,0-1.3-.155c-.054,0-.142.126-.148.2C2008.39,1018.419,2008.4,1018.646,2008.4,1018.872Z" transform="translate(-2000.606 -990.95)" fill="#fff"/><path d="M2269.037,1014.881a4.409,4.409,0,0,1,3.417,1.407c.294.309.29.326-.025.6-.187.16-.378.317-.558.486-.133.125-.221.136-.358-.016a3.092,3.092,0,0,0-2.957-.96,2.634,2.634,0,0,0-2.18,2.4,3.973,3.973,0,0,0,.18,1.779,2.608,2.608,0,0,0,3.286,1.612,3.523,3.523,0,0,0,1.634-1.024c.152-.168.256-.164.4,0,.206.225.423.442.65.646.162.145.159.26.021.42a4.313,4.313,0,0,1-2.652,1.488,4.447,4.447,0,0,1-4.69-6.662A4.373,4.373,0,0,1,2269.037,1014.881Z" transform="translate(-2206.201 -989.666)" fill="#fff"/><path d="M1975.571,1020.546c0-1.243.007-2.485-.005-3.728,0-.281.078-.391.367-.377.9.042,1.815.015,2.713.113a1.982,1.982,0,0,1,1.824,1.677,2.432,2.432,0,0,1-.849,2.573,2.872,2.872,0,0,1-1.613.505c-.186.02-.373.042-.559.047-.453.013-.429.011-.429.491,0,.818-.009,1.637,0,2.455,0,.284-.1.393-.38.376-.256-.016-.513-.011-.769,0-.228.008-.309-.083-.308-.314C1975.576,1023.09,1975.572,1021.818,1975.571,1020.546Zm1.453-1.721c0,.227-.011.454.006.68.006.079.078.218.126.22a2.005,2.005,0,0,0,1.523-.3.724.724,0,0,0,0-1.153,1.862,1.862,0,0,0-.924-.314c-.861-.031-.713-.134-.73.688C1977.023,1018.707,1977.024,1018.766,1977.025,1018.825Z" transform="translate(-1975.566 -990.912)" fill="#fff"/><path d="M2223.551,1021.123c0,1.005-.009,2.01,0,3.015,0,.286-.094.385-.375.368a8.017,8.017,0,0,0-.975,0c-.278.017-.35-.1-.349-.359.009-1.981,0-3.961,0-5.942,0-.446,0-.446-.451-.446-.305,0-.611,0-.916,0-.165,0-.267-.047-.267-.229,0-.394-.013-.789.011-1.182a.324.324,0,0,1,.234-.21c1.478-.013,2.957-.009,4.434-.01.169,0,.255.063.252.244-.006.384-.007.769,0,1.153,0,.186-.09.236-.256.233-.355,0-.71.008-1.064,0-.219-.008-.292.076-.291.293C2223.555,1019.074,2223.551,1020.1,2223.551,1021.123Z" transform="translate(-2170.784 -990.665)" fill="#fff"/><path d="M2251.481,1020.765c0,1.281-.007,2.563,0,3.844,0,.275-.089.364-.356.349-.344-.018-.69-.015-1.035,0-.223.009-.3-.088-.3-.3,0-.364,0-.729,0-1.094q0-3.252,0-6.5c0-.441,0-.441.442-.442.315,0,.632.014.946,0,.24-.015.3.079.3.3C2251.477,1018.2,2251.481,1019.484,2251.481,1020.765Z" transform="translate(-2194.383 -991.052)" fill="#fff"/><path d="M2485.332,1019.282c-.122.348-.248.7-.365,1.046-.057.17-.123.3-.342.3s-.279-.132-.336-.3c-.125-.373-.261-.743-.412-1.169-.062.432-.124.81-.167,1.19-.025.232-.154.315-.357.267-.072-.017-.179-.135-.171-.194q.148-1.067.338-2.127a.3.3,0,0,1,.24-.174.425.425,0,0,1,.317.169c.143.323.243.665.36,1l.191.546c.183-.524.345-.964.489-1.41.068-.21.15-.34.407-.324.278.017.24.229.267.383.106.611.193,1.224.29,1.836.023.146.045.285-.165.3-.178.013-.341.008-.37-.228-.038-.313-.084-.624-.128-.936-.008-.055-.023-.109-.035-.163Z" transform="translate(-2380.604 -992.233)" fill="#fff"/><path d="M2475.446,1019.405c0-.236,0-.472,0-.708,0-.161-.041-.272-.229-.263-.221.01-.252-.128-.252-.308,0-.2.108-.251.282-.248.334,0,.668.005,1,0,.184,0,.271.069.272.259s-.047.313-.262.3-.261.1-.258.29c.007.482,0,.963,0,1.445,0,.187-.04.292-.259.292s-.309-.071-.3-.288c.008-.255,0-.511,0-.767Z" transform="translate(-2374.05 -992.059)" fill="#fff"/><path d="M2391.27,981.249a6.811,6.811,0,0,1-5.183-2.2,3.144,3.144,0,0,1-.888-3.172,2.656,2.656,0,0,1,1.749-1.717,6.518,6.518,0,0,1,7,2.163,3.009,3.009,0,0,1,.548,3.128,2.766,2.766,0,0,1-1.852,1.534A10.062,10.062,0,0,1,2391.27,981.249Z" transform="translate(-2302.312 -956.912)" fill="#fff"/><path d="M2393.036,1024.432c-.6,0-1.145.008-1.684-.009-.073,0-.171-.12-.209-.206-.172-.387-.335-.779-.484-1.175a.36.36,0,0,0-.389-.276q-1.33.016-2.662,0a.36.36,0,0,0-.391.274c-.148.4-.311.788-.483,1.175-.038.086-.137.2-.211.206-.52.018-1.039.009-1.606.009.062-.189.1-.337.157-.479q1.492-3.8,2.982-7.594a.4.4,0,0,1,.453-.312,5.058,5.058,0,0,0,.8,0,.418.418,0,0,1,.479.319c.675,1.693,1.365,3.381,2.051,5.07.337.831.677,1.661,1.014,2.492C2392.909,1024.07,2392.958,1024.217,2393.036,1024.432Zm-4.161-6.205-1.043,2.886h2.144Z" transform="translate(-2302.195 -990.596)" fill="#fff"/><path d="M2331.684,1021.1c0-1.252.007-2.5-.006-3.757,0-.29.1-.377.375-.368.857.028,1.716,0,2.57.065a2.038,2.038,0,0,1,1.916,1.3,2.481,2.481,0,0,1-.328,2.622,2.354,2.354,0,0,1-1.527.77,7.169,7.169,0,0,1-1.061.063c-.23,0-.31.072-.308.306.01.917-.007,1.834.007,2.751,0,.291-.1.385-.379.369s-.572,0-.857,0c-.4,0-.4,0-.4-.421Zm1.637-1.725c0,.227,0,.453,0,.68,0,.162.061.241.227.228a5.9,5.9,0,0,0,.823-.072.9.9,0,0,0,.773-.682.766.766,0,0,0-.353-.814,1.9,1.9,0,0,0-1.339-.214c-.046,0-.117.124-.123.194C2333.312,1018.924,2333.322,1019.152,2333.321,1019.378Z" transform="translate(-2259.716 -991.341)" fill="#fff"/><path d="M2418.974,1016.745c.528,0,.979-.014,1.427.012.09.005.2.148.252.251.471.866.931,1.737,1.395,2.606.045.085.1.168.174.3.067-.115.116-.191.158-.271.469-.878.943-1.753,1.4-2.636a.441.441,0,0,1,.462-.278c.382.015.764,0,1.209,0-.065.16-.1.267-.15.363-.672,1.227-1.338,2.458-2.027,3.675a2.211,2.211,0,0,0-.318,1.2c.026.847.008,1.7.008,2.543,0,.464,0,.464-.479.465-.148,0-.3,0-.443,0-.64,0-.578.056-.579-.564,0-.9.009-1.794-.008-2.69a1.4,1.4,0,0,0-.15-.615c-.7-1.323-1.422-2.636-2.135-3.953C2419.112,1017.049,2419.063,1016.933,2418.974,1016.745Z" transform="translate(-2329.372 -991.144)" fill="#fff"/><path d="M2360.989,1021.1c0-1.252.007-2.5-.006-3.757,0-.284.087-.39.372-.373a8.912,8.912,0,0,0,.976,0c.271-.014.356.088.355.358-.009,1.923-.007,3.846,0,5.768,0,.63-.071.561.573.565.464,0,.927.007,1.39,0,.218,0,.3.083.291.3-.012.335-.008.671,0,1.006,0,.181-.052.271-.251.27q-1.715-.008-3.431,0c-.245,0-.265-.132-.264-.32C2360.991,1023.647,2360.989,1022.375,2360.989,1021.1Z" transform="translate(-2283.099 -991.336)" fill="#fff"/></g></svg>