<svg xmlns="http://www.w3.org/2000/svg" width="77.376" height="25.505" viewBox="0 0 77.376 25.505"><g opacity="1"><path d="M2162.408,190.336c-.59-.058-1.183-.083-1.776-.1-.807-.02-1.614-.014-2.422.037-.612.038-1.219.09-1.826.175a13.947,13.947,0,0,0-3.553.955,9.5,9.5,0,0,0-4.552,3.988c-.194.337-.4.667-.578,1.013-.56,1.092-1.019,2.229-1.519,3.348-.034.077-.016.11.052.142.15.071.3.149.448.22a11.377,11.377,0,0,0,4.82,1.1c.231,0,.416-.012.6-.02a10.712,10.712,0,0,0,2.262-.347,10.57,10.57,0,0,0,4.794-2.733,11.462,11.462,0,0,0,.936-1.065,10.335,10.335,0,0,0,1.01-1.568,12.4,12.4,0,0,0,1.079-2.92,15.92,15.92,0,0,0,.334-2.086C2162.53,190.392,2162.517,190.346,2162.408,190.336Z" transform="translate(-2146.164 -178.514)" fill="#fff"/><path d="M2147.869,128.391a11.688,11.688,0,0,0,1.564,2.239,9.465,9.465,0,0,0,3.022,2.229,12.852,12.852,0,0,0,2.81.923,17.46,17.46,0,0,0,2.18.319c.369.03.739.062,1.109.078v.007a16.619,16.619,0,0,0,3.946-.206,11.537,11.537,0,0,0-3.041-7.35h0a10.7,10.7,0,0,0-2.861-2.2,9.93,9.93,0,0,0-2.159-.85,9,9,0,0,0-1.548-.291c-.318-.028-.636-.081-.955-.1a10.484,10.484,0,0,0-2.362.169,11.487,11.487,0,0,0-3.2,1.063c-.265.133-.267.136-.148.412C2146.739,126.039,2147.239,127.245,2147.869,128.391Z" transform="translate(-2146.147 -123.185)" fill="#fff"/><path d="M2373.416,217.695c-.072,0-.143-.007-.213-.015a.534.534,0,0,1-.524-.55c0-.052,0-.1,0-.157q0-1.685,0-3.369a3.149,3.149,0,0,0-.2-1.1,1.855,1.855,0,0,0-1.243-1.237,2.754,2.754,0,0,0-2.115.226,3.149,3.149,0,0,0-1.181,1.155c-.01-.052-.016-.075-.018-.1q-.056-.647-.175-1.284c-.02-.11-.062-.122-.158-.113-.266.023-.532.034-.8.051-.432.027-.864.054-1.3.083-.036,0-.1-.022-.1.049a1.177,1.177,0,0,0,.031.42c.029.068.193.014.3.023.028,0,.057,0,.085,0a.832.832,0,0,1,.892.893q0,2.191,0,4.382a.553.553,0,0,1-.566.63,11.044,11.044,0,0,1-1.4,0,.443.443,0,0,1-.464-.513V213.96c0-.876,0-1.751,0-2.627,0-.111-.032-.141-.137-.13-.127.013-.256.015-.384.02l-1.883.063c-.039,0-.094-.019-.094.051a1.324,1.324,0,0,0,.017.49c.033.08.237.012.363.029.009,0,.019,0,.028,0a.775.775,0,0,1,.819.855q0,1.892,0,3.783c0,.2,0,.409,0,.614a.541.541,0,0,1-.564.584c-.433.005-.868.02-1.3-.015-.508-.041-.636-.25-.634-.65.007-1.142,0-2.284,0-3.426a3.174,3.174,0,0,0-.2-1.173,1.747,1.747,0,0,0-1.852-1.269,2.454,2.454,0,0,0-1.781.779,4.291,4.291,0,0,0-.639.808c-.048-.13-.086-.247-.133-.359a1.834,1.834,0,0,0-.851-1.014,2.248,2.248,0,0,0-1.969.013,3.122,3.122,0,0,0-1.2,1.053l-.14.186a13.036,13.036,0,0,0-.185-1.335c-.017-.1-.049-.131-.156-.123-.593.044-1.187.079-1.78.114-.068,0-.1.016-.1.1a2.5,2.5,0,0,1,0,.328c-.006.081.025.113.1.115a.991.991,0,0,1,.114.012c.493.07.712.264.751.671.008.08,0,.161,0,.242v4.382a.518.518,0,0,1-.56.56l-.6.006c-.525,0-.772-.179-.873-.649a1.321,1.321,0,0,1-.023-.269q0-1.9,0-3.8a1.7,1.7,0,0,0-.029-.34,1.79,1.79,0,0,0-1.287-1.375,4.169,4.169,0,0,0-1.891-.14,3.058,3.058,0,0,0-1.9.889,1.4,1.4,0,0,0-.45,1.209.875.875,0,0,0,1.319.6.775.775,0,0,0,.109-1.175c-.253-.313-.223-.489.115-.7.024-.015.049-.03.074-.043a2.221,2.221,0,0,1,1.509-.21,1.391,1.391,0,0,1,1.176,1.431c-.011.223,0,.447,0,.671,0,.265,0,.265-.26.3l-.155.023a9.443,9.443,0,0,0-2.434.632,3.581,3.581,0,0,0-1.44.993,1.591,1.591,0,0,0,.758,2.578,3.326,3.326,0,0,0,.94.148,2.807,2.807,0,0,0,1.958-.6,6.4,6.4,0,0,0,.6-.55c.066-.071.094-.068.128.024a3.711,3.711,0,0,0,.167.392.824.824,0,0,0,.629.463,3.8,3.8,0,0,0,.624.061c1.343,0,2.686,0,4.029,0,.137,0,.171-.043.156-.166s.058-.305-.03-.382-.255-.01-.386-.017c-.544-.027-.719-.176-.712-.661.013-.913.006-1.827,0-2.741a2.686,2.686,0,0,1,.249-1.161,1.669,1.669,0,0,1,1.27-1.09,1.251,1.251,0,0,1,1.5.946,2.64,2.64,0,0,1,.108.716c.005,1.151,0,2.3.006,3.454a.461.461,0,0,1-.278.443.978.978,0,0,1-.441.1c-.138,0-.321-.046-.4.023s-.014.268-.03.408c-.012.105.02.134.129.133,1,0,1.991,0,2.986,0,.142,0,.339.05.414-.023.094-.091.019-.288.032-.438.007-.085-.029-.105-.108-.1q-.214.008-.428,0a.549.549,0,0,1-.608-.625c0-.937,0-1.875,0-2.812a2.554,2.554,0,0,1,.193-.986,2.083,2.083,0,0,1,.651-.951,1.438,1.438,0,0,1,1.879.095,1.518,1.518,0,0,1,.4,1.069c.012,1.223.009,2.446.007,3.668a.5.5,0,0,1-.374.482,1.589,1.589,0,0,1-.38.051c-.13.008-.309-.062-.378.03s-.013.256-.025.388c-.01.115.019.151.144.151,1.224,0,2.448,0,3.672,0h6.615c.331,0,.331,0,.331-.327,0-.225,0-.225-.226-.235-.546-.024-.717-.2-.717-.749q0-1.306,0-2.612a2.72,2.72,0,0,1,.119-.829,1.985,1.985,0,0,1,1.291-1.432,1.48,1.48,0,0,1,2.009,1.065,3.365,3.365,0,0,1,.1.819q0,1.527,0,3.055a.568.568,0,0,1-.565.663c-.123.02-.3-.041-.357.059s-.008.259-.019.392c-.009.107.025.135.133.134.877,0,1.753,0,2.629,0,.347,0,.347,0,.347-.344C2373.618,217.7,2373.618,217.7,2373.416,217.695Zm-26.429-1.171a2.129,2.129,0,0,1-1.971,1.355,1.044,1.044,0,0,1-1.084-.974,1.561,1.561,0,0,1,.942-1.728,6.673,6.673,0,0,1,1.849-.55c.112-.02.225-.034.337-.055.082-.015.121,0,.117.1-.007.2,0,.4,0,.676A2.472,2.472,0,0,1,2346.987,216.524Z" transform="translate(-2308.191 -195.719)" fill="#fff"/><path d="M2267.254,135.175c.113,0,.16-.011.167-.148.051-1.1.112-2.192.173-3.288.006-.082-.021-.1-.092-.095a3.243,3.243,0,0,1-.343,0c-.088-.006-.113.027-.122.11a4.991,4.991,0,0,1-.174.879,2.615,2.615,0,0,1-.929,1.464,2.836,2.836,0,0,1-1.513.488c-.775.055-1.551.015-2.328.024a.937.937,0,0,1-.309-.049.426.426,0,0,1-.313-.427q0-1.991,0-3.982c0-.078.016-.107.1-.106.3.005.6-.013.9.005a1.547,1.547,0,0,1,1.423.973,3.146,3.146,0,0,1,.231,1.052c.022.327.02.328.34.327a.482.482,0,0,1,.071,0c.1.015.131-.022.128-.124-.006-.357,0-.714,0-1.071,0-1.256,0-2.512,0-3.768,0-.109-.023-.155-.14-.142a1.6,1.6,0,0,1-.285,0c-.083-.006-.1.025-.1.1a3.294,3.294,0,0,1-.128.843,1.6,1.6,0,0,1-1.336,1.244,9.213,9.213,0,0,1-1.07.021c-.108,0-.133-.028-.133-.134,0-1.18,0-2.36,0-3.54a.49.49,0,0,1,.529-.525c.267,0,.534,0,.8,0,.776.01,1.552-.027,2.327.023a1.463,1.463,0,0,1,1.433,1.186c.062.24.1.483.144.727.02.116.009.276.08.335s.227.012.344.025.149-.032.14-.149c-.068-.848-.134-1.7-.19-2.544-.009-.136-.044-.169-.179-.169q-4.057.007-8.115,0c-.029,0-.057,0-.085,0-.061,0-.084.02-.083.082,0,.128.005.257,0,.385,0,.076.024.1.1.1.19,0,.381,0,.572,0a.536.536,0,0,1,.6.6q0,4.032,0,8.065a.542.542,0,0,1-.531.614,4.11,4.11,0,0,1-.627.016c-.09,0-.116.027-.11.114a1.5,1.5,0,0,1,0,.3c-.017.131.035.155.157.155,1.414,0,2.829,0,4.243,0S2265.84,135.172,2267.254,135.175Z" transform="translate(-2238.958 -124.474)" fill="#fff"/><path d="M2292.769,196.908c0-.079-.017-.106-.1-.106q-2.071,0-4.143,0c-.087,0-.1.031-.1.106a2.492,2.492,0,0,1,0,.314c-.006.086.019.115.11.113.256-.006.514,0,.771,0a2.029,2.029,0,0,1,.467.043.456.456,0,0,1,.394.427,11.864,11.864,0,0,1-.028,1.5,2.346,2.346,0,0,1-1.334,1.912,3.043,3.043,0,0,1-1.487.267,2.631,2.631,0,0,1-2.091-1.054,4.808,4.808,0,0,1-.885-2.345,11.252,11.252,0,0,1,0-2.843,5.033,5.033,0,0,1,.708-2.087,2.86,2.86,0,0,1,2.986-1.336,3.1,3.1,0,0,1,2.013,1.409,7.729,7.729,0,0,1,.914,2c.038.115.031.278.129.332s.241.008.364.019c.1.009.105-.038.1-.117-.017-.208-.03-.417-.043-.626q-.1-1.693-.209-3.386c-.017-.266-.022-.266-.295-.266a.85.85,0,0,1-.128,0c-.079-.012-.116.025-.152.092-.165.3-.338.6-.5.911-.045.085-.073.086-.142.028-.105-.088-.219-.168-.333-.246a3.963,3.963,0,0,0-3.951-.455,5.682,5.682,0,0,0-3.416,5.429,5.483,5.483,0,0,0,2.092,4.065,4.731,4.731,0,0,0,2.829,1.035,3.357,3.357,0,0,0,2.376-.743,4,4,0,0,0,.9-1.043c.053.034.052.088.064.131q.208.688.409,1.378c.1.332.094.326.443.335.129,0,.155-.033.155-.157-.005-1.342,0-2.683,0-4.025a.494.494,0,0,1,.437-.544,2.3,2.3,0,0,1,.568-.034c.088,0,.118-.025.111-.113A2.447,2.447,0,0,1,2292.769,196.908Z" transform="translate(-2258.576 -179.296)" fill="#fff"/><path d="M2528.78,207.36a6.178,6.178,0,0,0-1.979,1.106c-.053.044-.088.094-.178.035a3.394,3.394,0,0,0-2.088-.542,3.18,3.18,0,0,0-1.467.41,2.2,2.2,0,0,0-.03,3.874c.033.021.086.023.088.08a3.2,3.2,0,0,0-.646.3,1.265,1.265,0,0,0-.649,1.243,1.227,1.227,0,0,0,.752,1.014c.2.106.417.172.628.269-.059.014-.118.027-.177.042a2.407,2.407,0,0,0-1.047.49,1.045,1.045,0,0,0-.135,1.482,2.11,2.11,0,0,0,.982.682,5.7,5.7,0,0,0,2.3.24,4.359,4.359,0,0,0,1.772-.439,2.158,2.158,0,0,0,1.295-1.689,1.576,1.576,0,0,0-.951-1.7,3.345,3.345,0,0,0-1.052-.24c-.689-.062-1.379.006-2.068,0a3.969,3.969,0,0,1-1.049-.062.545.545,0,0,1-.395-.752.709.709,0,0,1,.657-.445,8.327,8.327,0,0,1,1.411-.051,3.273,3.273,0,0,0,2.2-.835,1.764,1.764,0,0,0,.542-.79,2.17,2.17,0,0,0-.347-2.113c-.079-.106-.053-.152.035-.218a4.947,4.947,0,0,1,.865-.521c.3-.139.347-.116.45.192a.9.9,0,0,0,.037.092.832.832,0,0,0,.795.5.8.8,0,0,0,.747-.507.81.81,0,0,0-.2-.916A1.023,1.023,0,0,0,2528.78,207.36Zm-4.5,7.834c.273-.034.549-.045.823-.066a4.808,4.808,0,0,1,1.357.149,1.04,1.04,0,0,1,.843.861.792.792,0,0,1-.168.615,1.759,1.759,0,0,1-.9.638,4.6,4.6,0,0,1-2.666.053,1.675,1.675,0,0,1-.389-.172.94.94,0,0,1-.14-1.6A2.259,2.259,0,0,1,2524.281,215.194Zm1.656-3.559a1.43,1.43,0,0,1-2.476-.217,2.562,2.562,0,0,1-.069-2.052,1.417,1.417,0,0,1,1.429-.93,1.485,1.485,0,0,1,1.354,1.122,2.6,2.6,0,0,1,.08.376c.018.132.019.265.024.342A2.318,2.318,0,0,1,2525.936,211.635Z" transform="translate(-2456.002 -192.598)" fill="#fff"/><path d="M2452.033,131.671c-.006.092.029.11.114.108.318,0,.638,0,.957,0,.118,0,.149.027.148.147,0,1.508,0,3.017,0,4.525a1.7,1.7,0,0,0,.089.589,1.633,1.633,0,0,0,1.443,1.1,2,2,0,0,0,2.188-1.23,3.806,3.806,0,0,0,.272-1.3c.01-.2.01-.2-.183-.2-.312,0-.3,0-.338.315A2.471,2.471,0,0,1,2456.3,137a1,1,0,0,1-1.438.2,1.163,1.163,0,0,1-.358-.928c0-1.447,0-2.893,0-4.34,0-.121.022-.159.153-.158,1.029.006,2.057,0,3.086,0,.076,0,.153,0,.229.006a.763.763,0,0,1,.787.756q.005,2.191,0,4.382a.551.551,0,0,1-.583.568c-.134,0-.267,0-.4,0-.073,0-.1.018-.1.1.006.124.006.248,0,.371,0,.074.021.1.1.1q1.608,0,3.215,0c.082,0,.095-.032.093-.1,0-.124-.006-.248,0-.371,0-.079-.028-.1-.1-.093-.148,0-.3,0-.443,0a.476.476,0,0,1-.517-.529q0-1.449,0-2.9,0-1.47,0-2.941c0-.081,0-.121-.111-.117-.889.032-1.778.064-2.668.077-.871.013-1.743,0-2.614.005-.1,0-.126-.031-.126-.129q.006-1.178,0-2.355c0-.117.054-.272-.025-.339s-.219-.006-.331-.022c-.135-.02-.155.046-.159.157a4.4,4.4,0,0,1-.287,1.447,2.023,2.023,0,0,1-1.289,1.314c-.123.038-.3.016-.358.122S2452.042,131.538,2452.033,131.671Z" transform="translate(-2398.578 -127.351)" fill="#fff"/><path d="M2549.837,150.289c-.473-.019-.664-.2-.668-.665q-.013-1.7,0-3.4a3.052,3.052,0,0,0-.352-1.48,1.681,1.681,0,0,0-.949-.842,2.736,2.736,0,0,0-2.4.265,3.185,3.185,0,0,0-1.044,1.081c-.038-.473-.1-.905-.171-1.336-.021-.119-.048-.182-.2-.17-.607.049-1.215.081-1.822.118-.381.023-.381.025-.335.411.008.07.025.1.1.1.114-.007.228,0,.342,0a.814.814,0,0,1,.844.73,2.18,2.18,0,0,1,0,.3q0,2.162,0,4.324a.486.486,0,0,1-.3.476,1.471,1.471,0,0,1-.271.084c-.122.032-.295-.069-.359.056a.957.957,0,0,0-.012.394.185.185,0,0,1,0,.028c-.009.067.015.091.086.091q1.471,0,2.943,0c.082,0,.095-.032.093-.1,0-.124-.006-.248,0-.371,0-.079-.027-.1-.1-.093a1.506,1.506,0,0,1-.369-.024.5.5,0,0,1-.456-.457,1.352,1.352,0,0,1-.02-.226q0-1.3,0-2.6a2.886,2.886,0,0,1,.115-.859,1.958,1.958,0,0,1,1.436-1.495,1.453,1.453,0,0,1,1.863,1.076,3.2,3.2,0,0,1,.1.832c0,1.028,0,2.055,0,3.083a.562.562,0,0,1-.549.644c-.125.016-.31-.015-.362.054-.065.086-.014.255-.026.387s.031.149.15.148c.89-.005,1.781,0,2.671,0,.283,0,.283,0,.283-.278S2550.111,150.3,2549.837,150.289Z" transform="translate(-2472.735 -140.153)" fill="#fff"/><path d="M2406.712,144.47c.133,0,.266.015.4.029a.751.751,0,0,1,.751.838c-.015.951,0,1.9-.006,2.855a5.531,5.531,0,0,0,.054.853,2.411,2.411,0,0,0,.448,1.17,2.272,2.272,0,0,0,2.772.551,4.734,4.734,0,0,0,1.489-1.225c.049.434.1.843.138,1.253.009.079.032.1.111.1.376-.012.752-.017,1.127-.026.342-.008.685-.021,1.027-.026.075,0,.093-.023.1-.1.013-.436.015-.436-.411-.41a.766.766,0,0,1-.877-.816q0-2.784,0-5.567c0-.125-.035-.146-.149-.139-.636.039-1.272.07-1.909.107-.131.007-.307-.049-.381.041s-.013.265-.024.4c-.006.078.017.105.1.106a2.43,2.43,0,0,1,.62.087.663.663,0,0,1,.528.7c0,.838,0,1.675,0,2.512a2.7,2.7,0,0,1-.085.791,2.111,2.111,0,0,1-1.282,1.519,1.506,1.506,0,0,1-1.7-.321,1.68,1.68,0,0,1-.446-1.241q-.005-2.284,0-4.568c0-.111-.024-.142-.14-.136-.75.043-1.5.08-2.251.115-.077,0-.1.029-.095.1,0,.119.005.238,0,.357C2406.617,144.459,2406.648,144.468,2406.712,144.47Z" transform="translate(-2361.109 -140.208)" fill="#fff"/><path d="M2506.463,150.1a3.265,3.265,0,0,0,4.581-.836,4.017,4.017,0,0,0,.614-2.279,5.345,5.345,0,0,0-.112-1.029,3.3,3.3,0,0,0-2.893-2.633,3.2,3.2,0,0,0-3.214,1.841,4.509,4.509,0,0,0-.3,2.759A3.382,3.382,0,0,0,2506.463,150.1Zm.256-5.019a1.87,1.87,0,0,1,1.007-1.11,1.714,1.714,0,0,1,2.213.921,3.713,3.713,0,0,1,.309,1.281,7.5,7.5,0,0,1-.131,2.339,2.273,2.273,0,0,1-.761,1.305,1.619,1.619,0,0,1-2.366-.381,3.04,3.04,0,0,1-.471-1.271,7.763,7.763,0,0,1-.09-1.218A5.325,5.325,0,0,1,2506.719,145.082Z" transform="translate(-2442.343 -139.794)" fill="#fff"/><path d="M2349.609,148.092a3.262,3.262,0,0,0,2.838,2.584,3.357,3.357,0,0,0,3.217-1.75,4.46,4.46,0,0,0,.422-2.1c-.013-.142-.025-.356-.055-.567a3.443,3.443,0,0,0-1.022-2.068,3.21,3.21,0,0,0-5.143.961A4.465,4.465,0,0,0,2349.609,148.092Zm1.538-3.025a1.8,1.8,0,0,1,1.179-1.171,1.71,1.71,0,0,1,2.052,1,4.2,4.2,0,0,1,.321,1.566,7.007,7.007,0,0,1-.181,2.149,2.223,2.223,0,0,1-.668,1.137,1.612,1.612,0,0,1-2.287-.149,2.809,2.809,0,0,1-.613-1.448,7.8,7.8,0,0,1-.089-1.22A5.24,5.24,0,0,1,2351.146,145.067Z" transform="translate(-2313.948 -139.776)" fill="#fff"/><path d="M2305.946,144.521a2.272,2.272,0,0,1,.009.313c0,.078.026.095.1.1.218.01.436.034.653.055a.743.743,0,0,1,.627.492c.315.69.625,1.382.938,2.074q.886,1.964,1.771,3.929c.037.083.079.12.168.109a.432.432,0,0,1,.128,0c.123.021.179-.031.228-.146q1.237-2.875,2.482-5.745a1.231,1.231,0,0,1,.795-.722c.1-.033.258.015.306-.095s0-.225.013-.338-.04-.145-.153-.144c-.786,0-1.571,0-2.357,0-.126,0-.294-.057-.366.028s-.014.236-.025.359c-.009.1.021.141.128.152a1.712,1.712,0,0,1,.6.171.524.524,0,0,1,.277.756q-.639,1.514-1.277,3.027c-.119.282-.239.564-.37.872-.028-.06-.044-.092-.058-.125q-.8-1.777-1.6-3.555a3.807,3.807,0,0,1-.243-.576.374.374,0,0,1,.317-.516c.111-.025.225-.039.338-.053s.307.04.367-.042.015-.255.024-.388c.005-.082-.023-.1-.1-.1q-1.8,0-3.6,0C2305.978,144.412,2305.937,144.428,2305.946,144.521Z" transform="translate(-2278.025 -140.683)" fill="#fff"/><path d="M2384.722,124.614c-.007.1.018.135.123.131.181-.008.362,0,.543,0a.833.833,0,0,1,.8.488,1.036,1.036,0,0,1,.04.38q0,3.9,0,7.792a.582.582,0,0,1-.621.629c-.129,0-.257,0-.385,0-.062,0-.083.019-.081.081,0,.128,0,.257,0,.385,0,.073.019.1.095.1q1.593,0,3.185,0c.07,0,.1-.013.1-.093-.006-.128-.005-.257,0-.385,0-.07-.022-.089-.09-.087a3.745,3.745,0,0,1-.4,0c-.3-.022-.551-.158-.547-.549.013-1.536.006-3.073.006-4.609,0-1.56,0-3.12,0-4.681,0-.139-.048-.152-.16-.144-.3.02-.6.035-.9.048-.528.024-1.055.045-1.582.067-.082,0-.148.011-.135.125A1.884,1.884,0,0,1,2384.722,124.614Z" transform="translate(-2343.035 -123.894)" fill="#fff"/><path d="M2489.088,127.369a.82.82,0,0,0,.822-.824.849.849,0,0,0-.833-.851.838.838,0,0,0,.011,1.675Z" transform="translate(-2428.475 -125.256)" fill="#fff"/><path d="M2457.537,194.293a.833.833,0,0,0,.836.829.82.82,0,0,0,.839-.806.858.858,0,0,0-.844-.86A.838.838,0,0,0,2457.537,194.293Z" transform="translate(-2403.13 -181.178)" fill="#fff"/></g></svg>