<svg xmlns="http://www.w3.org/2000/svg" width="55.454" height="26.716" viewBox="0 0 55.454 26.716"><g opacity="1"><g transform="translate(0)"><path d="M2131.97,647c.229,0,.382,0,.535,0,1.653.019,3.305.07,4.957.048,1.8-.024,3.6-.082,5.4-.189,1.688-.1,3.373-.251,5.053-.439,1.985-.222,3.972-.454,5.943-.778a58.309,58.309,0,0,0,16.79-4.98,18.047,18.047,0,0,0,4.787-3.267A10.891,10.891,0,0,0,2177,635.47a5.328,5.328,0,0,0,.019-5.92,11.442,11.442,0,0,0-3.427-3.443,31.612,31.612,0,0,0-7.763-3.775c-1.125-.392-2.27-.724-3.406-1.084a.7.7,0,0,1-.289-.147c.7.107,1.4.2,2.091.322a75.308,75.308,0,0,1,9.725,2.242,37.172,37.172,0,0,1,8.3,3.533,13.358,13.358,0,0,1,3.991,3.4,5.135,5.135,0,0,1,.133,6.38,12.236,12.236,0,0,1-3.652,3.3,35.258,35.258,0,0,1-8.425,3.708,69.654,69.654,0,0,1-10.054,2.337c-1.752.277-3.509.538-5.27.749-1.488.178-2.986.277-4.479.407a98.983,98.983,0,0,1-10.091.316c-2.142-.034-4.284-.095-6.422-.219-1.965-.115-3.923-.33-5.885-.5C2132.083,647.078,2132.066,647.06,2131.97,647Z" transform="translate(-2131.97 -621.101)" fill="#fff"/><path d="M2355.008,661.61a4.859,4.859,0,1,1-4.828,4.886A4.885,4.885,0,0,1,2355.008,661.61Z" transform="translate(-2315.061 -655.09)" fill="#fff"/><path d="M2223,667.028h-2.84c.159-.561.3-1.089.466-1.611.016-.054.132-.111.2-.111q2.238,0,4.476.007a.5.5,0,0,1,.123.049c-.046.2-.082.408-.141.607a5.846,5.846,0,0,1-4.083,4.284,5.019,5.019,0,0,1-3.05-.021,3.363,3.363,0,0,1-2.4-2.916,5.736,5.736,0,0,1,2.249-5.311,5.649,5.649,0,0,1,3.939-1.5,4.2,4.2,0,0,1,3.676,2.032l-1.636.949c-.154-.174-.288-.337-.434-.49a2.8,2.8,0,0,0-3.079-.608,4.379,4.379,0,0,0-2.91,4.259,2.316,2.316,0,0,0,2.12,2.081,3.671,3.671,0,0,0,3.283-1.567A.591.591,0,0,0,2223,667.028Z" transform="translate(-2202.226 -654.164)" fill="#fff"/><path d="M2170.445,669.7h3.338c-.176.58-.326,1.1-.5,1.606-.02.06-.149.12-.228.12-1.6.007-3.2.006-4.8,0a.75.75,0,0,1-.152-.04c.027-.12.045-.232.077-.34q1.285-4.394,2.568-8.788a.381.381,0,0,1,.442-.329c1.482.014,2.964.007,4.446.009.1,0,.208.009.368.017-.167.563-.315,1.093-.49,1.613-.021.064-.192.109-.294.11-.906.009-1.812.015-2.719,0a.355.355,0,0,0-.417.317c-.127.5-.284,1-.448,1.559h3.317c-.165.575-.3,1.085-.467,1.585-.024.071-.2.126-.31.127-.9.01-1.792.017-2.687,0a.375.375,0,0,0-.445.323C2170.869,668.273,2170.664,668.943,2170.445,669.7Z" transform="translate(-2162.293 -655.363)" fill="#fff"/><path d="M2286.58,663.755h-1.994c.163-.56.309-1.08.473-1.593a.276.276,0,0,1,.219-.126q2.717-.007,5.435,0a.592.592,0,0,1,.111.039c-.089.336-.168.682-.273,1.019-.25.8-.026.657-.874.671-.33.006-.661.015-.991,0-.236-.014-.329.078-.394.3-.685,2.369-1.386,4.733-2.069,7.1-.076.264-.19.358-.462.346-.455-.021-.911-.006-1.428-.006.383-1.326.749-2.6,1.118-3.869S2286.192,665.09,2286.58,663.755Z" transform="translate(-2259.812 -655.447)" fill="#fff"/></g></g></svg>