<svg xmlns="http://www.w3.org/2000/svg" width="70.077" height="33.555" viewBox="0 0 70.077 33.555"><g transform="translate(0)" opacity="1"><path d="M1685.492,399.5c-.134.128-.195.182-.251.24a14.209,14.209,0,0,1-8.062,4.275c-.424.071-.854.11-1.283.143a.285.285,0,0,1-.227-.148,8.359,8.359,0,0,1-.374-2.143,12.014,12.014,0,0,0,3.67-.75c-.095-.085-.152-.142-.214-.192a10.33,10.33,0,0,0-3.063-1.685c-.178-.062-.24-.125-.177-.314.2-.58.381-1.165.566-1.749.064-.2.164-.243.371-.17a12.825,12.825,0,0,1,4.585,2.79c.177.168.3.185.48.033.629-.528,1.264-1.049,1.9-1.575a1.119,1.119,0,0,0,.149-.167.35.35,0,0,0,.028-.1,10.692,10.692,0,0,1-5.983-3.3,9.832,9.832,0,0,1,1.694-1.634,8.3,8.3,0,0,0,2.907,2.074c.149.064.3.116.531.2a14.935,14.935,0,0,1-.959-3.684c.507-.142,1.013-.287,1.521-.425.127-.035.261-.047.391-.073.361-.073.375-.052.426.324a11.813,11.813,0,0,0,1.209,3.824,1.355,1.355,0,0,0,.126.165,12.065,12.065,0,0,0,1.352-4.333,6.576,6.576,0,0,1,2.313.594c-.127.592-.236,1.2-.394,1.8s-.362,1.163-.562,1.793a8.325,8.325,0,0,0,3.439-2.292l1.695,1.616a10.465,10.465,0,0,1-2.762,2.192,10.914,10.914,0,0,1-3.29,1.157,2.052,2.052,0,0,0,.21.249c.643.537,1.291,1.069,1.934,1.606.158.132.269.112.421-.032a12.711,12.711,0,0,1,4.652-2.819c.062-.021.125-.038.245-.074.179.513.363,1.015.527,1.523.07.218.194.491.12.663-.064.148-.375.192-.58.275a10.567,10.567,0,0,0-2.644,1.529c-.064.051-.124.1-.224.189.111.049.187.089.266.116a11.954,11.954,0,0,0,3.211.626c.132.008.234.013.2.191q-.172.928-.336,1.857c-.035.2-.123.29-.351.272a14.319,14.319,0,0,1-9.249-4.415A1.331,1.331,0,0,1,1685.492,399.5Z" transform="translate(-1650.39 -391.124)" fill="#fff"/><path d="M1687.067,534.352v-8.481a1.755,1.755,0,0,1,.192-.022c.964,0,1.93-.029,2.892.008a4.244,4.244,0,0,1,3.708,2.02,4.2,4.2,0,0,1-2.986,6.379,18.434,18.434,0,0,1-2.511.093C1687.941,534.36,1687.518,534.352,1687.067,534.352Zm1.857-1.671c.378,0,.742,0,1.106,0a2.379,2.379,0,0,0,2.474-2.126,2.529,2.529,0,0,0-.993-2.578,3.986,3.986,0,0,0-2.587-.448Z" transform="translate(-1659.989 -500.962)" fill="#fff"/><path d="M1736.4,531.675v-1.66c.294,0,.575,0,.855,0a2.451,2.451,0,0,0,.445-.036,1.166,1.166,0,0,0,1.036-1.23,1.111,1.111,0,0,0-1.075-1.159c-.65-.058-1.309-.012-1.994-.012v6.784h-1.839v-8.469c.069-.005.125-.014.182-.014,1.2,0,2.394-.012,3.591.006a3.34,3.34,0,0,1,1.951.586,2.559,2.559,0,0,1,1.041,2.256,2.6,2.6,0,0,1-1.657,2.547c-.045.02-.087.044-.157.079l2.06,3.028a9.367,9.367,0,0,0-1.284.011,1.186,1.186,0,0,1-1.36-.727c-.3-.562-.709-1.064-1.048-1.606C1736.972,531.782,1736.805,531.545,1736.4,531.675Z" transform="translate(-1698.113 -500.992)" fill="#fff"/><path d="M1640.649,529.346h2.63v.234c0,.923,0,1.846,0,2.769a.4.4,0,0,1-.1.28,5.19,5.19,0,0,1-5.448.862,3.923,3.923,0,0,1-2.48-3.541,4.261,4.261,0,0,1,1.779-4.02,4.966,4.966,0,0,1,5.944.332l-1.154,1.4a3.488,3.488,0,0,0-1.552-.8,2.718,2.718,0,0,0-1.616,5.12,2.885,2.885,0,0,0,2.7-.19.3.3,0,0,0,.136-.205c.016-.256.006-.514.006-.8h-.845Z" transform="translate(-1617.722 -500.357)" fill="#fff"/><path d="M1590.957,530.73h-.851V529.31h2.634v.72c0,.765,0,1.53,0,2.295a.392.392,0,0,1-.11.275,5.229,5.229,0,0,1-5.453.848,4.128,4.128,0,0,1-2.488-4.052,4.273,4.273,0,0,1,3.644-4.26,4.739,4.739,0,0,1,4.107,1.083l-1.152,1.4c-.141-.1-.266-.2-.392-.289a2.9,2.9,0,0,0-2.024-.548,2.356,2.356,0,0,0-1.983,1.434,2.84,2.84,0,0,0,.865,3.54,2.97,2.97,0,0,0,3.076-.008.274.274,0,0,0,.125-.165C1590.964,531.308,1590.957,531.036,1590.957,530.73Z" transform="translate(-1576.51 -500.318)" fill="#fff"/><path d="M1705.289,452.89c.359-.183.708-.353,1.049-.537a8.172,8.172,0,0,0,.815-.481c.187-.131.268-.053.377.09q1.078,1.42,2.165,2.833c.054.07.113.137.191.231.081-.1.146-.17.2-.246.718-.937,1.438-1.872,2.148-2.814.123-.163.209-.2.4-.085.536.315,1.09.6,1.637.9l.208.111c-.052.075-.091.137-.135.2q-1.554,2.03-3.111,4.056a.825.825,0,0,0-.18.547c.009.948,0,1.9.009,2.843,0,.222-.08.3-.287.294q-.908-.008-1.816,0c-.187,0-.263-.068-.261-.267.008-.964,0-1.929.008-2.893a.79.79,0,0,0-.175-.524q-1.562-2.023-3.111-4.056C1705.378,453.025,1705.339,452.962,1705.289,452.89Z" transform="translate(-1674.846 -440.6)" fill="#fff"/><path d="M1825.934,532.347l1.083-1.3c.284.188.543.383.823.541a3.153,3.153,0,0,0,2.252.409.788.788,0,0,0,.711-.8.612.612,0,0,0-.377-.6c-.394-.17-.8-.309-1.21-.447-.5-.169-1.02-.3-1.514-.489a2.066,2.066,0,0,1-1.423-2.02,2.383,2.383,0,0,1,1.151-2.231,3.663,3.663,0,0,1,2.356-.442,4.715,4.715,0,0,1,2.455.945.863.863,0,0,1,.077.063.369.369,0,0,1,.036.063l-.929,1.355c-.209-.124-.409-.252-.618-.363a3.013,3.013,0,0,0-1.957-.426.87.87,0,0,0-.669.426.688.688,0,0,0,.328.967,10.569,10.569,0,0,0,1.145.408c.472.156.961.27,1.419.458a2.179,2.179,0,0,1,1.558,2.316,2.378,2.378,0,0,1-1.8,2.306A5.232,5.232,0,0,1,1825.934,532.347Z" transform="translate(-1773.212 -500.233)" fill="#fff"/><path d="M1778.644,532.37c.217-.54.411-1.032.618-1.519a.245.245,0,0,1,.188-.1c.357-.01.715,0,1.072-.005.08,0,.16-.007.281-.013l-1.125-2.776c-.063.137-.109.226-.147.319-.784,1.929-1.57,3.857-2.345,5.789a.3.3,0,0,1-.342.23c-.53-.013-1.061,0-1.624,0,.181-.431.349-.834.52-1.237q1.495-3.529,2.987-7.059a.341.341,0,0,1,.38-.258c.415.019.831.009,1.246,0a.238.238,0,0,1,.266.161q1.741,4.128,3.491,8.252c.016.037.026.075.047.138-.617,0-1.213.005-1.809-.008-.059,0-.139-.1-.169-.169-.209-.5-.417-.995-.606-1.5a.321.321,0,0,0-.36-.249c-.748.013-1.5.005-2.245.005Z" transform="translate(-1731.864 -500.878)" fill="#fff"/><path d="M1548.76,525.869c-.066.123-.11.21-.158.295q-1.488,2.634-2.972,5.271a.923.923,0,0,0-.11.42c-.011.74-.005,1.479-.005,2.219v.282h-1.835c0-.51-.035-1.011.008-1.5a3.494,3.494,0,0,0-.557-2.182c-.891-1.488-1.711-3.018-2.56-4.531-.043-.077-.082-.157-.141-.27.7,0,1.372-.005,2.041.008.068,0,.156.1.2.18q.911,1.687,1.81,3.38c.034.065.072.128.124.221.054-.09.1-.155.135-.223.607-1.115,1.217-2.229,1.817-3.348a.35.35,0,0,1,.361-.223C1547.513,525.878,1548.111,525.869,1548.76,525.869Z" transform="translate(-1540.43 -500.983)" fill="#fff"/><path d="M1894.343,532.81v1.662h-5.792v-8.464h1.835v.292c0,2.078,0,4.156,0,6.235,0,.217.053.283.276.281,1.13-.011,2.261-.005,3.392-.005Z" transform="translate(-1824.266 -501.1)" fill="#fff"/><path d="M1870.123,534.428v-8.467h1.8v8.467Z" transform="translate(-1809.241 -501.062)" fill="#fff"/></g></svg>