<svg xmlns="http://www.w3.org/2000/svg" width="54.03" height="43.644" viewBox="0 0 54.03 43.644"><g transform="translate(0)" opacity="1"><path d="M1655.784,896.514l1.029-.518a1.418,1.418,0,0,1-.62,1.505c-.426.264-.9.453-1.362.681-.392-.591-.406-1.448-1.309-1.543a1.346,1.346,0,0,0-.321,1.016c.041.412.064.825.114,1.236a3.292,3.292,0,0,1-1.192,3.021c-.178.157-.347.323-.526.49.476.606.932.125,1.478,0a12.532,12.532,0,0,1-.513,1.254c-.157.293-.5.321-.806.333s-.6,0-.911,0a.559.559,0,0,0,.375.661c.357.118.722.215,1.083.32l.364.1a8.359,8.359,0,0,1-.371,1.135.919.919,0,0,1-1.336.306c-.354-.214-.7-.44-1.071-.625a3.036,3.036,0,0,0-2.069-.237c-.043.009-.085.028-.17.057.092.061.152.107.217.145.942.538,1.883,1.08,2.831,1.609.2.113.253.2.126.419-.23.4-.172.709.217.915a1.434,1.434,0,0,1,.748,1.238,2.2,2.2,0,0,1-.391,1.7,1.882,1.882,0,0,0-.319.9c-.12.938-.2,1.881-.285,2.822a.2.2,0,0,0,.077.163c.085-.237.175-.473.255-.712.163-.489.316-.98.48-1.468a5.609,5.609,0,0,1,1.015-1.82,3.147,3.147,0,0,0,.7-1.541,1.379,1.379,0,0,0-.4-1.288.317.317,0,0,1-.079-.271,20.95,20.95,0,0,1,2.506-4.742.24.24,0,0,1,.153-.1l-1.57,5,.07.051,1.563-.568a29.329,29.329,0,0,1-3.037,8.093,2.739,2.739,0,0,0,1.6-.877,10.763,10.763,0,0,0,2.2-4.523,17.293,17.293,0,0,0,.453-3.578c.015-.634.065-1.267.1-1.9a.341.341,0,0,1,.1-.233c.051.171.094.344.156.511a14.662,14.662,0,0,1,.767,4.5,15.087,15.087,0,0,1-.253,2.461,1.109,1.109,0,0,1-.2.42q-1.9,2.964-3.8,5.923c-.043.068-.1.13-.18.245-.068-.279-.115-.509-.182-.732a1.586,1.586,0,0,0-.16-.292c-.082.072-.193.127-.24.217-.42.807-.825,1.622-1.244,2.431-.17.329-.362.646-.544.969l-.085-.026c0-.1,0-.21,0-.315-.012-1-.013-2.005-.043-3.007a.559.559,0,0,0-.731-.567.582.582,0,0,0-.468.631c-.019.552-.014,1.1-.019,1.656,0,.133,0,.267,0,.459-.147-.077-.235-.12-.319-.167-.5-.279-.987-.572-1.494-.833a4.7,4.7,0,0,0-.846-.326,1.282,1.282,0,0,0-1.368.364,3.472,3.472,0,0,1-2.908,1.014,32.591,32.591,0,0,0-3.468.107,3.125,3.125,0,0,1-2.352-.639c-.171-.14-.336-.286-.5-.436a1.477,1.477,0,0,0-1.731-.314c-.634.291-1.247.63-1.869.947l-.379.2c-.017-.167-.03-.29-.041-.414-.038-.439-.048-.883-.124-1.314a1.763,1.763,0,0,0-.312-.7.547.547,0,0,0-.434-.192.565.565,0,0,0-.37.3,1.794,1.794,0,0,0-.089.621c-.037.937-.065,1.875-.1,2.812a.544.544,0,0,1-.086.293c-.048-.088-.1-.174-.144-.264-.52-1.066-1.036-2.134-1.56-3.2a1.576,1.576,0,0,0-.227-.279,2,2,0,0,0-.185.335c-.076.231-.127.47-.208.777-.091-.143-.146-.224-.195-.307-1.208-2.032-2.407-4.069-3.626-6.093a5.79,5.79,0,0,1-.66-3.251,10.805,10.805,0,0,1,1.126-4.4.275.275,0,0,1,.138-.139c0,.093,0,.186,0,.278,0,.81-.038,1.621,0,2.429a12.368,12.368,0,0,0,2.615,7.552,3.577,3.577,0,0,0,1.562.977,24.593,24.593,0,0,1-2.91-8.091l1.336.46-1.419-5.194.057-.03a.828.828,0,0,1,.1.129,37.281,37.281,0,0,0,2.532,4.4c.041.061.074.128.115.189a.77.77,0,0,1,.014,1.059,2.014,2.014,0,0,0-.053,2.338c.161.278.35.54.527.809a11.247,11.247,0,0,1,1.5,3.446,4.672,4.672,0,0,0,.127-1.751,8.555,8.555,0,0,0-.286-1.458,3.888,3.888,0,0,0-.554-1.028,2.07,2.07,0,0,1-.281-1.713,2.863,2.863,0,0,1,.642-1.262,1.336,1.336,0,0,0,.18-.769.385.385,0,0,1,.213-.391c.92-.521,1.835-1.052,2.751-1.58.094-.054.187-.112.3-.182a1.028,1.028,0,0,0-1.028-.206c-.577.2-1.132.47-1.689.727-.216.1-.408.25-.616.367a.943.943,0,0,1-1.378-.506,9.141,9.141,0,0,1-.228-.909c-.051-.213.1-.227.242-.227a2.353,2.353,0,0,0,1.76-.882c-.356-.052-.679-.1-1-.145-1.2-.18-1.181-.324-1.384-1.508,0-.007.008-.016.03-.055.1.023.212.044.321.076.247.073.49.16.739.221a.74.74,0,0,0,.264-.037.712.712,0,0,0-.061-.261,3.731,3.731,0,0,0-.368-.411,4.565,4.565,0,0,1-1.249-4.239,1.969,1.969,0,0,0-.215-1.145,4.392,4.392,0,0,0-.841.64,4.328,4.328,0,0,0-.446.966c-.5-.256-1.014-.477-1.481-.775a1.2,1.2,0,0,1-.466-1.385l.979.487.073-.058a3.625,3.625,0,0,0-.489-.731,4.965,4.965,0,0,1-1.545-3.463,5.261,5.261,0,0,1-.01-1.072,1.328,1.328,0,0,1,1.862-1.088c.223.085.432.2.647.308a17.782,17.782,0,0,0,4.5,1.36c.189.036.382.061.568.11a5.877,5.877,0,0,0,2.57-.026.689.689,0,0,1,.362.026c-.074.044-.144.1-.221.133a6.18,6.18,0,0,1-2.315.68,7.364,7.364,0,0,1-1.4-.107c-.582-.078-1.157-.206-1.739-.285a3.5,3.5,0,0,0-.662.032l-.013.106,2.3,1.07-.021.064-1.465-.349c.054.24.1.442.145.643.1.42.2.841.311,1.258a.925.925,0,0,0,.178.252l.082-.026c-.1.55-.224,1.1-.287,1.651a6.963,6.963,0,0,0-.029,1.37,2.345,2.345,0,0,0,.763,1.463q.989.981,1.984,1.955a4.373,4.373,0,0,0,2.811,1.379c.4.026.8-.013,1.2-.023l.051-.115a5.309,5.309,0,0,0-.813-.692,7,7,0,0,0-1.3-.537,5.094,5.094,0,0,1-2.683-1.934,10.8,10.8,0,0,1-1.119-1.894,4.884,4.884,0,0,1-.2-1.43c-.005-.051.082-.146.14-.159a.222.222,0,0,1,.189.092,7.76,7.76,0,0,1,.388.793,1.387,1.387,0,0,0,1.422.916,8.973,8.973,0,0,1,1.586.161,3.334,3.334,0,0,1,2.355,1.749,8.933,8.933,0,0,0,.907,1.344,5.809,5.809,0,0,0,.876.721l.124-.074c-.059-.353-.1-.71-.183-1.058-.042-.184-.042-.295.15-.4a.389.389,0,0,0,.145-.611,3.381,3.381,0,0,0-.394-.495c-.5-.547-1.015-1.088-1.541-1.649l1.2-.623-.025-.107h-3l-.014-.1a13.623,13.623,0,0,0,2.7-.943,3.141,3.141,0,0,0-1.623-.5c-.634-.026-1.269,0-1.9-.011-.322,0-.644-.021-.963-.055-.086-.009-.163-.1-.245-.155.071-.057.134-.144.215-.166.941-.252,1.9-.459,2.825-.748.832-.259,1.636-.605,2.452-.916a.407.407,0,0,0,.2-.169h-3.878c.038-.053.05-.089.074-.1.652-.32,1.3-.653,1.961-.95a4.958,4.958,0,0,1,2.127-.38c1.379.016,2.76.031,4.137-.018a6.672,6.672,0,0,1,3.08.6c.533.245,1.06.5,1.59.75l-.012.069h-3.822l-.014.081c1.756.947,3.743,1.247,5.6,1.9l-.006.093c-.33.035-.659.084-.989.1-.78.045-1.562.054-2.34.121a2.93,2.93,0,0,0-1.4.521,1.774,1.774,0,0,0,1.184.613c.455.065.912.11,1.368.17a2.125,2.125,0,0,1,.3.084l-.013.081h-3.056l-.035.1,1.175.659c-.538.574-1.073,1.142-1.6,1.714a2.374,2.374,0,0,0-.309.386.4.4,0,0,0,.135.617c.191.116.2.235.148.429a6.658,6.658,0,0,0-.166,1.076,3.88,3.88,0,0,0,1.254-1.039,6.711,6.711,0,0,0,.62-.943,3.365,3.365,0,0,1,2.85-1.9c.465-.053.935-.062,1.4-.105a1.3,1.3,0,0,0,1.139-.91c.128-.319.291-.623.472-1.005a2,2,0,0,1,.1,1.53,6.323,6.323,0,0,1-3.268,3.778c-.517.257-1.076.429-1.6.677a5.174,5.174,0,0,0-.975.645,2.3,2.3,0,0,0,1.457.252,6,6,0,0,0,3.862-2.633,3.628,3.628,0,0,1,.443-.527,3.527,3.527,0,0,0,.867-3.473,3.085,3.085,0,0,0-.291-.59c-.148-.294-.1-.475.212-.588a.369.369,0,0,0,.269-.386c.035-.538.094-1.075.145-1.644l-1.329.506c.231-.395.79-.706,2.344-1.315a3.97,3.97,0,0,0-2.108-.2c-.6.114-1.216.194-1.824.291a2.967,2.967,0,0,1-2.193-.7l.5.049a12.573,12.573,0,0,0,5.749-.915c.618-.235,1.22-.512,1.83-.771a1.705,1.705,0,0,1,1.072-.151,1.308,1.308,0,0,1,1.058,1.22,6.889,6.889,0,0,1-.41,2.764,4.587,4.587,0,0,1-1.084,1.612,6.09,6.09,0,0,0-.573.786Zm-21.342,22.07.095.031c.178-.2.346-.4.536-.588a1.953,1.953,0,0,1,1.254-.626c.285-.016.407.109.416.393.008.257-.024.517.005.771a.509.509,0,0,0,.2.343,5.072,5.072,0,0,0,2.514.73c.689,0,1.373-.081,1.66-.894.194.589.346.763.778.8a4.8,4.8,0,0,0,3.04-.672c.309-.2.512-.406.367-.8a.457.457,0,0,1-.013-.164c.008-.394.192-.559.579-.5a1.824,1.824,0,0,1,.962.443c.313.28.642.541.976.821.02-.056.032-.073.03-.087a.945.945,0,0,0-.035-.133,5.484,5.484,0,0,0-3.858-3.689,12.009,12.009,0,0,0-3.994-.317,6.911,6.911,0,0,0-3.412,1.058,4.475,4.475,0,0,0-1.868,2.217C1634.572,918,1634.518,918.3,1634.442,918.584Zm10.857-9.1,2.59-2.109c-.024-.035-.027-.045-.034-.048-.058-.027-.117-.053-.176-.077a1.41,1.41,0,0,1-.905-1.189c-.026-.191-.028-.386-.063-.575a1,1,0,0,0-.15-.49c-.286-.3-.618-.564-.961-.868a1.058,1.058,0,0,0-.074.239,14.918,14.918,0,0,0,.027,1.535,1.687,1.687,0,0,1-.38,1.382,7.048,7.048,0,0,1-2.869,2.132.962.962,0,0,0-.693.932c-.006.368-.015.736-.012,1.1a.8.8,0,0,0,.557.8c1.161.439,2.322.878,3.486,1.308a1.343,1.343,0,0,0,1.15-.059c.419-.229.843-.454,1.236-.723a2.653,2.653,0,0,0,.456-.558,6.474,6.474,0,0,1-2.366-.539c.91-.3,1.928-.234,2.385-1.278-.883.218-1.719.428-2.558.628a.785.785,0,0,1-.272-.037c.042-.081.062-.193.128-.238.336-.224.691-.421,1.025-.647a7.833,7.833,0,0,0,.968-.722,1.56,1.56,0,0,0,.454-1.168C1647.354,908.88,1646.643,909.839,1645.3,909.483Zm-8.535.046c-.11.017-.207.038-.3.046a2.011,2.011,0,0,1-1.37-.415c-.341-.25-.666-.521-1-.779-.089-.069-.19-.122-.353-.227a2.129,2.129,0,0,0,.7,1.3,11.3,11.3,0,0,0,1.007.719c.3.206.623.391.924.6.075.052.108.164.16.248a1.357,1.357,0,0,1-.3.018c-.163-.026-.321-.078-.481-.118l-2.126-.529a1.855,1.855,0,0,0,1.4.984c.425.08.854.134,1.273.235a3.654,3.654,0,0,1,.625.279l-.011.126a3.123,3.123,0,0,1-.8.249,11.562,11.562,0,0,1-1.477-.079,1.076,1.076,0,0,0-.9.175,2.042,2.042,0,0,0,.373.457,6.585,6.585,0,0,0,1.031.579,1.973,1.973,0,0,0,1.455.117c1.208-.416,2.408-.854,3.605-1.3a.758.758,0,0,0,.515-.747c0-.312-.009-.625,0-.938.019-.74-.134-.963-.838-1.183a5.323,5.323,0,0,1-2.084-1.2,3.149,3.149,0,0,1-1.125-2.981c.06-.34.095-.684.144-1.047a1.135,1.135,0,0,0-1.055.544,1.861,1.861,0,0,0-.255,1.374.794.794,0,0,1-.531,1.063,1.691,1.691,0,0,0-.162.1Zm7.245-4.257c-.317.861-.514,1.063-1.2,1.193a9.669,9.669,0,0,1-3.1.056c-.7-.095-1.316-.328-1.448-1.153,0-.006-.014-.01-.021-.015a.846.846,0,0,0-.446.993.7.7,0,0,0,.618.676,3.016,3.016,0,0,0,.679.108c1.48.006,2.96,0,4.44-.009a1.256,1.256,0,0,0,.352-.06.789.789,0,0,0,.6-.763A2.213,2.213,0,0,0,1644.01,905.271ZM1634,899.559c-.058.091-.167.188-.177.295a3.162,3.162,0,0,0,.01.741.977.977,0,0,0,.869.83,1.107,1.107,0,0,0,.9-.783.341.341,0,0,0-.039-.255A2.724,2.724,0,0,0,1634,899.559Zm14.215.665c0-.039,0-.113-.009-.185-.031-.339-.07-.359-.406-.336a1.731,1.731,0,0,0-1.209.629.636.636,0,0,0,0,.807.576.576,0,0,0,.662.32A1.207,1.207,0,0,0,1648.214,900.224Z" transform="translate(-1614.027 -890.01)" fill="#fff"/><path d="M1744.729,1070.933l-1.957.821c-.061-.117-.109-.213-.16-.307a1.8,1.8,0,0,0-3.009-.272,3.012,3.012,0,0,0-.1,3.484,1.959,1.959,0,0,0,2.335.674,1.374,1.374,0,0,0,.885-1.223h-.937c-.751,0-.751,0-.751-.749,0-.221.006-.442,0-.662-.005-.171.056-.253.238-.252,1.232,0,2.465,0,3.7.01.07,0,.2.119.2.179a5.488,5.488,0,0,1-.5,2.516,3.7,3.7,0,0,1-2.872,2,4.762,4.762,0,0,1-2.337-.214,3.764,3.764,0,0,1-2.446-2.578,4.824,4.824,0,0,1,.063-2.986,3.939,3.939,0,0,1,3.688-2.678,6.435,6.435,0,0,1,1.689.173,3.341,3.341,0,0,1,2.194,1.836C1744.669,1070.765,1744.691,1070.835,1744.729,1070.933Z" transform="translate(-1704.522 -1033.562)" fill="#fff"/><path d="M1638.629,1073.918c0-1.214.006-2.429-.005-3.643,0-.248.064-.335.322-.331.892.014,1.785,0,2.677.007a3.991,3.991,0,0,1,.275,7.974c-1,.036-2.005.006-3.008.021-.24,0-.265-.11-.264-.3C1638.631,1076.4,1638.629,1075.16,1638.629,1073.918Zm2.106.028c0,.524-.008,1.048,0,1.572.014.721-.154.649.667.626a1.976,1.976,0,0,0,2-1.708,3.552,3.552,0,0,0,.025-.8,1.949,1.949,0,0,0-1.565-1.83,8.085,8.085,0,0,0-.848-.075c-.215-.021-.289.064-.285.281C1640.743,1072.659,1640.736,1073.3,1640.735,1073.946Z" transform="translate(-1625.65 -1034.569)" fill="#fff"/><path d="M1820.241,1077.954c-.89,0-1.688.007-2.486-.009-.089,0-.2-.116-.259-.205-.535-.825-1.061-1.656-1.589-2.486a.725.725,0,0,0-.2-.227c0,.09-.013.181-.013.271,0,.781-.008,1.563,0,2.344,0,.235-.061.328-.31.32-.514-.017-1.03-.011-1.545,0-.187,0-.258-.059-.258-.253q.007-3.751,0-7.5c0-.18.065-.241.242-.24,1.094.009,2.189-.013,3.282.021a2.268,2.268,0,0,1,2.312,1.861,2.631,2.631,0,0,1-.336,1.964,2.065,2.065,0,0,1-1.333.886Zm-4.551-5.408v.248c0,.8.077.863.869.665a.852.852,0,0,0,.725-.9.842.842,0,0,0-.739-.911,5.384,5.384,0,0,0-.626-.064c-.162-.016-.235.051-.23.219C1815.7,1072.051,1815.691,1072.3,1815.69,1072.546Z" transform="translate(-1766.211 -1034.584)" fill="#fff"/><path d="M1576.8,1074.692l2.472,3.237c-.147.01-.233.02-.319.021-.662,0-1.324-.007-1.986.005a.453.453,0,0,1-.447-.241c-.509-.82-1.032-1.632-1.551-2.446a.712.712,0,0,0-.229-.242v.282c0,.782-.006,1.563,0,2.345,0,.226-.071.307-.3.3-.506-.014-1.012-.011-1.517,0-.2,0-.292-.045-.292-.274q.011-3.725,0-7.449c0-.2.052-.277.263-.275,1.03.01,2.06,0,3.09.013a3.176,3.176,0,0,1,.6.067,2.44,2.44,0,0,1,1.43,3.926A2.126,2.126,0,0,1,1576.8,1074.692Zm-2.06-2.152c0,.248,0,.5,0,.744,0,.158.048.248.221.231a5.405,5.405,0,0,0,.655-.07.92.92,0,0,0,.013-1.794,5.1,5.1,0,0,0-.682-.072c-.159-.015-.209.072-.206.217C1574.744,1072.043,1574.74,1072.292,1574.74,1072.54Z" transform="translate(-1572.633 -1034.577)" fill="#fff"/><path d="M1609.129,1073.949c0-1.224.005-2.448,0-3.671,0-.241.052-.338.318-.335,1.316.013,2.631.01,3.947,0,.233,0,.3.076.294.3-.015.4-.019.792,0,1.186.013.256-.091.31-.321.306-.616-.012-1.233,0-1.849-.008-.217,0-.3.071-.286.286a5.6,5.6,0,0,1,0,.69c-.016.238.069.328.314.322.57-.013,1.141,0,1.711-.008.241-.005.324.076.313.319-.018.395-.015.791,0,1.187.008.225-.066.309-.3.3-.589-.013-1.178,0-1.766-.007-.2,0-.282.068-.272.271a6.8,6.8,0,0,1,0,.745c-.015.236.06.326.309.319.616-.016,1.233,0,1.849-.009.229,0,.306.071.3.3-.016.413-.012.828,0,1.242.005.195-.068.253-.256.253-1.343-.006-2.686-.008-4.029,0-.234,0-.27-.1-.269-.3C1609.131,1076.414,1609.129,1075.181,1609.129,1073.949Z" transform="translate(-1601.949 -1034.568)" fill="#fff"/><path d="M1784.076,1073.932c0-1.214.007-2.429-.005-3.643,0-.257.057-.351.333-.348q1.945.021,3.892,0c.272,0,.349.085.335.346-.02.376-.018.755,0,1.131.011.239-.062.324-.309.318-.616-.015-1.233,0-1.849-.009-.232,0-.311.078-.3.3a6.563,6.563,0,0,1,0,.717c-.009.2.069.279.272.276.58-.008,1.159.008,1.739-.006.254-.006.337.082.325.334-.019.395-.014.791,0,1.186.007.215-.066.293-.284.289-.589-.011-1.178,0-1.766-.007-.218,0-.3.072-.285.287a5.671,5.671,0,0,1,0,.717c-.017.246.061.34.322.333.616-.018,1.233,0,1.849-.009.217,0,.29.07.283.286q-.021.62,0,1.242c.007.209-.073.267-.273.266q-2-.01-4,0c-.216,0-.284-.068-.282-.285C1784.081,1076.416,1784.076,1075.174,1784.076,1073.932Z" transform="translate(-1742.501 -1034.566)" fill="#fff"/><path d="M1693.577,1074.857q0,1.351,0,2.7c0,.4,0,.4-.413.4h-1.3c-.4,0-.4,0-.4-.386q0-2.717,0-5.434c0-.386,0-.386-.392-.387-.359,0-.717-.005-1.076,0-.172,0-.25-.055-.246-.239.009-.441.007-.883,0-1.324,0-.168.067-.225.229-.225q2.537,0,5.075,0c.169,0,.226.072.224.232,0,.441-.007.883,0,1.324,0,.189-.09.233-.255.231-.386-.005-.773.009-1.158-.005-.225-.008-.3.063-.3.3C1693.584,1072.982,1693.577,1073.92,1693.577,1074.857Z" transform="translate(-1666.73 -1034.587)" fill="#fff"/><path d="M1721.473,1073.941c0-1.223.006-2.445-.005-3.667,0-.247.063-.341.322-.332.5.018,1.011.012,1.516,0,.2,0,.277.056.277.265q-.008,3.736,0,7.472c0,.187-.06.263-.253.26-.533-.009-1.066-.011-1.6,0-.214,0-.261-.087-.26-.28C1721.476,1076.422,1721.473,1075.182,1721.473,1073.941Z" transform="translate(-1692.206 -1034.567)" fill="#fff"/></g></svg>