<svg xmlns="http://www.w3.org/2000/svg" width="94.038" height="25.765" viewBox="0 0 94.038 25.765"><g transform="translate(0)" opacity="1"><path d="M1912.591,156.212c-1.464.024-2.929.011-4.394.007-.2,0-.35.006-.426.253q-1.553,5.01-3.13,10.013c-.082.261-.023.333.245.329.759-.012,1.519,0,2.278,0s1.519-.007,2.278,0a.335.335,0,0,0,.394-.3c.122-.469.283-.929.427-1.393q1.314-4.236,2.631-8.471C1912.989,156.353,1913,156.206,1912.591,156.212Z" transform="translate(-1832.888 -148.634)" fill="#fff"/><path d="M1665.984,171.93q-.812.017-1.624,0a.3.3,0,0,0-.335.264q-.229.817-.493,1.624c-.07.213-.038.3.2.287.27-.013.541,0,.812,0,.244,0,.489-.016.73,0s.357-.071.422-.311c.145-.532.313-1.059.488-1.583C1666.259,172,1666.218,171.925,1665.984,171.93Z" transform="translate(-1640.006 -161.208)" fill="#fff"/><path d="M1965.529,161.239c1.359-3.579,2.262-7.3,3.437-10.938a8.955,8.955,0,0,0,.529-3.383c1.029.031,2.059-.047,3.089.066a3.58,3.58,0,0,1,3.075,3.325,7.182,7.182,0,0,1-.459,2.374c-.423,1.382-.883,2.754-1.255,4.15a5.85,5.85,0,0,1-3.494,3.918,5.49,5.49,0,0,1-2.442.508C1967.184,161.239,1966.356,161.245,1965.529,161.239Z" transform="translate(-1881.625 -141.199)" fill="#fff"/><path d="M1596.314,146.915h-43.131a5.335,5.335,0,0,0-5.123,3.673c-.626,2-1.229,4-1.843,6.008a3.616,3.616,0,0,0-.106,1.808,3.39,3.39,0,0,0,3.57,2.847q21.281,0,42.561,0c.138-.107.124-.264.128-.41a8.1,8.1,0,0,1,.358-2.161c.672-2.234,1.35-4.466,2.053-6.691.494-1.564.893-3.16,1.507-4.685A.424.424,0,0,0,1596.314,146.915Zm-40.541,9.291c-.582-.027-1.167,0-1.749-.008a.341.341,0,0,0-.4.293c-.141.52-.322,1.03-.476,1.547-.069.234-.176.359-.452.344-.473-.025-.949-.014-1.423,0-.268.006-.364-.051-.27-.352q1.236-3.962,2.439-7.934c.073-.243.19-.281.4-.279.692.008,1.383,0,2.075,0v0c.651,0,1.3-.012,1.953,0a1.458,1.458,0,0,1,1.49,1.94c-.22.834-.48,1.659-.766,2.473A3.1,3.1,0,0,1,1555.772,156.206Zm8.735,2.181c-.964,0-1.927,0-2.89,0s-1.927-.007-2.89,0c-.273,0-.312-.062-.23-.324q1.247-3.981,2.468-7.97a.352.352,0,0,1,.4-.292c.488.017.977.018,1.465,0,.321-.012.353.09.262.38-.579,1.855-1.14,3.716-1.707,5.575-.141.462-.142.462.346.463.421,0,.842-.012,1.261,0a.367.367,0,0,0,.432-.314c.145-.52.33-1.029.482-1.547a.346.346,0,0,1,.4-.292c.5.018,1,.011,1.506,0,.23,0,.325.045.241.3q-.608,1.888-1.187,3.786C1564.81,158.381,1564.68,158.388,1564.507,158.388Zm9.986-6.664c-.276,1.072-.632,2.123-.956,3.182s-.662,2.114-.971,3.177a.337.337,0,0,1-.393.3c-.5-.012-1-.01-1.506,0-.252,0-.34-.059-.248-.329.223-.652.412-1.315.632-1.969.09-.268.036-.366-.258-.356-.488.016-.978.019-1.466,0a.4.4,0,0,0-.462.332c-.2.673-.435,1.337-.63,2.012a.365.365,0,0,1-.429.313c-.5-.017-1-.008-1.507,0-.218,0-.286-.064-.215-.294.644-2.077,1.253-4.166,1.925-6.234a3.064,3.064,0,0,1,2.906-2.032c.312,0,.624,0,.936,0v0c.394,0,.788-.012,1.181,0A1.445,1.445,0,0,1,1574.493,151.724Zm8.1-1.522c-.4,1.29-.789,2.585-1.2,3.873a3,3,0,0,1-.974,1.424,2.648,2.648,0,0,1-1.568.693c-.2.01-.268.125-.319.3-.149.519-.326,1.031-.469,1.551-.067.246-.172.357-.446.345-.488-.023-.977-.015-1.465,0-.262.007-.341-.065-.25-.33.165-.486.289-.985.459-1.469.082-.235.05-.333-.2-.389a1.469,1.469,0,0,1-1.211-1.964c.4-1.4.84-2.793,1.262-4.189.043-.143.108-.233.28-.23q.835.012,1.67,0c.35,0,.192.215.151.352-.355,1.19-.71,2.38-1.088,3.563-.1.3-.036.388.27.364.243-.019.489,0,.733,0,1.053,0,1.057,0,1.37-1s.622-1.985.91-2.984a.337.337,0,0,1,.4-.291c.475.011.951.019,1.425,0C1582.674,149.8,1582.68,149.938,1582.6,150.2Zm.662,1.831c.213-.652.4-1.313.6-1.972.041-.14.095-.239.271-.237.743.007,1.485,0,2.27,0-.244.795-.478,1.55-.707,2.307-.051.168-.171.178-.316.178-.635,0-1.271-.006-1.907,0C1583.253,152.314,1583.182,152.269,1583.259,152.033Zm8.879,1.765c-.385,1.476-.866,2.926-1.3,4.389a.254.254,0,0,1-.295.2c-.529-.009-1.059-.018-1.588,0-.306.012-.342-.095-.259-.358.363-1.16.714-2.324,1.068-3.486.042-.138.079-.278.126-.446-.661,0-1.284.006-1.906,0-.237,0-.243.168-.29.318-.376,1.2-.768,2.391-1.118,3.6a.44.44,0,0,1-.536.38c-.474-.024-.95-.01-1.425,0-.2,0-.3-.019-.217-.275.432-1.379.817-2.773,1.269-4.146a3.081,3.081,0,0,1,2.833-2.023q1.079-.015,2.158,0A1.433,1.433,0,0,1,1592.138,153.8Z" transform="translate(-1546.041 -141.197)" fill="#fff"/><path d="M1818.677,124.045c-.011-.066-.026-.133-.032-.2a5.551,5.551,0,0,0-1.976-3.955,6.583,6.583,0,0,0-4.3-1.55c-7.479-.021-14.957-.005-22.436-.014a8.787,8.787,0,0,0-3.656.783,10.646,10.646,0,0,0-5.2,4.935c-.178.451-.38.892-.522,1.358-.852,2.79-1.716,5.576-2.569,8.365a13.928,13.928,0,0,0-.981,4.614,7.228,7.228,0,0,0,.529,2.195,5.7,5.7,0,0,0,5.415,3.484c7.487.057,14.976.017,22.464.02a9.563,9.563,0,0,0,3.819-.792,11.105,11.105,0,0,0,5.478-4.923,2.856,2.856,0,0,0,.641-1.334c1.01-3.189,1.941-6.4,2.927-9.6a11.576,11.576,0,0,0,.554-2.821A.683.683,0,0,0,1818.677,124.045Zm-29.16,17.623a3.933,3.933,0,0,1-.85.066c-1.968,0-3.937.051-5.9-.026a3.58,3.58,0,0,1-3.393-3.5,7.253,7.253,0,0,1,.427-2.344q1.581-5.028,3.17-10.053a7.578,7.578,0,0,1,6.943-5.116c1.575-.008,3.15,0,4.725,0,1.738,0,3.476.009,5.214-.008.344,0,.38.1.283.39-.489,1.49-.974,2.981-1.436,4.479a.434.434,0,0,1-.5.369c-3.19-.01-6.381,0-9.572-.014a.444.444,0,0,0-.51.37q-1.513,4.9-3.053,9.795c-.115.362-.039.437.32.433q2.118-.024,4.236,0c.277,0,.4-.07.478-.351.208-.77.459-1.528.69-2.292.144-.474.142-.475-.37-.475s-1.005-.005-1.507,0c-.267,0-.362-.046-.259-.352.41-1.217.795-2.443,1.177-3.669a.352.352,0,0,1,.408-.281q3.482.013,6.965,0c.272,0,.388.013.28.354-.749,2.371-1.4,4.774-2.224,7.12A7.467,7.467,0,0,1,1789.516,141.668ZM1816.3,125.7c-1.063,3.519-2.046,7.065-3.232,10.543a8.021,8.021,0,0,1-6.571,5.453,2.677,2.677,0,0,1-.488.015c-1.751,0-3.5.007-5.253,0a3.692,3.692,0,0,1-3.715-4.56c.356-1.779,1.011-3.474,1.525-5.209.583-1.969,1.2-3.928,1.811-5.89a7.742,7.742,0,0,1,7.2-5.373c.8-.009,1.6,0,2.4,0v.025c1.018,0,2.037-.036,3.052.008a3.549,3.549,0,0,1,3.373,2.746A4.254,4.254,0,0,1,1816.3,125.7Z" transform="translate(-1730.806 -118.326)" fill="#fff"/><path d="M1589.776,171.812c-.376,0-.849-.155-1.1.065s-.272.677-.381,1.035c-.1.334-.362.815-.232.979.192.243.676.048.971.085,1.083,0,1.083,0,1.389-.984.024-.077.047-.155.07-.232C1590.784,171.809,1590.784,171.8,1589.776,171.812Z" transform="translate(-1579.628 -161.072)" fill="#fff"/></g></svg>