<svg xmlns="http://www.w3.org/2000/svg" width="63.208" height="24.865" viewBox="0 0 63.208 24.865"><g transform="translate(0)" opacity="1"><g transform="translate(0 0)"><path d="M1589.484,1483.467c.173-.11.284-.172.387-.246,1.349-.964,2.691-1.938,4.052-2.886a1.431,1.431,0,0,1,.762-.25c3.534-.016,7.069-.011,10.6-.01.127,0,.254.016.38.024l.042.1-9.91,8.2,9.976,8.375-.029.089c-.124.011-.249.033-.373.033-3.644,0-7.287.006-10.931-.01a1.228,1.228,0,0,1-.715-.259c-1.286-1.047-2.55-2.121-3.822-3.184-.1-.083-.205-.157-.373-.284-.023.207-.05.342-.052.477-.015.944-.035,1.887-.031,2.831,0,.313-.11.452-.421.43-.072-.005-.145,0-.218,0q-8.461.013-16.922.026-11.893.01-23.787,0a6.875,6.875,0,0,1-2.135-.333,5.083,5.083,0,0,1-3.372-4.943c-.027-2.142-.046-4.286.012-6.427a5.042,5.042,0,0,1,2.565-4.555,5.534,5.534,0,0,1,2.73-.638c.775-.008,1.549,0,2.324,0l19.5-.016c.646,0,.648,0,.648.635q0,4.1,0,8.207c0,.564.013.577.563.577q4.794,0,9.587,0c.517,0,.536-.018.536-.531q0-4.122,0-8.243c0-.57,0-.573.56-.573q3.668,0,7.336,0c.493,0,.521.023.518.509,0,.8-.022,1.6-.03,2.4C1589.446,1483.117,1589.468,1483.256,1589.484,1483.467Zm13.406,12.363.044-.1-8.738-7.337,8.675-7.176-.057-.115h-.39c-2.457,0-4.915,0-7.372-.005a1.343,1.343,0,0,0-.836.277q-2.678,1.936-5.371,3.851c-.11.079-.231.143-.423.26,0-.234,0-.376,0-.519.005-1.089.013-2.179.016-3.268,0-.588-.007-.6-.581-.6q-2.6,0-5.193,0c-.574,0-.576,0-.576.595q0,4.085,0,8.17c0,.58,0,.582-.593.582h-11.548c-.608,0-.61,0-.611-.6q0-4.031,0-8.061c0-.133-.006-.266,0-.4.007-.239-.1-.363-.344-.357-.145,0-.29,0-.436,0l-20.663.035c-.169,0-.339,0-.508.017a3.675,3.675,0,0,0-3.428,2.538,5.467,5.467,0,0,0-.327,1.735c-.038,2.093-.037,4.188-.009,6.282a4.135,4.135,0,0,0,4.344,4.275q9.206,0,18.412-.01,10.549-.015,21.1-.045c.157,0,.315,0,.472,0,.452-.009.491-.043.493-.508,0-1.3,0-2.59,0-3.885,0-.146.032-.293.058-.511.186.144.311.234.429.332,1.7,1.421,3.4,2.839,5.092,4.27a1.223,1.223,0,0,0,.854.308c2.53-.01,5.06,0,7.59-.006C1602.606,1495.851,1602.748,1495.837,1602.891,1495.83Z" transform="translate(-1542.569 -1480.002)" fill="#fff"/><path d="M1728.524,1607.45c-.254,0-.508,0-.762,0a.271.271,0,0,1-.318-.3c0-1.306-.007-2.613.013-3.919a.4.4,0,0,1,.287-.27,10.709,10.709,0,0,1,1.736.043,2.24,2.24,0,0,1-.231,4.433c-.241.017-.483,0-.725,0Zm.242-.477a5.8,5.8,0,0,0,.915-.181,1.649,1.649,0,0,0,1-1.858,1.555,1.555,0,0,0-1.329-1.422c-.3-.046-.6-.033-.9-.053s-.41.116-.407.408c.009.785,0,1.57,0,2.355C1728.042,1606.928,1728.043,1606.928,1728.766,1606.972Z" transform="translate(-1696.966 -1582.679)" fill="#fff"/><path d="M1832.156,1607.146a2.328,2.328,0,0,1-.021-4.652,2.327,2.327,0,0,1,.021,4.652Zm1.621-2.309a1.656,1.656,0,0,0-1.243-1.772,1.581,1.581,0,0,0-1.971,1.33,1.76,1.76,0,0,0,1.332,2.216A1.638,1.638,0,0,0,1833.777,1604.837Z" transform="translate(-1782.55 -1582.301)" fill="#fff"/><path d="M1553.281,1606.023a1.889,1.889,0,0,0,1.483.592,1.455,1.455,0,0,0,.584-.165.622.622,0,0,0-.022-1.133,7.189,7.189,0,0,0-.92-.325,5.778,5.778,0,0,1-.746-.277,1.1,1.1,0,0,1-.223-1.821,2.108,2.108,0,0,1,2.581.077.361.361,0,0,1,.017.351.352.352,0,0,1-.341.067,1.81,1.81,0,0,0-1.372-.334.675.675,0,0,0-.643.59c-.042.382.235.531.532.634.388.134.79.228,1.174.373a1.169,1.169,0,0,1,.907,1.309,1.253,1.253,0,0,1-1.137,1.139,2.46,2.46,0,0,1-1.878-.342C1552.882,1606.489,1552.88,1606.381,1553.281,1606.023Z" transform="translate(-1551.264 -1582.298)" fill="#fff"/><path d="M1893.878,1606.025c.108.083.2.16.3.229a1.731,1.731,0,0,0,1.613.287.69.69,0,0,0,.517-.634.622.622,0,0,0-.446-.636c-.233-.1-.48-.163-.72-.245a7.139,7.139,0,0,1-.852-.3,1.1,1.1,0,0,1-.22-1.844,2.126,2.126,0,0,1,2.584.108.326.326,0,0,1,.013.321.409.409,0,0,1-.344.095,7.375,7.375,0,0,0-1.044-.352,1.217,1.217,0,0,0-.769.219.506.506,0,0,0,.074.892,5.287,5.287,0,0,0,.745.277c.318.114.647.2.951.347a1.067,1.067,0,0,1,.633,1.089,1.122,1.122,0,0,1-.682,1.07,2.382,2.382,0,0,1-2.352-.2C1893.493,1606.5,1893.5,1606.4,1893.878,1606.025Z" transform="translate(-1835.726 -1582.299)" fill="#fff"/><path d="M1670.007,1604.666c0,.411.012.823,0,1.234a1.835,1.835,0,0,1-3.646.022c-.025-.87,0-1.741-.008-2.612,0-.212.058-.353.306-.344.231.008.278.151.278.341,0,.834-.009,1.669.008,2.5a1.237,1.237,0,0,0,2.472.023c.018-.75.006-1.5.007-2.25a.755.755,0,0,1,.013-.322c.062-.115.182-.269.282-.273a.385.385,0,0,1,.275.264c.03.47.013.943.013,1.414Z" transform="translate(-1645.942 -1582.695)" fill="#fff"/><path d="M1610.2,1605.453c0-.532-.008-1.064,0-1.6.006-.28-.108-.4-.386-.388a4.392,4.392,0,0,1-.76-.019.336.336,0,0,1-.227-.237.332.332,0,0,1,.225-.239q1.45-.026,2.9,0c.085,0,.168.154.251.237-.092.085-.172.218-.279.245a2.333,2.333,0,0,1-.541.016c-.609,0-.609,0-.61.593,0,1,.006,2.007-.01,3.01a.459.459,0,0,1-.184.36c-.241.088-.384-.037-.381-.312.006-.556,0-1.112,0-1.668Z" transform="translate(-1597.91 -1582.691)" fill="#fff"/><path d="M1789.15,1605.239q0,.926,0,1.852c0,.192-.013.366-.279.372-.284.007-.306-.173-.306-.383q0-1.87,0-3.74c0-.2.023-.366.282-.374.283-.008.3.174.3.385C1789.149,1603.98,1789.15,1604.609,1789.15,1605.239Z" transform="translate(-1748.013 -1582.695)" fill="#fff"/><path d="M1565.231,1492.27h7.335c.488,0,.5.017.506.516q0,1.216,0,2.433c0,.542-.012.553-.546.553h-11.874a4.785,4.785,0,0,0-.508.012.788.788,0,0,0-.7,1.044.389.389,0,0,0,.246.206,1.686,1.686,0,0,0,.433.017h12.31c.606,0,.607,0,.608.6q0,1.162,0,2.324c0,.5-.009.51-.505.51h-12.2a1.582,1.582,0,0,0-.29,0c-.229.043-.573-.153-.617.289a.732.732,0,0,0,.55.858,2.92,2.92,0,0,0,.578.032q5.937,0,11.874,0c.645,0,.646,0,.646.643,0,.811-.007,1.622,0,2.432,0,.312-.089.457-.435.456-4.854-.008-9.707.006-14.561-.012a3.131,3.131,0,0,1-3.225-3.254c-.013-2.13-.019-4.261.009-6.39a4.3,4.3,0,0,1,.272-1.412,2.765,2.765,0,0,1,2.832-1.857C1560.39,1492.265,1562.811,1492.27,1565.231,1492.27Z" transform="translate(-1552.821 -1490.246)" fill="#fff"/><path d="M1805.271,1505.4c-.115.007-.23.021-.346.021-1.61,0-3.22.01-4.83-.01a1.115,1.115,0,0,1-.647-.24c-2.191-1.814-4.368-3.645-6.55-5.47-.1-.083-.2-.159-.375-.292-.02.213-.043.348-.044.483q-.01,2.524-.014,5.047c0,.478,0,.481-.492.482-1.174,0-2.349-.007-3.523.005-.309,0-.426-.091-.425-.413q.013-5.992,0-11.984c0-.292.093-.412.4-.41q1.816.015,3.632,0c.32,0,.419.117.416.428-.015,1.452-.012,2.9-.014,4.357,0,.139.013.278.024.49.181-.12.3-.193.415-.275,2.2-1.579,4.4-3.164,6.619-4.729a1.5,1.5,0,0,1,.8-.256c1.476-.024,2.954-.012,4.431-.011a.789.789,0,0,1,.425.108l-7.481,6.188,7.622,6.4Z" transform="translate(-1747.563 -1490.542)" fill="#fff"/><path d="M1680.891,1505.109h-8.57c-.592,0-.593,0-.593-.571q0-5.9,0-11.8c0-.559,0-.561.564-.562,1.162,0,2.324.012,3.486-.007.371-.006.477.13.475.487-.011,2.711-.005,5.422-.005,8.134,0,.865-.039.776.794.776q6.228,0,12.456,0c.6,0,.6,0,.6.609q0,1.2,0,2.4c0,.52-.016.536-.528.536Z" transform="translate(-1650.436 -1490.162)" fill="#fff"/></g></g></svg>