<svg xmlns="http://www.w3.org/2000/svg" width="114.658" height="28.317" viewBox="0 0 114.658 28.317"><g transform="translate(0)" opacity="1"><path d="M1563.98,1293.8c.684.121,1.374.214,2.051.367a14.155,14.155,0,0,1-1.041,27.771,13.9,13.9,0,0,1-11.18-3.043,14.277,14.277,0,0,1-2.661-2.871.431.431,0,0,1-.037-.559c2.246-3.5,4.371-7.068,6.322-10.74.033-.063.076-.121.155-.248.016.152.031.235.033.319.043,1.545.041,3.094.138,4.637a16.806,16.806,0,0,0,1,5.3,3.922,3.922,0,0,0,1.411,1.9,2.637,2.637,0,0,0,2.973.021,7.168,7.168,0,0,0,2.12-2.168,34.518,34.518,0,0,0,2.669-4.534c.437-.861.849-1.735,1.274-2.6a1.983,1.983,0,0,1,.12-.181c.207.458.391.884.592,1.3a14.125,14.125,0,0,0,2.617,3.921c.138.14.293.264.443.393a.318.318,0,0,0,.473.025c.157-.149.115-.3.013-.476a23.572,23.572,0,0,1-1.216-2.131,18.647,18.647,0,0,1-1.351-5.132c-.074-.513-.119-1.03-.179-1.545a1.258,1.258,0,0,0-.992-1.1,1.245,1.245,0,0,0-1.4.7c-.379.82-.725,1.655-1.1,2.475a50.533,50.533,0,0,1-3.476,6.579,18.729,18.729,0,0,1-1.634,2.074c-.373.425-.57.368-.834-.129a7.274,7.274,0,0,1-.738-2.625q-.22-1.946-.321-3.906c-.058-1.129-.085-2.264-.039-3.393.075-1.854.224-3.705.331-5.559a3.626,3.626,0,0,0-.039-.927,1.227,1.227,0,0,0-1.109-1.026,1.368,1.368,0,0,0-1.31.784c-.789,1.521-1.544,3.06-2.386,4.552-1.885,3.341-4,6.541-6.18,9.694-.063.091-.137.174-.248.313a3.051,3.051,0,0,1-.127-.364c-.147-.753-.288-1.508-.432-2.262-.017-.091-.042-.18-.063-.271v-2.368c.044-.265.093-.529.129-.8a14.18,14.18,0,0,1,10.834-11.8c.665-.153,1.345-.245,2.017-.365Z" transform="translate(-1548.628 -1293.798)" fill="#fff"/><path d="M1673.424,1328.842c-.009.128-.025.257-.025.385q0,4.268,0,8.536c0,.451,0,.451-.443.453-.82,0-.82,0-.82-.824q0-4.58,0-9.16c0-.434,0-.434.43-.435.468,0,.937.017,1.4-.006.309-.016.429.113.518.4.786,2.5,1.588,4.985,2.386,7.476.024.077.06.15.123.3.064-.168.106-.265.138-.365.788-2.461,1.583-4.921,2.355-7.388a.5.5,0,0,1,.595-.425c.488.026.977.014,1.466,0,.244,0,.329.1.329.335q-.005,4.892,0,9.783c0,.23-.093.318-.318.305a3.647,3.647,0,0,0-.561,0c-.3.03-.39-.1-.389-.394.009-2.3.005-4.59.005-6.886,0-.6,0-1.2-.005-1.807a1.042,1.042,0,0,0-.1-.3c-.071.087-.175.163-.207.262q-1.415,4.387-2.812,8.778a.423.423,0,0,1-.457.352c-.334.013-.462-.109-.561-.422-.9-2.871-1.828-5.736-2.749-8.6-.044-.136-.112-.264-.169-.4Z" transform="translate(-1640.002 -1318.946)" fill="#fff"/><path d="M1873.181,1337.2c.162-.084.307-.156.448-.235a3.84,3.84,0,0,1,3.006-.428,2.931,2.931,0,0,1,.982.557.343.343,0,0,0,.479.041,4.182,4.182,0,0,1,2.442-.728,2.982,2.982,0,0,1,1.77.5,2.07,2.07,0,0,1,.718,1.5,11.623,11.623,0,0,1,.066,1.18c.007,1.537,0,3.074.009,4.611,0,.3-.1.413-.394.384a3.311,3.311,0,0,0-.592,0c-.276.024-.357-.089-.356-.359q.015-2.4,0-4.8a6.172,6.172,0,0,0-.112-1.081,1.207,1.207,0,0,0-1.034-.987,3.089,3.089,0,0,0-2.422.551.364.364,0,0,0-.128.278c.026.652.093,1.3.1,1.955.017,1.35,0,2.7.01,4.05,0,.3-.086.4-.389.393-.9-.027-.763.106-.767-.755-.007-1.474,0-2.949-.007-4.424a6.052,6.052,0,0,0-.1-1.02,1.219,1.219,0,0,0-1.006-1.019,3.015,3.015,0,0,0-2.45.544.55.55,0,0,0-.144.4c-.009,1.932-.006,3.863-.007,5.8,0,.468,0,.468-.458.469-.872,0-.872,0-.872-.867q0-3.3,0-6.605c0-.534,0-.534.55-.534h.031c.465,0,.464,0,.56.447A1.354,1.354,0,0,0,1873.181,1337.2Z" transform="translate(-1787.849 -1325.315)" fill="#fff"/><path d="M1813.673,1343.926c-.245.113-.4.18-.557.259a4.451,4.451,0,0,1-2.915.371,2.092,2.092,0,0,1-1.83-2.067,13.612,13.612,0,0,1,.041-4,2.223,2.223,0,0,1,2.175-1.988,4.507,4.507,0,0,1,2.893.647c.072.042.144.084.217.123a.325.325,0,0,0,.077.015.518.518,0,0,0,.056-.1c.064-.178.086-.481.192-.512a2.6,2.6,0,0,1,.832-.022c.041,0,.1.1.113.157a.971.971,0,0,1,.011.248c0,2.358.01,4.715-.007,7.072a7.307,7.307,0,0,1-.168,1.542,2.033,2.033,0,0,1-1.952,1.757,11.953,11.953,0,0,1-3.262-.072c-.075-.01-.15-.143-.192-.234-.027-.056.011-.141.016-.214.018-.288.1-.416.456-.389a20.243,20.243,0,0,0,2.271.019,1.345,1.345,0,0,0,1.429-1.284C1813.629,1344.841,1813.636,1344.42,1813.673,1343.926Zm-.021-3.322v-1.121c0-.374.016-.749-.009-1.121a.545.545,0,0,0-.187-.38,3.319,3.319,0,0,0-1.646-.618c-1.218-.052-1.981.293-2.1,1.5a30.97,30.97,0,0,0-.059,3.106,2.793,2.793,0,0,0,.129.7,1.338,1.338,0,0,0,1.074,1.01,3.5,3.5,0,0,0,2.676-.545.433.433,0,0,0,.121-.321C1813.657,1342.078,1813.652,1341.341,1813.652,1340.6Z" transform="translate(-1740.701 -1325.364)" fill="#fff"/><path d="M1968.928,1343.972c-.225.1-.448.211-.674.312a4.369,4.369,0,0,1-2.928.206,1.886,1.886,0,0,1-1.484-1.554,10.59,10.59,0,0,1-.193-2.037,17.326,17.326,0,0,1,.2-2.63,2.019,2.019,0,0,1,1.755-1.705,4.326,4.326,0,0,1,3.124.514l.411.233c.033-.068.054-.1.066-.139.059-.171.078-.455.182-.49a1.955,1.955,0,0,1,.768-.032c.065.005.163.146.17.231.022.289.01.581.01.872,0,2.242.008,4.485-.007,6.727a5.993,5.993,0,0,1-.165,1.258,2.016,2.016,0,0,1-1.707,1.642,10.958,10.958,0,0,1-3.505-.029c-.07-.009-.135-.143-.177-.231-.023-.048,0-.123.016-.183.09-.421-.016-.422.491-.409.859.022,1.721.013,2.577-.05a1.115,1.115,0,0,0,1.042-1c.085-.482.1-.976.153-1.464Zm.09-3.367c0-.736.01-1.473-.009-2.209a.57.57,0,0,0-.183-.417,3.346,3.346,0,0,0-1.613-.618c-1.29-.061-2.041.31-2.142,1.52a21.153,21.153,0,0,0,.007,3.47c.078.953.64,1.336,1.6,1.4a3.814,3.814,0,0,0,2.055-.511.451.451,0,0,0,.286-.459C1969.011,1342.057,1969.018,1341.331,1969.018,1340.605Z" transform="translate(-1855.674 -1325.365)" fill="#fff"/><path d="M1845.445,1337.268c.2-.646.2-.636.861-.636.257,0,.342.088.341.344q-.011,3.661,0,7.322c0,.249-.07.349-.335.35-.666,0-.666.012-.862-.681-.112.057-.221.1-.321.166a4.345,4.345,0,0,1-2.956.626,2.239,2.239,0,0,1-2.134-2.214,13.872,13.872,0,0,1,.038-4.035,2.23,2.23,0,0,1,2.17-2,4.522,4.522,0,0,1,2.766.539C1845.148,1337.121,1845.286,1337.188,1845.445,1337.268Zm-.127,3.334c0-.757-.007-1.515,0-2.272a.386.386,0,0,0-.269-.432,6.979,6.979,0,0,0-1.555-.508c-1.181-.1-1.949.245-2.123,1.428a12.874,12.874,0,0,0,0,3.657,1.486,1.486,0,0,0,1.209,1.37,3.279,3.279,0,0,0,2.594-.592.475.475,0,0,0,.133-.348C1845.324,1342.137,1845.318,1341.369,1845.318,1340.6Z" transform="translate(-1764.129 -1325.371)" fill="#fff"/><path d="M1783.677,1340.86c-.048.51-.07,1.165-.177,1.807a2.361,2.361,0,0,1-2,2.069,6.659,6.659,0,0,1-2.721,0,2.389,2.389,0,0,1-2.009-2.066,11.248,11.248,0,0,1-.041-3.625,2.481,2.481,0,0,1,2.524-2.407,8.246,8.246,0,0,1,2.134.065,2.46,2.46,0,0,1,2.182,2.462C1783.623,1339.679,1783.636,1340.2,1783.677,1340.86Zm-1.328.011c-.038-.672-.058-1.2-.1-1.728a1.6,1.6,0,0,0-1.328-1.619,4.422,4.422,0,0,0-.96-.075c-1.185.04-1.755.475-1.9,1.555a11.9,11.9,0,0,0,.031,3.626,1.44,1.44,0,0,0,1.316,1.3,6.176,6.176,0,0,0,1.484,0,1.42,1.42,0,0,0,1.3-1.309C1782.279,1341.993,1782.305,1341.36,1782.348,1340.871Z" transform="translate(-1717.291 -1325.462)" fill="#fff"/><path d="M1933.687,1337.232c.238-.116.442-.214.644-.317a4.608,4.608,0,0,1,3.217-.356,1.965,1.965,0,0,1,1.592,2.008c.055,1.389.049,2.781.065,4.172.006.519-.006,1.039,0,1.558,0,.229-.086.32-.314.307a4.425,4.425,0,0,0-.655,0c-.3.028-.365-.116-.364-.385q.014-2.227,0-4.455a9.707,9.707,0,0,0-.1-1.271,1.257,1.257,0,0,0-1.079-1.1,3.516,3.516,0,0,0-2.711.528.577.577,0,0,0-.156.428c-.01,1.849-.007,3.7-.007,5.546,0,.083,0,.166,0,.249,0,.452,0,.452-.445.453h-.406c-.5,0-.5,0-.5-.488q0-3.521,0-7.042c0-.474,0-.474.487-.474a.993.993,0,0,0,.125,0c.319-.042.531.044.523.416A.814.814,0,0,0,1933.687,1337.232Z" transform="translate(-1832.609 -1325.332)" fill="#fff"/><path d="M1728.281,1340.806c.042.471.063,1.085.159,1.687a1.493,1.493,0,0,0,1.536,1.391,6.725,6.725,0,0,0,1.022,0,1.382,1.382,0,0,0,1.359-1.3c.082-.568.082-.568.655-.568.654,0,.654,0,.6.647a2.136,2.136,0,0,1-1.72,1.969,6.065,6.065,0,0,1-2.691.043,2.4,2.4,0,0,1-2.123-2.348,11.28,11.28,0,0,1,.023-3.474,2.515,2.515,0,0,1,2.49-2.313,6.435,6.435,0,0,1,2.229.105,2.241,2.241,0,0,1,1.823,2.41c0,.068-.1.151-.168.209-.031.027-.1.013-.152.011-.27-.007-.6.074-.789-.054-.155-.1-.142-.458-.2-.7a1.3,1.3,0,0,0-.97-1.033,3.43,3.43,0,0,0-1.848.005,1.627,1.627,0,0,0-1.137,1.62C1728.339,1339.627,1728.318,1340.145,1728.281,1340.806Z" transform="translate(-1680.561 -1325.382)" fill="#fff"/><path d="M1759.175,1337.457c.326-.182.614-.344.9-.5a3.582,3.582,0,0,1,2.109-.393c.2.017.241.105.225.284-.058.65-.055.676-.708.658a3.831,3.831,0,0,0-2.248.807.59.59,0,0,0-.154.432c-.01,1.8-.007,3.593-.007,5.389,0,.083-.005.166,0,.249.014.221-.073.328-.307.315a5,5,0,0,0-.654,0c-.269.02-.371-.078-.364-.355.016-.612,0-1.225,0-1.838q0-2.694,0-5.389c0-.425,0-.425.438-.427.573,0,.572,0,.7.545C1759.124,1337.29,1759.143,1337.347,1759.175,1337.457Z" transform="translate(-1703.507 -1325.42)" fill="#fff"/><path d="M1716.54,1341.078c0-1.2.007-2.406-.005-3.609,0-.293.084-.421.389-.394a4.329,4.329,0,0,0,.654,0c.239-.014.34.078.332.322-.012.352,0,.705,0,1.058q0,3.1,0,6.191c0,.434,0,.435-.431.437-.937,0-.937,0-.937-.926Z" transform="translate(-1672.851 -1325.814)" fill="#fff"/><path d="M1921.138,1341.05c0-1.194.007-2.388-.005-3.582,0-.3.085-.421.389-.393a3.822,3.822,0,0,0,.623,0c.251-.017.32.1.319.331q-.008,3.676,0,7.351c0,.238-.073.345-.321.329a4.485,4.485,0,0,0-.654,0c-.279.022-.358-.1-.356-.363C1921.144,1343.5,1921.138,1342.275,1921.138,1341.05Z" transform="translate(-1824.22 -1325.813)" fill="#fff"/><path d="M1717.207,1327.823c.8.008.69-.081.691.7s.093.678-.675.677c-.81,0-.7.108-.706-.708C1716.515,1327.746,1716.418,1327.829,1717.207,1327.823Z" transform="translate(-1672.834 -1318.971)" fill="#fff"/><path d="M1921.108,1328.515c.011-.719-.107-.669.665-.668s.672-.055.671.66c0,.817.106.706-.71.709C1921.017,1329.218,1921.117,1329.3,1921.108,1328.515Z" transform="translate(-1824.201 -1318.988)" fill="#fff"/></g></svg>