<svg xmlns="http://www.w3.org/2000/svg" width="67.331" height="23.729" viewBox="0 0 67.331 23.729"><g transform="translate(0)" opacity="1"><path d="M1582.61,704.449V689.821c.844,0,1.674-.01,2.5.012.1,0,.224.16.294.271q2.6,4.116,5.2,8.238c.062.1.128.193.242.366v-8.86h2.929v14.623c-.845,0-1.676.01-2.506-.012-.1,0-.224-.159-.294-.27q-2.6-4.118-5.19-8.242a.892.892,0,0,0-.269-.3v8.8Z" transform="translate(-1582.61 -685.286)" fill="#fff"/><path d="M1834.823,699.092v-.426c0-2.645.006-5.289-.008-7.933,0-.341.1-.438.431-.428.664.021,1.329.025,1.992,0,.357-.014.447.113.446.456-.011,3.514-.006,7.028-.006,10.542,0,1.05-.009,2.1.005,3.151,0,.3-.092.4-.394.391-.6-.02-1.209-.022-1.812,0a.58.58,0,0,1-.578-.325q-2.581-4.129-5.176-8.249a.752.752,0,0,0-.3-.291c-.007.136-.021.272-.022.407,0,2.669-.007,5.337.006,8.006,0,.341-.081.467-.44.452-.675-.028-1.353-.018-2.029,0-.271.006-.384-.057-.383-.36q.013-6.9,0-13.8c0-.29.091-.381.373-.374.615.015,1.232.018,1.848,0a.589.589,0,0,1,.583.321q2.578,4.11,5.173,8.208c.062.1.13.191.2.287Z" transform="translate(-1781.153 -685.68)" fill="#fff"/><path d="M1771.134,675.912h.515c1.594,0,3.189.006,4.783-.006.281,0,.388.076.38.367-.017.64-.02,1.28,0,1.92.011.329-.092.438-.429.435-1.594-.015-3.189,0-4.783-.013-.349,0-.491.079-.477.462.03.82.022,1.642,0,2.463-.007.308.1.388.4.387,1.957-.01,3.914,0,5.871-.011.307,0,.43.069.418.4-.025.639-.022,1.28,0,1.92.01.3-.093.39-.392.389-2.609-.01-5.219-.006-7.828-.006-.479,0-.48,0-.481.471q0,1.866,0,3.732c0,.211,0,.372-.3.372s-.306-.14-.306-.362q0-11.5,0-23.005c0-.223.024-.362.307-.362s.3.162.3.373c0,1.208,0,2.415,0,3.623,0,.579,0,.579.6.579,2.549,0,5.1.008,7.646-.009.376,0,.476.109.459.471-.029.615-.025,1.232,0,1.847.012.326-.1.41-.415.408-1.921-.012-3.841-.007-5.762-.006-.5,0-.5,0-.5.494C1771.133,674.112,1771.134,674.98,1771.134,675.912Z" transform="translate(-1733.914 -665.464)" fill="#fff"/><path d="M1660.164,698.636h-5.646V701.8h6.616v2.785h-9.566V689.969h9.566v2.8h-6.621v3.047h5.652Z" transform="translate(-1638.734 -685.409)" fill="#fff"/><path d="M1712.817,692.76h-3.346v-2.814h9.573v2.807h-3.3v11.8h-2.927Z" transform="translate(-1685.862 -685.39)" fill="#fff"/><path d="M1896.572,698.974q0-2.664,0-5.327c0-.6,0-.6-.617-.6-.81,0-1.619-.01-2.428.005-.275.005-.354-.093-.348-.358q.023-1.014,0-2.029c-.005-.259.094-.333.339-.332q4.422.008,8.845,0c.239,0,.354.064.349.327q-.018,1.033,0,2.066c0,.26-.1.329-.346.326-.8-.011-1.595,0-2.392,0-.6,0-.6,0-.6.619q0,5.273,0,10.545c0,.757.059.643-.666.65-.519,0-1.039,0-1.559,0-.576,0-.576,0-.576-.559Q1896.572,701.637,1896.572,698.974Z" transform="translate(-1835.38 -685.703)" fill="#fff"/></g></svg>