<svg xmlns="http://www.w3.org/2000/svg" xmlns:xlink="http://www.w3.org/1999/xlink" width="133.644" height="32.23" viewBox="0 0 133.644 32.23">
  <defs>
    <linearGradient id="linear-gradient" x1="0.019" y1="0.531" x2="1.008" y2="0.555" gradientUnits="objectBoundingBox">
      <stop offset="0" stop-color="#60f391"/>
      <stop offset="1" stop-color="#02ffdd"/>
    </linearGradient>
    <clipPath id="clip-path">
      <path id="Path_62475" data-name="Path 62475" d="M8.7,18.816a1.4,1.4,0,0,0,1.47,1.518,1.47,1.47,0,0,0,1.57-1.5,1.441,1.441,0,0,0-1.491-1.52h-.01a1.408,1.408,0,0,0-1.538,1.5m70.93-8.705a1.76,1.76,0,0,0-1.068.517,1.367,1.367,0,0,0-.18,1.656,1.376,1.376,0,0,0,1.354.8,2.579,2.579,0,0,1,2,.863,4.818,4.818,0,0,1,1.3,3.73,3.86,3.86,0,0,1-3.432,3.842,1.5,1.5,0,0,0-1.392,1.551,1.462,1.462,0,0,0,1.315,1.5,4.656,4.656,0,0,0,1.2-.041A7.179,7.179,0,0,0,86.547,17.2a6.459,6.459,0,0,0-.993-3.667,6.4,6.4,0,0,0-5.661-3.43c-.086,0-.173,0-.26,0M55.3,10.606a7.368,7.368,0,0,0-4.209,6.866c.036.326.074.742.127,1.155a7.172,7.172,0,0,0,5.94,5.94,3.286,3.286,0,0,0,1.338-.081,1.483,1.483,0,0,0,.928-1.782,1.437,1.437,0,0,0-1.466-1.176A2.865,2.865,0,0,1,55.52,20.15a4.788,4.788,0,0,1-.791-3.93A3.531,3.531,0,0,1,58.2,13.09a1.474,1.474,0,0,0,1.242-1.509A1.373,1.373,0,0,0,58.2,10.1q-.265-.021-.527-.021a5.265,5.265,0,0,0-2.376.531m69.22,10.235a5.34,5.34,0,0,1-.513-6.483,2.931,2.931,0,0,1,2.739-1.5,2.8,2.8,0,0,1,2.216,1.2,4.987,4.987,0,0,1,1.058,3.217,4.932,4.932,0,0,1-1.475,3.672,2.746,2.746,0,0,1-1.952.779,2.807,2.807,0,0,1-2.073-.885m2.1-10.758c-3.736-.225-7.088,3.023-7.074,7.311a7.049,7.049,0,1,0,14.094-.03c.075-3.7-3.023-7.294-6.636-7.295-.128,0-.255,0-.383.014M109.3,21.1a4.692,4.692,0,0,1-1.661-4.086,5.243,5.243,0,0,1,1.052-3.055,2.619,2.619,0,0,1,4.436.138,5.275,5.275,0,0,1,.974,3.1,4.9,4.9,0,0,1-1.457,3.716,2.494,2.494,0,0,1-1.769.789A2.454,2.454,0,0,1,109.3,21.1m-3.139-9.649a8.105,8.105,0,0,0-.1,11.49,5.485,5.485,0,0,0,7.131.416c.271-.207.526-.432.92-.757,0,.656-.023,1.168.006,1.678a2.181,2.181,0,0,1-.51,1.5,3.827,3.827,0,0,1-5.019.969,7.407,7.407,0,0,1-1.517-1.481,1.487,1.487,0,0,0-1.5-.5,1.244,1.244,0,0,0-1.036.925,1.6,1.6,0,0,0,.267,1.585,10.63,10.63,0,0,0,1.657,1.577,7.231,7.231,0,0,0,9.254-.822,5.663,5.663,0,0,0,1.888-4.066c.03-3.994.012-7.988.009-11.981a1.72,1.72,0,0,0-1.373-1.78,1.638,1.638,0,0,0-2.071,1.265c-.03.1-.073.191-.135.35-.174-.15-.32-.266-.454-.394a5.3,5.3,0,0,0-3.65-1.355,5.639,5.639,0,0,0-3.77,1.378M66.306,20.31a5.478,5.478,0,0,1,.5-6.628,2.965,2.965,0,0,1,4.418.4,4.928,4.928,0,0,1,1.035,3.191,4.606,4.606,0,0,1-1.012,3.188,2.866,2.866,0,0,1-4.937-.151m.18-9.853c-4.438,1.483-6.174,7.524-3.3,11.226A6.855,6.855,0,0,0,69.9,24.534a7.2,7.2,0,0,0,5.975-7.243,7.09,7.09,0,0,0-6.944-7.247,7.687,7.687,0,0,0-2.444.413m29.357-.419a5.235,5.235,0,0,0-3.245,1.72c-.1-.253-.157-.413-.225-.569a1.76,1.76,0,0,0-2.091-.978,1.417,1.417,0,0,0-1.194,1.444q-.018,5.7.013,11.406a1.642,1.642,0,0,0,.376.936,1.587,1.587,0,0,0,1.846.474,1.7,1.7,0,0,0,1.175-1.63c.01-2.459,0-4.918.008-7.378a2.651,2.651,0,0,1,1.643-2.521,2.851,2.851,0,0,1,3.055.574,2.808,2.808,0,0,1,.888,2.154c-.005,2.372,0,4.744,0,7.116a1.616,1.616,0,0,0,.839,1.568,1.717,1.717,0,0,0,2.579-1.5c.015-2.668.01-5.337,0-8a4.957,4.957,0,0,0-4.931-4.869,4.76,4.76,0,0,0-.735.057M9.136,6.422A1.24,1.24,0,0,0,7.764,7.828q-.016,2.955,0,5.91c.007,1.085.527,1.571,1.628,1.574,1.2,0,2.406.019,3.609-.005a3.208,3.208,0,0,1,3.006,1.822,3.264,3.264,0,0,1-.1,3.527,2.859,2.859,0,0,1-2.626,1.494c-1.442-.026-2.889.092-4.33.2a1.5,1.5,0,0,0-.851.425,1.487,1.487,0,0,0,1.014,2.451c1.393.038,2.786.084,4.18.093a5.8,5.8,0,0,0,1.344-.158,6.491,6.491,0,0,0,4.84-8.02,6.041,6.041,0,0,0-5.935-4.654c-.926.06-1.846.219-2.872.345v-.558c0-1.482.012-2.964-.008-4.446a1.359,1.359,0,0,0-1.509-1.4H9.136M40.855,21.041a5.468,5.468,0,0,1-.281-7.485,2.612,2.612,0,0,1,4.11.443,5.214,5.214,0,0,1,.985,3.185,5.067,5.067,0,0,1-1.229,3.459,2.652,2.652,0,0,1-2.011.974,2.47,2.47,0,0,1-1.574-.576M35.709,6.682q-.013,8.1,0,16.209a1.656,1.656,0,0,0,1.625,1.7,1.781,1.781,0,0,0,1.813-1.6c.014-.125.052-.248.084-.4a16.2,16.2,0,0,0,1.419,1.071A5.58,5.58,0,0,0,47.967,22.1a8.336,8.336,0,0,0-.112-10,5.706,5.706,0,0,0-6.839-1.578A20.335,20.335,0,0,0,39.182,11.7c-.013-.251-.033-.453-.033-.654,0-1.447.008-2.893-.006-4.34a1.64,1.64,0,0,0-1.72-1.648h-.008a1.554,1.554,0,0,0-1.706,1.619M12.142,0A14.639,14.639,0,0,0,3.952,2.237,38.719,38.719,0,0,0,.562,4.925,1.489,1.489,0,0,0,0,6.1v.034a2.145,2.145,0,0,0,.069.506,1.311,1.311,0,0,0,1,.981,1.447,1.447,0,0,0,1.561-.441A12.931,12.931,0,0,1,18.165,4.387a13.066,13.066,0,0,1,6.942,14.141,12.48,12.48,0,0,1-4.39,7.462,12.788,12.788,0,0,1-12.23,2.658,12.017,12.017,0,0,1-5.65-3.433,2.413,2.413,0,0,0-.81-.63,1.451,1.451,0,0,0-1.7.59,1.518,1.518,0,0,0,.187,1.962,15.679,15.679,0,0,0,11.7,5.093c.952-.088,1.915-.111,2.855-.274A15.678,15.678,0,0,0,24.464,26.5,15.686,15.686,0,0,0,28.1,13.44a15.175,15.175,0,0,0-4.376-8.618A15.211,15.211,0,0,0,13.095.018Q12.675,0,12.259,0Z" fill="url(#linear-gradient)"/>
    </clipPath>
  </defs>
  <g id="Group_18917" data-name="Group 18917" clip-path="url(#clip-path)">
    <rect id="Rectangle_22767" data-name="Rectangle 22767" width="133.81" height="32.23" transform="translate(-0.093 0)" fill="url(#linear-gradient)"/>
  </g>
</svg>
