<svg id="Group_18916" data-name="Group 18916" xmlns="http://www.w3.org/2000/svg" xmlns:xlink="http://www.w3.org/1999/xlink" width="47.736" height="48.695" viewBox="0 0 47.736 48.695">
  <defs>
    <clipPath id="clip-path">
      <rect id="Rectangle_22766" data-name="Rectangle 22766" width="47.736" height="48.695" fill="#ff1a1a"/>
    </clipPath>
  </defs>
  <g id="Group_18915" data-name="Group 18915" clip-path="url(#clip-path)">
    <path id="Path_62472" data-name="Path 62472" d="M21.794.089A24.036,24.036,0,0,1,47.647,22.261a24.583,24.583,0,0,1-8.525,20.823,23.533,23.533,0,0,1-29.87.521A24.689,24.689,0,0,1,5.019,9.411,23.831,23.831,0,0,1,21.794.089m.184.828A23.411,23.411,0,0,0,.818,26.248a23.207,23.207,0,0,0,24.84,21.559,23.371,23.371,0,0,0,21.16-25.331A23.69,23.69,0,0,0,36.177,4.5,22.7,22.7,0,0,0,21.978.917" transform="translate(0 0)" fill="#ff1a1a"/>
    <path id="Path_62473" data-name="Path 62473" d="M24.711,6.4A22.047,22.047,0,0,1,49.275,22.561a22.607,22.607,0,0,1-2.668,18.094,21.564,21.564,0,0,1-10.028,1.533c-5.643-.276-11.163-1.779-16.836-1.932A21.752,21.752,0,0,0,10.3,41.912a22.742,22.742,0,0,1,4.723-31.4,21.856,21.856,0,0,1,9.69-4.11m3.312.43c-.46,1.38-.889,2.76-1.349,4.17-1.441,0-2.883-.03-4.324.031,1.165.859,2.331,1.717,3.5,2.607-.429,1.38-.889,2.76-1.319,4.171l3.5-2.576,3.5,2.576c-.429-1.38-.889-2.791-1.319-4.171,1.165-.859,2.33-1.718,3.5-2.607-1.441-.031-2.883,0-4.324,0-.46-1.441-.92-2.821-1.349-4.2M17.995,12.257c-.153.705-.245,1.411-.4,2.116l-2.116.276,1.87,1.043c-.122.705-.245,1.441-.368,2.116.521-.491,1.043-.982,1.564-1.5.613.337,1.227.705,1.87,1.012-.307-.644-.613-1.319-.92-1.963.522-.491,1.043-1.012,1.533-1.5l-2.116.276c-.307-.552-.613-1.2-.92-1.871m19.136,1.962-2.116-.276c.521.521,1.012,1.012,1.533,1.5-.307.644-.613,1.319-.92,1.963L37.5,16.4c.521.491,1.043,1.012,1.564,1.5-.153-.705-.246-1.441-.368-2.147.613-.337,1.227-.705,1.871-1.042l-2.116-.276c-.153-.705-.246-1.442-.4-2.116-.307.613-.613,1.257-.92,1.9m-25.852,3.1q.046.644.092,1.288l-1.2.491L11.4,19.4l.092,1.288c.215-.368.429-.736.675-1.073l1.227.276-.8-.981.675-1.1-1.2.491a12.43,12.43,0,0,0-.8-.981m32.66.981-1.165-.491.675,1.1c-.276.337-.552.644-.828.981l1.227-.276.675,1.073.092-1.288,1.227-.307-1.165-.491.092-1.288ZM14.53,20.537a5.329,5.329,0,0,0-3.312,2.484c-.061,4.416,0,8.832-.03,13.279A10.119,10.119,0,0,0,14.5,37.8a12.868,12.868,0,0,0,4.2.184A6.158,6.158,0,0,0,22.6,36.545a5.407,5.407,0,0,0,1.257-6.011,4.794,4.794,0,0,0-2.545-2.423,3.659,3.659,0,0,0,1.84-3.159,4.841,4.841,0,0,0-4.232-4.661,11.77,11.77,0,0,0-4.385.245M20.6,20.2a5.687,5.687,0,0,1,3.189,3.619h2.116v14.2h3.619v-14.2h1.993A8.8,8.8,0,0,1,35.935,20.2c-5.121.031-10.243,0-15.334,0M36.4,20.69a7.9,7.9,0,0,0-4.478,4.017,11.266,11.266,0,0,0-.828,6.655,8.39,8.39,0,0,0,3.036,5.428,8.031,8.031,0,0,0,5.612,1.5A9.959,9.959,0,0,0,45.319,36.3V27.805H39.431v3.251h2.3v3.25a4.582,4.582,0,0,1-4.14.338,4.863,4.863,0,0,1-2.79-3.588,8.321,8.321,0,0,1,.368-4.661,4.395,4.395,0,0,1,3.1-2.729,5.53,5.53,0,0,1,4.876,1.441c.521-1.012,1.012-2.024,1.564-3.036-2.208-2.055-5.551-2.3-8.311-1.38" transform="translate(-4.174 -4.256)" fill="#ff1a1a"/>
    <path id="Path_62474" data-name="Path 62474" d="M34.58,63.716a2.24,2.24,0,0,1,3.649.46,1.616,1.616,0,0,1-.951,2.055,12.319,12.319,0,0,1-3.005.153c.061-.859-.215-1.871.307-2.668m-.307,5.612c1.257.062,2.576-.184,3.772.307,1.748.705,1.625,3.742-.123,4.355a6.2,6.2,0,0,1-3.649-.337ZM41.2,80.706c6.41.644,12.788,2.392,19.259,1.625a16.7,16.7,0,0,0,4.508-1.1,20.15,20.15,0,0,1-3.833,4.079,12.557,12.557,0,0,1-3.557-.031,54.929,54.929,0,0,1-10.09-2.637c-2.085-.644-4.14-1.441-6.287-1.932M37,82.086a28.338,28.338,0,0,1,8.034,1.871c4.355,1.41,8.648,3.128,13.248,3.5a22.794,22.794,0,0,1-6.225,2.484c-.307.092-.552-.153-.828-.245C48.5,88.158,45.9,86.41,43.167,84.785A23.409,23.409,0,0,0,37,82.086m-3.435,3.68a14.823,14.823,0,0,1,5.642,1.257,35.125,35.125,0,0,1,5.52,3.4,22.832,22.832,0,0,1-11.163-4.661" transform="translate(-23.274 -43.663)" fill="#ff1a1a"/>
  </g>
</svg>
