<svg id="Group_18920" data-name="Group 18920" xmlns="http://www.w3.org/2000/svg" xmlns:xlink="http://www.w3.org/1999/xlink" width="129.649" height="42.666" viewBox="0 0 129.649 42.666">
  <defs>
    <clipPath id="clip-path">
      <rect id="Rectangle_22768" data-name="Rectangle 22768" width="129.649" height="42.666" fill="none"/>
    </clipPath>
    <radialGradient id="radial-gradient" cx="0.325" cy="0.76" r="0.796" gradientTransform="matrix(0.397, -0.918, 0.649, 0.281, -0.298, 0.844)" gradientUnits="objectBoundingBox">
      <stop offset="0" stop-color="silver"/>
      <stop offset="1" stop-color="#959595"/>
    </radialGradient>
    <linearGradient id="linear-gradient" x1="1.132" y1="0.208" x2="1.431" y2="1.116" gradientUnits="objectBoundingBox">
      <stop offset="0" stop-color="#e3e4e5"/>
      <stop offset="1" stop-color="#c9c9c9"/>
    </linearGradient>
    <radialGradient id="radial-gradient-2" cx="0.5" cy="0.5" r="1.763" gradientTransform="matrix(0.541, 0.841, -0.497, 0.32, 0.478, -0.08)" gradientUnits="objectBoundingBox">
      <stop offset="0" stop-color="#b3b3b3"/>
      <stop offset="1" stop-color="#a1a1a1"/>
    </radialGradient>
    <linearGradient id="linear-gradient-2" x1="0.81" x2="0.32" y2="1.523" gradientUnits="objectBoundingBox">
      <stop offset="0" stop-color="#cececf"/>
      <stop offset="1" stop-color="#a8a8a8"/>
    </linearGradient>
  </defs>
  <g id="Group_18919" data-name="Group 18919" clip-path="url(#clip-path)">
    <path id="Path_62476" data-name="Path 62476" d="M21.575,18.481s2.815-3.866,2.213-11.093c0,0-8.431-12.346-23.788-5.119,0,0,3.4,16.465,21.575,16.212" transform="translate(0 0)" fill="url(#radial-gradient)"/>
    <path id="Path_62477" data-name="Path 62477" d="M73.865,24.536A19.05,19.05,0,0,1,77.72,35.421s-1.054.462-6.068.208c0,0,2.69-3.991,2.226-10.93" transform="translate(-50.077 -17.148)" fill="url(#linear-gradient)"/>
    <path id="Path_62478" data-name="Path 62478" d="M13.413,73.763a19.513,19.513,0,0,0,17.071-8.174s-11.526-.81-17.071,8.174" transform="translate(-9.374 -45.85)" fill="url(#radial-gradient-2)"/>
    <path id="Path_62479" data-name="Path 62479" d="M1.382,81.577s10.725,6.11,20.662-2.1c0,0,5.9-3.7,6.561-13.636,0,0-.84-.3-6.561-.3A19.357,19.357,0,0,1,5,73.715a64.028,64.028,0,0,0-3.623,7.862" transform="translate(-0.966 -45.802)" fill="url(#linear-gradient-2)"/>
    <path id="Path_62480" data-name="Path 62480" d="M243.134,96.416c-.119-.005-.238-.011-.357-.025a.893.893,0,0,1-.876-.92c-.005-.087-.005-.175-.005-.262q0-2.816,0-5.632a5.243,5.243,0,0,0-.328-1.843,3.1,3.1,0,0,0-2.078-2.068,4.6,4.6,0,0,0-3.535.379,5.26,5.26,0,0,0-1.975,1.931c-.016-.086-.026-.125-.03-.164q-.093-1.08-.292-2.147c-.034-.185-.1-.2-.266-.189-.444.038-.888.057-1.333.085-.722.045-1.444.09-2.166.139-.06,0-.164-.036-.162.081a1.952,1.952,0,0,0,.052.7c.048.113.322.024.494.038.047,0,.1,0,.143,0a1.39,1.39,0,0,1,1.49,1.492q0,3.663,0,7.326a.924.924,0,0,1-.946,1.053,18.413,18.413,0,0,1-2.338.007.741.741,0,0,1-.776-.857q0-2.685,0-5.369c0-1.464,0-2.927,0-4.391,0-.185-.053-.235-.229-.217-.213.023-.428.026-.643.033l-3.147.1c-.064,0-.157-.032-.157.085a2.223,2.223,0,0,0,.028.818c.055.133.4.02.607.048a.413.413,0,0,0,.048,0,1.3,1.3,0,0,1,1.37,1.43q0,3.162,0,6.324c0,.342.007.684,0,1.026a.9.9,0,0,1-.943.977c-.724.009-1.452.034-2.172-.025-.849-.069-1.063-.417-1.059-1.087.012-1.909,0-3.818,0-5.727a5.307,5.307,0,0,0-.34-1.96,2.922,2.922,0,0,0-3.1-2.122,4.1,4.1,0,0,0-2.977,1.3,7.206,7.206,0,0,0-1.068,1.351c-.079-.217-.142-.412-.223-.6a3.067,3.067,0,0,0-1.422-1.7,3.757,3.757,0,0,0-3.292.021,5.222,5.222,0,0,0-2,1.76l-.235.311a21.982,21.982,0,0,0-.309-2.231c-.03-.159-.082-.218-.261-.2-.991.073-1.983.131-2.976.19-.113.007-.173.026-.163.16a4.069,4.069,0,0,1,0,.548c-.009.135.043.188.17.192a1.68,1.68,0,0,1,.19.02c.824.117,1.191.442,1.256,1.121.013.133-.005.269-.005.4q0,3.664,0,7.326a.865.865,0,0,1-.936.936c-.334,0-.668.008-1,.01-.878,0-1.29-.3-1.459-1.085a2.2,2.2,0,0,1-.039-.45q0-3.174,0-6.348a2.894,2.894,0,0,0-.048-.569,3,3,0,0,0-2.153-2.3A6.968,6.968,0,0,0,196,85.427a5.113,5.113,0,0,0-3.175,1.485,2.347,2.347,0,0,0-.753,2.021,1.462,1.462,0,0,0,2.2,1,1.3,1.3,0,0,0,.182-1.965c-.422-.522-.374-.818.192-1.176.04-.026.082-.049.124-.071a3.713,3.713,0,0,1,2.522-.351,2.325,2.325,0,0,1,1.966,2.391c-.02.373,0,.748,0,1.122,0,.442,0,.442-.434.5-.086.012-.173.026-.26.039a15.782,15.782,0,0,0-4.069,1.057,5.982,5.982,0,0,0-2.408,1.66,2.66,2.66,0,0,0,1.266,4.311,5.571,5.571,0,0,0,1.572.248,4.692,4.692,0,0,0,3.273-1.007,10.563,10.563,0,0,0,1-.92c.111-.118.156-.114.213.041a6.27,6.27,0,0,0,.281.655,1.378,1.378,0,0,0,1.052.774,6.381,6.381,0,0,0,1.043.1c2.245,0,4.49,0,6.735.007.23,0,.286-.072.262-.278s.1-.51-.05-.638-.426-.017-.646-.029c-.909-.045-1.2-.294-1.191-1.106.022-1.527.009-3.055,0-4.582a4.479,4.479,0,0,1,.417-1.941,2.788,2.788,0,0,1,2.122-1.822,2.091,2.091,0,0,1,2.509,1.582,4.43,4.43,0,0,1,.181,1.2c.009,1.925.008,3.85.011,5.775a.771.771,0,0,1-.465.741,1.642,1.642,0,0,1-.737.162c-.23,0-.537-.077-.669.039-.151.134-.024.448-.051.682-.02.176.035.224.217.223,1.664-.008,3.328,0,4.992-.005.238,0,.567.083.691-.038.157-.153.031-.481.053-.732.012-.142-.048-.176-.179-.172-.238.008-.478.008-.716,0a.918.918,0,0,1-1.017-1.044c0-1.567.008-3.134,0-4.7a4.252,4.252,0,0,1,.321-1.648,3.475,3.475,0,0,1,1.088-1.59,2.4,2.4,0,0,1,3.141.158,2.535,2.535,0,0,1,.669,1.788c.02,2.044.014,4.089.011,6.133a.828.828,0,0,1-.625.806,2.665,2.665,0,0,1-.636.086c-.218.013-.516-.1-.633.05s-.022.428-.042.648c-.017.192.033.253.241.253,2.046-.006,4.092,0,6.139,0q5.529,0,11.059,0c.553,0,.553,0,.553-.547,0-.376,0-.376-.378-.393-.912-.04-1.2-.338-1.2-1.251q0-2.183,0-4.367a4.568,4.568,0,0,1,.2-1.387,3.319,3.319,0,0,1,2.158-2.393,2.474,2.474,0,0,1,3.357,1.78,5.605,5.605,0,0,1,.162,1.369q0,2.553,0,5.107a.948.948,0,0,1-.943,1.109c-.206.034-.5-.069-.6.1s-.014.434-.031.655c-.014.179.042.225.222.224,1.465-.008,2.93,0,4.4,0,.578,0,.578,0,.578-.575,0-.351,0-.35-.338-.365m-44.182-1.958a3.559,3.559,0,0,1-3.3,2.266,1.746,1.746,0,0,1-1.813-1.629,2.61,2.61,0,0,1,1.576-2.889,11.142,11.142,0,0,1,3.09-.919c.187-.034.377-.057.564-.092.137-.026.2,0,.2.163-.013.333,0,.667,0,1.131a4.124,4.124,0,0,1-.313,1.969" transform="translate(-133.801 -59.651)" fill="#ababab"/>
    <path id="Path_62481" data-name="Path 62481" d="M124.525,19.04c.188,0,.268-.018.279-.247.084-1.833.187-3.665.29-5.5.008-.138-.036-.163-.155-.158a5.349,5.349,0,0,1-.573,0c-.147-.01-.188.045-.2.185a8.4,8.4,0,0,1-.291,1.47,4.368,4.368,0,0,1-1.554,2.447,4.739,4.739,0,0,1-2.529.815c-1.3.092-2.593.026-3.89.04a1.559,1.559,0,0,1-.516-.082.712.712,0,0,1-.524-.713q0-3.328,0-6.657c0-.13.027-.179.169-.177.5.008,1-.022,1.5.009a2.584,2.584,0,0,1,2.379,1.627,5.242,5.242,0,0,1,.386,1.759c.037.547.033.547.569.547a.825.825,0,0,1,.119,0c.164.025.217-.037.214-.207-.011-.6,0-1.193,0-1.79,0-2.1,0-4.2,0-6.3,0-.183-.038-.258-.233-.237a2.713,2.713,0,0,1-.477,0c-.138-.009-.171.042-.175.175a5.512,5.512,0,0,1-.214,1.409,2.673,2.673,0,0,1-2.233,2.079,15.456,15.456,0,0,1-1.789.035c-.182.007-.223-.047-.223-.224,0-1.972,0-3.945,0-5.917a.819.819,0,0,1,.884-.878c.446,0,.892-.005,1.337,0,1.3.017,2.594-.046,3.89.038a2.445,2.445,0,0,1,2.4,1.982c.1.4.173.808.242,1.215.033.195.014.461.132.56s.381.02.577.042.248-.054.233-.248c-.114-1.417-.223-2.835-.317-4.253-.015-.227-.073-.283-.3-.282q-6.783.011-13.566.006c-.048,0-.1,0-.143,0-.1-.008-.141.033-.138.138.006.215.009.43,0,.644-.006.128.039.164.163.161.318-.007.637,0,.955,0a.9.9,0,0,1,1,1q0,6.741,0,13.482a.906.906,0,0,1-.888,1.027,6.892,6.892,0,0,1-1.048.028c-.15,0-.195.044-.183.19a2.528,2.528,0,0,1,0,.5c-.027.22.058.259.263.258,2.364-.008,4.729,0,7.093,0s4.729,0,7.093,0" transform="translate(-76.927 -1.123)" fill="#ababab"/>
    <path id="Path_62482" data-name="Path 62482" d="M150.5,75.629c.008-.131-.029-.177-.169-.176q-3.463.006-6.926,0c-.145,0-.171.051-.164.178a4.236,4.236,0,0,1,0,.525c-.011.145.031.192.182.189.43-.011.86-.007,1.29,0a3.374,3.374,0,0,1,.781.072.762.762,0,0,1,.659.714,19.866,19.866,0,0,1-.046,2.5,3.923,3.923,0,0,1-2.23,3.2,5.086,5.086,0,0,1-2.487.447,4.4,4.4,0,0,1-3.494-1.763,8.035,8.035,0,0,1-1.479-3.92,18.8,18.8,0,0,1,0-4.754,8.417,8.417,0,0,1,1.183-3.49,4.781,4.781,0,0,1,4.992-2.233,5.176,5.176,0,0,1,3.365,2.355,12.876,12.876,0,0,1,1.526,3.344c.064.193.053.465.217.556s.4.014.609.032c.169.014.176-.064.165-.2-.029-.348-.05-.7-.071-1.046q-.175-2.83-.35-5.66c-.028-.445-.036-.445-.492-.445a1.38,1.38,0,0,1-.215,0c-.132-.02-.194.042-.254.153-.275.509-.565,1.011-.837,1.522-.075.142-.122.143-.238.047-.177-.148-.366-.28-.556-.411a6.627,6.627,0,0,0-6.6-.76,9.5,9.5,0,0,0-5.71,9.075,9.17,9.17,0,0,0,3.5,6.8,7.91,7.91,0,0,0,4.73,1.731,5.612,5.612,0,0,0,3.973-1.243,6.691,6.691,0,0,0,1.5-1.743c.088.057.086.147.108.219q.348,1.15.684,2.3c.161.554.156.544.741.56.215.006.259-.056.258-.263-.008-2.243-.006-4.486,0-6.728a.826.826,0,0,1,.729-.909,3.835,3.835,0,0,1,.95-.057c.147,0,.2-.041.187-.189a4.014,4.014,0,0,1,0-.525" transform="translate(-93.042 -46.159)" fill="#ababab"/>
    <path id="Path_62483" data-name="Path 62483" d="M377.186,81.792a10.32,10.32,0,0,0-3.308,1.849c-.089.073-.147.157-.3.059a5.676,5.676,0,0,0-3.49-.906,5.317,5.317,0,0,0-2.453.685,3.671,3.671,0,0,0-.051,6.477c.055.035.143.038.147.134a5.33,5.33,0,0,0-1.081.5,2.114,2.114,0,0,0-1.085,2.078,2.052,2.052,0,0,0,1.257,1.7c.336.177.7.287,1.05.45-.1.023-.2.045-.3.071a4.019,4.019,0,0,0-1.751.82,1.746,1.746,0,0,0-.226,2.478,3.527,3.527,0,0,0,1.641,1.141,9.524,9.524,0,0,0,3.84.4,7.287,7.287,0,0,0,2.963-.734,3.606,3.606,0,0,0,2.163-2.824,2.633,2.633,0,0,0-1.589-2.837,5.6,5.6,0,0,0-1.758-.4c-1.152-.1-2.3.011-3.457.005a6.654,6.654,0,0,1-1.754-.1.913.913,0,0,1-.66-1.257,1.188,1.188,0,0,1,1.1-.744,13.935,13.935,0,0,1,2.358-.085,5.471,5.471,0,0,0,3.682-1.4,2.94,2.94,0,0,0,.906-1.321,3.628,3.628,0,0,0-.58-3.532c-.132-.178-.09-.254.059-.365a8.274,8.274,0,0,1,1.447-.871c.5-.233.58-.195.752.321.018.052.039.1.062.155a1.392,1.392,0,0,0,1.329.838,1.375,1.375,0,0,0,.917-2.379,1.71,1.71,0,0,0-1.834-.4m-7.521,13.1c.456-.057.917-.075,1.377-.11a8.055,8.055,0,0,1,2.269.249,1.74,1.74,0,0,1,1.409,1.439,1.329,1.329,0,0,1-.28,1.028,2.946,2.946,0,0,1-1.513,1.067,7.689,7.689,0,0,1-4.458.089,2.806,2.806,0,0,1-.651-.288,1.572,1.572,0,0,1-.234-2.679,3.773,3.773,0,0,1,2.081-.8m2.768-5.949a2.391,2.391,0,0,1-4.139-.363,4.285,4.285,0,0,1-.116-3.431,2.37,2.37,0,0,1,2.389-1.554,2.482,2.482,0,0,1,2.264,1.875,4.31,4.31,0,0,1,.134.628c.03.22.031.443.039.571a3.876,3.876,0,0,1-.571,2.273" transform="translate(-255.225 -57.087)" fill="#ababab"/>
    <path id="Path_62484" data-name="Path 62484" d="M297.711,10.737c-.01.155.048.183.19.181.533-.008,1.067.007,1.6-.008.2-.005.249.045.248.246-.008,2.522,0,5.043,0,7.565a2.847,2.847,0,0,0,.148.985,2.729,2.729,0,0,0,2.412,1.843,3.349,3.349,0,0,0,3.658-2.056,6.369,6.369,0,0,0,.455-2.18c.017-.327.017-.327-.306-.327-.522,0-.508,0-.565.526a4.125,4.125,0,0,1-.71,2.142,1.672,1.672,0,0,1-2.4.327,1.941,1.941,0,0,1-.6-1.551c-.005-2.418,0-4.836-.007-7.255,0-.2.037-.266.256-.264,1.719.011,3.439.006,5.159.007.127,0,.255,0,.382.01a1.276,1.276,0,0,1,1.315,1.264q.009,3.663,0,7.326a.92.92,0,0,1-.975.949c-.223,0-.446,0-.669-.007-.121,0-.171.03-.164.159.01.207.009.414,0,.62-.005.124.035.165.161.165q2.687,0,5.374,0c.136,0,.159-.053.155-.17-.008-.207-.011-.414,0-.62.007-.133-.046-.159-.165-.155-.247.008-.494.008-.74,0a.8.8,0,0,1-.865-.884q0-2.422,0-4.845,0-2.458,0-4.916c0-.136,0-.2-.186-.2-1.486.054-2.972.107-4.459.128-1.457.021-2.914,0-4.371.008-.17,0-.211-.052-.21-.215q.009-1.969,0-3.938c0-.195.09-.454-.042-.567-.112-.1-.366-.01-.553-.037-.227-.033-.259.077-.267.263a7.384,7.384,0,0,1-.479,2.418,3.384,3.384,0,0,1-2.155,2.2c-.206.064-.5.026-.6.2s-.011.435-.026.657" transform="translate(-208.052 -3.487)" fill="#ababab"/>
    <path id="Path_62485" data-name="Path 62485" d="M398.162,30.977c-.791-.033-1.111-.329-1.117-1.111q-.022-2.839-.006-5.678a5.1,5.1,0,0,0-.588-2.474,2.809,2.809,0,0,0-1.585-1.407,4.575,4.575,0,0,0-4.005.444,5.321,5.321,0,0,0-1.745,1.807c-.064-.79-.16-1.513-.287-2.233-.035-.2-.08-.3-.332-.284-1.014.082-2.03.134-3.045.2-.637.039-.637.042-.561.687.014.117.041.168.169.16.191-.011.382-.008.573,0a1.36,1.36,0,0,1,1.41,1.221,3.691,3.691,0,0,1,.008.5q0,3.615,0,7.229a.812.812,0,0,1-.5.8,2.434,2.434,0,0,1-.454.14c-.2.054-.493-.115-.6.093-.091.176-.019.436-.02.658a.321.321,0,0,1,0,.048c-.015.111.026.152.144.151q2.46,0,4.919,0c.136,0,.159-.053.155-.17-.007-.207-.01-.414,0-.62.007-.132-.045-.164-.164-.155a2.532,2.532,0,0,1-.618-.04.84.84,0,0,1-.762-.764,2.272,2.272,0,0,1-.034-.378q0-2.171,0-4.342a4.818,4.818,0,0,1,.192-1.435,3.275,3.275,0,0,1,2.4-2.5,2.429,2.429,0,0,1,3.114,1.8A5.316,5.316,0,0,1,395,24.707c0,1.718,0,3.436,0,5.153a.94.94,0,0,1-.918,1.076c-.21.027-.518-.026-.606.09-.109.143-.023.426-.044.646-.019.2.053.249.25.248,1.488-.008,2.977,0,4.466,0,.473,0,.473,0,.473-.465s0-.457-.458-.475" transform="translate(-268.971 -14.003)" fill="#ababab"/>
    <path id="Path_62486" data-name="Path 62486" d="M253.8,21.2c.222.006.444.025.665.049a1.254,1.254,0,0,1,1.255,1.4c-.026,1.591-.005,3.182-.009,4.773a9.323,9.323,0,0,0,.09,1.426,4.034,4.034,0,0,0,.75,1.956,3.8,3.8,0,0,0,4.635.922,7.929,7.929,0,0,0,2.489-2.048c.081.725.162,1.41.231,2.095.013.132.052.17.184.166.628-.02,1.256-.029,1.884-.044.572-.014,1.145-.035,1.717-.043.126,0,.155-.039.159-.162.022-.728.025-.728-.687-.685a1.281,1.281,0,0,1-1.466-1.363q0-4.654.005-9.307c0-.208-.058-.245-.249-.232-1.063.066-2.127.118-3.191.179-.219.013-.513-.082-.637.069s-.022.443-.04.672c-.01.13.028.176.168.178a4.066,4.066,0,0,1,1.037.145,1.109,1.109,0,0,1,.883,1.17c0,1.4-.005,2.8,0,4.2a4.518,4.518,0,0,1-.142,1.322,3.53,3.53,0,0,1-2.143,2.54,2.516,2.516,0,0,1-2.846-.537,2.807,2.807,0,0,1-.746-2.075q-.008-3.818,0-7.637c0-.186-.041-.238-.234-.227-1.254.073-2.509.134-3.763.192-.129.006-.163.048-.158.168.008.2.01.4,0,.6-.006.123.046.139.152.142" transform="translate(-177.272 -14.048)" fill="#ababab"/>
    <path id="Path_62487" data-name="Path 62487" d="M351.491,30.968a5.459,5.459,0,0,0,7.658-1.4,6.714,6.714,0,0,0,1.026-3.81,8.99,8.99,0,0,0-.187-1.721,5.517,5.517,0,0,0-4.836-4.4,5.344,5.344,0,0,0-5.372,3.078,7.539,7.539,0,0,0-.5,4.613,5.653,5.653,0,0,0,2.21,3.639m.429-8.391a3.126,3.126,0,0,1,1.683-1.855,2.864,2.864,0,0,1,3.7,1.539,6.215,6.215,0,0,1,.517,2.142,12.551,12.551,0,0,1-.22,3.91,3.8,3.8,0,0,1-1.27,2.182,2.707,2.707,0,0,1-3.956-.636,5.08,5.08,0,0,1-.787-2.124,12.894,12.894,0,0,1-.149-2.036,8.9,8.9,0,0,1,.483-3.121" transform="translate(-244.004 -13.708)" fill="#ababab"/>
    <path id="Path_62488" data-name="Path 62488" d="M198.44,27.624a5.454,5.454,0,0,0,4.744,4.32,5.613,5.613,0,0,0,5.378-2.925,7.455,7.455,0,0,0,.705-3.513c-.022-.237-.042-.594-.092-.948a5.758,5.758,0,0,0-1.709-3.457,5.365,5.365,0,0,0-8.6,1.606,7.459,7.459,0,0,0-.432,4.917m2.571-5.058a3.017,3.017,0,0,1,1.971-1.957,2.859,2.859,0,0,1,3.43,1.669,7.05,7.05,0,0,1,.537,2.618,11.731,11.731,0,0,1-.3,3.592,3.718,3.718,0,0,1-1.117,1.9,2.7,2.7,0,0,1-3.825-.249,4.7,4.7,0,0,1-1.024-2.421,12.981,12.981,0,0,1-.149-2.04,8.751,8.751,0,0,1,.481-3.113" transform="translate(-138.53 -13.693)" fill="#ababab"/>
    <path id="Path_62489" data-name="Path 62489" d="M155.992,20.883a3.852,3.852,0,0,1,.016.523c-.006.13.043.158.163.164.365.016.728.058,1.092.092a1.24,1.24,0,0,1,1.047.823c.528,1.153,1.045,2.311,1.567,3.467q1.483,3.284,2.961,6.569c.062.139.132.2.282.182a.731.731,0,0,1,.214,0c.206.036.3-.052.382-.244q2.067-4.8,4.149-9.6a2.057,2.057,0,0,1,1.329-1.206c.175-.055.431.025.512-.158.071-.16,0-.377.021-.565.022-.21-.066-.243-.255-.241-1.313.008-2.627,0-3.94.007-.211,0-.492-.1-.612.047-.1.123-.024.395-.041.6-.015.169.036.235.214.255a2.864,2.864,0,0,1,1,.286.876.876,0,0,1,.464,1.264q-1.068,2.53-2.136,5.06c-.2.472-.4.942-.619,1.457-.047-.1-.073-.154-.1-.209q-1.336-2.971-2.672-5.943a6.349,6.349,0,0,1-.406-.963.626.626,0,0,1,.529-.863c.186-.041.376-.065.565-.088.211-.026.513.068.614-.07s.025-.427.039-.649c.009-.137-.039-.173-.173-.173q-3.009.006-6.017,0c-.139,0-.208.026-.193.182" transform="translate(-109.019 -14.439)" fill="#ababab"/>
    <path id="Path_62490" data-name="Path 62490" d="M232.408,1.879c-.011.16.03.226.206.218.3-.014.6-.008.907,0a1.394,1.394,0,0,1,1.34.815,1.735,1.735,0,0,1,.067.634q0,6.513,0,13.026a.972.972,0,0,1-1.037,1.051c-.215,0-.43.005-.645,0-.1,0-.139.032-.135.136.007.214.008.429,0,.644,0,.123.032.165.16.165q2.663-.005,5.325,0c.117,0,.173-.021.167-.155-.011-.214-.009-.43,0-.644,0-.117-.037-.149-.149-.145a6.266,6.266,0,0,1-.668,0c-.5-.036-.92-.264-.914-.917.023-2.568.009-5.137.009-7.706,0-2.608,0-5.216.007-7.825,0-.232-.08-.254-.267-.241-.5.034-1,.058-1.5.081q-1.322.059-2.644.112c-.137.006-.247.018-.226.21a3.112,3.112,0,0,1,0,.548" transform="translate(-162.424 -0.647)" fill="#ababab"/>
    <path id="Path_62491" data-name="Path 62491" d="M334.236,5.327a1.372,1.372,0,0,0,1.374-1.378,1.421,1.421,0,0,0-1.394-1.423,1.4,1.4,0,0,0,.02,2.8" transform="translate(-232.611 -1.765)" fill="#ababab"/>
    <path id="Path_62492" data-name="Path 62492" d="M303.041,69.658a1.392,1.392,0,0,0,1.4,1.386,1.369,1.369,0,0,0,1.4-1.348,1.433,1.433,0,0,0-1.411-1.437,1.4,1.4,0,0,0-1.389,1.4" transform="translate(-211.791 -47.705)" fill="#ababab"/>
  </g>
</svg>
