<svg id="Group_18951" data-name="Group 18951" xmlns="http://www.w3.org/2000/svg" xmlns:xlink="http://www.w3.org/1999/xlink" width="144.051" height="35.576" viewBox="0 0 144.051 35.576">
  <defs>
    <linearGradient id="linear-gradient" x1="-0.226" y1="0.353" x2="1.151" y2="0.485" gradientUnits="objectBoundingBox">
      <stop offset="0" stop-color="#22e21f"/>
      <stop offset="0.489" stop-color="#30b8dd"/>
      <stop offset="1" stop-color="#23df2c"/>
    </linearGradient>
    <clipPath id="clip-path">
      <path id="Path_62507" data-name="Path 62507" d="M54.882,14.643c.016,1.511.007,3.023.006,4.534v3.87c0,1.17,0,1.17,1.178,1.164.537,0,.541,0,.541-.548q0-3.889,0-7.779c0-.443-.011-.886,0-1.329.01-.307-.116-.423-.417-.4a5.516,5.516,0,0,1-.822,0q-.051,0-.1,0c-.306,0-.4.163-.393.5m66.875,0c.017,1.5.007,3,.007,4.5,0,1.539.007,3.078-.006,4.618,0,.333.1.484.446.456a5.574,5.574,0,0,1,.823,0c.312.021.4-.113.4-.413q-.011-4.618,0-9.235c0-.3-.086-.437-.4-.416a4.89,4.89,0,0,1-.783,0,.98.98,0,0,0-.1-.005c-.3,0-.394.162-.39.5M78.035,23.2a1.808,1.808,0,0,1-1.653-1.631,14.968,14.968,0,0,1-.039-4.556c.188-1.357.9-1.9,2.392-1.955a5.593,5.593,0,0,1,1.206.095,2.005,2.005,0,0,1,1.669,2.034c.053.661.077,1.325.125,2.17-.054.614-.086,1.41-.2,2.193A1.784,1.784,0,0,1,79.9,23.2a7.852,7.852,0,0,1-.959.059,7.574,7.574,0,0,1-.905-.054m-.189-9.161a3.118,3.118,0,0,0-3.172,3.024,14.145,14.145,0,0,0,.052,4.553,3,3,0,0,0,2.524,2.6,8.348,8.348,0,0,0,3.419,0,2.967,2.967,0,0,0,2.513-2.6c.134-.805.162-1.628.222-2.27-.051-.831-.067-1.483-.135-2.129a3.09,3.09,0,0,0-2.742-3.092,10.535,10.535,0,0,0-1.668-.134,9.736,9.736,0,0,0-1.013.052m-6.773.448c-.363.2-.724.4-1.135.633-.039-.138-.064-.21-.08-.284-.156-.688-.155-.688-.875-.685-.548,0-.55,0-.551.537q0,3.385,0,6.77c0,.77.014,1.54-.006,2.309-.008.347.12.47.457.445a6.4,6.4,0,0,1,.823,0c.295.017.4-.118.385-.4-.007-.1,0-.209,0-.313,0-2.257,0-4.514.008-6.77a.743.743,0,0,1,.193-.544,4.817,4.817,0,0,1,2.825-1.013c.82.023.817-.01.889-.826.02-.224-.035-.335-.282-.357-.18-.016-.358-.025-.534-.025a4.277,4.277,0,0,0-2.116.518M61.6,14.016a3.16,3.16,0,0,0-3.128,2.906,14.165,14.165,0,0,0-.029,4.365,3.02,3.02,0,0,0,2.668,2.951,7.622,7.622,0,0,0,3.381-.055,2.684,2.684,0,0,0,2.162-2.474c.068-.813.068-.813-.754-.813-.719,0-.719,0-.823.713a1.737,1.737,0,0,1-1.708,1.628,8.5,8.5,0,0,1-1.284.006A1.876,1.876,0,0,1,60.153,21.5c-.12-.757-.146-1.528-.2-2.119.046-.83.073-1.481.121-2.13A2.044,2.044,0,0,1,61.5,15.212a4.3,4.3,0,0,1,2.321-.007,1.637,1.637,0,0,1,1.219,1.3c.075.307.059.751.253.883a1.128,1.128,0,0,0,.676.079c.108-.007.215-.015.316-.012.065,0,.152.019.191-.015.087-.073.215-.176.211-.262a2.816,2.816,0,0,0-2.29-3.028,7.3,7.3,0,0,0-1.717-.194,9.969,9.969,0,0,0-1.083.062m36.97,9.192a1.866,1.866,0,0,1-1.52-1.721,16.187,16.187,0,0,1,0-4.6c.218-1.486,1.184-1.925,2.667-1.793a8.777,8.777,0,0,1,1.954.638.485.485,0,0,1,.337.543c-.013.951-.005,1.9-.005,2.854s.007,1.929-.008,2.893a.6.6,0,0,1-.167.437,4.522,4.522,0,0,1-2.458.836,3.55,3.55,0,0,1-.8-.092M98.145,14a2.8,2.8,0,0,0-2.726,2.512,17.413,17.413,0,0,0-.048,5.069,2.813,2.813,0,0,0,2.681,2.782,5.46,5.46,0,0,0,3.714-.786c.126-.078.263-.137.4-.209.246.87.246.856,1.083.855.332,0,.421-.128.42-.44q-.012-4.6,0-9.2c0-.321-.106-.431-.429-.432-.827,0-.827-.013-1.082.8-.2-.1-.374-.185-.543-.275a5.794,5.794,0,0,0-2.756-.722,5.731,5.731,0,0,0-.718.046M139.466,23.1c-1.209-.083-1.916-.564-2.014-1.761a26.635,26.635,0,0,1-.009-4.36c.127-1.521,1.07-1.987,2.691-1.91a4.2,4.2,0,0,1,2.026.776.716.716,0,0,1,.23.523c.023.925.01,1.85.01,2.775s-.009,1.824.006,2.736a.566.566,0,0,1-.359.577,5,5,0,0,1-2.318.652q-.13,0-.264-.009M138.1,14.069a2.536,2.536,0,0,0-2.2,2.143,21.758,21.758,0,0,0-.245,3.3,13.339,13.339,0,0,0,.242,2.56,2.369,2.369,0,0,0,1.865,1.952,5.487,5.487,0,0,0,3.679-.259c.284-.126.565-.261.847-.391l.148.045c-.06.614-.085,1.234-.192,1.84a1.4,1.4,0,0,1-1.309,1.262c-1.076.078-2.159.091-3.238.063-.638-.017-.5-.015-.618.514-.016.076-.049.17-.02.23.053.11.136.279.223.29a13.789,13.789,0,0,0,4.4.037A2.533,2.533,0,0,0,143.83,25.6a7.505,7.505,0,0,0,.208-1.581c.02-2.817.009-5.635.009-8.452,0-.171,0-.343,0-.515v-.12c0-.154,0-.307-.016-.46-.008-.106-.132-.284-.213-.29a2.456,2.456,0,0,0-.964.041c-.131.045-.155.4-.229.616-.016.046-.042.09-.084.175l-.516-.293a5.412,5.412,0,0,0-3.925-.646M88.132,23.013a1.681,1.681,0,0,1-1.35-1.269,3.527,3.527,0,0,1-.162-.881,38.9,38.9,0,0,1,.074-3.9c.154-1.517,1.113-1.952,2.643-1.886a4.174,4.174,0,0,1,2.068.777.686.686,0,0,1,.236.478c.032.467.011.938.011,1.408v1.408c0,.926.006,1.853-.007,2.779a.544.544,0,0,1-.152.4A4.8,4.8,0,0,1,89,23.113a3.853,3.853,0,0,1-.87-.1m-.33-9.024a2.793,2.793,0,0,0-2.733,2.5,17.1,17.1,0,0,0-.052,5.029,2.629,2.629,0,0,0,2.3,2.6,5.593,5.593,0,0,0,3.662-.466c.193-.1.393-.183.7-.325-.047.62-.055,1.15-.133,1.668a1.689,1.689,0,0,1-1.8,1.613,25.244,25.244,0,0,1-2.853-.023c-.451-.033-.551.127-.574.489-.006.091-.053.2-.02.269.053.114.147.281.242.294a15.03,15.03,0,0,0,4.1.091A2.553,2.553,0,0,0,93.1,25.514a9.112,9.112,0,0,0,.211-1.937c.022-2.962.01-5.924.009-8.885a1.217,1.217,0,0,0-.013-.311c-.02-.076-.091-.194-.143-.2a3.274,3.274,0,0,0-1.044.027c-.132.039-.161.42-.241.644a.67.67,0,0,1-.07.12.4.4,0,0,1-.1-.019c-.092-.049-.182-.1-.272-.154a5.827,5.827,0,0,0-2.959-.855,5.474,5.474,0,0,0-.675.042m40,.565c-.254.128-.51.251-.808.4a1.038,1.038,0,0,1-.1-.275c.01-.468-.256-.576-.658-.523a1.141,1.141,0,0,1-.157,0c-.61,0-.612,0-.612.6q0,4.424,0,8.847c0,.613,0,.613.633.614h.51c.557,0,.557,0,.56-.57,0-.1,0-.209,0-.313,0-2.323,0-4.645.008-6.968a.724.724,0,0,1,.2-.538,4.417,4.417,0,0,1,3.405-.664,1.579,1.579,0,0,1,1.355,1.38,12.128,12.128,0,0,1,.121,1.6q.021,2.8,0,5.6c0,.338.077.519.457.483a5.614,5.614,0,0,1,.822,0c.286.015.4-.1.395-.387-.011-.652,0-1.3,0-1.958-.02-1.747-.012-3.5-.082-5.242a2.467,2.467,0,0,0-2-2.522,6.458,6.458,0,0,0-1.464-.174,5.628,5.628,0,0,0-2.578.622m-20.026.083c-.177.1-.36.189-.564.295a1.714,1.714,0,0,1-.085-.217c-.12-.561-.119-.561-.7-.562h-.039c-.69,0-.691,0-.691.671q0,4.149,0,8.3c0,1.093,0,1.093,1.095,1.089.574,0,.575,0,.575-.589,0-2.427,0-4.854.008-7.28a.69.69,0,0,1,.182-.508,3.788,3.788,0,0,1,3.078-.683,1.532,1.532,0,0,1,1.264,1.28,7.6,7.6,0,0,1,.13,1.281c.014,1.853,0,3.706.009,5.558.005,1.083-.162.915.964.949.381.011.493-.121.489-.493-.016-1.7.008-3.392-.013-5.089-.01-.819-.1-1.637-.127-2.456a.458.458,0,0,1,.16-.349,3.88,3.88,0,0,1,3.043-.692,1.518,1.518,0,0,1,1.3,1.24,7.864,7.864,0,0,1,.141,1.357q.022,3.013,0,6.028c0,.339.1.481.447.451a4.069,4.069,0,0,1,.744,0c.373.035.5-.1.495-.483-.017-1.931,0-3.862-.011-5.793,0-.495-.031-.991-.084-1.483a2.6,2.6,0,0,0-.9-1.891,3.751,3.751,0,0,0-2.224-.631,5.256,5.256,0,0,0-3.068.915.431.431,0,0,1-.6-.051,3.679,3.679,0,0,0-1.234-.7,4.582,4.582,0,0,0-1.245-.175,5.141,5.141,0,0,0-2.531.712M121.75,11.97c.012.987-.113.883.787.881.111,0,.209,0,.294,0,.7.011.6.022.6-.893,0-.838.115-.834-.663-.83h-.5c-.619,0-.508.051-.52.841M54.88,11.959c0,.916-.1.9.6.892l.288,0c.964,0,.849.12.848-.851,0-.88.108-.878-.6-.875h-.649c-.577,0-.488.046-.487.838m-5.271-.313c-.971,3.1-1.968,6.189-2.959,9.282-.04.126-.093.247-.174.459-.079-.194-.124-.286-.155-.383-1-3.13-2.01-6.258-3-9.393-.112-.357-.262-.518-.651-.5s-.8.016-1.2.011c-.189,0-.379,0-.568,0-.538,0-.54,0-.54.547q0,5.755,0,11.508c0,1.039,0,1.039,1.03,1.035.555,0,.557,0,.557-.568q0-5.363,0-10.726c0-.161.021-.323.032-.484l.165-.044c.072.166.157.327.212.5,1.157,3.6,2.317,7.2,3.454,10.808.124.393.284.547.7.531a.532.532,0,0,0,.574-.443q1.753-5.518,3.533-11.029c.041-.125.172-.221.261-.33a1.324,1.324,0,0,1,.126.376c.012.757.007,1.513.007,2.27,0,2.884.005,5.767-.007,8.651,0,.369.105.532.488.494a4.573,4.573,0,0,1,.705,0c.282.016.4-.094.4-.383q-.007-6.145,0-12.291c0-.3-.107-.427-.413-.421-.614.012-1.229.027-1.842-.006l-.083,0c-.365,0-.543.149-.665.536M16.309,0c-.845.151-1.7.267-2.534.459A17.815,17.815,0,0,0,.163,15.287c-.047.334-.108.666-.163,1v2.975c.026.113.058.226.079.34.181.947.358,1.895.543,2.841a3.82,3.82,0,0,0,.16.458c.14-.176.233-.28.311-.394,2.743-3.962,5.4-7.982,7.764-12.179,1.057-1.874,2.007-3.808,3-5.718A1.718,1.718,0,0,1,13.5,3.624a1.541,1.541,0,0,1,1.392,1.289,4.536,4.536,0,0,1,.049,1.165c-.134,2.328-.321,4.654-.415,6.984-.057,1.418-.023,2.844.05,4.263q.126,2.458.4,4.907a9.139,9.139,0,0,0,.927,3.3c.331.624.58.7,1.048.161a23.584,23.584,0,0,0,2.053-2.605,63.5,63.5,0,0,0,4.368-8.265c.474-1.031.909-2.08,1.385-3.111a1.577,1.577,0,0,1,3,.507c.075.647.131,1.3.225,1.941a23.422,23.422,0,0,0,1.7,6.449,29.543,29.543,0,0,0,1.527,2.677c.127.217.18.412-.017.6a.4.4,0,0,1-.594-.032c-.187-.162-.382-.317-.556-.494a17.733,17.733,0,0,1-3.288-4.926c-.252-.526-.483-1.061-.744-1.637a2.449,2.449,0,0,0-.15.227c-.534,1.09-1.052,2.187-1.6,3.269a43.405,43.405,0,0,1-3.353,5.7,9.01,9.01,0,0,1-2.664,2.724,3.312,3.312,0,0,1-3.735-.026A4.921,4.921,0,0,1,12.736,26.3a21.1,21.1,0,0,1-1.26-6.66c-.123-1.938-.12-3.883-.174-5.825,0-.105-.021-.21-.041-.4-.1.16-.153.233-.2.312-2.452,4.613-5.121,9.1-7.943,13.492a.542.542,0,0,0,.046.7,17.92,17.92,0,0,0,3.343,3.607,17.453,17.453,0,0,0,11.109,4.047h.064a19.413,19.413,0,0,0,2.873-.224A17.085,17.085,0,0,0,31.286,29.4a17.318,17.318,0,0,0,4.028-14.884A17.155,17.155,0,0,0,29.527,4.381,17.243,17.243,0,0,0,21.865.462C21.015.269,20.148.152,19.288,0Z" fill="url(#linear-gradient)"/>
    </clipPath>
  </defs>
  <g id="Group_18950" data-name="Group 18950" clip-path="url(#clip-path)">
    <rect id="Rectangle_22783" data-name="Rectangle 22783" width="147.077" height="85.869" transform="matrix(0.931, -0.366, 0.366, 0.931, -12.125, 4.773)" fill="url(#linear-gradient)"/>
  </g>
</svg>
