<svg id="Group_18955" data-name="Group 18955" xmlns="http://www.w3.org/2000/svg" xmlns:xlink="http://www.w3.org/1999/xlink" width="115.66" height="40.762" viewBox="0 0 115.66 40.762">
  <defs>
    <clipPath id="clip-path">
      <rect id="Rectangle_22785" data-name="Rectangle 22785" width="115.66" height="40.762" fill="#ababab"/>
    </clipPath>
  </defs>
  <g id="Group_18954" data-name="Group 18954" transform="translate(0 0)" clip-path="url(#clip-path)">
    <path id="Path_62515" data-name="Path 62515" d="M0,49.486V24.357c1.45,0,2.875-.017,4.3.021.175,0,.384.274.505.466Q9.275,31.915,13.729,39c.106.168.22.332.417.628V24.405h5.032V49.524c-1.452,0-2.879.017-4.305-.021-.174,0-.385-.273-.506-.464Q9.9,41.965,5.452,34.881a1.527,1.527,0,0,0-.463-.514v15.12Z" transform="translate(0 -16.568)" fill="#ababab"/>
    <path id="Path_62516" data-name="Path 62516" d="M258.15,39.936V39.2c0-4.542.011-9.085-.013-13.628,0-.585.176-.753.741-.735,1.14.036,2.283.042,3.423,0,.613-.023.767.2.765.783-.019,6.036-.011,12.072-.011,18.108,0,1.8-.015,3.61.009,5.414.007.515-.157.689-.676.671-1.036-.035-2.075-.039-3.111,0a1,1,0,0,1-.994-.558q-4.432-7.093-8.891-14.169a1.294,1.294,0,0,0-.524-.5c-.013.233-.037.466-.037.7,0,4.584-.012,9.168.011,13.752,0,.586-.139.8-.756.776-1.16-.048-2.324-.031-3.485-.005-.467.011-.659-.1-.658-.618q.023-11.854,0-23.708c0-.5.156-.654.641-.642,1.057.027,2.117.031,3.174,0a1.011,1.011,0,0,1,1,.552q4.428,7.059,8.886,14.1c.106.168.223.329.335.492l.171-.049" transform="translate(-165.958 -16.898)" fill="#68b022"/>
    <path id="Path_62517" data-name="Path 62517" d="M190.406,17.945h.884c2.739,0,5.478.011,8.217-.009.483,0,.667.13.653.63-.029,1.1-.035,2.2,0,3.3.019.566-.158.753-.737.748-2.739-.027-5.478,0-8.217-.023-.6-.005-.843.136-.819.794.051,1.409.037,2.821,0,4.231-.012.529.177.667.68.664,3.361-.017,6.723,0,10.084-.019.528,0,.739.12.717.689-.043,1.1-.037,2.2,0,3.3.017.523-.158.67-.673.668-4.482-.017-8.964-.01-13.446-.01-.823,0-.825,0-.826.808q0,3.205,0,6.41c0,.363,0,.64-.508.64-.488,0-.526-.24-.526-.622q.009-19.759,0-39.517c0-.384.041-.622.527-.623.507,0,.508.278.507.64-.006,2.075,0,4.149,0,6.223,0,.994,0,.995,1.025.995,4.378,0,8.757.014,13.135-.015.646,0,.818.187.788.809-.05,1.056-.043,2.116,0,3.173.022.559-.175.7-.712.7-3.3-.02-6.6-.011-9.9-.009-.859,0-.86,0-.86.848,0,1.491,0,2.982,0,4.582" transform="translate(-126.471 0.001)" fill="#68b022"/>
    <path id="Path_62518" data-name="Path 62518" d="M83.725,39.391h-9.7v5.431H85.39v4.784H68.958V24.5H85.39v4.812H74.016v5.233h9.709Z" transform="translate(-46.913 -16.671)" fill="#ababab"/>
    <path id="Path_62519" data-name="Path 62519" d="M132.609,29.316h-5.748V24.482H143.3V29.3h-5.669V49.574h-5.027Z" transform="translate(-86.306 -16.655)" fill="#ababab"/>
    <path id="Path_62520" data-name="Path 62520" d="M316.4,39.712q0-4.575,0-9.151c0-1.033,0-1.033-1.06-1.033-1.391,0-2.782-.017-4.172.009-.473.009-.608-.16-.6-.615q.038-1.742,0-3.485c-.009-.445.163-.572.583-.571q7.6.013,15.193,0c.41,0,.608.11.6.561q-.031,1.774,0,3.548c.008.447-.176.566-.594.56-1.37-.019-2.74-.007-4.11-.007-1.03,0-1.031,0-1.031,1.063q0,9.057,0,18.115c0,1.3.1,1.1-1.143,1.116-.893.008-1.785,0-2.678,0-.989,0-.99,0-.99-.961q0-4.576,0-9.151" transform="translate(-211.285 -16.917)" fill="#68b022"/>
  </g>
</svg>
