<svg id="Group_18877" data-name="Group 18877" xmlns="http://www.w3.org/2000/svg" xmlns:xlink="http://www.w3.org/1999/xlink" width="126.631" height="34.695" viewBox="0 0 126.631 34.695">
  <defs>
    <clipPath id="clip-path">
      <rect id="Rectangle_22732" data-name="Rectangle 22732" width="126.631" height="34.695" fill="none"/>
    </clipPath>
  </defs>
  <g id="Group_18876" data-name="Group 18876" clip-path="url(#clip-path)">
    <path id="Path_62422" data-name="Path 62422" d="M120.805,53.605q-1.093.023-2.187,0a.4.4,0,0,0-.452.355q-.309,1.1-.663,2.187c-.094.287-.051.4.271.387.364-.018.729,0,1.094,0,.328,0,.658-.022.983.006s.481-.1.569-.419c.194-.717.421-1.426.657-2.131.1-.291.042-.387-.272-.38" transform="translate(-85.823 -39.167)" fill="#0082c2"/>
    <path id="Path_62423" data-name="Path 62423" d="M230.968,27.006c-.085-2.182.7-4.181,1.321-6.213,1.15-3.756,2.313-7.508,3.46-11.264.192-.628.463-1.221.7-1.829a14.336,14.336,0,0,1,7-6.645A11.832,11.832,0,0,1,248.374,0c10.071.012,20.141-.009,30.212.019a8.863,8.863,0,0,1,5.791,2.087,7.478,7.478,0,0,1,2.661,5.326c.008.09.028.179.043.269a.918.918,0,0,1,.208.764,15.551,15.551,0,0,1-.745,3.8c-1.328,4.3-2.581,8.631-3.941,12.925a3.841,3.841,0,0,1-.863,1.8,14.955,14.955,0,0,1-7.376,6.629,12.879,12.879,0,0,1-5.143,1.066c-10.083,0-20.167.05-30.249-.027a7.682,7.682,0,0,1-7.292-4.692,9.716,9.716,0,0,1-.712-2.955" transform="translate(-168.754 0)" fill="#0f194d"/>
    <path id="Path_62424" data-name="Path 62424" d="M419.49,47.877c1.83-4.82,3.046-9.832,4.629-14.729a12.065,12.065,0,0,0,.712-4.556c1.386.042,2.772-.063,4.159.088a4.82,4.82,0,0,1,4.141,4.477,9.653,9.653,0,0,1-.618,3.2c-.57,1.861-1.189,3.709-1.69,5.588a7.878,7.878,0,0,1-4.7,5.276,7.389,7.389,0,0,1-3.288.685c-1.113-.027-2.228-.019-3.341-.027" transform="translate(-306.504 -20.891)" fill="#2399d4"/>
    <path id="Path_62425" data-name="Path 62425" d="M67.7,28.589H9.618a7.184,7.184,0,0,0-6.9,4.946C1.876,36.229,1.064,38.93.237,41.626a4.873,4.873,0,0,0-.143,2.435A4.565,4.565,0,0,0,4.9,47.895q28.656.006,57.313,0c.185-.144.167-.355.172-.552a10.917,10.917,0,0,1,.482-2.909c.905-3.008,1.818-6.014,2.765-9.01.666-2.106,1.2-4.255,2.03-6.309a.571.571,0,0,0,.036-.525M13.105,41.1c-.784-.036-1.571,0-2.356-.011a.459.459,0,0,0-.539.4c-.19.7-.433,1.387-.64,2.083-.094.315-.237.483-.608.464-.637-.034-1.278-.019-1.917-.006-.361.008-.49-.068-.364-.474q1.664-5.335,3.284-10.684c.1-.328.256-.379.541-.375.931.011,1.863,0,2.794,0v0c.877,0,1.754-.016,2.63,0a1.964,1.964,0,0,1,2.006,2.613c-.3,1.123-.646,2.234-1.031,3.33a4.179,4.179,0,0,1-3.8,2.654m11.762,2.937c-1.3,0-2.594,0-3.891,0s-2.595-.01-3.891.006c-.367,0-.42-.083-.31-.436q1.679-5.361,3.323-10.733a.473.473,0,0,1,.545-.393c.657.023,1.316.025,1.973,0,.432-.016.475.122.353.512-.78,2.5-1.535,5-2.3,7.508-.19.622-.191.623.466.624.566,0,1.133-.016,1.7.006a.494.494,0,0,0,.582-.422c.2-.7.444-1.385.649-2.083a.466.466,0,0,1,.543-.393c.675.025,1.352.015,2.028,0,.309,0,.437.061.325.41q-.818,2.543-1.6,5.1c-.087.286-.263.295-.5.294m13.447-8.973c-.371,1.443-.851,2.858-1.287,4.284s-.891,2.846-1.307,4.278a.454.454,0,0,1-.529.4c-.676-.017-1.353-.014-2.029,0-.339.006-.458-.08-.334-.443.3-.878.555-1.771.851-2.651.121-.36.048-.493-.347-.479-.657.022-1.317.026-1.973,0a.535.535,0,0,0-.622.447c-.271.907-.585,1.8-.848,2.71a.491.491,0,0,1-.578.422c-.676-.024-1.353-.011-2.029-.006-.294,0-.385-.086-.289-.4.867-2.8,1.687-5.61,2.593-8.394A4.126,4.126,0,0,1,33.5,32.5c.42,0,.841,0,1.261,0v0c.53,0,1.061-.016,1.59,0a1.946,1.946,0,0,1,1.965,2.56m10.914-2.05c-.543,1.736-1.062,3.48-1.61,5.215a4.04,4.04,0,0,1-1.311,1.917,3.564,3.564,0,0,1-2.112.934c-.274.013-.361.168-.429.4-.2.7-.438,1.388-.631,2.089-.091.331-.232.481-.6.464-.656-.031-1.316-.02-1.973,0-.353.009-.459-.087-.337-.445.222-.654.389-1.327.618-1.978.111-.316.067-.448-.274-.524a1.978,1.978,0,0,1-1.63-2.645c.533-1.889,1.132-3.761,1.7-5.641.058-.193.145-.313.377-.31q1.124.016,2.248,0c.471-.006.258.289.2.474-.478,1.6-.956,3.205-1.466,4.8-.131.408-.048.523.364.49.327-.026.658-.005.987-.005,1.418,0,1.423,0,1.845-1.348s.838-2.673,1.225-4.019a.454.454,0,0,1,.535-.392c.639.015,1.28.026,1.919,0,.457-.02.465.17.354.525m.891,2.466c.288-.879.541-1.768.8-2.655.056-.188.128-.321.365-.319,1,.009,2,0,3.057,0-.328,1.07-.643,2.087-.952,3.106-.068.226-.231.24-.424.239-.856,0-1.712-.008-2.568,0-.292,0-.387-.058-.283-.376m11.956,2.377c-.518,1.987-1.167,3.94-1.755,5.91a.342.342,0,0,1-.4.273c-.713-.012-1.426-.024-2.139,0-.411.016-.459-.127-.349-.482.489-1.562.961-3.129,1.438-4.695.057-.186.107-.374.17-.6-.89,0-1.728.009-2.566,0-.319-.005-.327.227-.391.428-.507,1.613-1.033,3.22-1.5,4.843a.592.592,0,0,1-.722.512c-.638-.033-1.279-.013-1.919-.007-.272,0-.4-.026-.292-.37.581-1.857,1.1-3.734,1.709-5.582a4.148,4.148,0,0,1,3.814-2.724q1.452-.019,2.906.005a1.93,1.93,0,0,1,1.994,2.491" transform="translate(0 -20.889)" fill="#2399d4"/>
    <path id="Path_62426" data-name="Path 62426" d="M263.349,11.8c2.34,0,4.68.012,7.02-.011.464,0,.512.128.382.526-.658,2.006-1.312,4.014-1.933,6.032a.585.585,0,0,1-.68.5c-4.3-.014-8.593,0-12.889-.019a.6.6,0,0,0-.687.5q-2.037,6.6-4.112,13.19c-.154.488-.052.588.432.583q2.852-.032,5.7,0c.373,0,.541-.094.644-.473.281-1.037.618-2.058.93-3.086.193-.638.191-.639-.5-.64s-1.353-.008-2.029,0c-.36.005-.488-.062-.349-.475.552-1.639,1.07-3.29,1.585-4.941a.474.474,0,0,1,.549-.378q4.689.017,9.379,0c.366,0,.522.018.377.476-1.008,3.193-1.891,6.429-2.994,9.588a10.056,10.056,0,0,1-7.72,6.875,5.3,5.3,0,0,1-1.144.089c-2.651,0-5.3.069-7.951-.035a4.821,4.821,0,0,1-4.569-4.715,9.762,9.762,0,0,1,.574-3.156q2.13-6.77,4.269-13.538a10.2,10.2,0,0,1,9.349-6.889c2.121-.01,4.242,0,6.363,0" transform="translate(-177.399 -8.613)" fill="#fe1323"/>
    <path id="Path_62427" data-name="Path 62427" d="M44.342,53.5c-.506,0-1.143-.209-1.484.088s-.367.911-.513,1.394c-.137.45-.487,1.1-.313,1.318.259.327.911.064,1.308.114,1.458,0,1.458,0,1.871-1.325.033-.1.063-.208.095-.313.394-1.279.394-1.287-.964-1.275" transform="translate(-30.677 -39.042)" fill="#0082c2"/>
    <path id="Path_62428" data-name="Path 62428" d="M356.883,15.477a4.779,4.779,0,0,0-4.541-3.7c-1.368-.06-2.74-.011-4.111-.011v-.033c-1.078,0-2.157-.011-3.235,0a10.426,10.426,0,0,0-9.691,7.236c-.817,2.643-1.654,5.279-2.439,7.931-.691,2.336-1.574,4.618-2.053,7.014a4.971,4.971,0,0,0,5,6.14c2.358.012,4.716,0,7.074,0a3.553,3.553,0,0,0,.657-.02c4.305-.814,7.429-3.181,8.848-7.343,1.6-4.682,2.92-9.458,4.352-14.2a5.739,5.739,0,0,0,.136-3.024m-7.52,3.894q-1.779,5.7-3.542,11.407c-.194.625-.411,1.243-.576,1.876a.451.451,0,0,1-.53.4c-1.022-.016-2.045-.006-3.068-.006s-2.045-.011-3.068.006c-.36.006-.44-.091-.33-.443q2.121-6.737,4.214-13.483c.1-.333.3-.342.574-.341,1.972.006,3.945.023,5.916-.01.548-.009.536.189.409.595" transform="translate(-241.627 -8.572)" fill="#fe1323"/>
  </g>
</svg>
