<svg id="Group_18914" data-name="Group 18914" xmlns="http://www.w3.org/2000/svg" xmlns:xlink="http://www.w3.org/1999/xlink" width="125.233" height="38.736" viewBox="0 0 125.233 38.736">
  <defs>
    <clipPath id="clip-path">
      <rect id="Rectangle_22765" data-name="Rectangle 22765" width="125.233" height="38.736" fill="#bb4ddf"/>
    </clipPath>
  </defs>
  <g id="Group_18913" data-name="Group 18913" clip-path="url(#clip-path)">
    <path id="Path_62461" data-name="Path 62461" d="M0,19.793l2.522,1.2A31.6,31.6,0,0,0,2.5,17.348c-.248-2.025.6-3.627,1.49-5.354C5.5,9.065,7.812,6.888,10.1,4.653c.529-.516,1.074-1.016,1.674-1.583l.908,3.017a1.185,1.185,0,0,0,.863-.993c.393-1.685.835-3.358,1.272-5.093,2.544,1.416,5.048,2.639,7.354,4.161a16.913,16.913,0,0,1,3.295,3.318c.963,1.133,1.816,1.729,3.4.936,1.456-.729,1.536-.533,2.227.936,1.32,2.806,2.67,5.6,3.972,8.412a2.235,2.235,0,0,1,.133,1.189c-.294,2.086-.632,4.166-.958,6.247-.068.435-.151.868-.248,1.418l2.352-.48c-.795,1.956-1.7,3.91-2.379,5.943a4.249,4.249,0,0,1-3.038,2.972c-3.232,1.047-6.386,2.337-9.573,3.524a1.554,1.554,0,0,1-.564.16c-2.107-.1-4.229-.1-6.317-.368a23.244,23.244,0,0,1-4.065-1.12c-1.537-.491-3.054-1.047-4.574-1.59a1.211,1.211,0,0,1-.612-.37Q3.8,33.024,2.43,30.724C1.446,29.08,1.3,27.2.974,25.376c-.306-1.733-.632-3.463-.946-5.2A3.811,3.811,0,0,1,0,19.793M21.3,34.539c.137-1.133.352-2.236.388-3.344.089-2.7.115-5.412.122-8.118,0-.548.166-.877.691-.933.834-.088,1.673-.137,2.511-.169,1.329-.053,2.659-.079,4.091-.119v-7.04L7.371,15.08v7.3h7.478l.572,12.16Z" fill="#bb4ddf"/>
    <path id="Path_62462" data-name="Path 62462" d="M220.027,85.981l.566,5.375-2.906-.155c-.183-4.41-.363-8.762-.544-13.132.847-.182,1.541-.36,2.246-.474.544-.088.857.184,1.014.732.464,1.621,1,3.222,1.439,4.849.19.7.549.84,1.266.6-.112-1.269-.221-2.547-.341-3.825-.063-.665-.175-1.326-.2-1.992-.006-.152.247-.317.391-.468.024-.025.1,0,.146-.007,2.357-.159,2.5-.015,2.517,2.29q.03,5.514.092,11.028c0,.408-.157.513-.524.514-.7,0-1.395.077-2.085.021a.915.915,0,0,1-.632-.535c-.386-1.229-.725-2.474-1.039-3.724-.182-.723-.463-1.254-1.4-1.1" transform="translate(-160.345 -57.187)" fill="#bb4ddf"/>
    <path id="Path_62463" data-name="Path 62463" d="M454.221,90.721c-.727.086-1.342.17-1.96.228a1.028,1.028,0,0,1-1.22-.806c-.31-.939-.757-1.831-1.134-2.748a1.022,1.022,0,0,0-1.241-.672c0,.691.009,1.38,0,2.07a7.708,7.708,0,0,1-.088.889c-.172,1.266-.19,1.286-1.445,1.326-.494.016-.99,0-1.589,0V77.242h3.2c-.085,1.68-.172,3.394-.259,5.12a1.421,1.421,0,0,0,1.629-1.256,19.3,19.3,0,0,0,.342-3.166c.025-.535.148-.753.711-.753.912,0,1.824-.072,2.775-.116a7.873,7.873,0,0,1-2.513,7.184c1.517,1.893,2.954,3.815,2.8,6.466" transform="translate(-329 -56.912)" fill="#bb4ddf"/>
    <path id="Path_62464" data-name="Path 62464" d="M154.412,91.958c-.954-.125-1.817-.21-2.666-.373-.163-.031-.368-.364-.38-.568a23.71,23.71,0,0,1-.055-2.753,1.394,1.394,0,0,0-.977-1.51,2.824,2.824,0,0,0-.417,1.938,28.754,28.754,0,0,1,.279,3.3h-3.107c-.161-4.672-.324-9.367-.489-14.148h3.063c.046,1.618.111,3.27.136,4.922.022,1.405,0,1.405,1.527,1.457V78.38h3.087Z" transform="translate(-108.253 -57.483)" fill="#bb4ddf"/>
    <path id="Path_62465" data-name="Path 62465" d="M357.06,82.833c.858.231,1.261-.1,1.42-.791.3-1.3.617-2.6.868-3.909.081-.423.2-.612.648-.594.69.027,1.381.007,2.135.007.057,1.959.033,3.889-1.151,5.514-.914,1.254-1.274,2.265-.129,3.673,1.029,1.264,1.281,2.971,1.66,4.659-.951,0-1.82.028-2.684-.024-.169-.01-.4-.3-.466-.51a8.71,8.71,0,0,0-1.738-3.656c-.065-.067-.149-.117-.435-.339-.031,1.244-.125,2.315-.06,3.376.046.744-.175,1.076-.905,1.166-.534.066-1.056.233-1.687.378-.756-4.642-.289-9.253-.532-13.894h3.3c-.082,1.645-.163,3.287-.246,4.944" transform="translate(-261.407 -57.257)" fill="#bb4ddf"/>
    <path id="Path_62466" data-name="Path 62466" d="M187.442,87.642c0-1.527,0-3.059,0-4.592.007-2.184.032-4.369.024-6.554,0-.511.157-.712.685-.682.664.039,1.332.009,2.106.009,0,.5.005,1.04,0,1.578-.032,2.854-.007,5.711-.135,8.561a7.024,7.024,0,0,1-.77,2.9c-.677,1.274-2.6,1.687-4.35,1.166a2.967,2.967,0,0,1-2.27-3.036c-.047-2.956-.049-5.913-.068-8.869,0-.591,0-1.183,0-1.786h3.1c.192,3.93-.288,7.774.194,11.666l1.481-.357" transform="translate(-134.883 -55.982)" fill="#bb4ddf"/>
    <path id="Path_62467" data-name="Path 62467" d="M327.188,91.071l-2.326.132c-.291-1.227-.565-2.429-.864-3.625-.287-1.149-.3-1.146-1.621-1.124v4.558h-2.244c-.089-1.74-.2-3.415-.255-5.092-.078-2.579-.1-5.161-.172-7.74-.015-.528.114-.771.688-.763,1.408.019,2.825-.111,4.221.014a2.919,2.919,0,0,1,2.507,2.069,5.566,5.566,0,0,1-.805,5.88,1.477,1.477,0,0,0-.128,1.09c.261,1.262.6,2.507.892,3.761.056.236.063.483.107.84M322.4,79.9V84.06a16.581,16.581,0,0,0,2.213-.868c.68-.384.4-1.132.28-1.685a6.934,6.934,0,0,0-.769-1.589c-.012-.024-.094-.016-.143-.016H322.4" transform="translate(-236.08 -57.136)" fill="#bb4ddf"/>
    <path id="Path_62468" data-name="Path 62468" d="M255.313,76.705a26.963,26.963,0,0,1,3.866.278,4.388,4.388,0,0,1,3.45,3.984c-.036,1.683.073,3.374-.047,5.05a4.133,4.133,0,0,1-3.469,4.091,24.913,24.913,0,0,1-3.3.457c-.718.055-.949-.286-.927-1.011q.182-5.876.357-11.752c.01-.318.041-.635.072-1.1m2.563,2.689v8.723l.175.14a6.528,6.528,0,0,0,1.207-1.389,9.108,9.108,0,0,0,.434-6.238,1.635,1.635,0,0,0-1.815-1.236" transform="translate(-188.213 -56.641)" fill="#bb4ddf"/>
    <path id="Path_62469" data-name="Path 62469" d="M414.18,86.92h2.238c0,.672.044,1.338-.01,2a2,2,0,0,1-1.642,1.964,9.853,9.853,0,0,1-3.065.238c-1.8-.233-2.826-1.461-2.875-3.505-.059-2.5.046-5.007.189-7.5.075-1.321,1.838-2.745,3.423-2.868,2.743-.212,4.709,1.632,4.463,4.066h-2.537c-.015-.126-.033-.239-.042-.352a1.176,1.176,0,0,0-1.177-1.259,1.343,1.343,0,0,0-1.507,1.226q-.072,3.457-.042,6.916c.008.842.75,1.213,1.256,1.731a2.985,2.985,0,0,0,1.328-2.648" transform="translate(-301.877 -57.024)" fill="#bb4ddf"/>
    <path id="Path_62470" data-name="Path 62470" d="M293.445,86.9v3.183h3.607v2.158H290.6V78.717h2.461c1.068,0,2.137-.022,3.2.019.216.008.574.234.6.407a17.263,17.263,0,0,1,.146,1.942c-1,0-1.936.026-2.868-.01-.534-.021-.765.115-.737.7.044.935.012,1.874.012,2.853H295.9c0,.645.029,1.281-.024,1.912-.012.134-.316.335-.5.347-.613.043-1.231.016-1.93.016" transform="translate(-214.586 -58.123)" fill="#bb4ddf"/>
    <path id="Path_62471" data-name="Path 62471" d="M391.1,76.285l3.09-.563V89.481l-3.09.164Z" transform="translate(-288.798 -55.915)" fill="#bb4ddf"/>
  </g>
</svg>
