<svg id="Group_18912" data-name="Group 18912" xmlns="http://www.w3.org/2000/svg" xmlns:xlink="http://www.w3.org/1999/xlink" width="95.576" height="45.765" viewBox="0 0 95.576 45.765">
  <defs>
    <clipPath id="clip-path">
      <rect id="Rectangle_22764" data-name="Rectangle 22764" width="95.576" height="45.765" fill="none"/>
    </clipPath>
  </defs>
  <g id="Group_18911" data-name="Group 18911" clip-path="url(#clip-path)">
    <path id="Path_62451" data-name="Path 62451" d="M148.772,11.427c-.183.175-.266.248-.343.327a19.376,19.376,0,0,1-11,5.831c-.579.1-1.165.151-1.75.2a.389.389,0,0,1-.31-.2,11.43,11.43,0,0,1-.51-2.923,16.363,16.363,0,0,0,5.006-1.023c-.129-.116-.207-.194-.292-.261a14.081,14.081,0,0,0-4.178-2.3c-.243-.084-.328-.171-.241-.429.267-.792.52-1.588.771-2.385.086-.273.224-.332.505-.232a17.5,17.5,0,0,1,6.253,3.805c.242.229.408.253.654.046.858-.721,1.724-1.431,2.585-2.148a1.543,1.543,0,0,0,.2-.228.478.478,0,0,0,.039-.134,14.581,14.581,0,0,1-8.159-4.5,13.4,13.4,0,0,1,2.311-2.229,11.323,11.323,0,0,0,3.964,2.829c.2.087.414.159.725.277A20.371,20.371,0,0,1,143.7.726c.692-.194,1.382-.392,2.075-.58.174-.047.356-.064.533-.1.492-.1.512-.071.581.441A16.123,16.123,0,0,0,148.54,5.7a1.894,1.894,0,0,0,.173.225,16.453,16.453,0,0,0,1.843-5.91,8.973,8.973,0,0,1,3.155.81c-.174.808-.321,1.642-.537,2.458s-.494,1.586-.767,2.445A11.355,11.355,0,0,0,157.1,2.6l2.311,2.2A14.28,14.28,0,0,1,155.64,7.8a14.881,14.881,0,0,1-4.487,1.578,2.782,2.782,0,0,0,.286.34c.877.733,1.761,1.458,2.638,2.19.216.181.366.153.574-.044A17.346,17.346,0,0,1,161,8.019c.084-.029.171-.052.333-.1.244.7.495,1.384.719,2.078.1.3.265.67.163.9-.087.2-.511.262-.791.375a14.413,14.413,0,0,0-3.606,2.085c-.087.069-.17.143-.306.258.152.067.254.121.362.158a16.316,16.316,0,0,0,4.38.854c.18.011.318.018.273.26q-.235,1.265-.458,2.532a.381.381,0,0,1-.478.371,19.288,19.288,0,0,1-7.39-2.1,19.314,19.314,0,0,1-5.226-3.918,1.821,1.821,0,0,1-.2-.346" transform="translate(-100.898 0)" fill="#f96431"/>
    <path id="Path_62452" data-name="Path 62452" d="M146.636,146.326V134.759a2.315,2.315,0,0,1,.262-.03c1.315,0,2.632-.04,3.945.011a5.759,5.759,0,0,1,.985,11.455,25.1,25.1,0,0,1-3.425.127c-.576.014-1.152,0-1.768,0m2.533-2.279c.515,0,1.012,0,1.508,0a3.245,3.245,0,0,0,3.375-2.9,3.45,3.45,0,0,0-1.355-3.516c-1.074-.785-2.309-.622-3.529-.611Z" transform="translate(-109.705 -100.786)" fill="#fff"/>
    <path id="Path_62453" data-name="Path 62453" d="M196.9,142.662V140.4c.4,0,.784.005,1.167,0a3.391,3.391,0,0,0,.607-.049,1.59,1.59,0,0,0,1.413-1.678,1.514,1.514,0,0,0-1.467-1.581c-.886-.079-1.785-.017-2.72-.017v9.253H193.4v-11.55c.095-.008.171-.019.248-.019,1.633,0,3.266-.016,4.9.009a4.556,4.556,0,0,1,2.661.8,3.491,3.491,0,0,1,1.419,3.077,3.539,3.539,0,0,1-2.26,3.474c-.061.027-.119.06-.214.108l2.809,4.129a12.771,12.771,0,0,0-1.751.015,1.618,1.618,0,0,1-1.855-.991c-.406-.767-.966-1.451-1.429-2.19-.237-.379-.464-.7-1.019-.525" transform="translate(-144.687 -100.813)" fill="#fff"/>
    <path id="Path_62454" data-name="Path 62454" d="M102.192,139.768h3.587v.319c0,1.259,0,2.518-.006,3.776a.54.54,0,0,1-.135.381,7.079,7.079,0,0,1-7.43,1.176,5.351,5.351,0,0,1-3.382-4.829,5.812,5.812,0,0,1,2.427-5.483,6.772,6.772,0,0,1,8.107.453l-1.575,1.907a4.751,4.751,0,0,0-2.116-1.092,3.708,3.708,0,0,0-2.2,6.984,3.935,3.935,0,0,0,3.685-.26.409.409,0,0,0,.185-.28c.023-.35.009-.7.009-1.089h-1.152Z" transform="translate(-70.922 -100.231)" fill="#fff"/>
    <path id="Path_62455" data-name="Path 62455" d="M52.81,141.673H51.649v-1.936h3.592v.982c0,1.043.005,2.086-.007,3.13a.534.534,0,0,1-.15.376,7.133,7.133,0,0,1-7.438,1.157,5.629,5.629,0,0,1-3.393-5.527,5.827,5.827,0,0,1,4.97-5.81,6.464,6.464,0,0,1,5.6,1.477l-1.572,1.9c-.192-.142-.363-.269-.535-.394a3.955,3.955,0,0,0-2.76-.748,3.212,3.212,0,0,0-2.7,1.955,3.874,3.874,0,0,0,1.18,4.829,4.051,4.051,0,0,0,4.2-.011.374.374,0,0,0,.171-.225c.018-.37.008-.742.008-1.16" transform="translate(-33.106 -100.195)" fill="#fff"/>
    <path id="Path_62456" data-name="Path 62456" d="M164.859,62.16c.489-.249.965-.481,1.431-.732a11.106,11.106,0,0,0,1.112-.656c.254-.178.366-.072.514.123q1.47,1.937,2.953,3.864c.074.1.154.187.261.315.111-.133.2-.232.278-.336.979-1.278,1.962-2.553,2.931-3.838.167-.222.285-.268.545-.115.731.429,1.486.818,2.232,1.223l.284.151c-.071.1-.124.187-.185.266q-2.119,2.768-4.243,5.532a1.127,1.127,0,0,0-.246.746c.012,1.293,0,2.586.012,3.878,0,.3-.109.4-.392.4q-1.238-.01-2.477,0c-.255,0-.359-.093-.356-.363.011-1.315,0-2.631.01-3.946a1.077,1.077,0,0,0-.238-.714q-2.13-2.759-4.243-5.532c-.061-.08-.114-.164-.183-.264" transform="translate(-123.338 -45.398)" fill="#f96431"/>
    <path id="Path_62457" data-name="Path 62457" d="M285.5,143.917l1.477-1.775c.387.257.741.522,1.122.738a4.3,4.3,0,0,0,3.072.558,1.075,1.075,0,0,0,.97-1.088.835.835,0,0,0-.514-.813c-.538-.232-1.095-.422-1.651-.609-.685-.231-1.391-.406-2.064-.667a2.817,2.817,0,0,1-1.941-2.756,3.25,3.25,0,0,1,1.57-3.043,4.994,4.994,0,0,1,3.214-.6,6.428,6.428,0,0,1,3.348,1.288,1.116,1.116,0,0,1,.105.086.442.442,0,0,1,.049.086l-1.268,1.848c-.285-.169-.557-.344-.842-.5a4.11,4.11,0,0,0-2.669-.581,1.186,1.186,0,0,0-.912.582.938.938,0,0,0,.448,1.318,14.35,14.35,0,0,0,1.562.556c.644.213,1.31.368,1.936.624a2.972,2.972,0,0,1,2.125,3.159,3.243,3.243,0,0,1-2.453,3.145,7.135,7.135,0,0,1-6.683-1.556" transform="translate(-213.598 -100.117)" fill="#fff"/>
    <path id="Path_62458" data-name="Path 62458" d="M239.459,143.66c.3-.736.56-1.408.843-2.072a.335.335,0,0,1,.256-.137c.487-.013.975-.005,1.463-.007.109,0,.218-.01.383-.017l-1.534-3.786c-.086.187-.149.309-.2.435q-1.6,3.946-3.2,7.9a.413.413,0,0,1-.466.313c-.723-.018-1.446-.006-2.215-.006.246-.587.476-1.138.708-1.687q2.039-4.813,4.074-9.628a.466.466,0,0,1,.518-.352c.566.025,1.134.012,1.7,0a.323.323,0,0,1,.362.219q2.374,5.629,4.761,11.254c.021.05.035.1.064.188-.841,0-1.654.007-2.467-.011-.08,0-.19-.135-.231-.231-.286-.677-.568-1.357-.827-2.045a.438.438,0,0,0-.492-.34c-1.02.018-2.041.007-3.061.007Z" transform="translate(-175.657 -100.709)" fill="#fff"/>
    <path id="Path_62459" data-name="Path 62459" d="M11.361,134.748c-.09.168-.15.287-.215.4q-2.029,3.593-4.053,7.189a1.257,1.257,0,0,0-.15.573c-.015,1.009-.007,2.018-.007,3.027v.384h-2.5c0-.7-.048-1.379.011-2.051a4.764,4.764,0,0,0-.76-2.976c-1.215-2.029-2.334-4.116-3.492-6.179-.059-.105-.112-.214-.192-.369.959,0,1.871-.007,2.784.011.093,0,.213.142.268.246q1.242,2.3,2.469,4.61c.047.088.1.175.169.3.075-.122.133-.211.184-.3.828-1.521,1.66-3.04,2.479-4.566a.476.476,0,0,1,.492-.3c.816.018,1.632.007,2.516.007" transform="translate(0 -100.806)" fill="#fff"/>
    <path id="Path_62460" data-name="Path 62460" d="M356.02,144.162v2.267h-7.9V134.884h2.5v.4c0,2.835,0,5.669-.006,8.5,0,.3.072.386.377.383,1.542-.016,3.084-.007,4.626-.007Z" transform="translate(-260.444 -100.913)" fill="#fff"/>
    <rect id="Rectangle_22763" data-name="Rectangle 22763" width="2.452" height="11.549" transform="translate(83.035 33.96)" fill="#fff"/>
  </g>
</svg>
