<?xml version="1.0" encoding="utf-8"?>
<!-- Generator: Adobe Illustrator 24.0.1, SVG Export Plug-In . SVG Version: 6.00 Build 0)  -->
<svg version="1.1" id="Layer_1" xmlns="http://www.w3.org/2000/svg" xmlns:xlink="http://www.w3.org/1999/xlink" x="0px" y="0px"
	 viewBox="0 0 341 68" style="enable-background:new 0 0 341 68;" xml:space="preserve">
<style type="text/css">
	.st0{opacity:0.4;fill:#00072E;stroke:#0F194D;enable-background:new    ;}
	.st1{fill-rule:evenodd;clip-rule:evenodd;fill:url(#Path_62115_1_);}
	.st2{fill-rule:evenodd;clip-rule:evenodd;fill:url(#Path_62116_1_);}
	.st3{fill-rule:evenodd;clip-rule:evenodd;fill:url(#Path_62117_1_);}
	.st4{fill:url(#Path_62118_1_);}
	.st5{fill:#FFFFFF;}
	.st6{enable-background:new    ;}
	.st7{fill:url(#Path_62140_1_);}
	.st8{fill:url(#Path_62141_1_);}
	.st9{fill:url(#Path_62142_1_);}
	.st10{fill:url(#Path_62143_1_);}
	.st11{fill:url(#Path_62144_1_);}
	.st12{fill:url(#Path_62145_1_);}
	.st13{fill:#FFFFFF;stroke:#FFFFFF;stroke-width:0.2;stroke-miterlimit:10;}
	.st14{fill:#FCC737;}
	.st15{fill:url(#Path_62110_1_);}
	.st16{fill:url(#Path_62135_1_);}
	.st17{fill:url(#Path_62139_1_);}
	.st18{fill:url(#Ellipse_467_1_);}
</style>
<g id="Group_18735" transform="translate(-411.493 -371.552)">
	<g id="Group_18731">
		<path id="Path_62339" class="st0" d="M412.2,428.6l1.3-47.3c0,0,0.6-8.3,7.2-8.8h59c3.8,0.1,7,3.1,7.2,6.9
			c0.8,6.9,2.5,46.1,2.5,46.1s2.4,13.5-7.5,13.5l-61.2,0C420.7,439,410.6,439.2,412.2,428.6z"/>
		<g id="Group_18730" transform="translate(397 64)">
			<g id="Group_18721" transform="translate(42.172 316.016)">
				
					<linearGradient id="Path_62115_1_" gradientUnits="userSpaceOnUse" x1="-142.6297" y1="371.4532" x2="-142.6297" y2="372.1212" gradientTransform="matrix(7.224 0 0 -7.2 1044.6008 2697.2644)">
					<stop  offset="6.700000e-02" style="stop-color:#1F60AB"/>
					<stop  offset="0.483" style="stop-color:#267FC3"/>
					<stop  offset="1" style="stop-color:#2FA3DF"/>
				</linearGradient>
				<path id="Path_62115" class="st1" d="M10.6,18.1c0.1,0.4,3,5,3.1,5.1l0.9-2.4c0.1-0.2,0.3-0.4,0.6-0.3l2.7,0.3l-2.4-4.5
					C15.4,16.1,15.2,16,15,16c-2.4,0.2-2,1.1-2.9,1.8C11.6,18.1,11.1,18.2,10.6,18.1"/>
				
					<linearGradient id="Path_62116_1_" gradientUnits="userSpaceOnUse" x1="-142.4926" y1="371.4362" x2="-142.4926" y2="372.1063" gradientTransform="matrix(7.171 0 0 -7.1977 1025.3984 2696.2905)">
					<stop  offset="6.700000e-02" style="stop-color:#1F60AB"/>
					<stop  offset="0.483" style="stop-color:#267FC3"/>
					<stop  offset="1" style="stop-color:#2FA3DF"/>
				</linearGradient>
				<path id="Path_62116" class="st2" d="M0,20.8l2.7-0.3c0.2,0,0.5,0.1,0.6,0.3l0.9,2.4l2.4-4c0.2-0.3,0.4-0.7,0.6-1.1
					c-2.5,0.2-1.1-1.8-4.3-2.1c-0.2,0-0.4,0.1-0.5,0.3L0,20.8z"/>
				
					<linearGradient id="Path_62117_1_" gradientUnits="userSpaceOnUse" x1="-153.5045" y1="401.7447" x2="-153.5045" y2="400.9247" gradientTransform="matrix(17.4604 0 0 -17.4436 2689.1731 7009.5469)">
					<stop  offset="0" style="stop-color:#FFD647"/>
					<stop  offset="0.743" style="stop-color:#F29808"/>
				</linearGradient>
				<path id="Path_62117" class="st3" d="M7.8,2.9c-3.2,0.6-5.3,3.7-4.7,7c0.6,3.2,3.7,5.3,7,4.7c3.2-0.6,5.3-3.7,4.7-7c0,0,0,0,0,0
					C14.1,4.4,11,2.3,7.8,2.9C7.8,2.9,7.8,2.9,7.8,2.9 M6.5,0.1C5.4,0.5,5.7,1.9,3.8,2C1.6,2.1,2.5,3.6,1.9,4.7
					c-0.6,1-2.3,1.1-1.4,2.8c1.1,2.1-0.6,2.5-0.1,3.7c0.4,0.9,1.8,0.8,1.9,2.7c0.2,2.5,2,0.8,3.3,2.5c0.4,0.4,0.8,1.6,2.2,0.9
					c2.1-1,2.5,0.6,3.7,0.1c0.6-0.2,0.7-0.8,1.1-1.2c0.4-0.4,1-0.7,1.6-0.7c0.8-0.1,1.2-0.2,1.5-0.8c0.3-0.6,0-1.2,0.4-1.9
					c0.4-0.7,0.6-0.6,1.2-1.1c0.5-0.4,0.6-1.2,0.2-1.7c-1-2,0.6-2.5,0.1-3.7c-0.4-1-1.7-0.7-1.9-2.7c-0.2-2.2-1.3-1.1-2.7-1.9
					c-1-0.6-1.1-2.3-2.8-1.4C8.1,1.3,7.7-0.4,6.5,0.1L6.5,0.1z"/>
				
					<linearGradient id="Path_62118_1_" gradientUnits="userSpaceOnUse" x1="-148.2296" y1="387.3789" x2="-148.2056" y2="386.6929" gradientTransform="matrix(10.3399 0 0 -10.3299 1541.5022 4007.3142)">
					<stop  offset="0" style="stop-color:#FFD647"/>
					<stop  offset="0.743" style="stop-color:#F29808"/>
				</linearGradient>
				<path id="Path_62118" class="st4" d="M7.9,3.7L7.9,3.7c1.4-0.3,2.8,0,3.9,0.7c1.1,0.8,1.9,2,2.2,3.3l0,0.1c0.3,1.4,0,2.8-0.9,4
					c-0.8,1-1.9,1.8-3.1,2l-0.1,0c-1.3,0.3-2.7,0-3.8-0.7c-1.1-0.8-1.9-2-2.2-3.3l0-0.1c-0.3-1.4,0-2.8,0.9-3.9
					C5.5,4.7,6.6,4,7.9,3.7"/>
				<path id="Path_62119" class="st5" d="M12.5,5.8l-4.2,4.3l-1.9-2c-0.3-0.3-0.8-0.3-1,0c0,0,0,0,0,0C5,8.4,5,8.9,5.3,9.2l2.5,2.5
					c0.1,0.1,0.3,0.2,0.5,0.2l0,0c0.2,0,0.4-0.1,0.5-0.2l4.8-4.9c0.3-0.3,0.3-0.8,0-1.1C13.3,5.5,12.8,5.5,12.5,5.8
					C12.5,5.7,12.5,5.7,12.5,5.8z"/>
			</g>
			<g class="st6">
				<path class="st5" d="M29.1,346h1v6.1h3.8v0.9h-4.8V346z"/>
				<path class="st5" d="M34.9,346.5c-0.1-0.1-0.2-0.3-0.2-0.4c0-0.2,0.1-0.3,0.2-0.4c0.1-0.1,0.3-0.2,0.5-0.2
					c0.2,0,0.3,0.1,0.5,0.2c0.1,0.1,0.2,0.3,0.2,0.4c0,0.2-0.1,0.3-0.2,0.5s-0.3,0.2-0.5,0.2C35.2,346.7,35,346.6,34.9,346.5z
					 M34.9,347.7h1v5.3h-1V347.7z"/>
				<path class="st5" d="M38.5,352.7c-0.4-0.2-0.8-0.6-1-1c-0.2-0.4-0.4-0.9-0.4-1.4c0-0.5,0.1-1,0.4-1.4c0.2-0.4,0.6-0.7,1-1
					c0.4-0.2,0.9-0.3,1.4-0.3c0.5,0,0.9,0.1,1.3,0.3s0.7,0.5,0.9,0.8l-0.7,0.5c-0.2-0.3-0.4-0.4-0.6-0.6c-0.2-0.1-0.5-0.2-0.8-0.2
					c-0.3,0-0.7,0.1-0.9,0.2s-0.5,0.4-0.6,0.7s-0.2,0.6-0.2,1c0,0.4,0.1,0.7,0.2,1s0.4,0.5,0.6,0.7s0.6,0.2,0.9,0.2
					c0.3,0,0.6-0.1,0.8-0.2c0.2-0.1,0.5-0.3,0.6-0.6l0.7,0.5c-0.2,0.4-0.5,0.6-0.9,0.8c-0.4,0.2-0.8,0.3-1.3,0.3
					C39.4,353.1,39,352.9,38.5,352.7z"/>
				<path class="st5" d="M48.1,350.7h-4.3c0.1,0.5,0.3,0.8,0.6,1.1s0.8,0.4,1.3,0.4c0.6,0,1.1-0.2,1.5-0.6l0.5,0.6
					c-0.2,0.3-0.5,0.5-0.9,0.6c-0.4,0.1-0.8,0.2-1.2,0.2c-0.6,0-1.1-0.1-1.5-0.3c-0.4-0.2-0.8-0.6-1-1s-0.4-0.9-0.4-1.4
					c0-0.5,0.1-1,0.3-1.4s0.5-0.7,0.9-1c0.4-0.2,0.9-0.3,1.4-0.3c0.5,0,1,0.1,1.4,0.3c0.4,0.2,0.7,0.6,0.9,1
					c0.2,0.4,0.3,0.9,0.3,1.4C48.1,350.5,48.1,350.6,48.1,350.7z M44.3,348.9c-0.3,0.3-0.5,0.6-0.5,1.1h3.4
					c-0.1-0.4-0.2-0.8-0.5-1.1s-0.7-0.4-1.2-0.4S44.6,348.6,44.3,348.9z"/>
				<path class="st5" d="M53.9,348.2c0.4,0.4,0.6,1,0.6,1.7v3h-1v-2.9c0-0.5-0.1-0.9-0.4-1.2c-0.2-0.3-0.6-0.4-1.1-0.4
					c-0.5,0-0.9,0.2-1.2,0.5c-0.3,0.3-0.4,0.7-0.4,1.3v2.7h-1v-5.3h0.9v0.8c0.2-0.3,0.5-0.5,0.8-0.6c0.3-0.1,0.7-0.2,1.1-0.2
					C52.9,347.7,53.5,347.8,53.9,348.2z"/>
				<path class="st5" d="M56.5,352.9c-0.4-0.1-0.7-0.3-0.9-0.4l0.4-0.8c0.2,0.2,0.5,0.3,0.9,0.4c0.3,0.1,0.7,0.2,1,0.2
					c0.8,0,1.3-0.2,1.3-0.7c0-0.2-0.1-0.3-0.2-0.4c-0.1-0.1-0.3-0.2-0.4-0.2c-0.2,0-0.4-0.1-0.7-0.1c-0.4-0.1-0.8-0.1-1-0.2
					c-0.3-0.1-0.5-0.2-0.7-0.4c-0.2-0.2-0.3-0.5-0.3-0.9c0-0.5,0.2-0.9,0.6-1.2c0.4-0.3,0.9-0.4,1.6-0.4c0.4,0,0.7,0,1.1,0.1
					c0.4,0.1,0.6,0.2,0.9,0.3l-0.4,0.8c-0.4-0.3-0.9-0.4-1.5-0.4c-0.4,0-0.7,0.1-0.9,0.2c-0.2,0.1-0.3,0.3-0.3,0.5
					c0,0.2,0.1,0.3,0.2,0.4c0.1,0.1,0.3,0.2,0.4,0.2s0.4,0.1,0.7,0.2c0.4,0.1,0.8,0.2,1,0.2c0.3,0.1,0.5,0.2,0.7,0.4
					c0.2,0.2,0.3,0.5,0.3,0.8c0,0.5-0.2,0.9-0.6,1.1s-1,0.4-1.7,0.4C57.3,353.1,56.9,353,56.5,352.9z"/>
				<path class="st5" d="M66,350.7h-4.3c0.1,0.5,0.3,0.8,0.6,1.1s0.8,0.4,1.3,0.4c0.6,0,1.1-0.2,1.5-0.6l0.5,0.6
					c-0.2,0.3-0.5,0.5-0.9,0.6c-0.4,0.1-0.8,0.2-1.2,0.2c-0.6,0-1.1-0.1-1.5-0.3c-0.4-0.2-0.8-0.6-1-1s-0.4-0.9-0.4-1.4
					c0-0.5,0.1-1,0.3-1.4s0.5-0.7,0.9-1c0.4-0.2,0.9-0.3,1.4-0.3c0.5,0,1,0.1,1.4,0.3c0.4,0.2,0.7,0.6,0.9,1
					c0.2,0.4,0.3,0.9,0.3,1.4C66,350.5,66,350.6,66,350.7z M62.3,348.9c-0.3,0.3-0.5,0.6-0.5,1.1h3.4c-0.1-0.4-0.2-0.8-0.5-1.1
					s-0.7-0.4-1.2-0.4S62.6,348.6,62.3,348.9z"/>
				<path class="st5" d="M72.4,345.6v7.4h-0.9v-0.8c-0.2,0.3-0.5,0.5-0.8,0.7c-0.3,0.2-0.7,0.2-1.1,0.2c-0.5,0-1-0.1-1.4-0.3
					c-0.4-0.2-0.7-0.5-1-1c-0.2-0.4-0.3-0.9-0.3-1.4c0-0.5,0.1-1,0.3-1.4c0.2-0.4,0.5-0.7,1-1c0.4-0.2,0.9-0.3,1.4-0.3
					c0.4,0,0.7,0.1,1,0.2c0.3,0.1,0.6,0.4,0.8,0.6v-2.9H72.4z M70.5,352c0.3-0.2,0.5-0.4,0.6-0.7s0.2-0.6,0.2-1c0-0.4-0.1-0.7-0.2-1
					s-0.4-0.5-0.6-0.7s-0.6-0.2-0.9-0.2c-0.3,0-0.6,0.1-0.9,0.2s-0.5,0.4-0.6,0.7s-0.2,0.6-0.2,1c0,0.4,0.1,0.7,0.2,1
					s0.4,0.5,0.6,0.7c0.3,0.2,0.6,0.2,0.9,0.2C70,352.2,70.3,352.1,70.5,352z"/>
			</g>
			<g class="st6">
				<path class="st5" d="M37.2,365.6c-0.6-0.3-1-0.7-1.3-1.3c-0.3-0.5-0.5-1.2-0.5-1.8s0.2-1.3,0.5-1.8s0.8-1,1.3-1.3
					c0.6-0.3,1.2-0.5,1.9-0.5c0.5,0,1,0.1,1.5,0.3c0.5,0.2,0.8,0.5,1.2,0.8l-0.6,0.6c-0.5-0.6-1.2-0.8-2-0.8c-0.5,0-1,0.1-1.4,0.4
					c-0.4,0.2-0.7,0.6-1,1s-0.4,0.9-0.4,1.4s0.1,1,0.4,1.4s0.6,0.7,1,1c0.4,0.2,0.9,0.4,1.4,0.4c0.8,0,1.4-0.3,2-0.8l0.6,0.6
					c-0.3,0.4-0.7,0.6-1.2,0.8s-1,0.3-1.5,0.3C38.4,366.1,37.8,365.9,37.2,365.6z"/>
				<path class="st5" d="M46.6,361.2c0.4,0.4,0.6,0.9,0.6,1.6v3.2h-0.9v-0.7c-0.2,0.2-0.4,0.4-0.7,0.6c-0.3,0.1-0.6,0.2-1.1,0.2
					c-0.6,0-1.1-0.1-1.4-0.4c-0.4-0.3-0.5-0.7-0.5-1.1s0.2-0.8,0.5-1.1c0.3-0.3,0.9-0.4,1.6-0.4h1.5v-0.2c0-0.4-0.1-0.7-0.4-1
					c-0.2-0.2-0.6-0.3-1.1-0.3c-0.3,0-0.6,0.1-0.9,0.2c-0.3,0.1-0.6,0.2-0.8,0.4l-0.4-0.7c0.3-0.2,0.6-0.4,1-0.5
					c0.4-0.1,0.8-0.2,1.2-0.2C45.7,360.7,46.2,360.8,46.6,361.2z M45.7,365.1c0.3-0.2,0.5-0.4,0.6-0.7v-0.7h-1.5
					c-0.8,0-1.2,0.3-1.2,0.8c0,0.3,0.1,0.5,0.3,0.6c0.2,0.2,0.5,0.2,0.9,0.2C45.1,365.3,45.4,365.2,45.7,365.1z"/>
				<path class="st5" d="M49.3,365.9c-0.4-0.1-0.7-0.3-0.9-0.4l0.4-0.8c0.2,0.2,0.5,0.3,0.9,0.4c0.3,0.1,0.7,0.2,1,0.2
					c0.8,0,1.3-0.2,1.3-0.7c0-0.2-0.1-0.3-0.2-0.4c-0.1-0.1-0.3-0.2-0.4-0.2c-0.2,0-0.4-0.1-0.7-0.1c-0.4-0.1-0.8-0.1-1-0.2
					c-0.3-0.1-0.5-0.2-0.7-0.4c-0.2-0.2-0.3-0.5-0.3-0.9c0-0.5,0.2-0.9,0.6-1.2c0.4-0.3,0.9-0.4,1.6-0.4c0.4,0,0.7,0,1.1,0.1
					c0.4,0.1,0.6,0.2,0.9,0.3l-0.4,0.8c-0.4-0.3-0.9-0.4-1.5-0.4c-0.4,0-0.7,0.1-0.9,0.2c-0.2,0.1-0.3,0.3-0.3,0.5
					c0,0.2,0.1,0.3,0.2,0.4c0.1,0.1,0.3,0.2,0.4,0.2s0.4,0.1,0.7,0.2c0.4,0.1,0.8,0.2,1,0.2c0.3,0.1,0.5,0.2,0.7,0.4
					c0.2,0.2,0.3,0.5,0.3,0.8c0,0.5-0.2,0.9-0.6,1.1s-1,0.4-1.7,0.4C50.1,366.1,49.7,366,49.3,365.9z"/>
				<path class="st5" d="M54,359.5c-0.1-0.1-0.2-0.3-0.2-0.4c0-0.2,0.1-0.3,0.2-0.4c0.1-0.1,0.3-0.2,0.5-0.2c0.2,0,0.3,0.1,0.5,0.2
					c0.1,0.1,0.2,0.3,0.2,0.4c0,0.2-0.1,0.3-0.2,0.5s-0.3,0.2-0.5,0.2C54.3,359.7,54.1,359.6,54,359.5z M54,360.7h1v5.3h-1V360.7z"
					/>
				<path class="st5" d="M61.2,361.2c0.4,0.4,0.6,1,0.6,1.7v3h-1v-2.9c0-0.5-0.1-0.9-0.4-1.2c-0.2-0.3-0.6-0.4-1.1-0.4
					c-0.5,0-0.9,0.2-1.2,0.5c-0.3,0.3-0.4,0.7-0.4,1.3v2.7h-1v-5.3h0.9v0.8c0.2-0.3,0.5-0.5,0.8-0.6c0.3-0.1,0.7-0.2,1.1-0.2
					C60.3,360.7,60.8,360.8,61.2,361.2z"/>
				<path class="st5" d="M64.5,365.7c-0.4-0.2-0.7-0.6-1-1s-0.4-0.9-0.4-1.4c0-0.5,0.1-1,0.4-1.4s0.6-0.7,1-1
					c0.4-0.2,0.9-0.3,1.4-0.3c0.5,0,1,0.1,1.4,0.3c0.4,0.2,0.7,0.5,1,1c0.2,0.4,0.4,0.9,0.4,1.4c0,0.5-0.1,1-0.4,1.4
					c-0.2,0.4-0.6,0.7-1,1c-0.4,0.2-0.9,0.3-1.4,0.3C65.4,366.1,64.9,365.9,64.5,365.7z M66.8,365c0.3-0.2,0.5-0.4,0.6-0.7
					s0.2-0.6,0.2-1c0-0.4-0.1-0.7-0.2-1s-0.4-0.5-0.6-0.7s-0.6-0.2-0.9-0.2c-0.3,0-0.6,0.1-0.9,0.2s-0.5,0.4-0.6,0.7s-0.2,0.6-0.2,1
					c0,0.4,0.1,0.7,0.2,1s0.4,0.5,0.6,0.7c0.3,0.2,0.6,0.2,0.9,0.2C66.2,365.2,66.5,365.1,66.8,365z"/>
			</g>
		</g>
	</g>
	<g id="Group_18732">
		<path id="Path_62338" class="st0" d="M573.2,383.1l-4.2,47.1c0,0-0.6,8.3-7.2,8.8h-58.3c-3.8-0.1-7-3.1-7.2-6.9
			c-0.8-6.9-2.7-49-2.7-49s-2.6-9.7,9.9-10.4h61.2C564.7,372.7,574.8,372.4,573.2,383.1z"/>
		<g id="Group_18462" transform="translate(512.11 378.754)">
			<g id="Group_18458" transform="translate(9.746 0)">
				
					<linearGradient id="Path_62140_1_" gradientUnits="userSpaceOnUse" x1="-234.4612" y1="348.5206" x2="-234.4592" y2="347.9476" gradientTransform="matrix(14.25 0 0 -4.8188 3350.4988 1685.6088)">
					<stop  offset="0" style="stop-color:#FFD647"/>
					<stop  offset="0.743" style="stop-color:#F29808"/>
				</linearGradient>
				<path id="Path_62140" class="st7" d="M2.6,9.2h14l-1-4.3c-0.1-0.4-0.5-0.6-0.8-0.5L2.8,7.2C2.5,7.3,2.3,7.7,2.3,8.1c0,0,0,0,0,0
					L2.6,9.2z"/>
				
					<linearGradient id="Path_62141_1_" gradientUnits="userSpaceOnUse" x1="-217.7574" y1="306.221" x2="-217.7574" y2="311.497" gradientTransform="matrix(5.133 0 0 -3.128 1134.2528 979.0847)">
					<stop  offset="6.700000e-02" style="stop-color:#1F60AB"/>
					<stop  offset="0.483" style="stop-color:#267FC3"/>
					<stop  offset="1" style="stop-color:#2FA3DF"/>
				</linearGradient>
				<path id="Path_62141" class="st8" d="M14.7,14.4c-0.4,0-0.7,0.2-0.7,0.6v1.9c0,0.4,0.3,0.7,0.7,0.6c0,0,0,0,0.1,0h4.4v-3.1H14.7
					z M15.5,17c-0.6,0-1.1-0.5-1.1-1.1s0.5-1.1,1.1-1.1s1.1,0.5,1.1,1.1c0,0,0,0,0,0C16.6,16.6,16.1,17,15.5,17
					C15.5,17,15.5,17,15.5,17L15.5,17z"/>
				
					<linearGradient id="Path_62142_1_" gradientUnits="userSpaceOnUse" x1="-232.6487" y1="366.8127" x2="-232.6457" y2="366.3827" gradientTransform="matrix(11.952 0 0 -6.4401 2789.3813 2368.2859)">
					<stop  offset="0" style="stop-color:#FFD647"/>
					<stop  offset="0.743" style="stop-color:#F29808"/>
				</linearGradient>
				<path id="Path_62142" class="st9" d="M14.7,0.4L14.7,0.4c-0.2-0.4-0.6-0.5-1-0.3c0,0,0,0,0,0L3.1,6C2.9,6.1,2.8,6.3,2.8,6.4
					l2.1-0.5L14.7,0.4z"/>
				
					<linearGradient id="Path_62143_1_" gradientUnits="userSpaceOnUse" x1="-223.5937" y1="361.3702" x2="-223.5877" y2="360.8962" gradientTransform="matrix(6.6112 0 0 -5.844 1493.3357 2117.615)">
					<stop  offset="0" style="stop-color:#FFD647"/>
					<stop  offset="0.743" style="stop-color:#F29808"/>
				</linearGradient>
				<path id="Path_62143" class="st10" d="M15.1,3.5c0.6,0,1.1,0.4,1.3,1l0.8,3.3l0.9-0.5c0.3-0.2,0.4-0.6,0.3-0.9c0,0,0,0,0,0
					l-2.5-4.4l-4.1,2.3l3-0.7C14.9,3.5,15,3.5,15.1,3.5z"/>
				
					<linearGradient id="Path_62144_1_" gradientUnits="userSpaceOnUse" x1="-158.2952" y1="-402.3353" x2="-158.2952" y2="-361.6043" gradientTransform="matrix(1.566 0 0 -0.453 265.9367 -160.4353)">
					<stop  offset="6.700000e-02" style="stop-color:#1F60AB"/>
					<stop  offset="0.483" style="stop-color:#267FC3"/>
					<stop  offset="1" style="stop-color:#2FA3DF"/>
				</linearGradient>
				<path id="Path_62144" class="st11" d="M18.8,9c-0.3-0.3-0.7-0.5-1.1-0.5h-0.5L17.4,9H18.8z"/>
				
					<linearGradient id="Path_62145_1_" gradientUnits="userSpaceOnUse" x1="-236.8348" y1="396.1287" x2="-236.8348" y2="397.4947" gradientTransform="matrix(19.066 0 0 -13.526 4525.0293 5379.8882)">
					<stop  offset="6.700000e-02" style="stop-color:#1F60AB"/>
					<stop  offset="0.483" style="stop-color:#267FC3"/>
					<stop  offset="1" style="stop-color:#2FA3DF"/>
				</linearGradient>
				<path id="Path_62145" class="st12" d="M14.5,13.6h4.6v-3.4c0-0.1,0-0.2,0-0.3H1.6c-0.5,0-0.8,0-0.8-0.5C0.8,9.2,1.1,9,1.6,9h0.2
					L1.7,8.6H1.4C0.6,8.6,0,9.2,0,10c0,0,0,0,0,0v10.6c0,0.8,0.6,1.4,1.4,1.4c0,0,0,0,0,0h16.2c0.8,0,1.4-0.6,1.4-1.4v0v-2.3h-4.6
					c-0.8,0-1.4-0.6-1.4-1.4V15C13.1,14.3,13.7,13.6,14.5,13.6C14.5,13.6,14.5,13.6,14.5,13.6z"/>
			</g>
			<g id="Group_18461" transform="translate(0 13.751)">
				<g id="Group_18459" transform="translate(2.273)">
					<path id="Path_62146" class="st13" d="M11.6,0H3.6C3.3,0,3.2,0.2,3.2,0.4v0.1c0,0.2,0.2,0.4,0.4,0.4h8.1c0.2,0,0.4-0.2,0.4-0.4
						V0.4C12,0.2,11.9,0,11.6,0z"/>
					<path id="Path_62147" class="st13" d="M1.8,0H0.4C0.2,0,0,0.2,0,0.4v0.1c0,0.2,0.2,0.4,0.4,0.4h1.4c0.2,0,0.4-0.2,0.4-0.4V0.4
						C2.2,0.2,2,0,1.8,0z"/>
				</g>
				<g id="Group_18460" transform="translate(6.606 2.282)">
					<path id="Path_62148" class="st13" d="M1.2,0H0.4C0.2,0,0,0.2,0,0.4v0.1c0,0.2,0.2,0.4,0.4,0.4h0.8c0.2,0,0.4-0.2,0.4-0.4V0.4
						C1.6,0.2,1.4,0,1.2,0z"/>
					<path id="Path_62149" class="st13" d="M8.9,0h-6C2.6,0,2.4,0.2,2.4,0.4v0.1c0,0.2,0.2,0.4,0.4,0.4h6c0.2,0,0.4-0.2,0.4-0.4V0.4
						C9.3,0.2,9.1,0,8.9,0z"/>
				</g>
				<path id="Path_62150" class="st13" d="M12.4,4.6h-12C0.2,4.6,0,4.7,0,5V5c0,0.2,0.2,0.4,0.4,0.4h12c0.2,0,0.4-0.2,0.4-0.4v0
					C12.8,4.7,12.7,4.6,12.4,4.6C12.4,4.6,12.4,4.6,12.4,4.6z"/>
			</g>
		</g>
		<g class="st6">
			<path class="st5" d="M523.1,409.9v2.4h3.5v0.9h-3.5v2.8h-1v-7h4.9v0.9H523.1z"/>
			<path class="st5" d="M531.7,411.2c0.4,0.4,0.6,0.9,0.6,1.6v3.2h-0.9v-0.7c-0.2,0.2-0.4,0.4-0.7,0.6c-0.3,0.1-0.6,0.2-1.1,0.2
				c-0.6,0-1.1-0.1-1.4-0.4c-0.4-0.3-0.5-0.7-0.5-1.1s0.2-0.8,0.5-1.1c0.3-0.3,0.9-0.4,1.6-0.4h1.5v-0.2c0-0.4-0.1-0.7-0.4-1
				c-0.2-0.2-0.6-0.3-1.1-0.3c-0.3,0-0.6,0.1-0.9,0.2c-0.3,0.1-0.6,0.2-0.8,0.4l-0.4-0.7c0.3-0.2,0.6-0.4,1-0.5
				c0.4-0.1,0.8-0.2,1.2-0.2C530.7,410.7,531.3,410.8,531.7,411.2z M530.7,415.1c0.3-0.2,0.5-0.4,0.6-0.7v-0.7h-1.5
				c-0.8,0-1.2,0.3-1.2,0.8c0,0.3,0.1,0.5,0.3,0.6c0.2,0.2,0.5,0.2,0.9,0.2C530.2,415.3,530.5,415.2,530.7,415.1z"/>
			<path class="st5" d="M534.3,415.9c-0.4-0.1-0.7-0.3-0.9-0.4l0.4-0.8c0.2,0.2,0.5,0.3,0.9,0.4c0.3,0.1,0.7,0.2,1,0.2
				c0.8,0,1.3-0.2,1.3-0.7c0-0.2-0.1-0.3-0.2-0.4c-0.1-0.1-0.3-0.2-0.4-0.2c-0.2,0-0.4-0.1-0.7-0.1c-0.4-0.1-0.8-0.1-1-0.2
				c-0.3-0.1-0.5-0.2-0.7-0.4c-0.2-0.2-0.3-0.5-0.3-0.9c0-0.5,0.2-0.9,0.6-1.2c0.4-0.3,0.9-0.4,1.6-0.4c0.4,0,0.7,0,1.1,0.1
				c0.4,0.1,0.6,0.2,0.9,0.3l-0.4,0.8c-0.4-0.3-0.9-0.4-1.5-0.4c-0.4,0-0.7,0.1-0.9,0.2c-0.2,0.1-0.3,0.3-0.3,0.5
				c0,0.2,0.1,0.3,0.2,0.4c0.1,0.1,0.3,0.2,0.4,0.2s0.4,0.1,0.7,0.2c0.4,0.1,0.8,0.2,1,0.2c0.3,0.1,0.5,0.2,0.7,0.4
				c0.2,0.2,0.3,0.5,0.3,0.8c0,0.5-0.2,0.9-0.6,1.1s-1,0.4-1.7,0.4C535.1,416.1,534.7,416,534.3,415.9z"/>
			<path class="st5" d="M542.1,415.7c-0.1,0.1-0.3,0.2-0.5,0.3c-0.2,0.1-0.4,0.1-0.6,0.1c-0.5,0-0.9-0.1-1.2-0.4
				c-0.3-0.3-0.4-0.7-0.4-1.2v-2.9h-0.9v-0.8h0.9v-1.2h1v1.2h1.5v0.8h-1.5v2.9c0,0.3,0.1,0.5,0.2,0.7c0.1,0.2,0.3,0.2,0.6,0.2
				c0.3,0,0.5-0.1,0.8-0.3L542.1,415.7z"/>
		</g>
		<g class="st6">
			<path class="st5" d="M510.9,423.7l-2,5.3H508l-1.5-4l-1.5,4H504l-2-5.3h0.9l1.5,4.2l1.6-4.2h0.8l1.6,4.2l1.6-4.2H510.9z"/>
			<path class="st5" d="M511.9,422.5c-0.1-0.1-0.2-0.3-0.2-0.4c0-0.2,0.1-0.3,0.2-0.4c0.1-0.1,0.3-0.2,0.5-0.2
				c0.2,0,0.3,0.1,0.5,0.2c0.1,0.1,0.2,0.3,0.2,0.4c0,0.2-0.1,0.3-0.2,0.5s-0.3,0.2-0.5,0.2C512.2,422.7,512,422.6,511.9,422.5z
				 M511.9,423.7h1v5.3h-1V423.7z"/>
			<path class="st5" d="M517.6,428.7c-0.1,0.1-0.3,0.2-0.5,0.3c-0.2,0.1-0.4,0.1-0.6,0.1c-0.5,0-0.9-0.1-1.2-0.4
				c-0.3-0.3-0.4-0.7-0.4-1.2v-2.9h-0.9v-0.8h0.9v-1.2h1v1.2h1.5v0.8h-1.5v2.9c0,0.3,0.1,0.5,0.2,0.7c0.1,0.2,0.3,0.2,0.6,0.2
				c0.3,0,0.5-0.1,0.8-0.3L517.6,428.7z"/>
			<path class="st5" d="M523.2,424.2c0.4,0.4,0.6,1,0.6,1.7v3h-1v-2.9c0-0.5-0.1-0.9-0.4-1.2c-0.2-0.3-0.6-0.4-1.1-0.4
				c-0.5,0-0.9,0.2-1.2,0.5c-0.3,0.3-0.4,0.7-0.4,1.3v2.7h-1v-7.4h1v2.9c0.2-0.3,0.5-0.5,0.8-0.6c0.3-0.1,0.7-0.2,1.1-0.2
				C522.3,423.7,522.8,423.8,523.2,424.2z"/>
			<path class="st5" d="M530.6,421.6v7.4h-0.9v-0.8c-0.2,0.3-0.5,0.5-0.8,0.7c-0.3,0.2-0.7,0.2-1.1,0.2c-0.5,0-1-0.1-1.4-0.3
				c-0.4-0.2-0.7-0.5-1-1c-0.2-0.4-0.3-0.9-0.3-1.4c0-0.5,0.1-1,0.3-1.4c0.2-0.4,0.5-0.7,1-1c0.4-0.2,0.9-0.3,1.4-0.3
				c0.4,0,0.7,0.1,1,0.2c0.3,0.1,0.6,0.4,0.8,0.6v-2.9H530.6z M528.8,428c0.3-0.2,0.5-0.4,0.6-0.7s0.2-0.6,0.2-1
				c0-0.4-0.1-0.7-0.2-1s-0.4-0.5-0.6-0.7s-0.6-0.2-0.9-0.2c-0.3,0-0.6,0.1-0.9,0.2s-0.5,0.4-0.6,0.7s-0.2,0.6-0.2,1
				c0,0.4,0.1,0.7,0.2,1s0.4,0.5,0.6,0.7c0.3,0.2,0.6,0.2,0.9,0.2C528.2,428.2,528.5,428.1,528.8,428z"/>
			<path class="st5" d="M534.1,423.9c0.3-0.2,0.7-0.2,1.2-0.2v0.9c-0.1,0-0.1,0-0.2,0c-0.5,0-0.9,0.2-1.2,0.5
				c-0.3,0.3-0.4,0.8-0.4,1.3v2.6h-1v-5.3h0.9v0.9C533.5,424.3,533.8,424.1,534.1,423.9z"/>
			<path class="st5" d="M540.1,424.2c0.4,0.4,0.6,0.9,0.6,1.6v3.2h-0.9v-0.7c-0.2,0.2-0.4,0.4-0.7,0.6c-0.3,0.1-0.6,0.2-1.1,0.2
				c-0.6,0-1.1-0.1-1.4-0.4c-0.4-0.3-0.5-0.7-0.5-1.1s0.2-0.8,0.5-1.1c0.3-0.3,0.9-0.4,1.6-0.4h1.5v-0.2c0-0.4-0.1-0.7-0.4-1
				c-0.2-0.2-0.6-0.3-1.1-0.3c-0.3,0-0.6,0.1-0.9,0.2c-0.3,0.1-0.6,0.2-0.8,0.4l-0.4-0.7c0.3-0.2,0.6-0.4,1-0.5
				c0.4-0.1,0.8-0.2,1.2-0.2C539.1,423.7,539.7,423.8,540.1,424.2z M539.1,428.1c0.3-0.2,0.5-0.4,0.6-0.7v-0.7h-1.5
				c-0.8,0-1.2,0.3-1.2,0.8c0,0.3,0.1,0.5,0.3,0.6c0.2,0.2,0.5,0.2,0.9,0.2C538.5,428.3,538.9,428.2,539.1,428.1z"/>
			<path class="st5" d="M550.4,423.7l-2,5.3h-0.9l-1.5-4l-1.5,4h-0.9l-2-5.3h0.9l1.5,4.2l1.6-4.2h0.8l1.6,4.2l1.6-4.2H550.4z"/>
			<path class="st5" d="M554.8,424.2c0.4,0.4,0.6,0.9,0.6,1.6v3.2h-0.9v-0.7c-0.2,0.2-0.4,0.4-0.7,0.6c-0.3,0.1-0.6,0.2-1.1,0.2
				c-0.6,0-1.1-0.1-1.4-0.4c-0.4-0.3-0.5-0.7-0.5-1.1s0.2-0.8,0.5-1.1c0.3-0.3,0.9-0.4,1.6-0.4h1.5v-0.2c0-0.4-0.1-0.7-0.4-1
				c-0.2-0.2-0.6-0.3-1.1-0.3c-0.3,0-0.6,0.1-0.9,0.2c-0.3,0.1-0.6,0.2-0.8,0.4l-0.4-0.7c0.3-0.2,0.6-0.4,1-0.5
				c0.4-0.1,0.8-0.2,1.2-0.2C553.8,423.7,554.4,423.8,554.8,424.2z M553.8,428.1c0.3-0.2,0.5-0.4,0.6-0.7v-0.7h-1.5
				c-0.8,0-1.2,0.3-1.2,0.8c0,0.3,0.1,0.5,0.3,0.6c0.2,0.2,0.5,0.2,0.9,0.2C553.2,428.3,553.6,428.2,553.8,428.1z"/>
			<path class="st5" d="M557.1,421.6h1v7.4h-1V421.6z"/>
			<path class="st5" d="M560.2,428.9c-0.4-0.1-0.7-0.3-0.9-0.4l0.4-0.8c0.2,0.2,0.5,0.3,0.9,0.4c0.3,0.1,0.7,0.2,1,0.2
				c0.8,0,1.3-0.2,1.3-0.7c0-0.2-0.1-0.3-0.2-0.4c-0.1-0.1-0.3-0.2-0.4-0.2c-0.2,0-0.4-0.1-0.7-0.1c-0.4-0.1-0.8-0.1-1-0.2
				c-0.3-0.1-0.5-0.2-0.7-0.4c-0.2-0.2-0.3-0.5-0.3-0.9c0-0.5,0.2-0.9,0.6-1.2c0.4-0.3,0.9-0.4,1.6-0.4c0.4,0,0.7,0,1.1,0.1
				c0.4,0.1,0.6,0.2,0.9,0.3l-0.4,0.8c-0.4-0.3-0.9-0.4-1.5-0.4c-0.4,0-0.7,0.1-0.9,0.2c-0.2,0.1-0.3,0.3-0.3,0.5
				c0,0.2,0.1,0.3,0.2,0.4c0.1,0.1,0.3,0.2,0.4,0.2s0.4,0.1,0.7,0.2c0.4,0.1,0.8,0.2,1,0.2c0.3,0.1,0.5,0.2,0.7,0.4
				c0.2,0.2,0.3,0.5,0.3,0.8c0,0.5-0.2,0.9-0.6,1.1s-1,0.4-1.7,0.4C561,429.1,560.6,429,560.2,428.9z"/>
		</g>
	</g>
	<g id="Group_18733">
		<path id="Path_62336" class="st0" d="M575.7,428.6l5-46.9c0,0,0.6-8.3,7.2-8.8l69.6-0.9c3.8,0.1,7,3.1,7.2,6.9
			c0.8,6.9,4.2,48.8,4.2,48.8s2.6,9.7-9.9,10.4l-74.8,0.8C584.2,439,574.1,439.3,575.7,428.6z"/>
		<g id="Group_18723" transform="translate(570.843 379.676)">
			<g id="Group_18437" transform="translate(34.152)">
				<path id="Path_62109" class="st14" d="M29.5,5.7c-0.1,0-0.2,0-0.4,0l0,0h-0.2c-0.1,0-0.3,0-0.4,0L14,5.4c-0.1,0-0.2,0-0.2,0
					h-0.2l0,0c-2,0.1-3.7,1.5-4.1,3.5c-0.1,0.5-0.1,1.1,0,1.6l0,0l0,0.1v0l1.4,7.2l0,0c0.3,2,2.1,3.4,4.1,3.2l0,0l6-0.8l0,2.6
					c0,0.1,0.1,0.2,0.2,0.2c0,0,0.1,0,0.1,0l4.4-3.4l2.5-0.2c1.2-0.1,2.2-0.9,2.5-2.1l1.6-7.1C32.9,8.2,31.6,6.1,29.5,5.7
					C29.5,5.7,29.5,5.7,29.5,5.7z"/>
				
					<linearGradient id="Path_62110_1_" gradientUnits="userSpaceOnUse" x1="-322.4506" y1="405.9454" x2="-322.4506" y2="406.7704" gradientTransform="matrix(29.4416 0 0 -22.4606 9508.1836 9137.0635)">
					<stop  offset="6.700000e-02" style="stop-color:#1F60AB"/>
					<stop  offset="0.483" style="stop-color:#267FC3"/>
					<stop  offset="1" style="stop-color:#2FA3DF"/>
				</linearGradient>
				<path id="Path_62110" class="st15" d="M25.5,0.1c-0.2,0-0.3,0-0.5,0l0,0h-0.2c-0.2,0-0.4,0-0.5,0L5.8,0.1c-0.1,0-0.2,0-0.3,0
					H5.3l0,0C2.1,0.3-0.2,3,0,6.1c0,0.2,0,0.4,0.1,0.6l0,0l0,0.2v0l2,9.1l0,0c0.4,2.5,2.8,4.3,5.3,4l0,0l7.6-1.2v3.3
					c0,0.2,0.1,0.3,0.3,0.3c0.1,0,0.1,0,0.2-0.1l5.6-4.4l3.2-0.3c1.5-0.2,2.8-1.3,3.2-2.7l1.9-9.1C29.9,3.2,28.2,0.6,25.5,0.1
					C25.5,0.1,25.5,0.1,25.5,0.1z"/>
				<g id="Group_18436" transform="translate(4.027 5.631)">
					<path id="Path_62111" class="st5" d="M4.4,0.6C4.8,0.8,5.1,1,5.4,1.3C5.6,1.6,5.7,2,5.7,2.4c0,0.4-0.1,0.7-0.3,1
						C5.2,3.7,5,4,4.7,4.3C4.4,4.5,4,4.8,3.4,5.1C3.1,5.3,2.9,5.5,2.7,5.6h3.1v1.7H0V6.8c0-0.3,0.1-0.7,0.2-0.9C0.4,5.6,0.7,5.3,1,5
						c0.3-0.3,0.8-0.7,1.4-1.1c0.4-0.3,0.7-0.6,1-0.9c0.2-0.1,0.3-0.4,0.3-0.6c0-0.2-0.1-0.4-0.2-0.5C3.3,1.8,3.1,1.7,2.8,1.7
						C2.6,1.7,2.3,1.8,2.1,2C1.9,2.2,1.8,2.4,1.8,2.7v0.2H0c0-0.1,0-0.1,0-0.2C0,2,0.3,1.4,0.8,1C1.4,0.5,2.2,0.3,3,0.4
						C3.5,0.3,4,0.4,4.4,0.6z"/>
					<path id="Path_62112" class="st5" d="M10,1.6c-0.3,0.5-0.6,1-1,1.5C8.7,3.6,8.3,4,7.9,4.4h2V3c0.2-0.3,0.4-0.7,0.6-1
						c0.2-0.3,0.3-0.6,0.4-1h0.9v3.4h1v1.5h-1v1.4H9.9V5.9H6.5V4.4c0.4-0.6,0.8-1.2,1.1-1.9C8,1.8,8.2,1.1,8.5,0.4h2
						C10.4,0.8,10.2,1.2,10,1.6z"/>
					<path id="Path_62113" class="st5" d="M13,7.7L14.7,0h1.2l-1.6,7.7H13z"/>
					<path id="Path_62114" class="st5" d="M20.4,4c-0.4,0.8-0.7,1.7-0.7,2.6v0.6h-2.3c0-0.9,0.2-1.8,0.6-2.6c0.4-0.9,1-1.7,1.6-2.5
						h-3.4V0.5h5.9v0.9C21.5,2.2,20.9,3.1,20.4,4z"/>
				</g>
			</g>
			<g class="st6">
				<path class="st5" d="M19.8,36.5v0.9h-5v-0.7l2.9-2.8c0.3-0.3,0.6-0.6,0.7-0.9s0.2-0.5,0.2-0.7c0-0.4-0.1-0.7-0.4-0.9
					c-0.3-0.2-0.6-0.3-1.1-0.3c-0.8,0-1.4,0.3-1.8,0.8l-0.7-0.6c0.3-0.3,0.6-0.6,1.1-0.8c0.4-0.2,0.9-0.3,1.5-0.3
					c0.7,0,1.3,0.2,1.8,0.5c0.4,0.3,0.7,0.8,0.7,1.4c0,0.4-0.1,0.7-0.2,1.1c-0.2,0.3-0.5,0.7-0.9,1.1l-2.1,2.1H19.8z"/>
				<path class="st5" d="M26.5,35.6h-1.3v1.7h-1v-1.7h-3.9v-0.7l3.6-4.6H25l-3.4,4.4h2.7v-1.5h0.9v1.5h1.3V35.6z"/>
				<path class="st5" d="M29.9,28.9h0.9l-3.3,9.4h-0.9L29.9,28.9z"/>
				<path class="st5" d="M36.1,30.3V31l-2.8,6.3h-1.1l2.8-6.1h-3.2v1.3h-1v-2.1H36.1z"/>
				<path class="st5" d="M41.5,36.9c-0.6-0.3-1-0.7-1.3-1.3c-0.3-0.5-0.5-1.2-0.5-1.8s0.2-1.3,0.5-1.8c0.3-0.5,0.8-1,1.3-1.3
					c0.6-0.3,1.2-0.5,1.9-0.5c0.5,0,1,0.1,1.5,0.3c0.5,0.2,0.8,0.5,1.2,0.8L45.4,32c-0.5-0.6-1.2-0.8-2-0.8c-0.5,0-1,0.1-1.4,0.4
					s-0.7,0.6-1,1c-0.2,0.4-0.4,0.9-0.4,1.4s0.1,1,0.4,1.4c0.2,0.4,0.6,0.7,1,1s0.9,0.4,1.4,0.4c0.8,0,1.4-0.3,2-0.8l0.7,0.6
					c-0.3,0.4-0.7,0.6-1.2,0.8c-0.5,0.2-1,0.3-1.5,0.3C42.7,37.4,42.1,37.2,41.5,36.9z"/>
				<path class="st5" d="M52.1,32v5.3h-0.9v-0.8c-0.2,0.3-0.4,0.5-0.8,0.6s-0.7,0.2-1,0.2c-0.7,0-1.3-0.2-1.7-0.6
					c-0.4-0.4-0.6-1-0.6-1.7v-3h1V35c0,0.5,0.1,0.9,0.4,1.2c0.2,0.3,0.6,0.4,1.1,0.4c0.5,0,0.9-0.2,1.2-0.5c0.3-0.3,0.4-0.7,0.4-1.3
					V32H52.1z"/>
				<path class="st5" d="M54.2,37.2c-0.4-0.1-0.7-0.3-0.9-0.4l0.4-0.8c0.2,0.2,0.5,0.3,0.8,0.4s0.7,0.2,1,0.2c0.8,0,1.3-0.2,1.3-0.7
					c0-0.2-0.1-0.3-0.2-0.4c-0.1-0.1-0.3-0.2-0.4-0.2c-0.2,0-0.4-0.1-0.7-0.1c-0.4-0.1-0.8-0.1-1-0.2c-0.3-0.1-0.5-0.2-0.7-0.4
					c-0.2-0.2-0.3-0.5-0.3-0.9c0-0.5,0.2-0.9,0.6-1.2c0.4-0.3,0.9-0.4,1.6-0.4c0.4,0,0.7,0,1.1,0.1c0.4,0.1,0.6,0.2,0.9,0.3
					l-0.4,0.8c-0.4-0.3-0.9-0.4-1.5-0.4c-0.4,0-0.7,0.1-0.9,0.2c-0.2,0.1-0.3,0.3-0.3,0.5c0,0.2,0.1,0.3,0.2,0.4
					c0.1,0.1,0.3,0.2,0.4,0.2s0.4,0.1,0.7,0.2c0.4,0.1,0.8,0.2,1,0.2c0.3,0.1,0.5,0.2,0.7,0.4c0.2,0.2,0.3,0.5,0.3,0.8
					c0,0.5-0.2,0.9-0.6,1.1s-1,0.4-1.7,0.4C55.1,37.4,54.6,37.3,54.2,37.2z"/>
				<path class="st5" d="M62,37c-0.1,0.1-0.3,0.2-0.5,0.3s-0.4,0.1-0.6,0.1c-0.5,0-0.9-0.1-1.2-0.4c-0.3-0.3-0.4-0.7-0.4-1.2v-2.9
					h-0.9V32h0.9v-1.2h1V32h1.5v0.8h-1.5v2.9c0,0.3,0.1,0.5,0.2,0.7c0.1,0.2,0.3,0.2,0.6,0.2c0.3,0,0.5-0.1,0.8-0.3L62,37z"/>
				<path class="st5" d="M63.8,37c-0.4-0.2-0.7-0.6-1-1c-0.2-0.4-0.4-0.9-0.4-1.4c0-0.5,0.1-1,0.4-1.4c0.2-0.4,0.6-0.7,1-1
					c0.4-0.2,0.9-0.3,1.4-0.3c0.5,0,1,0.1,1.4,0.3c0.4,0.2,0.7,0.5,1,1s0.4,0.9,0.4,1.4c0,0.5-0.1,1-0.4,1.4s-0.6,0.7-1,1
					c-0.4,0.2-0.9,0.3-1.4,0.3C64.7,37.4,64.2,37.3,63.8,37z M66.1,36.3c0.3-0.2,0.5-0.4,0.6-0.7s0.2-0.6,0.2-1c0-0.4-0.1-0.7-0.2-1
					s-0.4-0.5-0.6-0.7c-0.3-0.2-0.6-0.2-0.9-0.2c-0.3,0-0.6,0.1-0.9,0.2c-0.3,0.2-0.5,0.4-0.6,0.7c-0.2,0.3-0.2,0.6-0.2,1
					c0,0.4,0.1,0.7,0.2,1c0.2,0.3,0.4,0.5,0.6,0.7c0.3,0.2,0.6,0.2,0.9,0.2C65.6,36.5,65.9,36.5,66.1,36.3z"/>
				<path class="st5" d="M77.5,32.6c0.4,0.4,0.6,1,0.6,1.7v3h-1v-2.9c0-0.5-0.1-0.9-0.4-1.2c-0.2-0.3-0.6-0.4-1-0.4
					c-0.5,0-0.9,0.2-1.2,0.5c-0.3,0.3-0.4,0.7-0.4,1.3v2.7h-1v-2.9c0-0.5-0.1-0.9-0.4-1.2c-0.2-0.3-0.6-0.4-1-0.4
					c-0.5,0-0.9,0.2-1.2,0.5c-0.3,0.3-0.4,0.7-0.4,1.3v2.7h-1V32h0.9v0.8c0.2-0.3,0.4-0.5,0.8-0.6S71.6,32,72,32
					c0.4,0,0.8,0.1,1.1,0.3c0.3,0.2,0.6,0.4,0.7,0.7c0.2-0.3,0.5-0.5,0.8-0.7c0.4-0.2,0.8-0.3,1.2-0.3C76.6,32,77.1,32.2,77.5,32.6z
					"/>
				<path class="st5" d="M84.7,35h-4.3c0.1,0.5,0.3,0.8,0.6,1.1c0.3,0.3,0.8,0.4,1.3,0.4c0.6,0,1.1-0.2,1.5-0.6l0.5,0.6
					c-0.2,0.3-0.5,0.5-0.9,0.6s-0.8,0.2-1.2,0.2c-0.6,0-1.1-0.1-1.5-0.3c-0.4-0.2-0.8-0.6-1-1c-0.2-0.4-0.4-0.9-0.4-1.4
					c0-0.5,0.1-1,0.3-1.4c0.2-0.4,0.5-0.7,1-1c0.4-0.2,0.9-0.3,1.4-0.3c0.5,0,1,0.1,1.4,0.3c0.4,0.2,0.7,0.6,0.9,1
					c0.2,0.4,0.3,0.9,0.3,1.4C84.7,34.8,84.7,34.9,84.7,35z M80.9,33.2c-0.3,0.3-0.5,0.6-0.5,1.1h3.4c-0.1-0.4-0.2-0.8-0.5-1.1
					c-0.3-0.3-0.7-0.4-1.2-0.4S81.2,32.9,80.9,33.2z"/>
				<path class="st5" d="M87.7,32.2c0.3-0.2,0.7-0.2,1.2-0.2v0.9c-0.1,0-0.1,0-0.2,0c-0.5,0-0.9,0.2-1.2,0.5
					c-0.3,0.3-0.4,0.8-0.4,1.3v2.6h-1V32h0.9v0.9C87.1,32.6,87.3,32.4,87.7,32.2z"/>
			</g>
			<g class="st6">
				<path class="st5" d="M34,50.2c-0.5-0.2-0.9-0.4-1.2-0.6l0.4-0.8c0.3,0.2,0.6,0.4,1,0.6c0.4,0.2,0.8,0.2,1.3,0.2
					c0.6,0,1-0.1,1.3-0.3c0.3-0.2,0.4-0.5,0.4-0.8c0-0.2-0.1-0.4-0.2-0.6c-0.2-0.2-0.4-0.3-0.6-0.3c-0.2-0.1-0.6-0.2-1-0.3
					c-0.5-0.1-1-0.3-1.3-0.4c-0.3-0.1-0.6-0.3-0.8-0.6c-0.2-0.3-0.3-0.6-0.3-1.1c0-0.4,0.1-0.7,0.3-1c0.2-0.3,0.5-0.5,0.9-0.7
					c0.4-0.2,0.9-0.3,1.5-0.3c0.4,0,0.8,0.1,1.2,0.2c0.4,0.1,0.7,0.3,1,0.5l-0.3,0.8c-0.3-0.2-0.6-0.3-0.9-0.4
					c-0.3-0.1-0.7-0.1-1-0.1c-0.6,0-1,0.1-1.3,0.3S34,44.9,34,45.2c0,0.2,0.1,0.4,0.2,0.6c0.2,0.2,0.4,0.3,0.6,0.4
					c0.2,0.1,0.6,0.2,1,0.3c0.5,0.1,1,0.3,1.3,0.4s0.6,0.3,0.8,0.6c0.2,0.3,0.3,0.6,0.3,1c0,0.4-0.1,0.7-0.3,1
					c-0.2,0.3-0.5,0.5-0.9,0.7c-0.4,0.2-0.9,0.3-1.5,0.3C35,50.4,34.5,50.3,34,50.2z"/>
				<path class="st5" d="M44.5,45v5.3h-0.9v-0.8c-0.2,0.3-0.4,0.5-0.8,0.6s-0.7,0.2-1,0.2c-0.7,0-1.3-0.2-1.7-0.6
					c-0.4-0.4-0.6-1-0.6-1.7v-3h1V48c0,0.5,0.1,0.9,0.4,1.2c0.2,0.3,0.6,0.4,1.1,0.4c0.5,0,0.9-0.2,1.2-0.5c0.3-0.3,0.4-0.7,0.4-1.3
					V45H44.5z"/>
				<path class="st5" d="M50.6,45.3c0.4,0.2,0.7,0.5,1,1c0.2,0.4,0.3,0.9,0.3,1.4c0,0.5-0.1,1-0.3,1.4c-0.2,0.4-0.5,0.7-1,1
					s-0.9,0.3-1.4,0.3c-0.4,0-0.7-0.1-1-0.2s-0.6-0.4-0.8-0.6v2.7h-1V45h0.9v0.8c0.2-0.3,0.5-0.5,0.8-0.7c0.3-0.2,0.7-0.2,1.1-0.2
					C49.7,45,50.1,45.1,50.6,45.3z M50,49.3c0.3-0.2,0.5-0.4,0.6-0.7c0.2-0.3,0.2-0.6,0.2-1c0-0.4-0.1-0.7-0.2-1
					c-0.2-0.3-0.4-0.5-0.6-0.7c-0.3-0.2-0.6-0.2-0.9-0.2c-0.3,0-0.6,0.1-0.9,0.2c-0.3,0.2-0.5,0.4-0.6,0.7s-0.2,0.6-0.2,1
					c0,0.4,0.1,0.7,0.2,1s0.4,0.5,0.6,0.7c0.3,0.2,0.6,0.2,0.9,0.2C49.4,49.5,49.7,49.5,50,49.3z"/>
				<path class="st5" d="M57.4,45.3c0.4,0.2,0.7,0.5,1,1c0.2,0.4,0.3,0.9,0.3,1.4c0,0.5-0.1,1-0.3,1.4c-0.2,0.4-0.5,0.7-1,1
					s-0.9,0.3-1.4,0.3c-0.4,0-0.7-0.1-1-0.2s-0.6-0.4-0.8-0.6v2.7h-1V45h0.9v0.8c0.2-0.3,0.5-0.5,0.8-0.7C55.2,45,55.6,45,56,45
					C56.5,45,57,45.1,57.4,45.3z M56.8,49.3c0.3-0.2,0.5-0.4,0.6-0.7c0.2-0.3,0.2-0.6,0.2-1c0-0.4-0.1-0.7-0.2-1
					c-0.2-0.3-0.4-0.5-0.6-0.7c-0.3-0.2-0.6-0.2-0.9-0.2c-0.3,0-0.6,0.1-0.9,0.2c-0.3,0.2-0.5,0.4-0.6,0.7s-0.2,0.6-0.2,1
					c0,0.4,0.1,0.7,0.2,1s0.4,0.5,0.6,0.7c0.3,0.2,0.6,0.2,0.9,0.2C56.3,49.5,56.6,49.5,56.8,49.3z"/>
				<path class="st5" d="M60.9,50c-0.4-0.2-0.7-0.6-1-1c-0.2-0.4-0.4-0.9-0.4-1.4c0-0.5,0.1-1,0.4-1.4c0.2-0.4,0.6-0.7,1-1
					c0.4-0.2,0.9-0.3,1.4-0.3c0.5,0,1,0.1,1.4,0.3c0.4,0.2,0.7,0.5,1,1s0.4,0.9,0.4,1.4c0,0.5-0.1,1-0.4,1.4s-0.6,0.7-1,1
					c-0.4,0.2-0.9,0.3-1.4,0.3C61.7,50.4,61.3,50.3,60.9,50z M63.2,49.3c0.3-0.2,0.5-0.4,0.6-0.7s0.2-0.6,0.2-1c0-0.4-0.1-0.7-0.2-1
					s-0.4-0.5-0.6-0.7c-0.3-0.2-0.6-0.2-0.9-0.2c-0.3,0-0.6,0.1-0.9,0.2c-0.3,0.2-0.5,0.4-0.6,0.7c-0.2,0.3-0.2,0.6-0.2,1
					c0,0.4,0.1,0.7,0.2,1c0.2,0.3,0.4,0.5,0.6,0.7c0.3,0.2,0.6,0.2,0.9,0.2C62.6,49.5,62.9,49.5,63.2,49.3z"/>
				<path class="st5" d="M68,45.2c0.3-0.2,0.7-0.2,1.2-0.2v0.9c-0.1,0-0.1,0-0.2,0c-0.5,0-0.9,0.2-1.2,0.5c-0.3,0.3-0.4,0.8-0.4,1.3
					v2.6h-1V45h0.9v0.9C67.4,45.6,67.7,45.4,68,45.2z"/>
				<path class="st5" d="M73.6,50c-0.1,0.1-0.3,0.2-0.5,0.3s-0.4,0.1-0.6,0.1c-0.5,0-0.9-0.1-1.2-0.4c-0.3-0.3-0.4-0.7-0.4-1.2v-2.9
					h-0.9V45h0.9v-1.2h1V45h1.5v0.8h-1.5v2.9c0,0.3,0.1,0.5,0.2,0.7c0.1,0.2,0.3,0.2,0.6,0.2c0.3,0,0.5-0.1,0.8-0.3L73.6,50z"/>
			</g>
		</g>
	</g>
	<g id="Group_18734">
		<path id="Path_62337" class="st0" d="M751.8,382.9l-1.3,45.4c0,0-0.6,8.3-7.2,8.8h-59.4c-3.8-0.1-7-3.1-7.2-6.9
			c-0.8-6.9-4.8-47.3-4.8-47.3s-2.1-10.2,9.9-10.4h61.5C743.3,372.5,753.4,372.2,751.8,382.9z"/>
		<g id="Group_18724" transform="translate(677.022 380.199)">
			<g id="Group_18457" transform="translate(18.25 0)">
				<g id="Group_18454" transform="translate(0)">
					
						<linearGradient id="Path_62135_1_" gradientUnits="userSpaceOnUse" x1="-413.2989" y1="401.605" x2="-413.2989" y2="402.624" gradientTransform="matrix(33.668 0 0 -18.365 13931.7734 7397.4438)">
						<stop  offset="6.700000e-02" style="stop-color:#1F60AB"/>
						<stop  offset="0.483" style="stop-color:#267FC3"/>
						<stop  offset="1" style="stop-color:#2FA3DF"/>
					</linearGradient>
					<path id="Path_62135" class="st16" d="M30.3,1.9H3.4C1.5,1.9,0,3.5,0,5.3v11.6c0,1.9,1.5,3.4,3.4,3.4h26.9
						c1.9,0,3.4-1.5,3.4-3.4V5.3C33.7,3.5,32.1,1.9,30.3,1.9z M11.5,16.8c0,0.3-0.2,0.5-0.5,0.5l0,0H3.2c-0.3,0-0.5-0.2-0.5-0.5l0,0
						V6.1c0-0.3,0.2-0.5,0.5-0.5l0,0h7.7c0.3,0,0.5,0.2,0.5,0.5l0,0V16.8z M21.2,16.8c0,0.3-0.2,0.5-0.5,0.5c0,0,0,0,0,0H13
						c-0.3,0-0.5-0.2-0.5-0.5c0,0,0,0,0,0V6.1c0-0.3,0.2-0.5,0.5-0.5c0,0,0,0,0,0h7.7c0.3,0,0.5,0.2,0.5,0.5c0,0,0,0,0,0V16.8z
						 M31,16.8c0,0.3-0.2,0.5-0.5,0.5c0,0,0,0,0,0h-7.7c-0.3,0-0.5-0.2-0.5-0.5c0,0,0,0,0,0V6.1c0-0.3,0.2-0.5,0.5-0.5c0,0,0,0,0,0
						h7.7c0.3,0,0.5,0.2,0.5,0.5c0,0,0,0,0,0V16.8z"/>
					<path id="Path_62136" class="st5" d="M10.4,8.6c-0.5,0.9-2.5,4.1-2.5,7.7h-3c0.1-2.6,1-5.1,2.6-7.2H6v1.1H3.7V6.7h6.7L10.4,8.6
						z"/>
					<path id="Path_62137" class="st5" d="M20.2,8.6c-0.5,0.9-2.5,4.1-2.5,7.7h-3c0.1-2.6,1-5.1,2.6-7.2h-1.6v1.1h-2.2V6.7h6.7
						L20.2,8.6z"/>
					<path id="Path_62138" class="st5" d="M29.9,8.6c-0.5,0.9-2.5,4.1-2.5,7.7h-3c0.1-2.6,1-5.1,2.6-7.2h-1.6v1.1h-2.2V6.7h6.7
						L29.9,8.6z"/>
					<g id="Group_18453" transform="translate(34.817)">
						
							<linearGradient id="Path_62139_1_" gradientUnits="userSpaceOnUse" x1="-417.4258" y1="396.5617" x2="-417.4258" y2="395.9437" gradientTransform="matrix(3.865 0 0 -14.16 1615.2789 5622.7295)">
							<stop  offset="0" style="stop-color:#FFD647"/>
							<stop  offset="0.743" style="stop-color:#F29808"/>
						</linearGradient>
						<path id="Path_62139" class="st17" d="M3,3.2C2.5,3.2,2,3.6,2,4.1c0,0,0,0,0,0v11.4H0v1.8h3c0.5,0,0.9-0.4,0.9-0.9
							c0,0,0,0,0,0V4.1C3.9,3.6,3.5,3.2,3,3.2C3,3.2,3,3.2,3,3.2z"/>
						
							<linearGradient id="Ellipse_467_1_" gradientUnits="userSpaceOnUse" x1="-427.5875" y1="355.7869" x2="-427.7975" y2="356.4179" gradientTransform="matrix(5.496 0 0 -5.496 2353.6743 1960.252)">
							<stop  offset="6.700000e-02" style="stop-color:#1F60AB"/>
							<stop  offset="0.483" style="stop-color:#267FC3"/>
							<stop  offset="1" style="stop-color:#2FA3DF"/>
						</linearGradient>
						<circle id="Ellipse_467" class="st18" cx="3" cy="2.7" r="2.7"/>
					</g>
				</g>
			</g>
			<g class="st6">
				<path class="st5" d="M16.7,28.8h1v6.1h3.8v0.9h-4.8V28.8z"/>
				<path class="st5" d="M23.3,35.5c-0.4-0.2-0.7-0.6-1-1c-0.2-0.4-0.4-0.9-0.4-1.4c0-0.5,0.1-1,0.4-1.4c0.2-0.4,0.6-0.7,1-1
					c0.4-0.2,0.9-0.3,1.4-0.3c0.5,0,1,0.1,1.4,0.3c0.4,0.2,0.7,0.5,1,1s0.4,0.9,0.4,1.4c0,0.5-0.1,1-0.4,1.4s-0.6,0.7-1,1
					c-0.4,0.2-0.9,0.3-1.4,0.3C24.2,35.9,23.7,35.7,23.3,35.5z M25.7,34.8c0.3-0.2,0.5-0.4,0.6-0.7s0.2-0.6,0.2-1
					c0-0.4-0.1-0.7-0.2-1s-0.4-0.5-0.6-0.7c-0.3-0.2-0.6-0.2-0.9-0.2c-0.3,0-0.6,0.1-0.9,0.2c-0.3,0.2-0.5,0.4-0.6,0.7
					c-0.2,0.3-0.2,0.6-0.2,1c0,0.4,0.1,0.7,0.2,1c0.2,0.3,0.4,0.5,0.6,0.7c0.3,0.2,0.6,0.2,0.9,0.2C25.1,35,25.4,34.9,25.7,34.8z"/>
				<path class="st5" d="M32.4,31c0.4,0.4,0.6,0.9,0.6,1.6v3.2h-0.9v-0.7c-0.2,0.2-0.4,0.4-0.7,0.6c-0.3,0.1-0.6,0.2-1.1,0.2
					c-0.6,0-1.1-0.1-1.4-0.4c-0.4-0.3-0.5-0.7-0.5-1.1s0.2-0.8,0.5-1.1c0.3-0.3,0.9-0.4,1.6-0.4H32v-0.2c0-0.4-0.1-0.7-0.4-1
					c-0.2-0.2-0.6-0.3-1.1-0.3c-0.3,0-0.6,0.1-0.9,0.2c-0.3,0.1-0.6,0.2-0.8,0.4l-0.4-0.7c0.3-0.2,0.6-0.4,1-0.5
					c0.4-0.1,0.8-0.2,1.2-0.2C31.4,30.5,32,30.6,32.4,31z M31.4,34.9c0.3-0.2,0.5-0.4,0.6-0.7v-0.7h-1.5c-0.8,0-1.2,0.3-1.2,0.8
					c0,0.3,0.1,0.5,0.3,0.6c0.2,0.2,0.5,0.2,0.9,0.2S31.2,35,31.4,34.9z"/>
				<path class="st5" d="M39.8,28.4v7.4h-0.9V35c-0.2,0.3-0.5,0.5-0.8,0.7c-0.3,0.2-0.7,0.2-1.1,0.2c-0.5,0-1-0.1-1.4-0.3
					c-0.4-0.2-0.7-0.5-1-1c-0.2-0.4-0.3-0.9-0.3-1.4c0-0.5,0.1-1,0.3-1.4c0.2-0.4,0.5-0.7,1-1c0.4-0.2,0.9-0.3,1.4-0.3
					c0.4,0,0.7,0.1,1,0.2s0.6,0.4,0.8,0.6v-2.9H39.8z M38,34.8c0.3-0.2,0.5-0.4,0.6-0.7s0.2-0.6,0.2-1c0-0.4-0.1-0.7-0.2-1
					s-0.4-0.5-0.6-0.7s-0.6-0.2-0.9-0.2c-0.3,0-0.6,0.1-0.9,0.2c-0.3,0.2-0.5,0.4-0.6,0.7c-0.2,0.3-0.2,0.6-0.2,1
					c0,0.4,0.1,0.7,0.2,1c0.2,0.3,0.4,0.5,0.6,0.7c0.3,0.2,0.6,0.2,0.9,0.2C37.4,35,37.7,34.9,38,34.8z"/>
				<path class="st5" d="M41.9,35.7c-0.4-0.1-0.7-0.3-0.9-0.4l0.4-0.8c0.2,0.2,0.5,0.3,0.8,0.4s0.7,0.2,1,0.2c0.8,0,1.3-0.2,1.3-0.7
					c0-0.2-0.1-0.3-0.2-0.4c-0.1-0.1-0.3-0.2-0.4-0.2c-0.2,0-0.4-0.1-0.7-0.1c-0.4-0.1-0.8-0.1-1-0.2c-0.3-0.1-0.5-0.2-0.7-0.4
					c-0.2-0.2-0.3-0.5-0.3-0.9c0-0.5,0.2-0.9,0.6-1.2c0.4-0.3,0.9-0.4,1.6-0.4c0.4,0,0.7,0,1.1,0.1c0.4,0.1,0.6,0.2,0.9,0.3
					l-0.4,0.8c-0.4-0.3-0.9-0.4-1.5-0.4c-0.4,0-0.7,0.1-0.9,0.2C42.2,31.6,42,31.8,42,32c0,0.2,0.1,0.3,0.2,0.4
					c0.1,0.1,0.3,0.2,0.4,0.2s0.4,0.1,0.7,0.2c0.4,0.1,0.8,0.2,1,0.2c0.3,0.1,0.5,0.2,0.7,0.4c0.2,0.2,0.3,0.5,0.3,0.8
					c0,0.5-0.2,0.9-0.6,1.1s-1,0.4-1.7,0.4C42.7,35.9,42.3,35.8,41.9,35.7z"/>
				<path class="st5" d="M50.1,35.5c-0.4-0.2-0.7-0.6-1-1c-0.2-0.4-0.4-0.9-0.4-1.4c0-0.5,0.1-1,0.4-1.4c0.2-0.4,0.6-0.7,1-1
					c0.4-0.2,0.9-0.3,1.4-0.3s1,0.1,1.4,0.3c0.4,0.2,0.7,0.5,1,1c0.2,0.4,0.4,0.9,0.4,1.4c0,0.5-0.1,1-0.4,1.4c-0.2,0.4-0.6,0.7-1,1
					s-0.9,0.3-1.4,0.3S50.6,35.7,50.1,35.5z M52.5,34.8c0.3-0.2,0.5-0.4,0.6-0.7s0.2-0.6,0.2-1c0-0.4-0.1-0.7-0.2-1
					s-0.4-0.5-0.6-0.7c-0.3-0.2-0.6-0.2-0.9-0.2s-0.6,0.1-0.9,0.2c-0.3,0.2-0.5,0.4-0.6,0.7c-0.2,0.3-0.2,0.6-0.2,1
					c0,0.4,0.1,0.7,0.2,1c0.2,0.3,0.4,0.5,0.6,0.7c0.3,0.2,0.6,0.2,0.9,0.2S52.2,34.9,52.5,34.8z"/>
				<path class="st5" d="M56.7,30v0.5h1.5v0.8h-1.5v4.5h-1v-4.5h-0.9v-0.8h0.9V30c0-0.5,0.2-0.9,0.5-1.3s0.7-0.5,1.3-0.5
					c0.2,0,0.4,0,0.6,0.1c0.2,0.1,0.3,0.1,0.5,0.2l-0.3,0.7c-0.2-0.2-0.5-0.3-0.7-0.3C57,29.1,56.7,29.4,56.7,30z"/>
			</g>
			<g class="st6">
				<path class="st5" d="M27,43.5v4.6c0,0.9-0.2,1.6-0.7,2.1s-1.1,0.7-2.1,0.7c-0.5,0-1-0.1-1.4-0.2c-0.5-0.1-0.8-0.3-1.1-0.6
					l0.5-0.7c0.2,0.2,0.6,0.4,0.9,0.5c0.4,0.1,0.7,0.2,1.1,0.2c0.6,0,1.1-0.1,1.4-0.4c0.3-0.3,0.4-0.7,0.4-1.3v-0.4
					c-0.2,0.3-0.5,0.5-0.8,0.6s-0.7,0.2-1.1,0.2c-0.5,0-1-0.1-1.4-0.3s-0.7-0.5-1-0.9s-0.4-0.8-0.4-1.3s0.1-0.9,0.4-1.3
					s0.6-0.7,1-0.9c0.4-0.2,0.9-0.3,1.4-0.3c0.4,0,0.8,0.1,1.1,0.2c0.3,0.1,0.6,0.4,0.8,0.6v-0.8H27z M25.2,47.5
					c0.3-0.1,0.5-0.4,0.7-0.6c0.2-0.3,0.2-0.6,0.2-0.9c0-0.5-0.2-0.9-0.5-1.2s-0.8-0.5-1.3-0.5c-0.5,0-1,0.2-1.3,0.5
					s-0.5,0.7-0.5,1.2c0,0.3,0.1,0.6,0.2,0.9c0.2,0.3,0.4,0.5,0.7,0.6c0.3,0.1,0.6,0.2,0.9,0.2C24.6,47.7,24.9,47.7,25.2,47.5z"/>
				<path class="st5" d="M32.4,44c0.4,0.4,0.6,0.9,0.6,1.6v3.2h-0.9v-0.7c-0.2,0.2-0.4,0.4-0.7,0.6s-0.6,0.2-1.1,0.2
					c-0.6,0-1.1-0.1-1.4-0.4c-0.4-0.3-0.5-0.7-0.5-1.1s0.2-0.8,0.5-1.1s0.9-0.4,1.6-0.4h1.5v-0.2c0-0.4-0.1-0.7-0.4-1
					c-0.2-0.2-0.6-0.3-1.1-0.3c-0.3,0-0.6,0.1-0.9,0.2s-0.6,0.2-0.8,0.4l-0.4-0.7c0.3-0.2,0.6-0.4,1-0.5c0.4-0.1,0.8-0.2,1.2-0.2
					C31.5,43.5,32.1,43.6,32.4,44z M31.5,47.9c0.3-0.2,0.5-0.4,0.6-0.7v-0.7h-1.5c-0.8,0-1.2,0.3-1.2,0.8c0,0.3,0.1,0.5,0.3,0.6
					s0.5,0.2,0.9,0.2C30.9,48.1,31.2,48,31.5,47.9z"/>
				<path class="st5" d="M43,44c0.4,0.4,0.6,1,0.6,1.7v3h-1v-2.9c0-0.5-0.1-0.9-0.4-1.2c-0.2-0.3-0.6-0.4-1-0.4
					c-0.5,0-0.9,0.2-1.2,0.5c-0.3,0.3-0.4,0.7-0.4,1.3v2.7h-1v-2.9c0-0.5-0.1-0.9-0.4-1.2c-0.2-0.3-0.6-0.4-1-0.4
					c-0.5,0-0.9,0.2-1.2,0.5c-0.3,0.3-0.4,0.7-0.4,1.3v2.7h-1v-5.3h0.9v0.8c0.2-0.3,0.4-0.5,0.8-0.6s0.7-0.2,1.1-0.2
					c0.4,0,0.8,0.1,1.1,0.3c0.3,0.2,0.6,0.4,0.7,0.7c0.2-0.3,0.5-0.5,0.8-0.7c0.4-0.2,0.8-0.3,1.2-0.3C42.1,43.5,42.6,43.6,43,44z"
					/>
				<path class="st5" d="M50.2,46.5h-4.3c0.1,0.5,0.3,0.8,0.6,1.1c0.4,0.3,0.8,0.4,1.3,0.4c0.6,0,1.1-0.2,1.5-0.6l0.5,0.6
					c-0.2,0.3-0.5,0.5-0.9,0.6c-0.4,0.1-0.8,0.2-1.2,0.2c-0.6,0-1.1-0.1-1.5-0.3c-0.4-0.2-0.8-0.6-1-1c-0.2-0.4-0.4-0.9-0.4-1.4
					c0-0.5,0.1-1,0.3-1.4c0.2-0.4,0.5-0.7,0.9-1c0.4-0.2,0.9-0.3,1.4-0.3s1,0.1,1.4,0.3c0.4,0.2,0.7,0.6,0.9,1s0.3,0.9,0.3,1.4
					C50.2,46.3,50.2,46.4,50.2,46.5z M46.4,44.7c-0.3,0.3-0.5,0.6-0.5,1.1h3.4c-0.1-0.4-0.2-0.8-0.5-1.1c-0.3-0.3-0.7-0.4-1.2-0.4
					S46.7,44.4,46.4,44.7z"/>
				<path class="st5" d="M51.8,48.7c-0.4-0.1-0.7-0.3-0.9-0.4l0.4-0.8c0.2,0.2,0.5,0.3,0.8,0.4s0.7,0.2,1,0.2c0.8,0,1.3-0.2,1.3-0.7
					c0-0.2-0.1-0.3-0.2-0.4c-0.1-0.1-0.3-0.2-0.4-0.2c-0.2,0-0.4-0.1-0.7-0.1c-0.4-0.1-0.8-0.1-1-0.2c-0.3-0.1-0.5-0.2-0.7-0.4
					C51.1,45.7,51,45.4,51,45c0-0.5,0.2-0.9,0.6-1.2c0.4-0.3,0.9-0.4,1.6-0.4c0.4,0,0.7,0,1.1,0.1c0.4,0.1,0.6,0.2,0.9,0.3l-0.4,0.8
					c-0.4-0.3-0.9-0.4-1.5-0.4c-0.4,0-0.7,0.1-0.9,0.2C52.1,44.6,52,44.8,52,45c0,0.2,0.1,0.3,0.2,0.4c0.1,0.1,0.3,0.2,0.4,0.2
					s0.4,0.1,0.7,0.2c0.4,0.1,0.8,0.2,1,0.2c0.3,0.1,0.5,0.2,0.7,0.4c0.2,0.2,0.3,0.5,0.3,0.8c0,0.5-0.2,0.9-0.6,1.1s-1,0.4-1.7,0.4
					C52.6,48.9,52.2,48.8,51.8,48.7z"/>
			</g>
		</g>
	</g>
</g>
</svg>
