<svg id="Group_18887" data-name="Group 18887" xmlns="http://www.w3.org/2000/svg" xmlns:xlink="http://www.w3.org/1999/xlink" width="26" height="26" viewBox="0 0 26 26">
  <defs>
    <linearGradient id="linear-gradient" x1="0.5" y1="1" x2="0.5" gradientUnits="objectBoundingBox">
      <stop offset="0" stop-color="#bee5ff"/>
      <stop offset="1" stop-color="#fff"/>
    </linearGradient>
  </defs>
  <rect id="Rectangle_22690" data-name="Rectangle 22690" width="14" height="8" transform="translate(6 7)" fill="#2e83c5"/>
  <g id="charla" transform="translate(0 0)">
    <g id="Group_18829" data-name="Group 18829" transform="translate(0)">
      <g id="Group_18828" data-name="Group 18828">
        <path id="Path_62408" data-name="Path 62408" d="M26,8.326A8.3,8.3,0,0,0,17.752,0H8.326A8.383,8.383,0,0,0,0,8.326V15.4a5.8,5.8,0,0,0,1.774,4.175,5.986,5.986,0,0,0,3.017,1.6v3.651a1.178,1.178,0,0,0,2.011.833l4.368-4.368h6.581A8.257,8.257,0,0,0,26,13.039ZM8.326,11.861A1.178,1.178,0,1,1,9.5,10.683,1.178,1.178,0,0,1,8.326,11.861Zm4.713,0a1.178,1.178,0,1,1,1.178-1.178A1.178,1.178,0,0,1,13.039,11.861Zm4.713,0a1.178,1.178,0,1,1,1.178-1.178A1.178,1.178,0,0,1,17.752,11.861Z" transform="translate(0)" fill="url(#linear-gradient)"/>
      </g>
    </g>
  </g>
</svg>
