<svg id="united-kingdom" xmlns="http://www.w3.org/2000/svg" width="34.703" height="34.703" viewBox="0 0 34.703 34.703">
  <g id="Group_20407" data-name="Group 20407" transform="translate(0.571 0.695)">
    <path id="Path_65538" data-name="Path 65538" d="M10.279,102.641a17.276,17.276,0,0,0-2.485,5.408h7.893Z" transform="translate(-7.794 -95.816)" fill="#29337a"/>
    <path id="Path_65539" data-name="Path 65539" d="M101.178,9.48A17.289,17.289,0,0,0,95.7,12.2l5.481,5.481Z" transform="translate(-89.257 -9.48)" fill="#29337a"/>
    <path id="Path_65540" data-name="Path 65540" d="M101.261,366.816a17.263,17.263,0,0,0,5.073,2.433v-7.506Z" transform="translate(-94.413 -335.935)" fill="#29337a"/>
    <path id="Path_65541" data-name="Path 65541" d="M10.512,306.771a17.286,17.286,0,0,0,2.576,5.116l5.116-5.116Z" transform="translate(-10.313 -284.991)" fill="#29337a"/>
  </g>
  <g id="Group_20408" data-name="Group 20408" transform="translate(0.253 0.33)">
    <path id="Path_65542" data-name="Path 65542" d="M6.538,97.144q-.145.2-.286.4l5.408,5.408H3.766c-.128.487-.232.983-.318,1.486H13.835Z" transform="translate(-3.448 -90.357)" fill="#fff"/>
    <path id="Path_65543" data-name="Path 65543" d="M95.767,339.012c.132.1.268.192.4.286l5.073-5.073v7.506c.487.142.982.265,1.486.364V332.05Z" transform="translate(-89.003 -308.053)" fill="#fff"/>
    <path id="Path_65544" data-name="Path 65544" d="M5.25,286.487c.108.5.235,1,.385,1.486h7.693l-5.116,5.116a17.468,17.468,0,0,0,1.844,2.133l8.736-8.736Z" transform="translate(-5.118 -265.828)" fill="#fff"/>
    <path id="Path_65545" data-name="Path 65545" d="M74.406,4.87v8.2L68.924,7.594a17.449,17.449,0,0,0-2.116,1.861l9.083,9.083V4.506C75.388,4.605,74.893,4.729,74.406,4.87Z" transform="translate(-62.166 -4.506)" fill="#fff"/>
  </g>
  <g id="Group_20409" data-name="Group 20409" transform="translate(12.44 12.876)">
    <path id="Path_65546" data-name="Path 65546" d="M169.852,306.056l-.052.052h.052Z" transform="translate(-169.8 -296.51)" fill="#d32030"/>
    <path id="Path_65547" data-name="Path 65547" d="M190.084,285.825h.052v-.052Z" transform="translate(-188.598 -277.713)" fill="#d32030"/>
    <path id="Path_65548" data-name="Path 65548" d="M280.6,196.737h-.05v.05Z" transform="translate(-272.432 -195.2)" fill="#d32030"/>
    <path id="Path_65549" data-name="Path 65549" d="M170.562,175.806l-.051-.052v.052Z" transform="translate(-170.459 -175.754)" fill="#d32030"/>
    <path id="Path_65550" data-name="Path 65550" d="M190.794,196.037v.051h.051Z" transform="translate(-189.256 -194.551)" fill="#d32030"/>
  </g>
  <g id="Group_20410" data-name="Group 20410" transform="translate(22.039 0.646)">
    <path id="Path_65551" data-name="Path 65551" d="M300.825,377.167v3.89a17.252,17.252,0,0,0,5.144-2.41l-4.215-4.215A13.659,13.659,0,0,1,300.825,377.167Z" transform="translate(-300.825 -347.646)" fill="#252f6c"/>
    <path id="Path_65552" data-name="Path 65552" d="M301.776,16.119l4.6-4.6a17.286,17.286,0,0,0-5.552-2.7v4A15.381,15.381,0,0,1,301.776,16.119Z" transform="translate(-300.824 -8.818)" fill="#252f6c"/>
    <path id="Path_65553" data-name="Path 65553" d="M361.033,311.988a17.3,17.3,0,0,0,2.648-5.217h-7.865Z" transform="translate(-351.787 -284.942)" fill="#252f6c"/>
    <path id="Path_65554" data-name="Path 65554" d="M363.855,106.774a17.27,17.27,0,0,0-2.557-5.509l-5.509,5.509Z" transform="translate(-351.762 -94.492)" fill="#252f6c"/>
  </g>
  <g id="Group_20411" data-name="Group 20411" transform="translate(20.553 0.299)">
    <path id="Path_65555" data-name="Path 65555" d="M327.638,286.785l1.192,1.192,5.707,5.707c.13-.162.258-.324.382-.49l-5.217-5.217h7.866q.225-.729.385-1.486h-10.2C327.733,286.7,327.658,286.575,327.638,286.785Z" transform="translate(-324.188 -265.801)" fill="#e7e7e7"/>
    <path id="Path_65556" data-name="Path 65556" d="M311.29,51.143l5.173-5.173c-.13-.1-.259-.2-.392-.3l-4.6,4.6C311.518,50.455,311.245,50.957,311.29,51.143Z" transform="translate(-309.033 -42.625)" fill="#e7e7e7"/>
    <path id="Path_65557" data-name="Path 65557" d="M282.027,8.109V4.433q-.73-.2-1.486-.346V5.88A9.6,9.6,0,0,1,282.027,8.109Z" transform="translate(-280.541 -4.087)" fill="#e7e7e7"/>
    <path id="Path_65558" data-name="Path 65558" d="M322.025,80.735h10.564c-.086-.5-.19-1-.318-1.486H324.2l5.509-5.509a17.434,17.434,0,0,0-1.8-2.176l-6.206,6.2C321.874,78.9,321.949,79.549,322.025,80.735Z" transform="translate(-318.691 -66.621)" fill="#e7e7e7"/>
    <path id="Path_65559" data-name="Path 65559" d="M310.088,331.7l4.466,4.466a17.4,17.4,0,0,0,2.095-1.7l-5.874-5.874A30.145,30.145,0,0,1,310.088,331.7Z" transform="translate(-307.923 -304.821)" fill="#e7e7e7"/>
    <path id="Path_65560" data-name="Path 65560" d="M280.545,414v2q.755-.141,1.486-.346v-3.89A9.652,9.652,0,0,1,280.545,414Z" transform="translate(-280.545 -381.896)" fill="#e7e7e7"/>
  </g>
  <path id="Path_65561" data-name="Path 65561" d="M315.867,57.537l6.2-6.2a17.349,17.349,0,0,0-1.791-1.6l-4.876,4.876C315.622,55.515,315.72,56.552,315.867,57.537Z" transform="translate(-292.298 -46.089)" fill="#d71f28"/>
  <g id="Group_20412" data-name="Group 20412" transform="translate(16.486)">
    <path id="Path_65562" data-name="Path 65562" d="M225.019.021q.434-.021.866-.021Q225.45,0,225.019.021Z" transform="translate(-225.019 0)" fill="#d32030"/>
    <path id="Path_65563" data-name="Path 65563" d="M225.891,473.4c-.289,0-.577-.008-.865-.022Q225.456,473.4,225.891,473.4Z" transform="translate(-225.025 -438.7)" fill="#d32030"/>
    <path id="Path_65564" data-name="Path 65564" d="M236.836,444.6a17.387,17.387,0,0,0,3.2-.3v-2C239.127,443.289,238.06,444.6,236.836,444.6Z" transform="translate(-235.97 -409.897)" fill="#d32030"/>
  </g>
  <g id="Group_20413" data-name="Group 20413" transform="translate(23.404 14.414)">
    <path id="Path_65565" data-name="Path 65565" d="M337.707,196.737H327.28a46.626,46.626,0,0,1-.05,6.575h10.345a17.308,17.308,0,0,0,.132-6.575Z" transform="translate(-326.66 -196.737)" fill="#d71f28"/>
    <path id="Path_65566" data-name="Path 65566" d="M320.055,290.5c-.1,1.025-.432,1.824-.6,2.791l5.874,5.874a17.515,17.515,0,0,0,1.625-1.765l-5.707-5.708Z" transform="translate(-319.456 -283.631)" fill="#d71f28"/>
  </g>
  <path id="Path_65567" data-name="Path 65567" d="M240.038,2.222V.3a17.434,17.434,0,0,0-3.2-.3C238.06,0,239.127,1.234,240.038,2.222Z" transform="translate(-219.485 0)" fill="#d32030"/>
  <g id="Group_20414" data-name="Group 20414" transform="translate(22.039 3.786)">
    <path id="Path_65568" data-name="Path 65568" d="M300.825,366.166a18.688,18.688,0,0,0,1.209-3.206l-1.209-1.209Z" transform="translate(-300.825 -339.034)" fill="#29337a"/>
    <path id="Path_65569" data-name="Path 65569" d="M302.184,55.43a19.518,19.518,0,0,0-1.359-3.753v5.112Z" transform="translate(-300.825 -51.677)" fill="#29337a"/>
  </g>
  <g id="Group_20415" data-name="Group 20415" transform="translate(20.553 1.556)">
    <path id="Path_65570" data-name="Path 65570" d="M324.259,287.117q.029-.314.055-.63h-.685Z" transform="translate(-320.472 -267.055)" fill="#fff"/>
    <path id="Path_65571" data-name="Path 65571" d="M282.027,28.586V23.474a9.6,9.6,0,0,0-1.486-2.229v9.517l2.984-2.984c-.045-.186-.092-.369-.139-.551Z" transform="translate(-280.541 -21.245)" fill="#fff"/>
    <path id="Path_65572" data-name="Path 65572" d="M281.229,152.734h3.841c-.075-1.186-.2-2.353-.362-3.479Z" transform="translate(-281.179 -139.877)" fill="#fff"/>
    <path id="Path_65573" data-name="Path 65573" d="M280.545,301.6a9.61,9.61,0,0,0,1.486-2.229v-4.415l1.209,1.209a29.928,29.928,0,0,0,.7-3.1l-3.393-3.392V301.6Z" transform="translate(-280.545 -270.015)" fill="#fff"/>
  </g>
  <path id="Path_65574" data-name="Path 65574" d="M20.554,33.146V21.223l3.392,3.393c.167-.967.3-1.971.394-3l-.63-.63h.685a46.648,46.648,0,0,0,.05-6.575H20.6l3.479-3.479c-.147-.986-.328-1.939-.545-2.845l-2.984,2.984V1.557A4.31,4.31,0,0,0,17.351,0q-.433,0-.866.021A17.467,17.467,0,0,0,13.978.33V14.362L4.895,5.279A17.52,17.52,0,0,0,3.342,7.117l5.811,5.811,1.487,1.486H.253a17.309,17.309,0,0,0,.132,6.575H13.926L5.19,29.724a17.475,17.475,0,0,0,1.826,1.564l6.962-6.962V34.372a17.483,17.483,0,0,0,2.508.309c.289.014.577.022.865.022A4.31,4.31,0,0,0,20.554,33.146Z" fill="#e51d35"/>
</svg>
