<svg xmlns="http://www.w3.org/2000/svg" xmlns:xlink="http://www.w3.org/1999/xlink" width="35.773" height="31" viewBox="0 0 35.773 31">
  <defs>
    <clipPath id="clip-path">
      <path id="Path_62378" data-name="Path 62378" d="M10.234,3.4,10.2,3.359,7.983,4.829l.652.973L1.623,16.39l3.175.016,5.436-8.2,5.436,8.2h3.18L11.826,5.8l.641-.973-2.213-1.47Z" transform="translate(-1.623 -3.359)" fill="none"/>
    </clipPath>
    <linearGradient id="linear-gradient" x1="-0.504" y1="1" x2="-0.193" y2="1" gradientUnits="objectBoundingBox">
      <stop offset="0" stop-color="#1f60ab"/>
      <stop offset="0.067" stop-color="#1f60ab"/>
      <stop offset="0.483" stop-color="#267fc3"/>
      <stop offset="1" stop-color="#2fa3df"/>
    </linearGradient>
    <clipPath id="clip-path-2">
      <path id="Path_62379" data-name="Path 62379" d="M.181.38V20.151a3.654,3.654,0,0,0,3.64,3.64H29.915a3.651,3.651,0,0,0,3.64-3.64V.38Z" transform="translate(-0.181 -0.38)" fill="none"/>
    </clipPath>
    <linearGradient id="linear-gradient-2" x1="-0.029" y1="1.237" x2="0.131" y2="1.237" xlink:href="#linear-gradient"/>
    <clipPath id="clip-path-3">
      <path id="Path_62380" data-name="Path 62380" d="M1.438,0a1.435,1.435,0,1,0,0,2.87h32.9a1.435,1.435,0,0,0,0-2.87Z" fill="none"/>
    </clipPath>
    <linearGradient id="linear-gradient-3" y1="10.799" x2="0.149" y2="10.799" gradientUnits="objectBoundingBox">
      <stop offset="0" stop-color="#ffd647"/>
      <stop offset="0.743" stop-color="#f29808"/>
      <stop offset="1" stop-color="#f29808"/>
    </linearGradient>
    <clipPath id="clip-path-4">
      <rect id="Rectangle_22641" data-name="Rectangle 22641" width="35.773" height="31" fill="none"/>
    </clipPath>
  </defs>
  <g id="Group_18785" data-name="Group 18785" transform="translate(0 0)">
    <g id="Group_18778" data-name="Group 18778" transform="translate(8.675 17.953)">
      <g id="Group_18777" data-name="Group 18777" clip-path="url(#clip-path)">
        <rect id="Rectangle_22638" data-name="Rectangle 22638" width="17.227" height="13.047" transform="translate(0 0)" fill="url(#linear-gradient)"/>
      </g>
    </g>
    <g id="Group_18780" data-name="Group 18780" transform="translate(0.967 2.032)">
      <g id="Group_18779" data-name="Group 18779" clip-path="url(#clip-path-2)">
        <rect id="Rectangle_22639" data-name="Rectangle 22639" width="33.373" height="23.411" transform="translate(0 -0.001)" fill="url(#linear-gradient-2)"/>
      </g>
    </g>
    <g id="Group_18782" data-name="Group 18782" transform="translate(0 0.001)">
      <g id="Group_18781" data-name="Group 18781" clip-path="url(#clip-path-3)">
        <rect id="Rectangle_22640" data-name="Rectangle 22640" width="35.768" height="2.87" transform="translate(0 -0.001)" fill="url(#linear-gradient-3)"/>
      </g>
    </g>
    <g id="Group_18784" data-name="Group 18784" transform="translate(0 0)">
      <g id="Group_18783" data-name="Group 18783" clip-path="url(#clip-path-4)">
        <path id="Path_62381" data-name="Path 62381" d="M4.071,12.1H2.623a1.241,1.241,0,0,1-1.24-1.24V3.5a1.242,1.242,0,0,1,1.24-1.245H4.071A1.242,1.242,0,0,1,5.311,3.5v7.365a1.241,1.241,0,0,1-1.24,1.24" transform="translate(6.009 9.795)" fill="#fff"/>
        <path id="Path_62382" data-name="Path 62382" d="M6.308,14.208H4.859a1.245,1.245,0,0,1-1.245-1.24V3.01A1.242,1.242,0,0,1,4.859,1.77H6.308a1.237,1.237,0,0,1,1.24,1.24v9.957a1.241,1.241,0,0,1-1.24,1.24" transform="translate(15.702 7.692)" fill="#fff"/>
        <path id="Path_62383" data-name="Path 62383" d="M5.187,16.914H3.739a1.241,1.241,0,0,1-1.24-1.24V2.387a1.241,1.241,0,0,1,1.24-1.24H5.187a1.241,1.241,0,0,1,1.24,1.24V15.674a1.241,1.241,0,0,1-1.24,1.24" transform="translate(10.858 4.985)" fill="#fff"/>
        <path id="Path_62384" data-name="Path 62384" d="M7.419,10.15H5.971a1.244,1.244,0,0,1-1.24-1.24V3.929a1.244,1.244,0,0,1,1.24-1.24H7.419a1.237,1.237,0,0,1,1.24,1.24V8.91a1.237,1.237,0,0,1-1.24,1.24" transform="translate(20.556 11.685)" fill="#fff"/>
      </g>
    </g>
  </g>
</svg>
