<svg xmlns="http://www.w3.org/2000/svg" width="14.2" height="18.933" viewBox="0 0 14.2 18.933"><g transform="translate(-64)"><g transform="translate(64)"><path d="M77.805,7.1H76.622V5.522a5.522,5.522,0,0,0-11.044,0V7.1H64.394A.394.394,0,0,0,64,7.494v9.861a1.579,1.579,0,0,0,1.578,1.578H76.622A1.579,1.579,0,0,0,78.2,17.355V7.494A.394.394,0,0,0,77.805,7.1Zm-5.524,8.24a.395.395,0,0,1-.392.438H70.311a.395.395,0,0,1-.392-.438l.249-2.238a1.561,1.561,0,0,1-.646-1.269,1.578,1.578,0,1,1,3.156,0,1.561,1.561,0,0,1-.646,1.269ZM74.255,7.1H67.944V5.522a3.155,3.155,0,0,1,6.311,0Z" transform="translate(-64)" fill="#0f194d"/></g></g></svg>