<svg xmlns="http://www.w3.org/2000/svg" xmlns:xlink="http://www.w3.org/1999/xlink" width="80" height="63" viewBox="0 0 80 63">
  <defs>
    <clipPath id="clip-path">
      <rect id="Rectangle_21577" data-name="Rectangle 21577" width="80" height="63" transform="translate(613 695)" fill="#fff" stroke="#707070" stroke-width="1"/>
    </clipPath>
  </defs>
  <g id="Mask_Group_376" data-name="Mask Group 376" transform="translate(-613 -695)" clip-path="url(#clip-path)">
    <g id="Group_15380" data-name="Group 15380" transform="translate(-20059 15300)">
      <g id="Group_15307" data-name="Group 15307" transform="translate(10007.427 -1566.35) rotate(20)">
        <path id="Path_56720" data-name="Path 56720" d="M70.45,62.083l.066-.068-.144-.667a12.551,12.551,0,0,0-.311-1.445L59.988,13.037c-.05-.264-.105-.523-.169-.783l-.138-.646-.086-.041A16.536,16.536,0,0,0,43.582,0a17.4,17.4,0,0,0-6.016,1.1l-.051-.024-.424.164-.017.006L9.128,12.064l-.021.04A13.524,13.524,0,0,0,0,24.666a12.738,12.738,0,0,0,.736,4.087l-.043.085L16.457,70a11.568,11.568,0,0,0,9.614,7.218l.185.132,1.016-.017c.061,0,.117.017.178.017.087,0,.168-.022.255-.024l28.628-.481c7.871,0,14.251-6.046,14.251-13.505A12.506,12.506,0,0,0,70.45,62.083Z" transform="translate(5568.001 -15845.927) rotate(-90)" fill="#ffc107"/>
      </g>
      <g id="warning-sign" transform="translate(20520.773 -14591)">
        <path id="Path_56769" data-name="Path 56769" d="M188.975,30.575a2.829,2.829,0,0,0,2.819-2.592l1.912-22.837a4.748,4.748,0,1,0-9.462,0l1.912,22.837A2.829,2.829,0,0,0,188.975,30.575Z" transform="translate(0 0)" fill="#fff"/>
        <path id="Path_56770" data-name="Path 56770" d="M208.535,410.908a3.081,3.081,0,1,0,3.082,3.081A3.081,3.081,0,0,0,208.535,410.908Z" transform="translate(-19.56 -378.653)" fill="#fff"/>
      </g>
    </g>
  </g>
</svg>
