<svg xmlns="http://www.w3.org/2000/svg" width="77.345" height="70.584" viewBox="0 0 77.345 70.584">
  <g id="Group_15307" data-name="Group 15307" transform="translate(-5568.001 15916.511)">
    <path id="Path_56720" data-name="Path 56720" d="M70.45,62.083l.066-.068-.144-.667a12.551,12.551,0,0,0-.311-1.445L59.988,13.037c-.05-.264-.105-.523-.169-.783l-.138-.646-.086-.041A16.536,16.536,0,0,0,43.582,0a17.4,17.4,0,0,0-6.016,1.1l-.051-.024-.424.164-.017.006L9.128,12.064l-.021.04A13.524,13.524,0,0,0,0,24.666a12.738,12.738,0,0,0,.736,4.087l-.043.085L16.457,70a11.568,11.568,0,0,0,9.614,7.218l.185.132,1.016-.017c.061,0,.117.017.178.017.087,0,.168-.022.255-.024l28.628-.481c7.871,0,14.251-6.046,14.251-13.505A12.506,12.506,0,0,0,70.45,62.083Z" transform="translate(5568.001 -15845.927) rotate(-90)" fill="#10B429"/>
    <path id="Path_56718" data-name="Path 56718" d="M95.154,129.373a3.363,3.363,0,0,1-2.831-1.415l-8.807-11.324a3.586,3.586,0,1,1,5.662-4.4l5.976,7.706,13.211-17.143a3.586,3.586,0,0,1,5.662,4.4l-16.042,20.76A4.113,4.113,0,0,1,95.154,129.373Z" transform="translate(5510.659 -15998.535)" fill="#fff"/>
  </g>
</svg>
