<svg id="portugal" xmlns="http://www.w3.org/2000/svg" width="34.713" height="34.713" viewBox="0 0 34.713 34.713">
  <path id="Path_65534" data-name="Path 65534" d="M0,32.2A17.363,17.363,0,0,0,11.319,48.477L12.829,32.2,11.319,15.923A17.363,17.363,0,0,0,0,32.2Z" transform="translate(0 -14.843)" fill="#6da544"/>
  <path id="Path_65535" data-name="Path 65535" d="M190.349,17.356A17.366,17.366,0,0,0,166.955,1.08V33.633a17.366,17.366,0,0,0,23.394-16.277Z" transform="translate(-155.636)" fill="#d80027"/>
  <circle id="Ellipse_691" data-name="Ellipse 691" cx="6.037" cy="6.037" r="6.037" transform="translate(5.282 11.319)" fill="#ffda44"/>
  <path id="Path_65536" data-name="Path 65536" d="M116.87,211.478v3.773a3.4,3.4,0,1,0,6.792,0v-3.773Z" transform="translate(-108.946 -197.14)" fill="#d80027"/>
  <path id="Path_65537" data-name="Path 65537" d="M151.393,247.511a1.133,1.133,0,0,1-1.132-1.132V244.87h2.264v1.509A1.133,1.133,0,0,1,151.393,247.511Z" transform="translate(-140.074 -228.268)" fill="#f0f0f0"/>
</svg>
