<svg xmlns="http://www.w3.org/2000/svg" width="20.285" height="24.314" viewBox="0 0 20.285 24.314">
  <g id="Group_18870" data-name="Group 18870" transform="translate(-1786.722 -81.561)">
    <path id="Path_62418" data-name="Path 62418" d="M92.888,11.712A5.666,5.666,0,0,0,97.029,10a5.666,5.666,0,0,0,1.716-4.141,5.667,5.667,0,0,0-1.716-4.141,5.855,5.855,0,0,0-8.281,0,5.667,5.667,0,0,0-1.716,4.14A5.666,5.666,0,0,0,88.748,10,5.668,5.668,0,0,0,92.888,11.712Zm0,0" transform="translate(1703.823 81.561)" fill="#fff"/>
    <path id="Path_62419" data-name="Path 62419" d="M20.236,254.268a14.464,14.464,0,0,0-.2-1.536,12.105,12.105,0,0,0-.378-1.545,7.63,7.63,0,0,0-.635-1.441,5.436,5.436,0,0,0-.958-1.248,4.221,4.221,0,0,0-1.375-.864,4.754,4.754,0,0,0-1.756-.318,1.782,1.782,0,0,0-.952.4c-.285.186-.619.4-.992.639a5.682,5.682,0,0,1-1.283.565,4.982,4.982,0,0,1-3.138,0,5.668,5.668,0,0,1-1.282-.565c-.369-.236-.7-.451-.992-.64a1.78,1.78,0,0,0-.951-.4,4.748,4.748,0,0,0-1.756.318,4.218,4.218,0,0,0-1.376.864,5.438,5.438,0,0,0-.957,1.248,7.644,7.644,0,0,0-.635,1.441,12.131,12.131,0,0,0-.378,1.544,14.413,14.413,0,0,0-.2,1.537c-.032.465-.049.948-.049,1.436a4.037,4.037,0,0,0,1.2,3.054,4.317,4.317,0,0,0,3.09,1.127H16a4.316,4.316,0,0,0,3.09-1.127,4.036,4.036,0,0,0,1.2-3.055c0-.49-.017-.973-.049-1.436Zm0,0" transform="translate(1786.722 -154.011)" fill="#fff"/>
  </g>
</svg>
