<?xml version="1.0" encoding="utf-8"?>
<!-- Generator: Adobe Illustrator 24.0.1, SVG Export Plug-In . SVG Version: 6.00 Build 0)  -->
<svg version="1.1" id="Layer_1" xmlns="http://www.w3.org/2000/svg" xmlns:xlink="http://www.w3.org/1999/xlink" x="0px" y="0px"
	 viewBox="0 0 488.44 512" style="enable-background:new 0 0 488.44 512;" xml:space="preserve">
<g>
	<g>
		<path d="M468.82,228.73c-20.73-37.9-52.83-68.11-83.88-97.32c-5.46-5.14-10.62-9.99-15.75-14.92
			c-19.24-18.47-38.72-36.29-57.56-53.51c-18.7-17.1-38.04-34.78-57.01-53L244.22,0l-10.4,9.98c-18.97,18.22-38.31,35.9-57.01,53
			c-18.84,17.23-38.32,35.04-57.56,53.51c-5.13,4.93-10.29,9.78-15.75,14.91c-31.05,29.22-63.16,59.43-83.89,97.33
			c-26.86,49.11-26.11,103.65,2.05,149.64c34.93,57.04,83.62,69.33,118.31,69.58c18.04,0.14,36.07-3,53.26-9.19
			c-3.78,15.59-8.61,24.07-12.69,26.94l-6.37,4.48V512h140.09l0,0v-41.81l-6.37-4.48c-4.08-2.87-8.92-11.35-12.69-26.94
			c17.19,6.19,35.23,9.33,53.26,9.19c34.7-0.26,83.39-12.54,118.31-69.59C494.93,332.38,495.68,277.84,468.82,228.73z M441.18,362.7
			c-22.26,36.36-53.53,54.95-92.94,55.24c-22.39,0.12-44.8-5.96-64.83-17.73l-25.6-15.04l3.07,29.53
			c3.31,31.78,10.21,53.96,21,67.28h-75.31c10.79-13.31,17.69-35.49,21-67.27l3.07-29.53l-25.6,15.04
			c-20.03,11.76-42.45,17.89-64.83,17.73c-39.4-0.29-70.67-18.88-92.94-55.24c-22.39-36.57-22.86-80.15-1.31-119.56
			c18.44-33.71,48.78-62.26,78.12-89.87c5.27-4.96,10.73-10.09,15.97-15.12c18.98-18.22,38.32-35.91,57.03-53.01
			c15.45-14.12,31.33-28.64,47.15-43.6c15.83,14.96,31.7,29.47,47.15,43.6c18.71,17.1,38.05,34.79,57.03,53.01
			c5.24,5.03,10.69,10.16,15.97,15.13c29.34,27.61,59.68,56.15,78.12,89.87C464.04,282.55,463.56,326.13,441.18,362.7z" fill="#BACCFF"/>
	</g>
</g>
</svg>
