<?xml version="1.0" encoding="utf-8"?>
<!-- Generator: Adobe Illustrator 24.0.1, SVG Export Plug-In . SVG Version: 6.00 Build 0)  -->
<svg version="1.1" id="Layer_1" xmlns="http://www.w3.org/2000/svg" xmlns:xlink="http://www.w3.org/1999/xlink" x="0px" y="0px"
	 viewBox="0 0 151.96 147.33" style="enable-background:new 0 0 151.96 147.33;" xml:space="preserve">
<style type="text/css">
	.st0{fill:#BACCFF;}
	.st1{fill-rule:evenodd;clip-rule:evenodd;fill:#BACCFF;}
</style>
<g>
	<g>
		<g>
			<path class="st0" d="M25.83,136.52c-2.63,0.26-4.99-1.67-5.25-4.3l-9.76-98.65c-0.26-2.63,1.67-4.99,4.3-5.25l34.42-3.41
				l3.86-11.23l-39.35,3.89C5.5,18.42-0.77,26.07,0.08,34.62l9.76,98.65c0.85,8.56,8.5,14.83,17.05,13.98l45.79-4.53l-24.48-8.42
				L25.83,136.52z"/>
		</g>
		<path class="st0" d="M99.03,144.75l-60.09-20.68c-8.13-2.8-12.47-11.69-9.67-19.82l32.25-93.74c2.8-8.13,11.69-12.47,19.82-9.67
			l60.09,20.68c8.13,2.8,12.47,11.69,9.67,19.82l-32.25,93.74C116.06,143.21,107.16,147.55,99.03,144.75z M77.84,11.05
			c-2.5-0.86-5.24,0.47-6.1,2.98l-32.25,93.74c-0.86,2.5,0.47,5.24,2.98,6.1l60.09,20.68c2.5,0.86,5.24-0.47,6.1-2.98l32.25-93.74
			c0.86-2.5-0.47-5.24-2.98-6.1L77.84,11.05z"/>
	</g>
	<g>
		<path class="st0" d="M19.1,41.44c0.03,0,0.07-0.04,0.08-0.08c0.63-2.35,1.53-5.8,2.15-8.17c0.25-0.05,0.89-0.12,1.92-0.22
			c1.05,2.27,2.48,5.51,3.48,7.69l0.72-0.01c0.04,0.38,0.08,0.78,0.1,1.18c-0.46,0.05-1.15,0.11-1.68,0.17
			c-0.73,0.07-1.61,0.16-2.26,0.22c-0.04-0.39-0.08-0.8-0.1-1.19l0.68-0.11c0.03,0,0.05-0.03,0.03-0.07
			c-0.09-0.2-0.26-0.64-0.37-0.84c-0.02-0.05-0.05-0.07-0.1-0.06l-2.59,0.28c-0.04,0.32-0.11,0.72-0.14,1.02l0.77-0.04
			c0.04,0.38,0.08,0.78,0.1,1.18c-0.56,0.06-1.29,0.13-1.98,0.2c-0.46,0.05-0.95,0.09-1.37,0.14c-0.04-0.39-0.06-0.8-0.09-1.18
			L19.1,41.44z M22.05,35.73c-0.22,1.07-0.45,2.21-0.65,3.19c-0.01,0.06-0.01,0.09,0.04,0.08l1.96-0.19
			c-0.39-0.9-0.84-2.01-1.28-3.09L22.05,35.73z"/>
	</g>
	<g>
		<path class="st1" d="M25.76,47.95c-0.76,0.08-1.41,0.46-1.84,1.02c-0.53-0.46-1.25-0.71-2-0.64c-1.46,0.14-2.53,1.45-2.39,2.91
			c0.14,1.46,1.45,2.53,2.91,2.39c0.76-0.07,1.41-0.46,1.84-1.02c0.53,0.46,1.25,0.71,2,0.64c1.46-0.14,2.53-1.45,2.39-2.91
			C28.53,48.88,27.23,47.81,25.76,47.95z"/>
		<polyline class="st1" points="24.99,57.26 20.35,52.91 28.2,52.14 24.99,57.26 		"/>
	</g>
	<g>
		<path class="st1" d="M82,79.94c2.02,0.7,4.14,0.47,5.89-0.44c0.82,1.8,2.35,3.28,4.37,3.98c3.9,1.34,8.16-0.73,9.5-4.64
			c1.34-3.9-0.73-8.16-4.64-9.5c-2.02-0.7-4.14-0.47-5.89,0.44c-0.82-1.8-2.35-3.28-4.37-3.98c-3.9-1.34-8.16,0.73-9.5,4.64
			C76.02,74.34,78.09,78.59,82,79.94z"/>
		<polygon class="st1" points="80.68,66.4 94.88,57.09 101.62,73.61 		"/>
		<path class="st1" d="M86.98,78.75c0,0-2.42,5.3-8.07,6.31l-0.36,1.06l6.31,2.17l6.31,2.17l0.36-1.05
			c-3.84-4.27-2.48-9.94-2.48-9.94L86.98,78.75z"/>
	</g>
	<g>
		<path class="st0" d="M84.87,19.85c-0.04,0-0.06,0.03-0.07,0.06c-0.56,1.62-1.13,3.33-1.73,4.92c-0.42,1.17-0.94,2.08-1.98,2.6
			c-0.98,0.52-2.22,0.63-3.83,0.08c-0.87-0.3-1.41-0.56-1.95-0.88c0.19-1.07,0.38-2.12,0.58-3.15c0.51,0.04,1.1,0.1,1.66,0.19
			l-0.06,1.79c-0.01,0.08,0.03,0.15,0.08,0.22c0.14,0.2,0.47,0.41,0.7,0.49c0.25,0.09,0.73,0.16,1.1-0.09
			c0.45-0.33,0.69-1.04,0.93-1.72c0.59-1.72,1.22-3.61,1.83-5.42l-1.64-0.62c0.14-0.42,0.31-0.89,0.46-1.29
			c0.86,0.29,2.12,0.73,3.06,1.05c0.73,0.25,1.59,0.55,2.17,0.75c-0.14,0.41-0.32,0.88-0.46,1.29L84.87,19.85z"/>
	</g>
	<g>
		<path class="st1" d="M73.13,38.88c0.67,0.23,1.37,0.16,1.95-0.15c0.27,0.6,0.78,1.08,1.45,1.32c1.29,0.44,2.7-0.24,3.14-1.53
			c0.44-1.29-0.24-2.7-1.53-3.14c-0.67-0.23-1.37-0.16-1.95,0.15c-0.27-0.6-0.78-1.09-1.45-1.32c-1.29-0.44-2.7,0.24-3.14,1.53
			C71.15,37.03,71.84,38.44,73.13,38.88z"/>
		<polygon class="st1" points="72.7,34.41 77.39,31.33 79.62,36.79 		"/>
		<path class="st1" d="M74.78,38.49c0,0-0.8,1.75-2.67,2.09l-0.12,0.35l2.09,0.72l2.09,0.72l0.12-0.35
			c-1.27-1.41-0.82-3.29-0.82-3.29L74.78,38.49z"/>
	</g>
	<g>
		<path class="st0" d="M95.81,126.07c0.04,0,0.06-0.03,0.07-0.06c0.56-1.62,1.13-3.33,1.73-4.92c0.42-1.16,0.94-2.08,1.98-2.6
			c0.98-0.52,2.22-0.63,3.83-0.08c0.87,0.3,1.41,0.56,1.95,0.88c-0.19,1.07-0.38,2.12-0.58,3.15c-0.51-0.04-1.1-0.1-1.66-0.19
			l0.06-1.79c0.01-0.08-0.03-0.15-0.08-0.22c-0.14-0.2-0.47-0.41-0.7-0.49c-0.25-0.09-0.73-0.16-1.1,0.09
			c-0.45,0.33-0.69,1.04-0.93,1.72c-0.59,1.71-1.22,3.61-1.83,5.42l1.64,0.62c-0.14,0.42-0.31,0.89-0.46,1.29
			c-0.86-0.29-2.12-0.73-3.06-1.05c-0.73-0.25-1.59-0.55-2.17-0.75c0.14-0.41,0.32-0.88,0.46-1.29L95.81,126.07z"/>
	</g>
	<g>
		<path class="st1" d="M107.55,107.03c-0.67-0.23-1.37-0.16-1.95,0.15c-0.27-0.6-0.78-1.08-1.45-1.31c-1.29-0.44-2.7,0.24-3.14,1.53
			c-0.44,1.29,0.24,2.7,1.53,3.14c0.67,0.23,1.37,0.16,1.95-0.15c0.27,0.6,0.78,1.08,1.45,1.32c1.29,0.44,2.7-0.24,3.14-1.53
			C109.53,108.88,108.84,107.48,107.55,107.03z"/>
		<polygon class="st1" points="107.98,111.51 103.29,114.59 101.06,109.13 		"/>
		<path class="st1" d="M105.9,107.42c0,0,0.8-1.75,2.67-2.09l0.12-0.35l-2.09-0.72l-2.09-0.72l-0.12,0.35
			c1.27,1.41,0.82,3.29,0.82,3.29L105.9,107.42z"/>
	</g>
</g>
</svg>
