<svg id="Group_20700" data-name="Group 20700" xmlns="http://www.w3.org/2000/svg" width="35.877" height="35.877" viewBox="0 0 35.877 35.877">
  <path id="Path_65982" data-name="Path 65982" d="M403.939,96.9a17.938,17.938,0,1,1,17.939-17.939A17.959,17.959,0,0,1,403.939,96.9Zm0-34.416c-8.625,0-16.477,7.853-16.477,16.477s7.853,16.477,16.477,16.477,16.477-7.853,16.477-16.477S412.564,62.486,403.939,62.486Z" transform="translate(-386.001 -61.025)" fill="#baccff"/>
  <path id="Path_65983" data-name="Path 65983" d="M456.135,126.97h-18.2a.72.72,0,1,1,0-1.433h18.2A.72.72,0,1,1,456.135,126.97Z" transform="translate(-429.095 -115.386)" fill="#baccff"/>
  <path id="Path_65984" data-name="Path 65984" d="M456.135,216.837h-18.2a.72.72,0,1,1,0-1.433h18.2A.72.72,0,1,1,456.135,216.837Z" transform="translate(-429.095 -191.112)" fill="#baccff"/>
  <path id="Path_65985" data-name="Path 65985" d="M420.09,155.219a1.666,1.666,0,0,0-.513-.473l-.1-.062.1-.07a1.654,1.654,0,0,0,.446-.464,2.076,2.076,0,0,0,.261-1.114,2.134,2.134,0,0,0-.489-1.452,1.843,1.843,0,0,0-1.458-.566h-2.149v7.555h1.988a2.336,2.336,0,0,0,1.695-.54,2.257,2.257,0,0,0,.546-1.66A1.956,1.956,0,0,0,420.09,155.219Zm-2.482-2.916h.351a1.7,1.7,0,0,1,.371.037.5.5,0,0,1,.24.125.636.636,0,0,1,.154.271,1.718,1.718,0,0,1,.06.5,1.024,1.024,0,0,1-.209.743.89.89,0,0,1-.635.2h-.331Zm1.251,4.307a.971.971,0,0,1-.156.313.684.684,0,0,1-.245.2.775.775,0,0,1-.348.073h-.5v-1.972h.462a.757.757,0,0,1,.6.27,1.056,1.056,0,0,1,.242.726A1.346,1.346,0,0,1,418.859,156.611Z" transform="translate(-411.433 -136.858)" fill="#baccff"/>
  <path id="Path_65986" data-name="Path 65986" d="M451.927,150.379a2.076,2.076,0,0,0-1.677.679,2.69,2.69,0,0,0-.563,1.783v2.843a2.673,2.673,0,0,0,.563,1.773,2.076,2.076,0,0,0,1.677.679,2.1,2.1,0,0,0,1.644-.651,2.621,2.621,0,0,0,.575-1.8v-2.843a2.638,2.638,0,0,0-.575-1.811A2.1,2.1,0,0,0,451.927,150.379Zm.744,5.5a.951.951,0,0,1-.217.685.7.7,0,0,1-.527.22.733.733,0,0,1-.539-.212.945.945,0,0,1-.215-.693v-3.236a.948.948,0,0,1,.216-.689.725.725,0,0,1,.538-.216.7.7,0,0,1,.527.22.95.95,0,0,1,.217.685Z" transform="translate(-439.666 -136.319)" fill="#baccff"/>
  <path id="Path_65987" data-name="Path 65987" d="M485.5,151.019v7.555h1.436v-3.742l1.456,3.742h1.488v-7.555H488.47v3.666l-1.271-3.666Z" transform="translate(-469.84 -136.858)" fill="#baccff"/>
  <path id="Path_65988" data-name="Path 65988" d="M523.066,157.289a.711.711,0,0,1-.545-.243,1.064,1.064,0,0,1-.229-.743v-5.284h-1.5v5.355a2.288,2.288,0,0,0,.6,1.733,2.714,2.714,0,0,0,3.308.011,2.271,2.271,0,0,0,.609-1.744v-5.355h-1.476V156.3a1.049,1.049,0,0,1-.234.742A.715.715,0,0,1,523.066,157.289Z" transform="translate(-499.585 -136.858)" fill="#baccff"/>
  <path id="Path_65989" data-name="Path 65989" d="M560.21,155.784a2.626,2.626,0,0,0-.139-.889,1.913,1.913,0,0,0-.481-.72,2.484,2.484,0,0,0-.442-.351c-.153-.1-.311-.184-.469-.263s-.317-.153-.479-.224a3.348,3.348,0,0,1-.452-.241,1.181,1.181,0,0,1-.4-.342.752.752,0,0,1-.1-.408.568.568,0,0,1,.167-.448.805.805,0,0,1,.547-.155.736.736,0,0,1,.522.18.588.588,0,0,1,.172.5l-.007.13h1.435l0-.126a2.21,2.21,0,0,0-.521-1.5,2.056,2.056,0,0,0-1.567-.543,2.133,2.133,0,0,0-1.58.586,2.175,2.175,0,0,0-.58,1.594,2.448,2.448,0,0,0,.166.971,2,2,0,0,0,.525.7,4.883,4.883,0,0,0,.763.526c.256.141.512.275.762.4a1.45,1.45,0,0,1,.549.4.739.739,0,0,1,.138.452.639.639,0,0,1-.176.478.626.626,0,0,1-.468.176,1,1,0,0,1-.632-.158.744.744,0,0,1-.233-.5l-.014-.107H555.77l.011.133a2.421,2.421,0,0,0,.626,1.585,2.226,2.226,0,0,0,1.614.534,2.062,2.062,0,0,0,1.625-.646A2.493,2.493,0,0,0,560.21,155.784Z" transform="translate(-529.056 -136.319)" fill="#baccff"/>
  <path id="Path_65990" data-name="Path 65990" d="M452.193,94.643l.945.991L452.984,97l1.235-.593,1.247.568-.182-1.358.926-1.01-1.348-.246-.675-1.192-.651,1.206Z" transform="translate(-441.778 -88.107)" fill="#baccff"/>
  <path id="Path_65991" data-name="Path 65991" d="M487.213,94.643l.945.991L488,97l1.235-.593,1.247.568-.182-1.358.925-1.01-1.348-.246-.675-1.192-.651,1.206Z" transform="translate(-471.287 -88.107)" fill="#baccff"/>
  <path id="Path_65992" data-name="Path 65992" d="M522.23,94.643l.945.991L523.021,97l1.235-.593,1.247.568-.182-1.358.925-1.01-1.348-.246-.675-1.192-.651,1.206Z" transform="translate(-500.794 -88.107)" fill="#baccff"/>
  <path id="Path_65993" data-name="Path 65993" d="M526.3,234.887l-.945-.991.155-1.361-1.235.593-1.247-.568.182,1.358-.925,1.01,1.348.246.675,1.192.651-1.206Z" transform="translate(-500.843 -205.546)" fill="#baccff"/>
  <path id="Path_65994" data-name="Path 65994" d="M491.285,234.887l-.946-.991.155-1.361-1.235.593-1.247-.568.182,1.358-.925,1.01,1.348.246.675,1.192.651-1.206Z" transform="translate(-471.334 -205.546)" fill="#baccff"/>
  <path id="Path_65995" data-name="Path 65995" d="M456.266,234.887l-.946-.991.155-1.361-1.235.593-1.247-.568.182,1.358-.925,1.01,1.348.246.675,1.192.65-1.206Z" transform="translate(-441.825 -205.546)" fill="#baccff"/>
</svg>
