<svg xmlns="http://www.w3.org/2000/svg" width="30.536" height="30.536" viewBox="0 0 30.536 30.536">
  <g id="surface1" transform="translate(0)">
    <path id="Path_65966" data-name="Path 65966" d="M29.642,2.2H25.723q.021-.651.022-1.309A.9.9,0,0,0,24.851,0H5.686a.9.9,0,0,0-.895.895q0,.658.022,1.309H.895A.9.9,0,0,0,0,3.1,19.389,19.389,0,0,0,2.95,13.748c1.88,2.826,4.385,4.447,7.091,4.6a9.185,9.185,0,0,0,1.937,1.627v3.976h-1.5a3.294,3.294,0,0,0-3.29,3.29v1.5H7.123a.895.895,0,0,0,0,1.789h16.29a.895.895,0,1,0,0-1.789h-.064v-1.5a3.294,3.294,0,0,0-3.29-3.29h-1.5V19.98A9.179,9.179,0,0,0,20.5,18.353c2.706-.158,5.21-1.779,7.091-4.6A19.39,19.39,0,0,0,30.536,3.1.9.9,0,0,0,29.642,2.2ZM4.44,12.757A17.241,17.241,0,0,1,1.808,3.993H4.913A29.894,29.894,0,0,0,7.692,14.846q.358.716.747,1.352A8.627,8.627,0,0,1,4.44,12.757ZM21.56,27.246v1.5H8.976v-1.5a1.5,1.5,0,0,1,1.5-1.5h9.582A1.5,1.5,0,0,1,21.56,27.246Zm-4.791-3.29h-3v-3.2a5.821,5.821,0,0,0,3,0Zm.554-5.327a.878.878,0,0,0-.116.059,4.177,4.177,0,0,1-3.877,0,.905.905,0,0,0-.117-.06,7.2,7.2,0,0,1-2.022-1.667.908.908,0,0,0-.114-.133,14.1,14.1,0,0,1-1.784-2.782,29.532,29.532,0,0,1-2.7-12.257H23.945a29.539,29.539,0,0,1-2.7,12.257,14.114,14.114,0,0,1-1.784,2.782.885.885,0,0,0-.114.133A7.2,7.2,0,0,1,17.323,18.629ZM26.1,12.757a8.627,8.627,0,0,1-4,3.442q.388-.637.747-1.352A29.9,29.9,0,0,0,25.623,3.993h3.105A17.241,17.241,0,0,1,26.1,12.757Z" transform="translate(0 0)" fill="#baccff"/>
  </g>
</svg>
