<?xml version="1.0" encoding="iso-8859-1"?>
<!-- Generator: Adobe Illustrator 19.0.0, SVG Export Plug-In . SVG Version: 6.00 Build 0)  -->
<svg version="1.1" id="Capa_1" xmlns="http://www.w3.org/2000/svg" xmlns:xlink="http://www.w3.org/1999/xlink" x="0px" y="0px"
	 viewBox="0 0 512 512" style="enable-background:new 0 0 512 512;" xml:space="preserve">
<g>
	<g>
		<path d="M444.292,137.583l-15.02,7.51C406.522,60.752,329.867,0,241,0C133.477,0,46,87.925,46,196
			c0,74.893,42.014,140.098,103.589,173.085L132.135,422H121c-24.813,0-45,20.187-45,45s20.187,45,45,45h240
			c24.813,0,45-20.187,45-45s-20.187-45-45-45h-11.135l-17.481-52.999c47.8-25.615,82.875-70.144,96.888-122.094l15.02,7.51
			C454.196,259.369,466,252.211,466,241v-90C466,139.877,454.264,132.599,444.292,137.583z M401.794,158.833L357.459,181H283.42
			c-0.532-1.5-1.135-2.967-1.818-4.389l86.205-86.205C383.997,109.922,395.888,133.215,401.794,158.833z M256,30.706
			c33.908,3.192,65.392,17.08,90.674,38.407l-86.285,86.285c-1.423-0.682-2.889-1.285-4.389-1.817V30.706z M241,181
			c8.237,0,15,6.712,15,15c0,8.238-6.714,15-15,15c-8.237,0-15-6.712-15-15C226,187.762,232.714,181,241,181z M304.796,381.137
			L318.275,422h-154.55l13.455-40.792C197.186,388.192,218.658,392,241,392C262.868,392,284.42,388.271,304.796,381.137z
			 M226,30.693V153.58c-1.5,0.532-2.967,1.135-4.389,1.817l-86.553-86.553C160.142,47.657,191.559,33.831,226,30.693z
			 M113.968,90.181l86.43,86.43c-0.682,1.423-1.285,2.889-1.818,4.389H76.681C79.752,146.666,93.249,115.311,113.968,90.181z
			 M76.681,211H198.58c0.532,1.5,1.135,2.967,1.818,4.389l-86.43,86.43C93.249,276.689,79.752,245.334,76.681,211z M135.058,323.155
			l86.553-86.553c1.423,0.682,2.889,1.285,4.389,1.817v122.887C191.559,358.169,160.142,344.343,135.058,323.155z M361,452
			c8.271,0,15,6.729,15,15s-6.729,15-15,15H121c-8.271,0-15-6.729-15-15s6.729-15,15-15C138.804,452,351.677,452,361,452z
			 M256,361.295V238.42c1.5-0.532,2.967-1.135,4.389-1.817l86.285,86.285C321.392,344.215,289.907,358.103,256,361.295z
			 M367.807,301.594l-86.205-86.205c0.682-1.423,1.285-2.889,1.818-4.389h74.039l44.335,22.167
			C395.888,258.786,383.997,282.079,367.807,301.594z M436,216.729c-14.848-7.424-8.901-4.451-41.459-20.729
			c33.079-16.54,25.32-12.66,41.459-20.729V216.729z" fill="#BACCFF"/>
	</g>
</g>
</svg>
