<svg version="1.1" xmlns="http://www.w3.org/2000/svg" xmlns:xlink="http://www.w3.org/1999/xlink" x="0px" y="0px"
	 viewBox="0 0 1158.72 1349.98" style="enable-background:new 0 0 1158.72 1349.98;" xml:space="preserve">
<g id="Watermark">
</g>
<g id="Icon">
	<g>
		<path d="M398.03,608.92c-74.7,195.73-254.52,228.23-163.34,336.89l0,0c34.03,34.03,89.21,34.03,123.24,0l18.84-18.84
			c-13.52,40.46-33.57,88.4-60.35,121.59c48.16,0,81.61,0,81.61,0s33.45,0,81.61,0c-26.78-33.2-46.82-81.13-60.35-121.59
			l18.84,18.84c34.03,34.03,89.21,34.03,123.24,0l0,0C652.54,837.15,472.72,804.65,398.03,608.92z" fill="#BACCFF"/>
	</g>
	<g>
		<path d="M640.98,446.24c-21.55,56.47-73.42,65.84-47.12,97.19h0c9.82,9.82,25.74,9.82,35.55,0l5.43-5.43
			c-3.9,11.67-9.68,25.5-17.41,35.08c13.89,0,23.54,0,23.54,0s9.65,0,23.54,0c-7.72-9.58-13.51-23.41-17.41-35.08l5.43,5.43
			c9.82,9.82,25.74,9.82,35.55,0l0,0C714.4,512.08,662.53,502.7,640.98,446.24z" fill="#BACCFF"/>
	</g>
	<g>
		<path d="M155.08,1247.24c21.55-56.47,73.42-65.84,47.12-97.19l0,0c-9.82-9.82-25.74-9.82-35.55,0l-5.43,5.43
			c3.9-11.67,9.68-25.5,17.41-35.08c-13.89,0-23.54,0-23.54,0s-9.65,0-23.54,0c7.72,9.58,13.51,23.41,17.41,35.08l-5.43-5.43
			c-9.82-9.82-25.74-9.82-35.55,0h0C81.65,1181.4,133.53,1190.78,155.08,1247.24z" fill="#BACCFF"/>
	</g>
	<g>
		<path d="M676.76,1349.98H119.3c-65.78,0-119.3-53.52-119.3-119.3V462.79C0,397.02,53.52,343.5,119.3,343.5h557.46
			c65.78,0,119.3,53.51,119.3,119.29v767.89C796.05,1296.46,742.54,1349.98,676.76,1349.98z M119.3,393.5
			c-38.21,0-69.3,31.08-69.3,69.29v767.89c0,38.21,31.09,69.3,69.3,69.3h557.46c38.21,0,69.3-31.09,69.3-69.3V462.79
			c0-38.21-31.09-69.29-69.3-69.29H119.3z" fill="#BACCFF"/>
	</g>
	<g>
		<path d="M771.05,1210.63c-3.6,0-7.22-0.78-10.6-2.36c-8.78-4.11-14.39-12.94-14.39-22.64V462.79c0-38.21-31.09-69.29-69.3-69.29
			h-495.3c-7.4,0-14.42-3.28-19.17-8.95s-6.74-13.16-5.44-20.44l22.42-125.69c5.59-31.37,23.07-58.68,49.21-76.91
			c26.14-18.23,57.81-25.18,89.18-19.58l548.8,97.9c31.37,5.59,58.68,23.07,76.91,49.21c18.22,26.14,25.18,57.81,19.59,89.18
			c0,0,0,0,0,0l-133.32,747.33l-1.54,8.62c-4.93,27.64-19.5,52.74-41.04,70.67C782.47,1208.66,776.79,1210.63,771.05,1210.63z
			 M211.31,343.5h465.45c65.78,0,119.3,53.51,119.3,119.29v566.26l117.67-659.61c3.25-18.22-0.79-36.62-11.38-51.8
			c-10.59-15.18-26.45-25.34-44.67-28.59l-548.8-97.9c-18.22-3.26-36.62,0.79-51.8,11.37c-15.18,10.59-25.33,26.45-28.58,44.68
			L211.31,343.5z M938.33,373.83L938.33,373.83L938.33,373.83z" fill="#BACCFF"/>
	</g>
	<g>
		<path d="M805.02,1146.16c-5.45,0-10.85-1.78-15.32-5.24c-7.35-5.7-10.93-15-9.3-24.15l133.32-747.33
			c3.25-18.22-0.79-36.62-11.38-51.81c-10.59-15.18-26.45-25.34-44.67-28.58l-468.02-83.49c-7.33-1.31-13.7-5.82-17.37-12.3
			c-3.67-6.48-4.26-14.26-1.6-21.22L407,76.8c23.44-61.47,92.51-92.4,153.97-68.97l520.89,198.59
			c29.77,11.35,53.34,33.61,66.37,62.7c13.03,29.08,13.95,61.5,2.6,91.27L877.28,1077.9c-11.24,29.46-33.21,52.9-61.87,65.99
			C812.09,1145.41,808.54,1146.16,805.02,1146.16z M428.16,161.64l438.29,78.19c31.37,5.59,58.68,23.07,76.91,49.21
			c18.22,26.14,25.18,57.81,19.59,89.18l-112.19,628.89l253.35-664.53c0,0,0,0,0,0c6.59-17.3,6.06-36.13-1.51-53.02
			c-7.57-16.89-21.26-29.82-38.55-36.42L543.15,54.55c-35.7-13.61-75.82,4.36-89.44,40.06L428.16,161.64z" fill="#BACCFF"/>
	</g>
</g>
</svg>
