<svg xmlns="http://www.w3.org/2000/svg" width="32.533" height="32.533" viewBox="0 0 32.533 32.533">
  <g id="Group_20691" data-name="Group 20691" transform="translate(0)">
    <g id="Group_20682" data-name="Group 20682" transform="translate(4.597 12.73)">
      <g id="Group_20681" data-name="Group 20681">
        <path id="Path_65967" data-name="Path 65967" d="M88.261,200.348H73.409a1.061,1.061,0,0,0-1.061,1.061V210.6a1.061,1.061,0,0,0,1.061,1.061H88.261a1.061,1.061,0,0,0,1.061-1.061v-9.194A1.061,1.061,0,0,0,88.261,200.348ZM77.3,209.542H74.47V202.47H77.3Zm4.951,0H79.42V202.47h2.829Zm4.951,0H84.371V202.47H87.2Z" transform="translate(-72.348 -200.348)" fill="#baccff"/>
      </g>
    </g>
    <g id="Group_20684" data-name="Group 20684" transform="translate(0)">
      <g id="Group_20683" data-name="Group 20683">
        <path id="Path_65968" data-name="Path 65968" d="M29.35,0A3.182,3.182,0,0,0,28.29,6.183v8.669H26.168V13.084A13.084,13.084,0,0,0,0,13.084V29.35a3.186,3.186,0,0,0,3.183,3.183h19.8a3.186,3.186,0,0,0,3.183-3.183V16.974H29.35a1.061,1.061,0,0,0,1.061-1.061V6.183A3.182,3.182,0,0,0,29.35,0Zm-5.3,29.35a1.062,1.062,0,0,1-1.061,1.061H3.183A1.062,1.062,0,0,1,2.122,29.35V13.084a10.962,10.962,0,0,1,21.925,0Zm5.3-25.107a1.061,1.061,0,1,1,1.061-1.061A1.062,1.062,0,0,1,29.35,4.243Z" fill="#baccff"/>
      </g>
    </g>
    <g id="Group_20686" data-name="Group 20686" transform="translate(6.021 4.243)">
      <g id="Group_20685" data-name="Group 20685">
        <path id="Path_65969" data-name="Path 65969" d="M108.824,71.732a7.427,7.427,0,0,0-14,0,1.061,1.061,0,0,0,2,.709,5.305,5.305,0,0,1,10,0,1.061,1.061,0,1,0,2-.709Z" transform="translate(-94.76 -66.782)" fill="#baccff"/>
      </g>
    </g>
    <g id="Group_20688" data-name="Group 20688" transform="translate(12.023 8.487)">
      <g id="Group_20687" data-name="Group 20687">
        <circle id="Ellipse_702" data-name="Ellipse 702" cx="1.061" cy="1.061" r="1.061" fill="#baccff"/>
      </g>
    </g>
    <g id="Group_20690" data-name="Group 20690" transform="translate(6.719 26.168)">
      <g id="Group_20689" data-name="Group 20689">
        <path id="Path_65970" data-name="Path 65970" d="M117.408,411.826H106.8a1.061,1.061,0,0,0,0,2.122h10.609a1.061,1.061,0,0,0,0-2.122Z" transform="translate(-105.739 -411.826)" fill="#baccff"/>
      </g>
    </g>
  </g>
</svg>
