<svg id="Group_20699" data-name="Group 20699" xmlns="http://www.w3.org/2000/svg" width="33.207" height="33.205" viewBox="0 0 33.207 33.205">
  <ellipse id="Ellipse_704" data-name="Ellipse 704" cx="1.5" cy="1" rx="1.5" ry="1" transform="translate(3.612 11.424)" fill="#baccff"/>
  <circle id="Ellipse_705" data-name="Ellipse 705" cx="1.5" cy="1.5" r="1.5" transform="translate(3.612 3.424)" fill="#baccff"/>
  <ellipse id="Ellipse_706" data-name="Ellipse 706" cx="1" cy="1.5" rx="1" ry="1.5" transform="translate(11.612 3.424)" fill="#baccff"/>
  <circle id="Ellipse_707" data-name="Ellipse 707" cx="1" cy="1" r="1" transform="translate(11.612 11.424)" fill="#baccff"/>
  <path id="Path_65977" data-name="Path 65977" d="M31.8,17.806,21.8,11.772a2.922,2.922,0,0,0-4.007.99l-.284.47V2.929A2.922,2.922,0,0,0,14.593.011H2.918A2.922,2.922,0,0,0,0,2.929V14.6a2.922,2.922,0,0,0,2.918,2.918H14.593a2.933,2.933,0,0,0,.341-.021l-3.172,5.255a2.922,2.922,0,0,0,.99,4.007L22.745,32.8a2.922,2.922,0,0,0,4.007-.99l6.034-9.994a2.917,2.917,0,0,0-.99-4.007ZM2.918,15.576a.974.974,0,0,1-.973-.973V2.929a.974.974,0,0,1,.973-.973H14.593a.974.974,0,0,1,.973.973V14.6a.974.974,0,0,1-.973.973Zm28.2,5.231L25.086,30.8a.972.972,0,0,1-1.336.33L13.757,25.1a.974.974,0,0,1-.33-1.336l6.034-9.994a.972.972,0,0,1,1.336-.33l9.994,6.034a.972.972,0,0,1,.33,1.336Z" transform="translate(0 -0.011)" fill="#baccff"/>
  <path id="Path_65978" data-name="Path 65978" d="M247.525,348.927a.973.973,0,1,0,.33,1.336A.973.973,0,0,0,247.525,348.927Z" transform="translate(-230.091 -326.166)" fill="#baccff"/>
  <circle id="Ellipse_708" data-name="Ellipse 708" cx="0.973" cy="0.973" r="0.973" transform="translate(19.983 15.942)" fill="#baccff"/>
  <path id="Path_65979" data-name="Path 65979" d="M412.273,308.222a.973.973,0,1,0,.33,1.336A.973.973,0,0,0,412.273,308.222Z" transform="translate(-384.155 -288.101)" fill="#baccff"/>
  <path id="Path_65980" data-name="Path 65980" d="M330.229,329.911a.973.973,0,1,0-1.336.33A.973.973,0,0,0,330.229,329.911Z" transform="translate(-307.123 -307.134)" fill="#baccff"/>
  <path id="Path_65981" data-name="Path 65981" d="M350.252,410.949a.973.973,0,1,0,.33,1.336A.973.973,0,0,0,350.252,410.949Z" transform="translate(-326.155 -384.166)" fill="#baccff"/>
</svg>
