<svg xmlns="http://www.w3.org/2000/svg" width="34.612" height="30.774" viewBox="0 0 34.612 30.774">
  <path id="Path_65589" data-name="Path 65589" d="M31.263,35.714H21.214a1.117,1.117,0,0,0,0,2.233H25.76a7.833,7.833,0,0,0,6.619,6.619v5.743a7.833,7.833,0,0,0-6.619,6.619H8.852a7.833,7.833,0,0,0-6.619-6.619V44.567a7.833,7.833,0,0,0,6.619-6.619H13.4a1.117,1.117,0,1,0,0-2.233H3.35A3.353,3.353,0,0,0,0,39.064V55.812a3.353,3.353,0,0,0,3.35,3.35H31.263a3.353,3.353,0,0,0,3.35-3.35V39.064A3.353,3.353,0,0,0,31.263,35.714Zm-3.237,2.233h3.237a1.118,1.118,0,0,1,1.117,1.117V42.3A5.6,5.6,0,0,1,28.026,37.947Zm-24.676,0H6.587A5.6,5.6,0,0,1,2.233,42.3V39.064A1.118,1.118,0,0,1,3.35,37.947ZM2.233,55.812V52.575a5.6,5.6,0,0,1,4.354,4.354H3.35A1.118,1.118,0,0,1,2.233,55.812Zm29.03,1.117H28.026a5.6,5.6,0,0,1,4.354-4.354v3.237A1.118,1.118,0,0,1,31.263,56.929Zm-20.1-9.49A6.141,6.141,0,1,0,17.306,41.3,6.148,6.148,0,0,0,11.165,47.438Zm10.049,0a3.908,3.908,0,1,1-3.908-3.908A3.912,3.912,0,0,1,21.214,47.438ZM8.374,46.321a1.117,1.117,0,0,1,0,2.233H7.816a1.117,1.117,0,0,1,0-2.233Zm17.864,2.233a1.117,1.117,0,0,1,0-2.233H26.8a1.117,1.117,0,0,1,0,2.233ZM14.214,32.6a1.116,1.116,0,0,1,0-1.579l2.3-2.3a1.117,1.117,0,0,1,1.579,0l2.3,2.3A1.116,1.116,0,1,1,18.82,32.6l-.4-.4v5.33a1.117,1.117,0,1,1-2.233,0V32.2l-.4.4a1.117,1.117,0,0,1-1.579,0Z" transform="translate(0 -28.387)" fill="#cee0ff"/>
</svg>
