<svg xmlns="http://www.w3.org/2000/svg" width="25.368" height="32.841" viewBox="0 0 25.368 32.841">
  <g id="holy-grail" transform="translate(-58.255)">
    <path id="Path_65866" data-name="Path 65866" d="M82.642,8.887,83.623,0H58.255l.98,8.887a11.761,11.761,0,0,0,7.855,9.841v3.859A12.173,12.173,0,0,1,63.8,30.916h-3.44v1.924H81.522V30.916h-3.44a12.173,12.173,0,0,1-3.295-8.329V18.728a11.761,11.761,0,0,0,7.855-9.841ZM81.474,1.924l-.212,1.924H79.6V5.773H81.05L80.838,7.7H61.04l-.212-1.924H62.28V3.849H60.615L60.4,1.924ZM61.3,9.621H80.579a9.851,9.851,0,0,1-19.281,0Zm4.994,21.3a13.986,13.986,0,0,0,1.183-1.924H74.4a13.986,13.986,0,0,0,1.183,1.924Zm7.3-3.849h-5.31a14.022,14.022,0,0,0,.731-4.481V19.214a11.917,11.917,0,0,0,3.849,0v3.373A14.022,14.022,0,0,0,73.594,27.068Z" fill="#cee0ff"/>
    <path id="Path_65867" data-name="Path 65867" d="M271,60h1.924v1.924H271Z" transform="translate(-199.099 -56.151)" fill="#cee0ff"/>
    <path id="Path_65868" data-name="Path 65868" d="M331,60h1.924v1.924H331Z" transform="translate(-255.251 -56.151)" fill="#cee0ff"/>
    <path id="Path_65869" data-name="Path 65869" d="M211,60h1.924v1.924H211Z" transform="translate(-142.948 -56.151)" fill="#cee0ff"/>
    <path id="Path_65870" data-name="Path 65870" d="M151,60h1.924v1.924H151Z" transform="translate(-86.796 -56.151)" fill="#cee0ff"/>
  </g>
</svg>
