<svg xmlns="http://www.w3.org/2000/svg" width="47.768" height="47.768" viewBox="0 0 47.768 47.768">
  <g id="XMLID_1429_" transform="translate(-20 -336.501)">
    <g id="XMLID_194_" transform="translate(20 -35)">
      <path id="XMLID_195_" d="M84.292,206H80.933a.933.933,0,1,0,0,1.866h2.032l-2.235,6.215a.933.933,0,1,0,1.756.631l2.684-7.464A.933.933,0,0,0,84.292,206Z" transform="translate(-72.536 184.72)" fill="#fff"/>
      <path id="XMLID_196_" d="M200.292,206h-3.359a.933.933,0,1,0,0,1.866h2.032l-2.235,6.215a.933.933,0,1,0,1.756.631l2.684-7.464a.933.933,0,0,0-.878-1.249Z" transform="translate(-177.714 184.72)" fill="#fff"/>
      <path id="XMLID_197_" d="M312.932,207.866h2.032l-2.235,6.215a.933.933,0,1,0,1.756.631l2.684-7.464a.933.933,0,0,0-.878-1.249h-3.359a.933.933,0,1,0,0,1.866Z" transform="translate(-282.89 184.72)" fill="#fff"/>
      <path id="XMLID_200_" d="M73.4,162H40.933a.933.933,0,0,0-.933.933v15.674a.933.933,0,0,0,.933.933H73.4a.933.933,0,0,0,.933-.933V162.933A.933.933,0,0,0,73.4,162Zm-31.534,1.866h8.956v13.808H41.866Zm10.822,0h8.957v13.808H52.688Zm19.779,13.808H63.511V163.866h8.956Z" transform="translate(-36.268 224.615)" fill="#fff"/>
      <path id="XMLID_1924_" d="M47.768,3.172A3.172,3.172,0,1,0,43.663,6.2v14.77A1.989,1.989,0,0,1,41.8,22.957V12.315a.933.933,0,0,0-.933-.933H37.423a17.686,17.686,0,0,0-33.049,0H.933A.933.933,0,0,0,0,12.315V35.453a.933.933,0,0,0,.933.933h2.8V46.835a.933.933,0,0,0,.933.933H37.132a.933.933,0,0,0,.933-.933V36.386h2.8a.933.933,0,0,0,.933-.933V24.826a3.858,3.858,0,0,0,3.732-3.851V6.2a3.178,3.178,0,0,0,2.239-3.032ZM36.2,45.9H5.6V36.386H36.2ZM39.931,34.52H1.866V13.248H16.7a.933.933,0,0,0,0-1.866H6.388a15.821,15.821,0,0,1,29.021,0H25.1a.933.933,0,0,0,0,1.866H39.931ZM44.6,4.478A1.306,1.306,0,1,1,45.9,3.172,1.308,1.308,0,0,1,44.6,4.478Z" transform="translate(0 371.501)" fill="#fff"/>
      <path id="XMLID_1927_" d="M103.266,432.866H124.1a.933.933,0,1,0,0-1.866H103.266a.933.933,0,0,0,0,1.866Z" transform="translate(-92.786 -19.288)" fill="#fff"/>
      <path id="XMLID_1928_" d="M214.933,123.866a.933.933,0,1,0-.66-.273A.94.94,0,0,0,214.933,123.866Z" transform="translate(-194.034 260.883)" fill="#fff"/>
    </g>
  </g>
</svg>
