<svg id="surface1" xmlns="http://www.w3.org/2000/svg" width="26.364" height="26.363" viewBox="0 0 26.364 26.363">
  <path id="Path_65865" data-name="Path 65865" d="M25.591,1.9H22.208q.018-.562.019-1.13A.772.772,0,0,0,21.455,0H4.909a.772.772,0,0,0-.772.772q0,.568.019,1.13H.772A.772.772,0,0,0,0,2.675a16.74,16.74,0,0,0,2.547,9.194,8.059,8.059,0,0,0,6.122,3.976,7.931,7.931,0,0,0,1.672,1.4v3.433h-1.3A2.844,2.844,0,0,0,6.2,23.523v1.3H6.15a.772.772,0,1,0,0,1.545H20.214a.772.772,0,1,0,0-1.545h-.055v-1.3a2.844,2.844,0,0,0-2.841-2.841h-1.3V17.249a7.926,7.926,0,0,0,1.673-1.4,8.059,8.059,0,0,0,6.122-3.976,16.74,16.74,0,0,0,2.547-9.194A.772.772,0,0,0,25.591,1.9ZM3.833,11.014A14.886,14.886,0,0,1,1.561,3.448H4.242a25.81,25.81,0,0,0,2.4,9.37q.309.618.645,1.168A7.449,7.449,0,0,1,3.833,11.014ZM18.614,23.523v1.3H7.749v-1.3a1.3,1.3,0,0,1,1.3-1.3h8.273A1.3,1.3,0,0,1,18.614,23.523Zm-4.136-2.841H11.886V17.921a5.025,5.025,0,0,0,2.592,0Zm.478-4.6a.752.752,0,0,0-.1.051,3.606,3.606,0,0,1-3.348,0,.768.768,0,0,0-.1-.051,6.217,6.217,0,0,1-1.746-1.439.782.782,0,0,0-.1-.115,12.175,12.175,0,0,1-1.54-2.4A25.5,25.5,0,0,1,5.69,1.545H20.673a25.5,25.5,0,0,1-2.333,10.582,12.184,12.184,0,0,1-1.54,2.4.762.762,0,0,0-.1.115A6.219,6.219,0,0,1,14.956,16.083Zm7.575-5.069a7.449,7.449,0,0,1-3.453,2.972q.335-.55.645-1.168a25.814,25.814,0,0,0,2.4-9.37H24.8A14.886,14.886,0,0,1,22.531,11.014Zm0,0" fill="#cee0ff"/>
</svg>
