<svg xmlns="http://www.w3.org/2000/svg" width="26.951" height="34.295" viewBox="0 0 26.951 34.295">
  <g id="surface1" transform="translate(-0.338 0.199)">
    <path id="Path_65860" data-name="Path 65860" d="M85.246,66.029A8.873,8.873,0,1,0,76.373,74.9,8.883,8.883,0,0,0,85.246,66.029Zm-8.873,7.879a7.879,7.879,0,1,1,7.879-7.879A7.888,7.888,0,0,1,76.373,73.908Zm0,0" transform="translate(-62.559 -53.366)" fill="#cee0ff"/>
    <path id="Path_65861" data-name="Path 65861" d="M120.007,98.423a.7.7,0,0,0-.665-.483h-3.705l-1.145-3.524a.7.7,0,0,0-1.329,0l-1.145,3.524h-3.705A.7.7,0,0,0,107.9,99.2l3,2.178-1.145,3.524a.7.7,0,0,0,1.075.781l3-2.178,3,2.178a.7.7,0,0,0,1.075-.781l-1.145-3.524,3-2.178A.7.7,0,0,0,120.007,98.423ZM116,100.7a.7.7,0,0,0-.254.781l.93,2.862-2.435-1.769a.7.7,0,0,0-.821,0l-2.435,1.769.93-2.863a.7.7,0,0,0-.254-.781l-2.435-1.769h3.01a.7.7,0,0,0,.665-.483l.93-2.863.93,2.863a.7.7,0,0,0,.665.483h3.01Zm0,0" transform="translate(-100.014 -87.705)" fill="#cee0ff"/>
    <path id="Path_65862" data-name="Path 65862" d="M27.027,29.113l-4.662-8.185.817-.262a2.28,2.28,0,0,0,1.58-2.289L24.7,17.192a1.286,1.286,0,0,1,.367-.968l.833-.846a2.281,2.281,0,0,0,.335-2.761L25.628,11.6A1.288,1.288,0,0,1,25.5,10.57l.344-1.136a2.28,2.28,0,0,0-.986-2.6l-1.011-.623a1.286,1.286,0,0,1-.588-.852l-.223-1.166A2.28,2.28,0,0,0,20.958,2.35l-1.184-.081a1.286,1.286,0,0,1-.916-.481l-.74-.928a2.281,2.281,0,0,0-2.7-.665L14.332.672h0a1.287,1.287,0,0,1-1.035,0L12.21.194A2.281,2.281,0,0,0,9.51.86l-.74.928a1.286,1.286,0,0,1-.916.481L6.67,2.35A2.28,2.28,0,0,0,4.589,4.194L4.365,5.36a1.288,1.288,0,0,1-.588.852l-1.011.622a2.28,2.28,0,0,0-.986,2.6l.344,1.136A1.286,1.286,0,0,1,2,11.6l-.606,1.021a2.28,2.28,0,0,0,.335,2.76l.833.846a1.287,1.287,0,0,1,.367.967l-.062,1.186a2.281,2.281,0,0,0,1.579,2.289l.817.262L.6,29.113a.778.778,0,0,0,.717,1.163l3.9-.2,1.814,3.455a.778.778,0,0,0,.676.416h.013a.778.778,0,0,0,.676-.393l4.745-8.33a2.253,2.253,0,0,0,1.35,0l4.745,8.33a.778.778,0,0,0,.676.393h.013a.778.778,0,0,0,.676-.416l1.814-3.455,3.9.2a.778.778,0,0,0,.717-1.163Zm-19.3,3.6L6.073,29.571l.976-1.712a.5.5,0,1,0-.864-.492l-.976,1.713-3.549.184L6.141,21.4a1.286,1.286,0,0,1,.21.319l.5,1.079a2.277,2.277,0,0,0,1.27,1.18L7.34,25.338a.5.5,0,1,0,.864.492L9.188,24.1c.04,0,.081-.01.121-.018l1.169-.2a1.287,1.287,0,0,1,1,.248l.789.607Zm6.735-8.561,0,0-.008,0a1.284,1.284,0,0,1-1.267,0l-.008,0,0,0a1.284,1.284,0,0,1-.137-.091l-.941-.724a2.279,2.279,0,0,0-1.783-.439l-1.169.2a1.28,1.28,0,0,1-.225.019H8.895a1.284,1.284,0,0,1-1.144-.747l-.5-1.078a2.284,2.284,0,0,0-1.018-1.068l0,0-.008,0-.032-.016-.007,0a2.261,2.261,0,0,0-.306-.124l-1.13-.362a1.285,1.285,0,0,1-.89-1.29l.062-1.186a2.284,2.284,0,0,0-.651-1.717l-.832-.846a1.285,1.285,0,0,1-.189-1.556L2.855,12.1a2.284,2.284,0,0,0,.221-1.823L2.732,9.146a1.284,1.284,0,0,1,.556-1.465L4.3,7.058A2.283,2.283,0,0,0,5.342,5.547l.223-1.166A1.285,1.285,0,0,1,6.738,3.342l1.184-.081a2.284,2.284,0,0,0,1.626-.853l.74-.928A1.285,1.285,0,0,1,11.81,1.1l1.086.478a2.284,2.284,0,0,0,1.836,0L15.818,1.1a1.285,1.285,0,0,1,1.522.375l.74.928a2.283,2.283,0,0,0,1.626.853l1.184.082a1.285,1.285,0,0,1,1.173,1.039l.223,1.166a2.285,2.285,0,0,0,1.043,1.511l1.011.623A1.284,1.284,0,0,1,24.9,9.146l-.344,1.136a2.284,2.284,0,0,0,.221,1.823l.606,1.021a1.285,1.285,0,0,1-.189,1.556l-.832.846a2.284,2.284,0,0,0-.651,1.717l.062,1.185a1.285,1.285,0,0,1-.89,1.29l-1.13.362a2.292,2.292,0,0,0-.306.124l-.007,0-.032.016-.008,0,0,0A2.284,2.284,0,0,0,20.373,21.3l-.5,1.079a1.284,1.284,0,0,1-1.143.746h-.021a1.285,1.285,0,0,1-.223-.019l-1.169-.2a2.284,2.284,0,0,0-1.783.439l-.94.724A1.27,1.27,0,0,1,14.46,24.156Zm7.958,4.923-.984-1.727a.5.5,0,1,0-.864.492l.983,1.726L19.9,32.717l-4.546-7.981.788-.607a1.287,1.287,0,0,1,1-.248l1.169.2c.04.007.081.013.121.018l.983,1.727a.5.5,0,1,0,.864-.492l-.777-1.363a2.278,2.278,0,0,0,1.27-1.18l.5-1.079a1.288,1.288,0,0,1,.21-.319l4.481,7.866Zm0,0" transform="translate(0 0)" fill="#cee0ff" stroke="#cee0ff" stroke-width="0.3"/>
  </g>
</svg>
