<svg id="Group_20497" data-name="Group 20497" xmlns="http://www.w3.org/2000/svg" width="41.998" height="42" viewBox="0 0 41.998 42">
  <defs>
    <style>
      .cls-1 {
        fill: #cee0ff;
      }
    </style>
  </defs>
  <path id="Path_65570" data-name="Path 65570" class="cls-1" d="M243.932,265.172a.874.874,0,0,1-.859-1.045l1.237-6.186a.858.858,0,0,1,.24-.448l13.612-13.611a2.63,2.63,0,0,1,3.712,0l2.474,2.474a2.627,2.627,0,0,1,0,3.712l-13.611,13.612a.87.87,0,0,1-.448.24l-6.186,1.237A.929.929,0,0,1,243.932,265.172Zm2.044-6.631-.928,4.639,4.639-.928,13.424-13.424a.876.876,0,0,0,0-1.237l-2.474-2.474a.876.876,0,0,0-1.237,0Zm4.142,4.519h0Z" transform="translate(-223.118 -223.172)"/>
  <path id="Path_65571" data-name="Path 65571" class="cls-1" d="M16.625,95.5H4.375A4.379,4.379,0,0,1,0,91.125V68.375A4.379,4.379,0,0,1,4.375,64h3.5a.875.875,0,1,1,0,1.75h-3.5A2.628,2.628,0,0,0,1.75,68.375v22.75A2.628,2.628,0,0,0,4.375,93.75h12.25a.875.875,0,0,1,0,1.75Z" transform="translate(0 -58.75)"/>
  <path id="Path_65572" data-name="Path 65572" class="cls-1" d="M263.875,79.75a.875.875,0,0,1-.875-.875v-10.5a2.628,2.628,0,0,0-2.625-2.625h-3.5a.875.875,0,1,1,0-1.75h3.5a4.379,4.379,0,0,1,4.375,4.375v10.5A.875.875,0,0,1,263.875,79.75Z" transform="translate(-235 -58.75)"/>
  <path id="Path_65573" data-name="Path 65573" class="cls-1" d="M98.458,10.5h-10.5a2.628,2.628,0,0,1-2.625-2.625v-3.5a.875.875,0,0,1,.875-.875h2.713a4.376,4.376,0,0,1,8.575,0h2.713a.875.875,0,0,1,.875.875v3.5A2.628,2.628,0,0,1,98.458,10.5ZM87.083,5.25V7.875a.878.878,0,0,0,.875.875h10.5a.878.878,0,0,0,.875-.875V5.25H96.708a.875.875,0,0,1-.875-.875,2.625,2.625,0,1,0-5.25,0,.875.875,0,0,1-.875.875Z" transform="translate(-78.333)"/>
  <path id="Path_65574" data-name="Path 65574" class="cls-1" d="M82.375,172.417h-17.5a.875.875,0,1,1,0-1.75h17.5a.875.875,0,1,1,0,1.75Z" transform="translate(-58.75 -156.667)"/>
  <path id="Path_65575" data-name="Path 65575" class="cls-1" d="M82.375,236.417h-17.5a.875.875,0,1,1,0-1.75h17.5a.875.875,0,1,1,0,1.75Z" transform="translate(-58.75 -215.417)"/>
  <path id="Path_65576" data-name="Path 65576" class="cls-1" d="M82.375,300.417h-17.5a.875.875,0,1,1,0-1.75h17.5a.875.875,0,1,1,0,1.75Z" transform="translate(-58.75 -274.167)"/>
</svg>
