<svg xmlns="http://www.w3.org/2000/svg" width="51.264" height="51.265" viewBox="0 0 51.264 51.265">
  <path id="target" d="M26.514,1.764A24.719,24.719,0,0,0,15.151,4.531L11.06.44A1.5,1.5,0,0,0,8.587.978L6.522,6.521.979,8.587A1.5,1.5,0,0,0,.44,11.06l4.091,4.091A24.747,24.747,0,1,0,26.514,1.764Zm0,32.9a8.146,8.146,0,1,0-4.595-14.867l-3.781-3.781a13.456,13.456,0,1,1-2.127,2.127l3.781,3.781a8.141,8.141,0,0,0,6.721,12.74Zm1.063-9.209L24.1,21.978A5.142,5.142,0,1,1,21.978,24.1l3.473,3.473a1.5,1.5,0,0,0,2.127-2.127ZM10.588,4.222l5.061,5.061L15,12.871,9.437,7.31ZM4.222,10.588,7.311,9.437,12.872,15l-3.589.651ZM26.514,48.256A21.735,21.735,0,0,1,6.779,17.4l.934.934a1.5,1.5,0,0,0,1.332.416l3.314-.6a16.461,16.461,0,1,0,5.79-5.79l.6-3.314a1.5,1.5,0,0,0-.416-1.332L17.4,6.779a21.741,21.741,0,1,1,9.115,41.478Z" transform="translate(0 0.001)" fill="#fff"/>
</svg>
