<svg id="Group_20505" data-name="Group 20505" xmlns="http://www.w3.org/2000/svg" width="38" height="38" viewBox="0 0 38 38">
  <defs>
    <style>
      .cls-1 {
        fill: #cee0ff;
      }
    </style>
  </defs>
  <g id="Group_20498" data-name="Group 20498" transform="translate(4.75 22.167)">
    <path id="Path_65577" data-name="Path 65577" class="cls-1" d="M74.292,300.25h-9.5a.792.792,0,1,1,0-1.583h9.5a.792.792,0,0,1,0,1.583Z" transform="translate(-64 -298.667)"/>
  </g>
  <g id="Group_20499" data-name="Group 20499" transform="translate(4.75 26.917)">
    <path id="Path_65578" data-name="Path 65578" class="cls-1" d="M72.708,364.25H64.792a.792.792,0,1,1,0-1.583h7.917a.792.792,0,1,1,0,1.583Z" transform="translate(-64 -362.667)"/>
  </g>
  <g id="Group_20500" data-name="Group 20500" transform="translate(10.292 4.75)">
    <path id="Path_65579" data-name="Path 65579" class="cls-1" d="M141.834,70.333A3.167,3.167,0,1,1,145,67.167,3.17,3.17,0,0,1,141.834,70.333Zm0-4.75a1.583,1.583,0,1,0,1.583,1.583A1.586,1.586,0,0,0,141.834,65.583Z" transform="translate(-138.667 -64)"/>
  </g>
  <g id="Group_20501" data-name="Group 20501" transform="translate(7.125 12.667)">
    <path id="Path_65580" data-name="Path 65580" class="cls-1" d="M107.875,177a.792.792,0,0,1-.792-.792v-1.583a2.378,2.378,0,0,0-2.375-2.375h-4.75a2.378,2.378,0,0,0-2.375,2.375v1.583a.792.792,0,1,1-1.583,0v-1.583a3.964,3.964,0,0,1,3.958-3.958h4.75a3.964,3.964,0,0,1,3.958,3.958v1.583A.792.792,0,0,1,107.875,177Z" transform="translate(-96 -170.667)"/>
  </g>
  <g id="Group_20502" data-name="Group 20502">
    <path id="Path_65581" data-name="Path 65581" class="cls-1" d="M15.042,33.25H3.958A3.964,3.964,0,0,1,0,29.292V3.958A3.964,3.964,0,0,1,3.958,0h19a3.964,3.964,0,0,1,3.958,3.958v9.595a.792.792,0,0,1-1.583,0V3.958a2.378,2.378,0,0,0-2.375-2.375h-19A2.378,2.378,0,0,0,1.583,3.958V29.292a2.378,2.378,0,0,0,2.375,2.375H15.042a.792.792,0,0,1,0,1.583Z"/>
  </g>
  <g id="Group_20503" data-name="Group 20503" transform="translate(17.417 17.417)">
    <path id="Path_65582" data-name="Path 65582" class="cls-1" d="M244.959,255.25a10.292,10.292,0,1,1,10.292-10.292A10.3,10.3,0,0,1,244.959,255.25Zm0-19a8.708,8.708,0,1,0,8.708,8.708A8.718,8.718,0,0,0,244.959,236.25Z" transform="translate(-234.667 -234.667)"/>
  </g>
  <g id="Group_20504" data-name="Group 20504" transform="translate(22.166 23.749)">
    <path id="Path_65583" data-name="Path 65583" class="cls-1" d="M302.62,327.9a.8.8,0,0,1-.561-.231l-3.167-3.167a.792.792,0,1,1,1.119-1.119l2.568,2.568,4.984-5.7a.792.792,0,0,1,1.192,1.043l-5.542,6.333a.79.79,0,0,1-.57.269Z" transform="translate(-298.661 -319.987)"/>
  </g>
</svg>
