<svg xmlns="http://www.w3.org/2000/svg" width="28.437" height="28.63" viewBox="0 0 28.437 28.63">
  <g id="XMLID_1441_" transform="translate(-1.5 2.683)">
    <g id="XMLID_561_" transform="translate(2 -1.989)">
      <path id="XMLID_592_" d="M25.83,14.8h-.536V11.049a3.113,3.113,0,0,0-2.424-3.031L20.43,3.793a2.677,2.677,0,0,0-3.087-1.226L15.57.793a2.68,2.68,0,0,0-3.785,0L4.638,7.94H3.108A3.112,3.112,0,0,0,0,11.049v13.29a3.112,3.112,0,0,0,3.108,3.108H15.993a.536.536,0,1,0,0-1.072H3.108a2.039,2.039,0,0,1-2.036-2.036V11.049A2.039,2.039,0,0,1,3.108,9.012H22.186a2.039,2.039,0,0,1,2.036,2.036V14.8H20.256a2.894,2.894,0,0,0,0,5.788h3.966v3.751a2.039,2.039,0,0,1-2.036,2.036H15.058a.536.536,0,0,0,0,1.072h7.127a3.112,3.112,0,0,0,3.108-3.108V20.587h.536a1.609,1.609,0,0,0,1.608-1.608V16.407A1.61,1.61,0,0,0,25.83,14.8Zm-7.3-11.219a1.594,1.594,0,0,1,.974.748L21.588,7.94H10.037l7.273-4.2a1.594,1.594,0,0,1,1.218-.16Zm-5.985-2.03a1.6,1.6,0,0,1,2.269,0L16.33,3.069,7.893,7.94H6.153ZM26.365,18.98a.536.536,0,0,1-.536.536H20.256a1.822,1.822,0,1,1,0-3.644H25.83a.536.536,0,0,1,.536.536Z" transform="translate(0 -0.011)" fill="#cee0ff" stroke="#cee0ff" stroke-width="1"/>
      <path id="XMLID_1063_" d="M366.866,319.988a.536.536,0,1,0,.379.157A.54.54,0,0,0,366.866,319.988Z" transform="translate(-346.699 -302.841)" fill="#cee0ff" stroke="#cee0ff" stroke-width="1"/>
      <path id="XMLID_1068_" d="M226.536,491.988a.536.536,0,1,0,.379.157A.54.54,0,0,0,226.536,491.988Z" transform="translate(-213.889 -465.624)" fill="#cee0ff" stroke="#cee0ff" stroke-width="1"/>
    </g>
  </g>
</svg>
