<svg xmlns="http://www.w3.org/2000/svg" xmlns:xlink="http://www.w3.org/1999/xlink" width="608" height="197" viewBox="0 0 608 197">
  <defs>
    <linearGradient id="linear-gradient" x1="0.98" y1="0.465" x2="0" y2="0.5" gradientUnits="objectBoundingBox">
      <stop offset="0" stop-color="#2e3a74"/>
      <stop offset="1" stop-color="#09103a"/>
    </linearGradient>
    <linearGradient id="linear-gradient-2" x1="0.5" x2="0.5" y2="1" gradientUnits="objectBoundingBox">
      <stop offset="0" stop-color="#6070be"/>
      <stop offset="1" stop-color="#2c3872"/>
    </linearGradient>
    <filter id="_5th_Deposit" x="489.5" y="0" width="90" height="33" filterUnits="userSpaceOnUse">
      <feOffset dy="3" input="SourceAlpha"/>
      <feGaussianBlur stdDeviation="3" result="blur"/>
      <feFlood flood-opacity="0.161"/>
      <feComposite operator="in" in2="blur"/>
      <feComposite in="SourceGraphic"/>
    </filter>
    <filter id="_500EUR" x="324" y="146" width="115" height="36.5" filterUnits="userSpaceOnUse">
      <feOffset dy="2" input="SourceAlpha"/>
      <feGaussianBlur stdDeviation="0.5" result="blur-2"/>
      <feFlood flood-opacity="0.161"/>
      <feComposite operator="in" in2="blur-2"/>
      <feComposite in="SourceGraphic"/>
    </filter>
    <filter id="_70_up_to_" x="336" y="117" width="92" height="36" filterUnits="userSpaceOnUse">
      <feOffset dy="3" input="SourceAlpha"/>
      <feGaussianBlur stdDeviation="3" result="blur-3"/>
      <feFlood flood-opacity="0.161"/>
      <feComposite operator="in" in2="blur-3"/>
      <feComposite in="SourceGraphic"/>
    </filter>
    <filter id="_4th_Deposit" x="337.5" y="0" width="90" height="33" filterUnits="userSpaceOnUse">
      <feOffset dy="3" input="SourceAlpha"/>
      <feGaussianBlur stdDeviation="3" result="blur-4"/>
      <feFlood flood-opacity="0.161"/>
      <feComposite operator="in" in2="blur-4"/>
      <feComposite in="SourceGraphic"/>
    </filter>
    <filter id="_400EUR" x="170" y="143" width="119" height="36.5" filterUnits="userSpaceOnUse">
      <feOffset dy="2" input="SourceAlpha"/>
      <feGaussianBlur stdDeviation="0.5" result="blur-5"/>
      <feFlood flood-opacity="0.161"/>
      <feComposite operator="in" in2="blur-5"/>
      <feComposite in="SourceGraphic"/>
    </filter>
    <filter id="_60_up_to_" x="183" y="112" width="94" height="36" filterUnits="userSpaceOnUse">
      <feOffset dy="3" input="SourceAlpha"/>
      <feGaussianBlur stdDeviation="3" result="blur-6"/>
      <feFlood flood-opacity="0.161"/>
      <feComposite operator="in" in2="blur-6"/>
      <feComposite in="SourceGraphic"/>
    </filter>
    <filter id="_3rd_Deposit" x="185.5" y="0" width="90" height="33" filterUnits="userSpaceOnUse">
      <feOffset dy="3" input="SourceAlpha"/>
      <feGaussianBlur stdDeviation="3" result="blur-7"/>
      <feFlood flood-opacity="0.161"/>
      <feComposite operator="in" in2="blur-7"/>
      <feComposite in="SourceGraphic"/>
    </filter>
    <linearGradient id="linear-gradient-7" y1="0.565" x2="1.615" y2="0.5" gradientUnits="objectBoundingBox">
      <stop offset="0" stop-color="#09103a"/>
      <stop offset="1" stop-color="#f8ad2e"/>
    </linearGradient>
    <linearGradient id="linear-gradient-8" x1="0.5" x2="0.5" y2="1" gradientUnits="objectBoundingBox">
      <stop offset="0" stop-color="#2e3a74"/>
      <stop offset="1" stop-color="#0f194d"/>
    </linearGradient>
    <filter id="_300EUR" x="20" y="142" width="115" height="36.5" filterUnits="userSpaceOnUse">
      <feOffset dy="2" input="SourceAlpha"/>
      <feGaussianBlur stdDeviation="0.5" result="blur-8"/>
      <feFlood flood-opacity="0.161"/>
      <feComposite operator="in" in2="blur-8"/>
      <feComposite in="SourceGraphic"/>
    </filter>
    <filter id="_50_up_to_" x="32" y="111" width="92" height="36" filterUnits="userSpaceOnUse">
      <feOffset dy="3" input="SourceAlpha"/>
      <feGaussianBlur stdDeviation="3" result="blur-9"/>
      <feFlood flood-opacity="0.161"/>
      <feComposite operator="in" in2="blur-9"/>
      <feComposite in="SourceGraphic"/>
    </filter>
    <filter id="_2nd_Deposit" x="32.5" y="0" width="92" height="33" filterUnits="userSpaceOnUse">
      <feOffset dy="3" input="SourceAlpha"/>
      <feGaussianBlur stdDeviation="3" result="blur-10"/>
      <feFlood flood-opacity="0.161"/>
      <feComposite operator="in" in2="blur-10"/>
      <feComposite in="SourceGraphic"/>
    </filter>
    <linearGradient id="linear-gradient-12" y1="0.5" x2="1" y2="0.5" gradientUnits="objectBoundingBox">
      <stop offset="0" stop-color="#f6921e"/>
      <stop offset="1" stop-color="#f6b11e"/>
    </linearGradient>
    <filter id="_600EUR" x="478" y="146" width="117" height="36.5" filterUnits="userSpaceOnUse">
      <feOffset dy="2" input="SourceAlpha"/>
      <feGaussianBlur stdDeviation="0.5" result="blur-11"/>
      <feFlood flood-opacity="0.161"/>
      <feComposite operator="in" in2="blur-11"/>
      <feComposite in="SourceGraphic"/>
    </filter>
    <filter id="_100_up_to_" x="487" y="117" width="100" height="36" filterUnits="userSpaceOnUse">
      <feOffset dy="3" input="SourceAlpha"/>
      <feGaussianBlur stdDeviation="3" result="blur-12"/>
      <feFlood flood-opacity="0.161"/>
      <feComposite operator="in" in2="blur-12"/>
      <feComposite in="SourceGraphic"/>
    </filter>
  </defs>
  <g id="Group_19626" data-name="Group 19626" transform="translate(125 -576)">
    <g id="Group_19625" data-name="Group 19625">
      <rect id="Rectangle_23366" data-name="Rectangle 23366" width="152" height="184" rx="15" transform="translate(331 589)" fill="url(#linear-gradient)"/>
      <rect id="Rectangle_23367" data-name="Rectangle 23367" width="62" height="62" rx="8" transform="translate(376 612)" fill="#2f3b75"/>
      <rect id="Rectangle_23368" data-name="Rectangle 23368" width="108" height="22" rx="11" transform="translate(355 580)" fill="url(#linear-gradient-2)"/>
      <g transform="matrix(1, 0, 0, 1, -125, 576)" filter="url(#_5th_Deposit)">
        <text id="_5th_Deposit-2" data-name="5th Deposit" transform="translate(534.5 18)" fill="#fff" font-size="12" font-family="Montserrat-Medium, Montserrat" font-weight="500"><tspan x="-35.322" y="0">5th Deposit</tspan></text>
      </g>
      <rect id="Rectangle_23366-2" data-name="Rectangle 23366" width="152" height="184" rx="15" transform="translate(179 589)" fill="url(#linear-gradient)"/>
      <rect id="Rectangle_23367-2" data-name="Rectangle 23367" width="62" height="62" rx="8" transform="translate(224 612)" fill="#2f3b75"/>
      <g transform="matrix(1, 0, 0, 1, -125, 576)" filter="url(#_500EUR)">
        <text id="_500EUR-2" data-name="500EUR" transform="translate(381.5 172)" fill="#f8ad2e" font-size="27" font-family="Montserrat-Bold, Montserrat" font-weight="700"><tspan x="-55.985" y="0">500EUR</tspan></text>
      </g>
      <g transform="matrix(1, 0, 0, 1, -125, 576)" filter="url(#_70_up_to_)">
        <text id="_70_up_to_2" data-name="70% up to " transform="translate(382 137)" fill="#fff" font-size="14" font-family="Montserrat-Medium, Montserrat" font-weight="500"><tspan x="-36.995" y="0">70% up to </tspan></text>
      </g>
      <rect id="Rectangle_23368-2" data-name="Rectangle 23368" width="108" height="22" rx="11" transform="translate(203 580)" fill="url(#linear-gradient-2)"/>
      <g transform="matrix(1, 0, 0, 1, -125, 576)" filter="url(#_4th_Deposit)">
        <text id="_4th_Deposit-2" data-name="4th Deposit" transform="translate(382.5 18)" fill="#fff" font-size="12" font-family="Montserrat-Medium, Montserrat" font-weight="500"><tspan x="-35.904" y="0">4th Deposit</tspan></text>
      </g>
      <g id="Group_19624" data-name="Group 19624">
        <g id="Group_19371" data-name="Group 19371" transform="translate(20463 -12988)">
          <rect id="Rectangle_23363" data-name="Rectangle 23363" width="152" height="184" rx="15" transform="translate(-20436 13577)" fill="url(#linear-gradient)"/>
          <rect id="Rectangle_23364" data-name="Rectangle 23364" width="62" height="62" rx="8" transform="translate(-20391 13600)" fill="#2f3b75"/>
          <g transform="matrix(1, 0, 0, 1, -20588, 13564)" filter="url(#_400EUR)">
            <text id="_400EUR-2" data-name="400EUR" transform="translate(229.5 169)" fill="#f8ad2e" font-size="27" font-family="Montserrat-Bold, Montserrat" font-weight="700"><tspan x="-57.254" y="0">400EUR</tspan></text>
          </g>
          <g transform="matrix(1, 0, 0, 1, -20588, 13564)" filter="url(#_60_up_to_)">
            <text id="_60_up_to_2" data-name="60% up to " transform="translate(230 132)" fill="#fff" font-size="14" font-family="Montserrat-Medium, Montserrat" font-weight="500"><tspan x="-37.268" y="0">60% up to </tspan></text>
          </g>
          <rect id="Rectangle_23365" data-name="Rectangle 23365" width="108" height="22" rx="11" transform="translate(-20412 13568)" fill="url(#linear-gradient-2)"/>
          <g transform="matrix(1, 0, 0, 1, -20588, 13564)" filter="url(#_3rd_Deposit)">
            <text id="_3rd_Deposit-2" data-name="3rd Deposit" transform="translate(230.5 18)" fill="#fff" font-size="12" font-family="Montserrat-Medium, Montserrat" font-weight="500"><tspan x="-35.22" y="0">3rd Deposit</tspan></text>
          </g>
        </g>
        <g id="Group_19623" data-name="Group 19623">
          <g id="right-arrow" transform="translate(5.674 629)">
            <g id="Group_19373" data-name="Group 19373" transform="translate(21.327)">
              <path id="Path_62852" data-name="Path 62852" d="M47.175,13.816,33.54.181A.619.619,0,0,0,33.1,0H21.947a.62.62,0,0,0-.439,1.059l13.2,13.2-13.2,13.2a.62.62,0,0,0,.439,1.059H33.1a.624.624,0,0,0,.439-.181L47.176,14.693A.621.621,0,0,0,47.175,13.816Z" transform="translate(-21.327 0)" fill="url(#linear-gradient-7)"/>
            </g>
          </g>
          <g id="Group_19369" data-name="Group 19369" transform="translate(20440 -12968)">
            <rect id="Rectangle_23352" data-name="Rectangle 23352" width="152" height="184" rx="15" transform="translate(-20565 13557)" fill="url(#linear-gradient-8)"/>
            <rect id="Rectangle_23353" data-name="Rectangle 23353" width="62" height="62" rx="8" transform="translate(-20520 13580)" fill="#2f3b75"/>
            <g transform="matrix(1, 0, 0, 1, -20565, 13544)" filter="url(#_300EUR)">
              <text id="_300EUR-2" data-name="300EUR" transform="translate(77.5 168)" fill="#f8ad2e" font-size="27" font-family="Montserrat-Bold, Montserrat" font-weight="700"><tspan x="-55.944" y="0">300EUR</tspan></text>
            </g>
            <g transform="matrix(1, 0, 0, 1, -20565, 13544)" filter="url(#_50_up_to_)">
              <text id="_50_up_to_2" data-name="50% up to " transform="translate(78 131)" fill="#fff" font-size="14" font-family="Montserrat-Medium, Montserrat" font-weight="500"><tspan x="-36.967" y="0">50% up to </tspan></text>
            </g>
            <rect id="Rectangle_23362" data-name="Rectangle 23362" width="108" height="22" rx="11" transform="translate(-20541 13548)" fill="url(#linear-gradient-2)"/>
            <g transform="matrix(1, 0, 0, 1, -20565, 13544)" filter="url(#_2nd_Deposit)">
              <text id="_2nd_Deposit-2" data-name="2nd Deposit" transform="translate(78.5 18)" fill="#fff" font-size="12" font-family="Montserrat-Medium, Montserrat" font-weight="500"><tspan x="-36.948" y="0">2nd Deposit</tspan></text>
            </g>
          </g>
          <g id="right-arrow-2" data-name="right-arrow" transform="translate(157.674 629)">
            <g id="Group_19373-2" data-name="Group 19373" transform="translate(21.327)">
              <path id="Path_62852-2" data-name="Path 62852" d="M47.175,13.816,33.54.181A.619.619,0,0,0,33.1,0H21.947a.62.62,0,0,0-.439,1.059l13.2,13.2-13.2,13.2a.62.62,0,0,0,.439,1.059H33.1a.624.624,0,0,0,.439-.181L47.176,14.693A.621.621,0,0,0,47.175,13.816Z" transform="translate(-21.327 0)" fill="url(#linear-gradient-7)"/>
            </g>
          </g>
          <g id="right-arrow-3" data-name="right-arrow" transform="translate(309.674 629)">
            <g id="Group_19373-3" data-name="Group 19373" transform="translate(21.327)">
              <path id="Path_62852-3" data-name="Path 62852" d="M47.175,13.816,33.54.181A.619.619,0,0,0,33.1,0H21.947a.62.62,0,0,0-.439,1.059l13.2,13.2-13.2,13.2a.62.62,0,0,0,.439,1.059H33.1a.624.624,0,0,0,.439-.181L47.176,14.693A.621.621,0,0,0,47.175,13.816Z" transform="translate(-21.327 0)" fill="url(#linear-gradient-7)"/>
            </g>
          </g>
          <g id="Group_19390" data-name="Group 19390" transform="translate(725.725 -227.717)">
            <g id="back" transform="translate(-791.359 852.477)">
              <path id="Path_62873" data-name="Path 62873" d="M-546.95,894.578l-.07-.369a1.468,1.468,0,0,0-.406-.63l-.324-.224a1.46,1.46,0,0,0-.751-.158l-.3.01a1.1,1.1,0,0,0-.535.149,1.1,1.1,0,0,0-.457.323,1.1,1.1,0,0,0-.287.506,1.084,1.084,0,0,0-.092.561l.069.366a1.456,1.456,0,0,0,.4.626l.322.222a1.451,1.451,0,0,0,.746.157l.3.01a1.111,1.111,0,0,0,.539-.15,1.107,1.107,0,0,0,.461-.326,1.112,1.112,0,0,0,.289-.51A1.092,1.092,0,0,0-546.95,894.578Z" transform="translate(570.717 -892.834)" fill="#712d7a"/>
              <path id="Path_62874" data-name="Path 62874" d="M-682.316,927.612a1.5,1.5,0,0,0-1.55-1.38,1.483,1.483,0,0,0-1.38,1.549,1.5,1.5,0,0,0,1.549,1.38A1.483,1.483,0,0,0-682.316,927.612Z" transform="translate(692.42 -922.602)" fill="#712d7a"/>
              <path id="Path_62875" data-name="Path 62875" d="M-725.337,920.757a11.059,11.059,0,0,0-.482-1.631,2.654,2.654,0,0,0-.871-1.3c-.594-.361-2.837-.077-5.524.45-.606.118-1.233.249-1.87.387q-.424.091-.852.188l-.609.138c.226-.272.463-.559.712-.866.6-.742,1.273-1.591,2.017-2.56a20.446,20.446,0,0,0,3.827-7.469c.017-.071.034-.14.05-.209.018-.049.037-.1.055-.146a13.662,13.662,0,0,0,.807-3.666,12.2,12.2,0,0,0-.03-2.2,16.435,16.435,0,0,0-.263-1.678q-.124-.6-.293-1.187a13.216,13.216,0,0,0-3.012-5.426c-2.658-2.838-6.863-4.531-12.921-3.89q-.854.091-1.658.255a15.988,15.988,0,0,0-1.863.5,14.183,14.183,0,0,0-3.261,1.57,13.476,13.476,0,0,0-4.874,5.677,15.475,15.475,0,0,0-1.143,3.576,17.3,17.3,0,0,0-.251,1.857l-.041.036s-.013.495-.016,1.2c0,.13,0,.261,0,.392a29.409,29.409,0,0,0,.17,3.587h0c.009.064.019.125.029.184l0,.016q.015.081.031.154l0,.012a.417.417,0,0,0,.043.108,1.164,1.164,0,0,0,.771.436,5.084,5.084,0,0,0,.664.111l.1.01.1.009h.012l.193.014.032,0,.18.009.052,0,.167.006h.064l.162,0h.291l.191,0h.029c.309-.006.628-.019.952-.038h.025l.207-.013a32.41,32.41,0,0,0,4.286-.573c.123-.027.233-.054.332-.08a3.247,3.247,0,0,0,.389-.121c.025-.01.048-.021.066-.03a1.383,1.383,0,0,0,.505-.5c.4-.63.555-1.611,1.071-2.456a3.309,3.309,0,0,1,.453-.588,2.965,2.965,0,0,1,.306-.274c.058-.045.117-.089.181-.131.083-.055.172-.108.265-.158.068-.036.141-.07.215-.1a3.765,3.765,0,0,1,.412-.155c.073-.023.145-.043.217-.062l.067-.017.132-.031.106-.021.077-.014.132-.021h0a3.577,3.577,0,0,1,.388-.034h.033q.082,0,.161,0l.049,0q.074,0,.147.011l.044,0c.062.007.123.016.182.027s.144.031.213.05l.03.009a2.256,2.256,0,0,1,.394.156l.029.015c.062.033.122.067.18.106a2.418,2.418,0,0,1,.919,1.214,5.911,5.911,0,0,1,.147,2.948v.009c-.074.12-.152.241-.235.361l-1.347,1.518-.231.258,0,0a2.679,2.679,0,0,0-.5.561l-2.338,2.633-2.737,3.082-3.836,4.319-2.651,2.985-.153.172h0c-.171-.23-.668.825-.943,1.867a6.631,6.631,0,0,0-.147.694,8.894,8.894,0,0,0-.043,1.212v.022c0,.027,0,.055,0,.082s0,.035,0,.052,0,.031,0,.046c0,.09,0,.182.007.277,0,.008,0,.016,0,.024q.007.194.016.4c0,.009,0,.019,0,.029.006.135.014.272.022.412,0,.012,0,.024,0,.037q.013.206.028.417,0,.025,0,.049c0,.066.01.132.015.2v.011q.008.1.017.206l0,.056.016.179,0,.032q.009.1.02.2l.007.064q.008.079.017.159l.005.051c.007.065.015.129.022.193l.008.065q.009.075.019.15l.007.055q.012.094.025.186l.009.065.02.14.009.06q.014.09.028.178c0,.02.007.04.01.06.007.045.015.09.023.134l.01.057q.015.086.031.17l.01.052q.013.066.026.131l.01.05q.017.082.035.161l.009.039c.01.044.02.087.03.129l.01.04q.019.077.039.15l.007.025q.018.064.036.125l.009.031c.014.047.029.092.043.136l0,.011q.021.061.042.118l.008.021a2.411,2.411,0,0,0,.1.223l.007.014a1.243,1.243,0,0,0,.106.173l.006.008a.569.569,0,0,0,.115.116l0,0,.007,0,.02.013a.259.259,0,0,0,.035.018h0c.035.015.073.029.113.042a7.551,7.551,0,0,0,1.747.293q.491.039,1.064.057l.322.009h.062l.279,0h.061l.3,0h.04c.481,0,.99,0,1.523-.017h.047l.332-.009h.084l.551-.019h.036c4.542-.175,10.407-.778,14.82-1.423l.016,0c.485-.071.952-.142,1.4-.214l.029,0,.224-.036.066-.011.205-.034.077-.013.2-.033.075-.013.193-.033.044-.008.379-.067.075-.013.145-.027.11-.02.133-.025.117-.022.121-.024.124-.024.107-.021.139-.028.084-.017.216-.046a5.247,5.247,0,0,0,2.107-.694c.118-.178.25-.387.387-.612h0c.744-1.213,1.678-2.906,1.707-2.959l0,0a1.394,1.394,0,0,0,.144-.286,12.036,12.036,0,0,0,.242-4.369A22.292,22.292,0,0,0-725.337,920.757Z" transform="translate(757.704 -889.556)" opacity="0.32"/>
            </g>
            <g id="letters" transform="translate(-795.056 848.403)">
              <path id="Path_62876" data-name="Path 62876" d="M-795.047,908.253l-.009.025C-795.037,908.26-795.034,908.251-795.047,908.253Z" transform="translate(795.056 -902.328)"/>
              <g id="Group_19389" data-name="Group 19389" transform="translate(5.696 0)">
                <g id="Group_19388" data-name="Group 19388">
                  <g id="Group_19387" data-name="Group 19387">
                    <path id="Path_62877" data-name="Path 62877" d="M-692.006,1204.573s-.953,1.729-1.709,2.962c-.138.225-.269.434-.388.612a5.252,5.252,0,0,1-2.106.694,130.839,130.839,0,0,1-22.734,2.193,9.825,9.825,0,0,1-2.924-.392.3.3,0,0,1-.064-.036c-.659-.467-1-3.858-1.058-5.976a10.547,10.547,0,0,1,.037-1.5,6.641,6.641,0,0,1,.147-.694c.274-1.042.771-2.1.943-1.867.152.2,15.8,2.222,24.375,3.313,1.2.153,2.26.287,3.121.4C-692.9,1204.462-692.006,1204.573-692.006,1204.573Z" transform="translate(724.433 -1165.676)" fill="#c44a1f"/>
                    <path id="Path_62878" data-name="Path 62878" d="M-720.516,1209.338l-1.346,4.825c-.659-.467-1-3.858-1.058-5.976.649-1.524,1.547-3.7,1.547-3.7Z" transform="translate(724.365 -1169.234)" fill="#ff8721"/>
                    <path id="Path_62879" data-name="Path 62879" d="M-657.213,1231.608s-.1.25-.262.666c-.387.98-1.142,2.88-1.843,4.566-2.082.447-5.467.948-9.12,1.36-3.6.406-7.46.726-10.591.822-1.116.034-2.138.04-3.023.011l2.011-5.6,2.663-.212,4.563-.365,12.218-.974Z" transform="translate(687.542 -1193.674)" fill="#882a15"/>
                    <path id="Path_62880" data-name="Path 62880" d="M-715.182,927.047s-5.894,8.16-6.112,7.336a.645.645,0,0,1,.038-.3c.027-.092.052-.184.076-.274.78-2.914.329-4.726-.787-5.462a2.278,2.278,0,0,0-.846-.335,3.651,3.651,0,0,0-1.737.154,3.122,3.122,0,0,0-1.832,1.408c-.687,1.127-.732,2.5-1.576,2.951a3.939,3.939,0,0,1-.787.231,27.99,27.99,0,0,1-7.042.572c-.824-.089-1.395-.29-1.478-.656-.025-.109-.047-.232-.066-.366a42.847,42.847,0,0,1-.153-5.181l5.167-4.464,1.689-1.987,8.312.232,4.207,3.622,1.2,1.032Z" transform="translate(737.504 -913.521)" fill="#c44a1f"/>
                    <path id="Path_62881" data-name="Path 62881" d="M-711.922,983.24a20.055,20.055,0,0,1-1.226,5.253c-.571.126-1.382.262-2.277.376-.953.121-2,.217-2.966.245a13.5,13.5,0,0,1-1.8-.048,18.573,18.573,0,0,1,.5-4.861C-718.812,981.135-711.922,983.24-711.922,983.24Z" transform="translate(721.906 -969.258)" fill="#882a15"/>
                    <path id="Path_62882" data-name="Path 62882" d="M-573.391,999.6a20.444,20.444,0,0,1-3.827,7.469c-.744.97-1.415,1.818-2.017,2.56-1.237,1.523-2.187,2.6-2.9,3.355q-.2.215-.382.4a8.261,8.261,0,0,1-1.5,1.332l-2.654-1.538-.287-.166-.271-.157.214-.262,7.21-8.807,6.673-8.151A9.1,9.1,0,0,1-573.391,999.6Z" transform="translate(602.109 -981.061)" fill="#c44a1f"/>
                    <path id="Path_62883" data-name="Path 62883" d="M-622.61,958.347q.365-2.006.83-3.992l-2.961.943-.431,4.622a3.119,3.119,0,0,1,1.831-1.409A4.492,4.492,0,0,1-622.61,958.347Z" transform="translate(636.293 -943.867)" fill="#882a15"/>
                    <path id="Path_62884" data-name="Path 62884" d="M-718.78,993.268l-.848.524c.78-2.914.329-4.727-.787-5.463a2.993,2.993,0,0,0-2.583-.181,3.119,3.119,0,0,0-1.832,1.409c-.687,1.126-.732,2.5-1.576,2.951a3.868,3.868,0,0,1-.788.232,27.968,27.968,0,0,1-7.042.572c-.824-.089-1.4-.29-1.478-.656-.025-.108-.047-.231-.066-.366,3.123.816,8.379-.116,9.069-.281.824-.2.725-.879,1.417-2.529a3.486,3.486,0,0,1,4.932-1.8C-718.1,988.831-718.575,993.083-718.78,993.268Z" transform="translate(735.951 -973.504)" fill="#ffca05" opacity="0.22"/>
                    <path id="Path_62885" data-name="Path 62885" d="M-577.086,1070.765c-.113.206-.171,3.8-.2,6.56-1.237,1.524-2.187,2.6-2.9,3.355-1.753.111-3.794.222-4.536.191-.188-.007-.292-.024-.287-.052a.562.562,0,0,0,0-.114c-.008-.1-.029-.246-.057-.419l7.21-8.807Z" transform="translate(600.16 -1048.753)" fill="#882a15"/>
                    <path id="Path_62886" data-name="Path 62886" d="M-554.625,1035.718a20.446,20.446,0,0,1-3.827,7.469c-.744.97-1.414,1.818-2.017,2.56-1.237,1.524-2.187,2.6-2.9,3.355q-.2.216-.382.4l-2.651.336s1.679-1.25,5.85-5.105C-558.056,1042.419-555.929,1038.494-554.625,1035.718Z" transform="translate(583.343 -1017.176)" fill="#ffca05" opacity="0.22"/>
                    <g id="Group_19386" data-name="Group 19386">
                      <g id="Group_19385" data-name="Group 19385">
                        <path id="Path_62887" data-name="Path 62887" d="M-704.706,882.645a12.039,12.039,0,0,1-.242,4.369,1.4,1.4,0,0,1-.144.286c-.254.374-2.215.839-5.009,1.307-1.069.179-2.26.358-3.525.532-2.1.29-4.412.565-6.7.8h0c-3.246.34-6.445.6-8.952.726-1.362.067-2.522.09-3.372.061q-.236-.007-.44-.021a1.562,1.562,0,0,1-.67-.075c-.241-.046-.391-.106-.435-.181a.257.257,0,0,1-.026-.064,1.593,1.593,0,0,1-.62-1.1l-.5-4.768a1.6,1.6,0,0,1,.307-1.118,1.36,1.36,0,0,1,.089-.11l.153-.172,2.651-2.985,3.836-4.319,2.737-3.082,2.338-2.633a2.68,2.68,0,0,1,.5-.561l0,0,.231-.258,1.347-1.518a7.7,7.7,0,0,0,.472-.775,5.474,5.474,0,0,0,.611-3.958,4.01,4.01,0,0,0-.218-.629,3.314,3.314,0,0,0-2.18-1.93,2.867,2.867,0,0,0-.512-.089h0a3.138,3.138,0,0,0-2.036.5,5.159,5.159,0,0,0-1.871,2.818s0-.027-.014-.078a1.583,1.583,0,0,1-.327.475,1.607,1.607,0,0,1-.856.445.921.921,0,0,1-.113.016l-.017,0-4.205.44-3.329.349a1.578,1.578,0,0,1-.963-.2,1.6,1.6,0,0,1-.8-1.363,17.848,17.848,0,0,1,.309-3.662,15.473,15.473,0,0,1,1.143-3.576,13.476,13.476,0,0,1,4.874-5.677,14.174,14.174,0,0,1,3.261-1.57,15.976,15.976,0,0,1,1.863-.5q.8-.165,1.658-.255c6.058-.641,10.263,1.052,12.921,3.89a13.214,13.214,0,0,1,3.012,5.426q.169.586.294,1.186a16.52,16.52,0,0,1,.263,1.678,12.19,12.19,0,0,1,.03,2.2,13.67,13.67,0,0,1-.807,3.666q-.225.619-.51,1.231c-.051.109-.1.216-.156.324-.031.064-.064.129-.1.194a17.819,17.819,0,0,1-2.025,3.1q-.6.746-1.3,1.455l-1.574,1.531-.063.062-2.332,2.266-1.8,1.751a.6.6,0,0,0-.07.081.411.411,0,0,0-.031.041c1.231-.3,2.574-.628,3.9-.927q.428-.1.852-.188c.637-.138,1.264-.269,1.87-.387,2.687-.527,4.93-.811,5.524-.45a2.654,2.654,0,0,1,.871,1.3,11.059,11.059,0,0,1,.482,1.631A22.309,22.309,0,0,1-704.706,882.645Z" transform="translate(737.52 -848.403)" fill="#f6921e"/>
                        <path id="Path_62888" data-name="Path 62888" d="M-708.8,890.765c.4-.206,12.909-3.315,13.622-2.429s1.931,7.846.746,8.565-25.967,3.739-26.683,2.754-1.576-4.661-.891-5.371,13.722-14,14.865-17.112-.526-7.372-4.621-7.7-4.525,3.669-5.218,3.98-7.155,1.52-7.372.526.648-8.689,7.069-12.29c5.969-3.348,17.964-2.255,19.735,7.888s-11.775,19.9-12.459,20.712S-708.8,890.765-708.8,890.765Z" transform="translate(725.68 -858.842)" fill="#ffca05" opacity="0.5"/>
                        <path id="Path_62889" data-name="Path 62889" d="M-695.718,862.751s.076,4.387-2.525,3.933-3.915-7.214-10.881-6.3-5.7,5.085-8.372,6.129-5.788-.2-5.156-4,5.1-10.76,15.888-9.849S-695.718,862.751-695.718,862.751Z" transform="translate(724.198 -852.173)" fill="#fff100" opacity="0.5"/>
                        <path id="Path_62890" data-name="Path 62890" d="M-679.146,858.481s2.417,1.355,1.25,3.07-17.147,6.28-17.3,2.991,5.671-6.581,10.358-6.662S-679.146,858.481-679.146,858.481Z" transform="translate(699.391 -856.937)" fill="#fff100" opacity="0.5"/>
                        <g id="Group_19384" data-name="Group 19384" transform="translate(20.243 3.739)" opacity="0.5">
                          <circle id="Ellipse_581" data-name="Ellipse 581" cx="0.848" cy="0.848" r="0.848" transform="translate(3.682 8.664) rotate(-45.719)" fill="#fff100"/>
                          <path id="Path_62891" data-name="Path 62891" d="M-476.183,1020.734a.548.548,0,0,1-.539.558.548.548,0,0,1-.558-.539.549.549,0,0,1,.539-.558A.548.548,0,0,1-476.183,1020.734Z" transform="translate(482.798 -1006.929)" fill="#fff100"/>
                          <path id="Path_62892" data-name="Path 62892" d="M-466.071,983.153a.4.4,0,0,1-.392.406.4.4,0,0,1-.406-.392.4.4,0,0,1,.392-.406A.4.4,0,0,1-466.071,983.153Z" transform="translate(473.418 -973.201)" fill="#fff100"/>
                          <path id="Path_62893" data-name="Path 62893" d="M-517.834,923.845a.7.7,0,0,1-.686.71.7.7,0,0,1-.71-.686.7.7,0,0,1,.686-.71A.7.7,0,0,1-517.834,923.845Z" transform="translate(520.596 -919.498)" fill="#fff100"/>
                          <path id="Path_62894" data-name="Path 62894" d="M-532.33,886.521a.349.349,0,0,1-.343.355.349.349,0,0,1-.355-.343.349.349,0,0,1,.343-.355A.349.349,0,0,1-532.33,886.521Z" transform="translate(533.028 -886.177)" fill="#fff100"/>
                          <path id="Path_62895" data-name="Path 62895" d="M-480.273,912.91a.449.449,0,0,1-.441.456.449.449,0,0,1-.456-.441.449.449,0,0,1,.441-.456A.449.449,0,0,1-480.273,912.91Z" transform="translate(486.304 -909.867)" fill="#fff100"/>
                        </g>
                        <path id="Path_62896" data-name="Path 62896" d="M-579.189,1142.527c.3-.1,11.8-3.994,13.414-2.924s2.2,6.146,1.021,7.164-15.969-.622-16.1-2.415A1.649,1.649,0,0,1-579.189,1142.527Z" transform="translate(596.368 -1110.609)" fill="#fff100" opacity="0.5"/>
                        <path id="Path_62897" data-name="Path 62897" d="M-558.905,1141.366c.394-.306,11.817-3,12.832-2.017s-3.318,4.246-8.611,3.839S-558.905,1141.366-558.905,1141.366Z" transform="translate(576.667 -1110.355)" fill="#fff100" opacity="0.5"/>
                      </g>
                    </g>
                    <path id="Path_62898" data-name="Path 62898" d="M-627.077,874.428a20.326,20.326,0,0,0-1.554-17.914c-2.978-4.825-7.74-6.663-12.02-7.22a15.975,15.975,0,0,1,1.863-.5q.8-.165,1.658-.255c6.058-.641,10.263,1.052,12.921,3.89a13.214,13.214,0,0,1,3.012,5.426q.169.586.294,1.186a16.537,16.537,0,0,1,.263,1.678,12.19,12.19,0,0,1,.03,2.2,13.668,13.668,0,0,1-.807,3.666q-.225.619-.51,1.231c-.051.109-.1.216-.156.324-.031.064-.064.129-.1.194a17.812,17.812,0,0,1-2.025,3.1q-.6.746-1.3,1.455Z" transform="translate(650.24 -848.403)" fill="#fff100" opacity="0.5"/>
                    <path id="Path_62899" data-name="Path 62899" d="M-489.7,1138.519a12.038,12.038,0,0,1-.242,4.369,1.4,1.4,0,0,1-.144.286c-.254.374-2.215.84-5.009,1.307a13.23,13.23,0,0,0,.477-5.173,7.075,7.075,0,0,0-4.274-5.919c.637-.139,1.264-.269,1.87-.388,2.687-.527,4.929-.811,5.524-.45a2.654,2.654,0,0,1,.871,1.3,11.041,11.041,0,0,1,.482,1.631A22.312,22.312,0,0,1-489.7,1138.519Z" transform="translate(522.512 -1104.277)" fill="#fff100" opacity="0.5"/>
                    <path id="Path_62900" data-name="Path 62900" d="M-488.624,1203.718a.844.844,0,0,1-.715.956.844.844,0,0,1-.955-.715.844.844,0,0,1,.715-.955A.844.844,0,0,1-488.624,1203.718Z" transform="translate(514.775 -1167.893)" fill="#fff100" opacity="0.5"/>
                    <path id="Path_62901" data-name="Path 62901" d="M-543.586,1177.173a1,1,0,0,1-.844,1.129,1,1,0,0,1-1.129-.844,1,1,0,0,1,.844-1.129A1,1,0,0,1-543.586,1177.173Z" transform="translate(564.571 -1143.858)" fill="#fff100" opacity="0.5"/>
                    <path id="Path_62902" data-name="Path 62902" d="M-591.225,1188.886a.307.307,0,0,1-.26.347.307.307,0,0,1-.347-.26.307.307,0,0,1,.26-.347A.307.307,0,0,1-591.225,1188.886Z" transform="translate(606.256 -1154.944)" fill="#fff100" opacity="0.5"/>
                    <path id="Path_62903" data-name="Path 62903" d="M-493.487,1170.076a.383.383,0,0,1-.325.434.383.383,0,0,1-.434-.325.383.383,0,0,1,.325-.434A.384.384,0,0,1-493.487,1170.076Z" transform="translate(518.332 -1137.937)" fill="#fff100" opacity="0.5"/>
                    <path id="Path_62904" data-name="Path 62904" d="M-436.177,1205.61a.537.537,0,0,1-.455.608.537.537,0,0,1-.608-.455.537.537,0,0,1,.455-.608A.537.537,0,0,1-436.177,1205.61Z" transform="translate(466.97 -1169.835)" fill="#ffca05"/>
                    <path id="Path_62905" data-name="Path 62905" d="M-501.932,894.89a12.609,12.609,0,0,0-2.259-3.275,1.183,1.183,0,0,0-1.617-.184,1.16,1.16,0,0,0-.184,1.617,10.347,10.347,0,0,1,2.14,3.177,10.075,10.075,0,0,1,.858,3.716q.006.124.009.247,0-.153,0,.063c0,.165-.006.33-.015.495q-.023.433-.078.863-.063.491-.168.976a6.367,6.367,0,0,1-.212.788,10.16,10.16,0,0,1-1.676,3.24,1.168,1.168,0,0,0,.232,1.61,1.167,1.167,0,0,0,1.61-.232A12.726,12.726,0,0,0-501.932,894.89Z" transform="translate(529.138 -886.954)" fill="#ffff8f"/>
                    <path id="Path_62906" data-name="Path 62906" d="M-444.707,1148.767a1.178,1.178,0,0,0-1.3-.974,1.162,1.162,0,0,0-.974,1.3,18.691,18.691,0,0,1,.568,6,1.171,1.171,0,0,0,1,1.286,1.167,1.167,0,0,0,1.286-1A20.632,20.632,0,0,0-444.707,1148.767Z" transform="translate(475.769 -1118.139)" fill="#ffff8f"/>
                    <path id="Path_62907" data-name="Path 62907" d="M-659.329,951.831a1.169,1.169,0,0,0-1.61.232,7.738,7.738,0,0,0-1.362,2.571,1.183,1.183,0,0,0,.633,1.5,1.16,1.16,0,0,0,1.5-.633,5.581,5.581,0,0,1,1.072-2.059A1.165,1.165,0,0,0-659.329,951.831Z" transform="translate(669.804 -941.391)" fill="#ffff8f"/>
                    <path id="Path_62908" data-name="Path 62908" d="M-692.88,993.287s1.168-2.377,2.943-1.354,2.024,5.17-2.9,10.529-10.984,9.255-11,11.581-.513,5.3-2.905,4.835-2.253-5.951-1.506-7.221,11.193-11.028,13.109-13.861A14.3,14.3,0,0,0-692.88,993.287Z" transform="translate(711.576 -977.494)" fill="#fff100" opacity="0.5"/>
                    <path id="Path_62909" data-name="Path 62909" d="M-685.361,1205.869c-.254.374-2.215.839-5.009,1.307-1.069.179-2.26.358-3.525.532-2.1.29-4.412.565-6.7.8h0c-3.246.34-6.445.6-8.952.726-1.362.067-2.521.09-3.372.061-.157,0-.3-.011-.44-.021a1.563,1.563,0,0,1-.67-.075c-.241-.046-.391-.105-.435-.181a.26.26,0,0,1-.025-.064,1.593,1.593,0,0,1-.62-1.1l-.5-4.769a1.6,1.6,0,0,1,.307-1.118c.015,2.186.384,5.458,2.356,6.383C-709.909,1209.782-685.361,1205.869-685.361,1205.869Z" transform="translate(717.789 -1166.972)" fill="#ffff69"/>
                    <path id="Path_62910" data-name="Path 62910" d="M-715.655,968.268a3.14,3.14,0,0,0-2.036.5,5.159,5.159,0,0,0-1.871,2.818s0-.027-.014-.078a1.586,1.586,0,0,1-.327.475,1.609,1.609,0,0,1-.856.445,1,1,0,0,1-.113.016l-.017,0-4.205.44-3.329.349a1.578,1.578,0,0,1-.963-.2,55.149,55.149,0,0,0,7.716-1.073c1.811-.339.986-.685,2.5-2.53A3.3,3.3,0,0,1-715.655,968.268Z" transform="translate(730.191 -956.289)" fill="#ffff69"/>
                    <path id="Path_62911" data-name="Path 62911" d="M-693.713,1224.817c-.138.225-.27.434-.387.612a5.242,5.242,0,0,1-2.107.694,130.856,130.856,0,0,1-22.734,2.193,9.836,9.836,0,0,1-2.924-.393c-.916-.374-1.261-6.327-1.084-7.515a6.49,6.49,0,0,1,.146-.694c.132,2.664.407,7.063,1.183,7.548C-720.614,1227.892-700.516,1226.852-693.713,1224.817Z" transform="translate(724.432 -1182.959)" fill="#ffca05" opacity="0.22"/>
                  </g>
                  <path id="Path_62912" data-name="Path 62912" d="M-538.354,880.755a.322.322,0,0,0-.138-.056.27.27,0,0,0-.059-.02l-.076-.006a1.44,1.44,0,0,1-.581-.257,1.891,1.891,0,0,1-.849-1.181c-.1-.486-.032-.784-.222-.784v.034c-.181.007-.117.3-.216.784a1.89,1.89,0,0,1-.848,1.18,1.441,1.441,0,0,1-.581.257l-.076.005a.263.263,0,0,0-.059.021.321.321,0,0,0-.138.055.085.085,0,0,0-.035.1.085.085,0,0,0,.035.1.321.321,0,0,0,.138.055.268.268,0,0,0,.059.02l.076.006a1.44,1.44,0,0,1,.581.257,1.89,1.89,0,0,1,.848,1.18c.1.486.032.784.222.784v-.035c.181-.007.117-.3.216-.784a1.891,1.891,0,0,1,.849-1.18,1.442,1.442,0,0,1,.581-.257l.076-.005a.276.276,0,0,0,.059-.021.321.321,0,0,0,.138-.055.085.085,0,0,0,.035-.1A.085.085,0,0,0-538.354,880.755Z" transform="translate(561.567 -875.477)" fill="#fff"/>
                  <path id="Path_62913" data-name="Path 62913" d="M-712.61,1229.025a.259.259,0,0,0-.11-.044.2.2,0,0,0-.047-.016l-.06,0a1.142,1.142,0,0,1-.462-.2,1.5,1.5,0,0,1-.675-.938c-.079-.386-.026-.623-.176-.623v.028c-.144.005-.093.241-.171.623a1.5,1.5,0,0,1-.675.938,1.146,1.146,0,0,1-.462.2l-.06,0a.221.221,0,0,0-.047.016.255.255,0,0,0-.11.044.068.068,0,0,0-.028.079.068.068,0,0,0,.028.079.255.255,0,0,0,.11.044.228.228,0,0,0,.047.016l.06,0a1.143,1.143,0,0,1,.462.2,1.5,1.5,0,0,1,.675.938c.079.386.026.623.176.623v-.027c.144-.005.093-.241.171-.623a1.5,1.5,0,0,1,.675-.938,1.144,1.144,0,0,1,.462-.2l.06,0a.2.2,0,0,0,.047-.016.252.252,0,0,0,.11-.044.068.068,0,0,0,.028-.079A.068.068,0,0,0-712.61,1229.025Z" transform="translate(717.856 -1189.697)" fill="#fff"/>
                </g>
                <path id="Path_62914" data-name="Path 62914" d="M-682.462,1072.107q-2.763,2.88-5.528,5.759c-.54.559.359,1.38.891.814q2.735-2.907,5.487-5.8C-681.1,1072.344-681.95,1071.573-682.462,1072.107Z" transform="translate(693.043 -1049.8)" fill="url(#linear-gradient-12)"/>
              </g>
            </g>
          </g>
          <g id="Group_19395" data-name="Group 19395" transform="translate(20453.232 -12991.215)">
            <g id="Group_19394" data-name="Group 19394" transform="translate(-20368 13610)">
              <g id="back-2" data-name="back" transform="translate(0.844 4.192)">
                <path id="Path_62915" data-name="Path 62915" d="M1185.152,140.331l-.068-.36a1.43,1.43,0,0,0-.4-.615l-.316-.218a1.425,1.425,0,0,0-.733-.154c-.1,0-.194,0-.291,0a1.38,1.38,0,0,0-1.258.962,1.065,1.065,0,0,0-.09.552l.068.36a1.432,1.432,0,0,0,.4.616l.316.219a1.425,1.425,0,0,0,.733.154c.1,0,.194,0,.291,0a1.379,1.379,0,0,0,1.257-.961A1.069,1.069,0,0,0,1185.152,140.331Z" transform="translate(-1168.233 -137.192)" fill="#712d7a"/>
                <path id="Path_62916" data-name="Path 62916" d="M1070.76,153.658q.043-.108.085-.217l.023-.06c.035-.094.069-.188.1-.283l0,0,.006-.017q.043-.127.084-.254l.019-.061c.024-.078.048-.155.07-.233l.014-.047q.081-.284.149-.569l.01-.045q.029-.123.055-.247l.01-.045q.06-.289.107-.579l0-.029q.021-.129.038-.259l.006-.045c.012-.094.024-.188.035-.282h0q.016-.15.03-.3s0-.009,0-.013c.008-.09.014-.179.02-.269,0-.017,0-.035,0-.052q.008-.125.013-.25c0-.012,0-.024,0-.036,0-.1.007-.194.008-.292v0c0-.091,0-.182,0-.272,0-.022,0-.045,0-.067q0-.108,0-.216l0-.07c0-.092-.007-.183-.012-.274-.009-.186-.024-.373-.041-.556,0,0,0-.009,0-.012-.267-2.94-1.056-5.115-4.1-6.835l-.208-.113a10.318,10.318,0,0,0,1-3.3,11.6,11.6,0,0,0,.931-5.821,13.459,13.459,0,0,0-.524-2.564,11.321,11.321,0,0,0-3.641-5.441,15.129,15.129,0,0,0-10.683-3.074c-5.281.382-10.443,3.131-12.6,8.026a18.757,18.757,0,0,0-1.842,6.747,2.52,2.52,0,0,0,0,.537,5.631,5.631,0,0,0,.059,1.5,2.838,2.838,0,0,0,2.126,2.38c.052.015.106.028.16.041.114.026.23.051.346.074l.059.012q.168.033.34.061l.065.011c.117.019.235.037.354.053l.025,0q.174.023.35.042l.051.006q.178.019.357.033l.067.005q.18.014.36.025l.042,0q.177.01.353.016h.035q.181.006.361.008h.065q.177,0,.353,0h.052c.119,0,.237,0,.354-.008h.012c.119,0,.236-.01.352-.016l.057,0q.169-.01.335-.023l.052,0c.229-.019.452-.042.667-.069l.042-.005q.156-.02.306-.044l.045-.007c.1-.016.2-.033.3-.051h0l.016,0,.189-.037.05-.011.156-.035.047-.011.159-.04.032-.008c.062-.017.124-.034.183-.051h0c.708-.211,1.152-.486,1.163-.8,0-.065.008-.131.016-.2,0-.024.008-.05.011-.074.007-.044.013-.088.022-.133a2.989,2.989,0,0,1,.094-.354l.014-.041c.018-.052.038-.1.06-.158l.014-.034c.027-.062.055-.125.087-.187l.018-.034q.04-.077.085-.153l.029-.049c.037-.061.077-.123.119-.183a3.767,3.767,0,0,1,2.024-1.4l.12-.036c.068-.019.137-.035.2-.048l.056-.01q.082-.015.164-.025l.043-.006c.068-.007.135-.012.2-.014h.034q.085,0,.168,0l.049,0c.063,0,.126.009.188.016h.007c.065.008.13.019.194.032l.044.009q.077.017.152.038l.041.011c.061.018.121.038.18.059l.024.01c.051.019.1.04.15.062l.048.022q.07.033.138.07l.029.015c.052.029.1.06.153.092l.047.031c.036.024.071.049.1.074l.049.037c.045.035.089.071.131.108l.036.033q.047.043.092.088l.051.053c.025.026.048.053.072.08l.046.053c.033.04.065.082.1.124a2.474,2.474,0,0,1,.2.333l-.082.07-1.67.179h0l-.776.083-.315.033a2.63,2.63,0,0,0-1.889,1.125,2.008,2.008,0,0,1-.8.924,2.63,2.63,0,0,0-.573,1.945l.12,1.573.262,3.451a2.632,2.632,0,0,0,.508,1.3,16.057,16.057,0,0,0-6.533,1.377,2.652,2.652,0,0,0-1.8,1.331,7.171,7.171,0,0,0-1.147,3.276,4.718,4.718,0,0,0,.059,1.734,13.163,13.163,0,0,0,3.374,5.828,11.956,11.956,0,0,0,4.062,2.6q.277.112.567.209a17.712,17.712,0,0,0,6.955.769,20.3,20.3,0,0,0,5.226-1.015l.212-.074q.424-.152.827-.323a13.174,13.174,0,0,0,4.967-3.57,12.017,12.017,0,0,0,1.592-2.4,12.428,12.428,0,0,0,1.168-3.686q.047-.109.092-.219Zm-17.251-4.707.16-.017.787-.083,1.1-.12a4.024,4.024,0,0,1,.988.15,2.042,2.042,0,0,1,1.229,1.262,2.445,2.445,0,0,1-1.839.7,3.569,3.569,0,0,1-3.044-1.768c-.026-.046-.048-.092-.071-.139A2.633,2.633,0,0,0,1053.508,148.951Z" transform="translate(-1039.901 -120.502)" opacity="0.32"/>
              </g>
              <g id="letters-2" data-name="letters" transform="translate(0 0)">
                <g id="Group_19393" data-name="Group 19393">
                  <g id="Group_19392" data-name="Group 19392" transform="translate(2.8)">
                    <g id="Group_19391" data-name="Group 19391">
                      <path id="Path_62917" data-name="Path 62917" d="M1089.663,142.759a12.038,12.038,0,0,1-1.592,2.4l-.062.073-.016.017q-.358.414-.763.8l-.009.009a13.524,13.524,0,0,1-4.117,2.668c-.268.114-.543.222-.826.323l-.213.074a20.17,20.17,0,0,1-5.041,1l-.185.014a17.711,17.711,0,0,1-6.955-.769q-.289-.1-.567-.209a11.937,11.937,0,0,1-4.062-2.6,13.151,13.151,0,0,1-3.374-5.829,4.707,4.707,0,0,1-.06-1.735c.2-1.678.959-3.689,2.016-3.9a7.658,7.658,0,0,1,4.9-.228,6.088,6.088,0,0,1,3.155,1.576.529.529,0,0,1,.073.158,2.776,2.776,0,0,0,.1.313,2.656,2.656,0,0,0,.147.314,3.57,3.57,0,0,0,3.044,1.769,2.719,2.719,0,0,0,2.607-1.842c0-.01.009-.021.012-.032a2.285,2.285,0,0,0-1.138-3.132,4.031,4.031,0,0,0-.988-.15l-1.106.119-.786.083-.159.017a2.639,2.639,0,0,1-2.907-2.346l-.263-3.451-.119-1.573a2.64,2.64,0,0,1,2.341-2.907l.211.34.858,1.378.078.125.649-.07h0l1.017-.109.109-.092a2.374,2.374,0,0,0,.657-3.338,2.769,2.769,0,0,0-3.006-1.039l-.12.035a3.764,3.764,0,0,0-2.024,1.4,3.166,3.166,0,0,0-.514,1.162,2.7,2.7,0,0,0-.055.438c-.01.31-.454.585-1.162.8h0a8.207,8.207,0,0,1-.831.2,16.454,16.454,0,0,1-6.158-.119l-.16-.04a2.837,2.837,0,0,1-2.125-2.381,5.588,5.588,0,0,1-.059-1.5,2.528,2.528,0,0,1,0-.537c1.31-11.443,7.077-11.257,13.568-11.728a15.129,15.129,0,0,1,10.683,3.075,11.322,11.322,0,0,1,3.64,5.441,13.455,13.455,0,0,1,.525,2.564c.241,2.254-.261,5.811-2.27,7.735a.783.783,0,0,0-.243.631.824.824,0,0,0,.444.68c.119.062.235.127.349.189,3.046,1.721,3.835,3.895,4.1,6.835,0,0,0,.007,0,.011.018.183.033.37.042.556A12.643,12.643,0,0,1,1089.663,142.759Z" transform="translate(-1060.096 -105.618)" fill="#c44a1f"/>
                      <path id="Path_62918" data-name="Path 62918" d="M1210.04,310.855c-.109.435-2.61,5.111-2.61,5.111l-1.181-.255a2.286,2.286,0,0,0-1.139-3.132,4.028,4.028,0,0,0-.988-.15l-1.1.12-.787.083.851-5.257,4.024-.979,2.174,1.2A18.166,18.166,0,0,1,1210.04,310.855Z" transform="translate(-1188.463 -284.199)" fill="#882a15"/>
                      <path id="Path_62919" data-name="Path 62919" d="M1203.208,182.773a7.073,7.073,0,0,0-2.175-2.828c-.653-.326-5.112-.435-5.112-.435,0,.173-.213,2.934-.414,5.5l.12-.036a2.654,2.654,0,0,1,3.432,2.335,22.749,22.749,0,0,1,2.494.648,7.822,7.822,0,0,0,1-1.809C1202.772,185.274,1203.425,183.534,1203.208,182.773Z" transform="translate(-1182.391 -169.603)" fill="#882a15"/>
                      <path id="Path_62920" data-name="Path 62920" d="M1247.344,406.383l-1.433,5.927-.062.073-.016.017c-.17.191-.431.466-.763.8l-.009.009a13.526,13.526,0,0,1-4.117,2.668c-.268.114-.543.222-.826.323l-.212.075a20.173,20.173,0,0,1-5.042,1l2.2-12.816Z" transform="translate(-1217.936 -372.767)" fill="#882a15"/>
                      <path id="Path_62921" data-name="Path 62921" d="M1170.3,277.637l-.664,5.37a2.641,2.641,0,0,1-1.513-2.115l-.263-3.451,1.243-3.61Z" transform="translate(-1157.422 -254.788)" fill="#ff8721"/>
                      <path id="Path_62922" data-name="Path 62922" d="M1173.948,287.159a2.285,2.285,0,0,0-1.139-3.132,4.027,4.027,0,0,0-.988-.15l-1.105.12-.787.083-.16.017a2.638,2.638,0,0,1-2.907-2.345l-.262-3.451-.12-1.574a2.629,2.629,0,0,1,.573-1.945c-.022,1.481-.042,3.815.028,5.346.109,2.393,1.414,2.937,4.786,2.937a3.5,3.5,0,0,1,3.589,3.262s-.716.416-1.52.864C1173.941,287.18,1173.944,287.169,1173.948,287.159Z" transform="translate(-1156.163 -255.646)" fill="#ffca05" opacity="0.22"/>
                      <path id="Path_62923" data-name="Path 62923" d="M1091.31,214.706l-1.255,5.538h0a15.755,15.755,0,0,1-6.989.077c-.054-.013-.108-.026-.16-.041l.662-5.959Z" transform="translate(-1080.696 -201.042)" fill="#882a15"/>
                      <path id="Path_62924" data-name="Path 62924" d="M1124.228,417.02l-10.221-2.829-.648,8.31a11.957,11.957,0,0,0,4.062,2.6q.277.112.567.209a16.294,16.294,0,0,0,4.725.813C1123.152,423.08,1123.866,420.074,1124.228,417.02Z" transform="translate(-1108.2 -381.554)" fill="#ff8721"/>
                      <path id="Path_62925" data-name="Path 62925" d="M1099.28,109.817a12.622,12.622,0,0,1-8.017,7.8,20.15,20.15,0,0,1-5.438,1.089,17.714,17.714,0,0,1-6.955-.769q-.289-.1-.567-.209a12.32,12.32,0,0,1-7.436-8.428,2.561,2.561,0,0,1-.017-1.381,2.656,2.656,0,0,1,2.037-1.915c3.167-1.461,7.816-1.81,8.065-.833a2.785,2.785,0,0,0,.252.627,3.571,3.571,0,0,0,3.044,1.768,2.927,2.927,0,0,0,2.73-3.681,2.039,2.039,0,0,0-1.249-1.324,4.022,4.022,0,0,0-.988-.15l-1.1.12-.946.1a2.639,2.639,0,0,1-2.907-2.345l-.326-3.066a2.638,2.638,0,0,1,2.341-2.907l1.091-.116,1.67-.179c.035-.031.07-.061.109-.092,2.524-2.1.179-5.084-2.349-4.377q-.191.053-.366.117a3.708,3.708,0,0,0-1.778,1.32,3.036,3.036,0,0,0-.569,1.6c-.036,1.017-4.741,1.665-8.153.873a2.9,2.9,0,0,1-1.619-.937,4.1,4.1,0,0,1-.726-2.985,2.655,2.655,0,0,1,0-.537c.764-7.213,7.076-11.258,13.567-11.728a15.13,15.13,0,0,1,10.683,3.074A11.322,11.322,0,0,1,1097,85.786a13.459,13.459,0,0,1,.524,2.564c.242,2.254-.261,5.811-2.27,7.735a.783.783,0,0,0-.243.631.822.822,0,0,0,.445.679c.119.063.235.127.349.189,3.047,1.721,3.836,3.9,4.1,6.836,0,0,0,.007,0,.012.017.183.033.37.041.556A12.773,12.773,0,0,1,1099.28,109.817Z" transform="translate(-1068.211 -77.224)" fill="#f6921e"/>
                      <path id="Path_62926" data-name="Path 62926" d="M1093.468,104.51a2.486,2.486,0,0,0,2.076-1.914,4.019,4.019,0,0,0-1.152-3.994c-2.569-2.415-6.05-.2-6.676,1.261s-.6,2.225-1.651,2.449-6.293,1.249-7.134-1.123,1.8-9.937,8.448-12.252,14.365-.826,16.587,5.916-2.649,10.538-2.042,11.575,5.067,2.53,5.3,7.128c.144,2.792.031,10.36-9.668,13.153s-15.848-3.733-16.338-7.171,6.387-4.418,7.076-3.863,1.637,3.307,4.6,3.12,5.054-4.089,3.923-6.548-6.343-.38-6.951-1.417-1.3-4.757.166-5.473A13.439,13.439,0,0,1,1093.468,104.51Z" transform="translate(-1076.97 -86.882)" fill="#ffca05" opacity="0.5"/>
                      <path id="Path_62927" data-name="Path 62927" d="M1113.655,92.177s.525,4.589-2.225,5.633-3.7-7.944-10-7.079-5.507,4.966-8.365,5.63-5.1-.419-4.638-4.174,4.485-10.115,14.375-9.844S1113.655,92.177,1113.655,92.177Z" transform="translate(-1085.626 -81.84)" fill="#fff100" opacity="0.5"/>
                      <path id="Path_62928" data-name="Path 62928" d="M1185.787,254.939a.818.818,0,0,1-.132,1.17c-.944.735-2.928,2.121-4.011,1.726a1.44,1.44,0,0,1,.106-2.785c1.423-.523,3.627-.591,4.025-.124Z" transform="translate(-1168.943 -237.431)" fill="#fff100" opacity="0.5"/>
                      <path id="Path_62929" data-name="Path 62929" d="M1114.691,373a3.122,3.122,0,0,0-4.031-3.31,3.805,3.805,0,0,1-3.043-.164c-2.489-1.422-1.88-3.455-5.223-2.968s-6.755,1.839-5.3,5.344,8.781,7.884,14.455,5.215A4.994,4.994,0,0,0,1114.691,373Z" transform="translate(-1093.198 -338.468)" fill="#fff100" opacity="0.5"/>
                      <path id="Path_62930" data-name="Path 62930" d="M1178.5,257.453a7.812,7.812,0,0,0,1.712,3.3l-.945.1a2.642,2.642,0,0,1-2.907-2.345l-.328-3.066a2.64,2.64,0,0,1,2.344-2.907l1.09-.117A6.788,6.788,0,0,0,1178.5,257.453Z" transform="translate(-1164.785 -235.449)" fill="#fff100" opacity="0.5"/>
                      <path id="Path_62931" data-name="Path 62931" d="M1218.012,117.615a13.657,13.657,0,0,0,4.4-10.581c-.435-8.7-5.438-8.048-5.982-10.549s3.915-5.221.218-13.268a11.569,11.569,0,0,0-7.223-5.945,15.131,15.131,0,0,1,10.683,3.074,11.322,11.322,0,0,1,3.641,5.441,13.449,13.449,0,0,1,.524,2.564c.242,2.254-.261,5.811-2.27,7.735a.783.783,0,0,0-.243.631.822.822,0,0,0,.444.679c.119.063.235.127.349.189,3.047,1.721,3.836,3.9,4.1,6.836,0,0,0,.007,0,.012.017.183.033.37.041.556A12.464,12.464,0,0,1,1218.012,117.615Z" transform="translate(-1194.961 -77.224)" fill="#fff100" opacity="0.5"/>
                      <path id="Path_62932" data-name="Path 62932" d="M1286.55,116.681a11.269,11.269,0,0,0-3.309-6.233,1.341,1.341,0,0,0-1.9,1.9c.2.191.39.388.573.594q.117.132.23.269c.014.017.148.2.14.183a11.389,11.389,0,0,1,.762,1.21c.117.22.221.444.325.67q.038.095.074.19.062.165.119.333a9.829,9.829,0,0,1,.376,1.484c.005.029.053.411.022.123.014.124.027.248.037.372q.035.435.032.871,0,.374-.033.747c0,.03-.023.227-.031.31s-.046.289-.052.322a10.066,10.066,0,0,1-.417,1.563c-.042.117-.086.234-.132.35l-.023.061-.037.077c-.125.263-.255.522-.4.776a1.342,1.342,0,1,0,2.316,1.354A11.561,11.561,0,0,0,1286.55,116.681Z" transform="translate(-1259.568 -106.882)" fill="#ffff8f"/>
                      <path id="Path_62933" data-name="Path 62933" d="M1321.936,302.855a9.839,9.839,0,0,0-3.192-6.7,1.341,1.341,0,1,0-1.9,1.9c.2.181.4.369.58.568q.118.128.231.261c.046.054.09.108.134.163l.016.021a9.381,9.381,0,0,1,.781,1.289c.051.1.1.21.147.316-.124-.272.04.107.061.164q.131.354.23.718c.071.262.123.526.175.793l.013.064c0,.012,0,.024,0,.039.014.135.026.269.034.4q.023.383.01.766-.006.177-.02.354c0,.048-.049.4-.036.33a8.75,8.75,0,0,1-.348,1.39c-.038.112-.081.222-.122.333l-.023.056c-.025.055-.049.111-.075.166q-.151.32-.329.628c-.138.239-.291.467-.449.694l-.042.061-.035.042c-.1.122-.2.241-.309.358a1.341,1.341,0,0,0,1.9,1.9A9.829,9.829,0,0,0,1321.936,302.855Z" transform="translate(-1291.631 -274.608)" fill="#ffff8f"/>
                      <path id="Path_62934" data-name="Path 62934" d="M1252.675,96.257a1.365,1.365,0,0,0-1.341-1.341h-.067a1.341,1.341,0,1,0,0,2.683h.067A1.356,1.356,0,0,0,1252.675,96.257Z" transform="translate(-1231.537 -93.202)" fill="#ffff8f"/>
                      <path id="Path_62935" data-name="Path 62935" d="M1158.441,373.88c-.1-.025-.2-.056-.3-.085l-.028-.008-.033-.019c-.091-.051-.18-.1-.27-.155l-.049-.027-.012-.011c-.077-.07-.154-.139-.226-.214-.042-.044-.164-.209-.124-.148-.025-.038-.05-.077-.074-.116-.038-.063-.2-.41-.072-.1a1.378,1.378,0,0,0-1.65-.937,1.355,1.355,0,0,0-.937,1.65,4.486,4.486,0,0,0,3.061,2.756,1.342,1.342,0,0,0,.713-2.587Z" transform="translate(-1145.44 -343.45)" fill="#ffff8f"/>
                      <path id="Path_62936" data-name="Path 62936" d="M1144.5,192.386a1.368,1.368,0,0,0-.616-.8,1.354,1.354,0,0,0-1.034-.135,1.583,1.583,0,0,0-.8.616,4.5,4.5,0,0,0-.768,1.634,1.342,1.342,0,0,0,2.587.713c.028-.112.059-.223.1-.332.005-.015.012-.031.017-.046L1144,194a5.193,5.193,0,0,1,.369-.584A1.344,1.344,0,0,0,1144.5,192.386Z" transform="translate(-1133.381 -180.339)" fill="#ffff8f"/>
                      <path id="Path_62937" data-name="Path 62937" d="M1181.889,395.543a.532.532,0,0,1,.074.159Z" transform="translate(-1170.093 -364.712)" fill="#390"/>
                      <path id="Path_62938" data-name="Path 62938" d="M1114.956,396.013a12.622,12.622,0,0,1-8.017,7.8,20.15,20.15,0,0,1-5.438,1.089,17.712,17.712,0,0,1-6.955-.769q-.289-.1-.567-.209a12.321,12.321,0,0,1-7.436-8.428,2.567,2.567,0,0,1-.017-1.381c1.374,4.661,4.765,10.3,14.481,10.211A15.55,15.55,0,0,0,1114.956,396.013Z" transform="translate(-1083.887 -363.421)" fill="#ffff69"/>
                      <path id="Path_62939" data-name="Path 62939" d="M1088.945,205.652a3.708,3.708,0,0,0-1.778,1.32,3.037,3.037,0,0,0-.569,1.6c-.036,1.017-4.741,1.665-8.153.873a2.9,2.9,0,0,1-1.619-.937,17.584,17.584,0,0,0,8.537.266c.761-.109.544-1.523,2.067-2.61A2.54,2.54,0,0,1,1088.945,205.652Z" transform="translate(-1075.206 -193.213)" fill="#ffff69"/>
                      <path id="Path_62940" data-name="Path 62940" d="M1105.294,425.666a12.026,12.026,0,0,1-1.592,2.4,13.172,13.172,0,0,1-4.967,3.57q-.4.171-.827.323l-.212.074a20.307,20.307,0,0,1-5.226,1.015,17.712,17.712,0,0,1-6.955-.769q-.289-.1-.567-.209a11.954,11.954,0,0,1-4.062-2.6,13.159,13.159,0,0,1-3.374-5.828,4.715,4.715,0,0,1-.06-1.734c1.523,4.245,4.644,9.125,11.26,10.019A18.991,18.991,0,0,0,1105.294,425.666Z" transform="translate(-1075.727 -388.525)" fill="#ffca05" opacity="0.22"/>
                      <path id="Path_62941" data-name="Path 62941" d="M1078.317,226.465s-.515-.013-1.2-.026a2.767,2.767,0,0,0-3.005-1.039l-.12.036a3.767,3.767,0,0,0-2.024,1.4,3.038,3.038,0,0,0-.569,1.6c-.011.31-.455.585-1.163.8h0a15.756,15.756,0,0,1-6.989.077c-.054-.013-.108-.026-.16-.041a2.838,2.838,0,0,1-2.126-2.381,3.741,3.741,0,0,1,.83.554c2.284,1.958,8.374,1.414,8.809.87s1.414-3.807,3.915-4.024A4.262,4.262,0,0,1,1078.317,226.465Z" transform="translate(-1060.872 -210.033)" fill="#ffca05" opacity="0.22"/>
                    </g>
                    <path id="Path_62942" data-name="Path 62942" d="M1342.355,299.508a.25.25,0,0,0-.108-.043.21.21,0,0,0-.046-.016l-.059,0a1.123,1.123,0,0,1-.453-.2,1.475,1.475,0,0,1-.661-.92c-.078-.379-.025-.611-.173-.611v.027c-.141.005-.091.236-.168.611a1.473,1.473,0,0,1-.661.92,1.124,1.124,0,0,1-.453.2l-.059,0a.216.216,0,0,0-.046.016.248.248,0,0,0-.107.043.122.122,0,0,0,0,.154.247.247,0,0,0,.107.043.21.21,0,0,0,.046.016l.059,0a1.123,1.123,0,0,1,.453.2,1.473,1.473,0,0,1,.661.92c.078.379.025.611.173.611v-.027c.141-.005.091-.236.168-.611a1.475,1.475,0,0,1,.661-.92,1.124,1.124,0,0,1,.453-.2l.059,0a.2.2,0,0,0,.046-.016.25.25,0,0,0,.108-.043.123.123,0,0,0,0-.154Z" transform="translate(-1312.285 -276.357)" fill="#fff"/>
                    <path id="Path_62943" data-name="Path 62943" d="M1150,467.817a.248.248,0,0,0-.108-.043.209.209,0,0,0-.046-.016l-.059,0a1.122,1.122,0,0,1-.453-.2,1.474,1.474,0,0,1-.661-.92c-.078-.379-.025-.611-.173-.611v.027c-.141.005-.091.236-.168.611a1.472,1.472,0,0,1-.661.92,1.121,1.121,0,0,1-.453.2l-.059,0a.222.222,0,0,0-.046.016.248.248,0,0,0-.107.043.122.122,0,0,0,0,.154.247.247,0,0,0,.107.043.213.213,0,0,0,.046.016l.059,0a1.121,1.121,0,0,1,.453.2,1.472,1.472,0,0,1,.661.92c.078.379.025.611.173.611v-.027c.142-.005.091-.236.168-.611a1.474,1.474,0,0,1,.661-.92,1.123,1.123,0,0,1,.453-.2l.059,0a.212.212,0,0,0,.046-.016.251.251,0,0,0,.108-.043.123.123,0,0,0,0-.154Z" transform="translate(-1138.562 -428.365)" fill="#fff"/>
                    <path id="Path_62944" data-name="Path 62944" d="M1119.631,201.867a.312.312,0,0,0-.135-.054.257.257,0,0,0-.058-.02l-.074-.005a1.41,1.41,0,0,1-.568-.252,1.85,1.85,0,0,1-.83-1.155c-.1-.476-.031-.767-.217-.767v.034c-.177.007-.114.3-.211.767a1.849,1.849,0,0,1-.83,1.155,1.41,1.41,0,0,1-.568.252l-.074.005a.263.263,0,0,0-.058.02.314.314,0,0,0-.135.054.154.154,0,0,0,0,.194.314.314,0,0,0,.135.054.264.264,0,0,0,.058.02l.074.006a1.408,1.408,0,0,1,.568.252,1.849,1.849,0,0,1,.83,1.155c.1.476.031.767.217.767v-.034c.177-.007.114-.3.211-.767a1.85,1.85,0,0,1,.83-1.155,1.41,1.41,0,0,1,.568-.252l.074-.005a.257.257,0,0,0,.058-.02.312.312,0,0,0,.135-.054.154.154,0,0,0,0-.193Z" transform="translate(-1110.435 -187.759)" fill="#fff"/>
                  </g>
                  <path id="Path_62945" data-name="Path 62945" d="M1033.857,140.671a12.648,12.648,0,0,0-2.672,7.419c-.02.789,1.2.714,1.224-.071a11.406,11.406,0,0,1,2.288-6.581C1035.138,140.861,1034.306,140.091,1033.857,140.671Z" transform="translate(-1031.186 -134.34)" fill="url(#linear-gradient-12)"/>
                  <path id="Path_62946" data-name="Path 62946" d="M1073.65,469.96a12.454,12.454,0,0,1-6.132-7.162.568.568,0,0,0-1.08.351,13.343,13.343,0,0,0,6.652,7.91A.617.617,0,0,0,1073.65,469.96Z" transform="translate(-1062.999 -425.111)" fill="url(#linear-gradient-12)"/>
                </g>
              </g>
            </g>
          </g>
          <g id="Group_19403" data-name="Group 19403" transform="translate(-1125.221 371.363)">
            <path id="Path_62947" data-name="Path 62947" d="M1403.864,326.1c.454-1.189.033-5.412-.5-8.236a7.292,7.292,0,0,0-.784-2.622,5.165,5.165,0,0,0-1.912.11q-.1-.733-.192-1.444c-.065-.494-.13-.978-.191-1.448-.266-2.027-.49-3.82-.622-5.142-.648-6.547-.728-10.594-3.071-11.641a6.184,6.184,0,0,0-2.124-.367c-.478-.019-.994-.017-1.528,0s-1.091.056-1.641.1h0c-1.868.161-3.7.445-4.689.628a3.187,3.187,0,0,0-.721.309,14.455,14.455,0,0,0-2.2,2.715,23.949,23.949,0,0,0-3.746,5.259c-.558.954-1.16,2.045-1.775,3.211a131.506,131.506,0,0,0-5.967,12.912q-.119.316-.221.6l-.013.037c-.037.1-.073.208-.107.306-.044.13-.084.252-.121.371-.006.02-.013.04-.019.059l-.038.121-.026.087c-.014.049-.028.1-.042.144l-.032.113-.021.081c-.009.032-.016.064-.024.095s-.012.047-.017.069q-.017.072-.031.139c0,.016-.006.03-.009.046-.007.034-.013.067-.018.1l-.007.041c-.006.042-.012.082-.016.119a11.031,11.031,0,0,0-.026,1.411c.016.462.049.952.095,1.45,0,.013,0,.026,0,.038.006.065.013.131.019.2l.006.063q.009.089.019.179c0,.027.006.054.009.081q.009.083.019.165c0,.032.007.063.011.1.006.051.013.1.019.154,0,.035.009.07.013.105s.013.1.019.145.01.075.015.113.013.091.019.136.011.08.017.119.013.085.019.128.012.084.019.125.013.081.019.121.014.086.021.128l.019.113q.011.067.022.132l.019.106c.008.045.016.09.024.134l.019.1c.008.046.017.091.026.136s.012.062.018.092c.009.046.018.092.028.138l.018.085q.014.069.029.137l.017.079c.01.046.02.091.031.136l.017.074c.01.045.021.089.032.133l.017.069q.016.066.033.13l.016.063q.017.064.034.125l.017.059c.011.04.023.08.034.119l.016.055.036.113.016.05c.012.036.024.071.036.106l.016.046c.012.034.024.066.036.1l.016.043c.012.03.024.059.036.087l.017.04c.012.027.023.052.035.077l.018.037c.011.023.023.044.034.065l.019.035c.011.019.021.036.032.053l.021.032.008.013c.011.016.023.03.034.043l.005.007a2.36,2.36,0,0,0,1.136.445l.013,0,.011,0q.305.065.68.122c.154.023.316.045.486.065a33.422,33.422,0,0,0,6.045.069c1.387-.1,2.891-.267,4.471-.534.582-.1,1.175-.211,1.776-.336.006.06.012.12.018.179.271,2.708.488,4.7.6,5.282a.761.761,0,0,0,.083.23.916.916,0,0,0,.186.232c.025.022.05.044.077.066a1.875,1.875,0,0,0,.464.253,5.914,5.914,0,0,0,1.775.321c.464.026.968.026,1.495,0a25.467,25.467,0,0,0,7.09-1.313l.056-.023.069-.028.053.005h.014a.814.814,0,0,0,.494-.165,5.734,5.734,0,0,0,1.132-1.033h0a6.607,6.607,0,0,0,1.1-1.829.516.516,0,0,0,.11-.166,11.879,11.879,0,0,0,.118-3.981c.623-.981,1.45-2.513,1.61-2.81A.261.261,0,0,0,1403.864,326.1Zm-20.617-7.88c-.26-.365,1.022-2.577,2.374-4.656.09.918.184,1.887.28,2.887l.013.139c.008.085.016.171.025.256q.056.582.112,1.174C1384.449,318.272,1383.363,318.38,1383.247,318.216Z" transform="translate(-9.62 -41.917)" opacity="0.32"/>
            <g id="Group_19402" data-name="Group 19402" transform="translate(1360.805 249.126)">
              <g id="Group_19401" data-name="Group 19401" transform="translate(2.702)">
                <g id="Group_19400" data-name="Group 19400">
                  <g id="Group_19399" data-name="Group 19399">
                    <g id="Group_19397" data-name="Group 19397">
                      <path id="Path_62948" data-name="Path 62948" d="M1418.943,312.511c-.01-.244-.023-.5-.039-.771-.033-.577-.08-1.2-.138-1.874-.019-.221-.039-.449-.06-.68l.2-.046a9.075,9.075,0,0,0,.891-.253c.234.422.444.684.568.607a26.625,26.625,0,0,0,2.257-3.678l-2.058-1.75c-.129-1.32-.329-2.708-.549-3.861a7.286,7.286,0,0,0-.784-2.622,5.167,5.167,0,0,0-1.912.111c-.131-1-.261-1.971-.383-2.893-.266-2.027-.491-3.819-.622-5.141-.647-6.548-.728-10.594-3.071-11.641a9.419,9.419,0,0,0-3.651-.364c-.536.019-1.09.057-1.641.1-1.868.16-3.7.445-4.689.628a3.233,3.233,0,0,0-.721.308,22.725,22.725,0,0,0-3.846,5.35c-.559.954-1.16,2.045-1.775,3.211a131.394,131.394,0,0,0-5.967,12.912c-.129.34-.242.657-.341.947a8.242,8.242,0,0,0-.419,1.582,11,11,0,0,0-.026,1.41c.086,2.519.673,5.874,1.223,6.651.013.019.026.035.039.05a3.744,3.744,0,0,0,1.839.572,37.8,37.8,0,0,0,11-.4c.582-.1,1.175-.211,1.776-.336.005.06.011.12.018.179.271,2.708.488,4.7.6,5.282a.866.866,0,0,0,.346.528,4.279,4.279,0,0,0,2.239.575,25.152,25.152,0,0,0,8.584-1.309c.043-.016.085-.034.126-.05a.778.778,0,0,0,.56-.159,5.736,5.736,0,0,0,1.132-1.032,6.606,6.606,0,0,0,1.1-1.829l-1.316-.229ZM1399.9,300.562c-.183-.258.4-1.436,1.237-2.839.214-.359.444-.731.682-1.108.881-1.393,1.867-2.826,2.521-3.709.105,1.07.217,2.214.33,3.4.1,1,.194,2.028.294,3.067q.027.295.056.591C1402.213,300.474,1400.066,300.8,1399.9,300.562Z" transform="translate(-1390.156 -275.013)" fill="#c44a1f"/>
                      <path id="Path_62949" data-name="Path 62949" d="M1391.1,503.252a13.869,13.869,0,0,0-.913,1.423,11.374,11.374,0,0,0-.021,1.355c.086,2.519.673,5.874,1.223,6.651,1.505-2.113,3.119-4.444,3.119-4.444s.7-6.885-.145-8.2A12.834,12.834,0,0,0,1391.1,503.252Z" transform="translate(-1390.156 -476.937)" fill="#ff8721"/>
                      <path id="Path_62950" data-name="Path 62950" d="M1509.881,358.69l-3.832,6.275c-.114-1.187-.225-2.332-.33-3.4-.653.883-1.64,2.316-2.521,3.709l-1.384-5.555s4.431-5.438,5.754-6.293,2.058,1.845,2.058,1.845Z" transform="translate(-1491.535 -343.67)" fill="#882a15"/>
                      <path id="Path_62951" data-name="Path 62951" d="M1544.745,424.935s-.318.3-.8.748c.022.246.023.5.026.734,0,.076,0,.151,0,.227h0c.105,1.07.217,2.214.33,3.4.1,1,.194,2.028.294,3.067.449.121.766.2.766.2Z" transform="translate(-1529.79 -408.75)" fill="#ffca05" opacity="0.22"/>
                      <path id="Path_62952" data-name="Path 62952" d="M1566.975,594.421c-.058.166-1.774,3.009-3.082,5.164a.871.871,0,0,1-.346-.528c-.112-.581-.329-2.574-.6-5.282a40.172,40.172,0,0,1,3.111-4.491C1566.234,589.431,1566.975,594.421,1566.975,594.421Z" transform="translate(-1547.04 -557.966)" fill="#ff8721"/>
                      <path id="Path_62953" data-name="Path 62953" d="M1437.965,589.9l-3.013,4.192a37.759,37.759,0,0,1-11,.4l3.025-5.036Z" transform="translate(-1420.838 -558.122)" fill="#882a15"/>
                      <path id="Path_62954" data-name="Path 62954" d="M1608.16,648.058l-.417.859c-.376.776-.967,1.994-1.6,3.3a25.149,25.149,0,0,1-8.584,1.308l2.487-5.45,7.168-.015Z" transform="translate(-1578.462 -611.332)" fill="#882a15"/>
                      <g id="Group_19396" data-name="Group 19396" transform="translate(2.103)">
                        <path id="Path_62955" data-name="Path 62955" d="M1442.855,271.694a7.282,7.282,0,0,0-.784-2.622,5.159,5.159,0,0,0-1.912.11c-.131-1-.261-1.971-.382-2.893-.266-2.027-.491-3.82-.622-5.142-.648-6.548-.728-10.594-3.07-11.641a9.43,9.43,0,0,0-3.651-.363c-.537.019-1.091.056-1.642.1-1.868.161-3.7.445-4.689.628a3.2,3.2,0,0,0-.721.309,22.705,22.705,0,0,0-3.846,5.35c-.559.954-1.159,2.044-1.775,3.211a118.971,118.971,0,0,0-6.345,13.971,7.8,7.8,0,0,0-.381,1.469,10.984,10.984,0,0,0-.026,1.41c.088,2.578.757,6.038,1.265,6.751.576.808,7.168.322,13.9-.163l.715-.051c.279,2.8.5,4.868.618,5.461.44,2.3,10.718.54,11.987-.652a.515.515,0,0,0,.11-.166c.3-.662.243-2.711.006-5.42-.019-.221-.039-.449-.06-.68.067-.015.134-.03.2-.046.94-.223,1.522-.457,1.613-.7C1443.813,278.741,1443.392,274.518,1442.855,271.694Zm-20.113.357c-.4-.568,2.92-5.6,4.439-7.656.211,2.141.444,4.581.68,7.059C1425.055,271.963,1422.908,272.285,1422.742,272.051Z" transform="translate(-1412.998 -249.127)" fill="#f6921e"/>
                        <path id="Path_62956" data-name="Path 62956" d="M1453.447,287.416c-.224-2.262-.917-2.345-.917-2.345a12.286,12.286,0,0,1-2.534.554c-.836.007-1.036-17.407-1.886-19.073s-7.975-.582-9.671-.034-12.432,21.328-12.7,22.42.461,6.2,1.078,7.05,13.426-.491,14.346-.429.7,4.8,1.312,6.34,8.127-.194,9.123-.9.208-4.817.119-5.721,1.184-.346,1.968-.88S1453.67,289.678,1453.447,287.416Zm-12.847-.388c-.758.418-8.028,1.767-8.468.783s5.666-10.838,6.423-11.255a1.075,1.075,0,0,1,.574-.13,1.2,1.2,0,0,1,1.124,1.092C1440.493,279.852,1441.242,286.674,1440.6,287.028Z" transform="translate(-1424.509 -264.14)" fill="#ffca05" opacity="0.5"/>
                        <path id="Path_62957" data-name="Path 62957" d="M1611.288,283.643s2.119-.895,2.854,2.687,5.057,28.81,3.035,30.684-5.2,2.113-6.429-1.115-2.193-28.332-1.543-30.223A2.727,2.727,0,0,1,1611.288,283.643Z" transform="translate(-1590.952 -280.375)" fill="#fff100" opacity="0.5"/>
                        <path id="Path_62958" data-name="Path 62958" d="M1437.284,272.744s1.628.3,1.278,2.919-6.3,20.95-9.4,21.941-4.3-1.934-3.3-4.851,7.525-15.513,8.915-17.63S1437.284,272.744,1437.284,272.744Z" transform="translate(-1424.365 -270.57)" fill="#fff100" opacity="0.5"/>
                        <path id="Path_62959" data-name="Path 62959" d="M1618.845,279.929c-.091.241-.674.475-1.613.7-.36-2.7-.9-6.61-1.31-8.079-.633-2.275-2.729-.517-3.758-1.439s-.327-12.1-3.343-18.717a8.052,8.052,0,0,0-2.543-3.148c.551-.047,1.1-.084,1.641-.1a9.431,9.431,0,0,1,3.652.364c2.343,1.048,2.423,5.093,3.07,11.641.131,1.322.356,3.115.622,5.141.122.922.251,1.895.383,2.893a5.164,5.164,0,0,1,1.912-.11,7.285,7.285,0,0,1,.784,2.622C1618.878,274.517,1619.3,278.74,1618.845,279.929Z" transform="translate(-1588.484 -249.126)" fill="#fff100" opacity="0.5"/>
                        <path id="Path_62960" data-name="Path 62960" d="M1610.959,260.08a2.667,2.667,0,0,1,2.427,1.982c.757,2.043,2.461,18.215,1.126,20.387s-5.161,3.085-6.672-5.787.4-15.259,1.2-16.022A2.393,2.393,0,0,1,1610.959,260.08Z" transform="translate(-1589.391 -259.049)" fill="#fff100" opacity="0.5"/>
                        <path id="Path_62961" data-name="Path 62961" d="M1645.26,298.733a155.262,155.262,0,0,0-2.1-15.7,1.279,1.279,0,0,0-2.515.462,155.259,155.259,0,0,1,2.1,15.7,1.284,1.284,0,0,0,1.489,1.027A1.314,1.314,0,0,0,1645.26,298.733Z" transform="translate(-1619.667 -278.956)" fill="#ffffa2"/>
                        <path id="Path_62962" data-name="Path 62962" d="M1699.514,489.184q-.228-2.837-.456-5.673a1.284,1.284,0,0,0-1.489-1.027,1.315,1.315,0,0,0-1.027,1.489q.228,2.836.456,5.673a1.284,1.284,0,0,0,1.489,1.027A1.315,1.315,0,0,0,1699.514,489.184Z" transform="translate(-1670.435 -460.978)" fill="#ffffa2"/>
                        <path id="Path_62963" data-name="Path 62963" d="M1687.028,599.514a16.7,16.7,0,0,0-.259-2.961,1.279,1.279,0,0,0-2.515.462c.075.41.136.823.176,1.238.018.183.032.367.043.551,0,.025,0,.063,0,.092q0,.2.005.4a1.306,1.306,0,0,0,1.162,1.385A1.293,1.293,0,0,0,1687.028,599.514Z" transform="translate(-1659.263 -563.612)" fill="#ffffa2"/>
                        <path id="Path_62964" data-name="Path 62964" d="M1500.7,408.916a1.3,1.3,0,0,0-1.782.3,39.556,39.556,0,0,0-2.421,4.233,1.283,1.283,0,0,0,.752,1.644,1.315,1.315,0,0,0,1.645-.752c.345-.7.535-1.055.948-1.769q.552-.957,1.163-1.878A1.3,1.3,0,0,0,1500.7,408.916Z" transform="translate(-1488.725 -394.004)" fill="#ffffa2"/>
                      </g>
                      <path id="Path_62965" data-name="Path 62965" d="M1419.65,536.844a5.734,5.734,0,0,1-1.132,1.033.777.777,0,0,1-.561.158c-.041.017-.082.034-.125.051a25.149,25.149,0,0,1-8.584,1.308,4.283,4.283,0,0,1-2.24-.574.871.871,0,0,1-.346-.528c-.112-.581-.329-2.574-.6-5.282l-.018-.179q-.9.188-1.776.336a37.759,37.759,0,0,1-11,.4,3.744,3.744,0,0,1-1.84-.572c-.561-.672-1.173-4.124-1.261-6.7a11.012,11.012,0,0,1,.026-1.411,12.621,12.621,0,0,1,.76-2.528c-.054,3.323.062,8.588,1.253,10.085,1.781,2.237,14.5-.394,14.5-.394s.319,5.854,1.212,6.348C1408.683,538.822,1416.231,538.287,1419.65,536.844Z" transform="translate(-1390.154 -497.202)" fill="#ffca05" opacity="0.22"/>
                    </g>
                    <circle id="Ellipse_582" data-name="Ellipse 582" cx="0.994" cy="0.994" r="0.994" transform="translate(17.548 30.019) rotate(-32.311)" fill="#fff100" opacity="0.28"/>
                    <circle id="Ellipse_583" data-name="Ellipse 583" cx="0.881" cy="0.881" r="0.881" transform="translate(18.721 28.294) rotate(-74.995)" fill="#fff100" opacity="0.28"/>
                    <path id="Path_62966" data-name="Path 62966" d="M1540.228,578.819a.625.625,0,1,1-.683-.56A.625.625,0,0,1,1540.228,578.819Z" transform="translate(-1525.28 -547.956)" fill="#fff100" opacity="0.28"/>
                    <path id="Path_62967" data-name="Path 62967" d="M1567.9,550.671a.852.852,0,1,1-.932-.764A.852.852,0,0,1,1567.9,550.671Z" transform="translate(-1549.995 -522.213)" fill="#fff100" opacity="0.28"/>
                    <g id="Group_19398" data-name="Group 19398" transform="translate(16.056 1.7)" opacity="0.28">
                      <path id="Path_62968" data-name="Path 62968" d="M1566.59,579.907a.284.284,0,1,1-.311-.255A.284.284,0,0,1,1566.59,579.907Z" transform="translate(-1565.889 -550.923)" fill="#fff100" opacity="0.5"/>
                      <path id="Path_62969" data-name="Path 62969" d="M1568.079,335.418a.568.568,0,1,1-.621-.509A.568.568,0,0,1,1568.079,335.418Z" transform="translate(-1566.726 -328.709)" fill="#fff100"/>
                      <path id="Path_62970" data-name="Path 62970" d="M1576.474,292.435a.852.852,0,1,1-.932-.764A.852.852,0,0,1,1576.474,292.435Z" transform="translate(-1573.833 -289.45)" fill="#fff100"/>
                      <path id="Path_62971" data-name="Path 62971" d="M1565.586,268.057a.512.512,0,1,1-.559-.459A.511.511,0,0,1,1565.586,268.057Z" transform="translate(-1564.565 -267.596)" fill="#fff100"/>
                      <path id="Path_62972" data-name="Path 62972" d="M1571.208,320.2a.256.256,0,1,1-.28-.229A.256.256,0,0,1,1571.208,320.2Z" transform="translate(-1570.134 -315.147)" fill="#fff100"/>
                      <path id="Path_62973" data-name="Path 62973" d="M1595.979,274.354a.511.511,0,1,1-.559-.459A.511.511,0,0,1,1595.979,274.354Z" transform="translate(-1592.161 -273.313)" fill="#fff100"/>
                    </g>
                    <path id="Path_62974" data-name="Path 62974" d="M1428.173,514.819c-6.732.485-13.323.97-13.9.163-.508-.713-1.177-4.173-1.265-6.751a10.984,10.984,0,0,1,.026-1.41,7.8,7.8,0,0,1,.381-1.469c.15,4.024.842,8.282,1.448,9.04C1415.494,515.179,1425.885,514.892,1428.173,514.819Z" transform="translate(-1410.895 -481.763)" fill="#ffff69"/>
                    <path id="Path_62975" data-name="Path 62975" d="M1598.314,612.278a.514.514,0,0,1-.11.166c-1.269,1.192-11.546,2.955-11.986.652-.114-.593-.339-2.661-.618-5.461,0,0,.674,3.165.969,4.345s.711,1.774,4.545,1.594A25.933,25.933,0,0,0,1598.314,612.278Z" transform="translate(-1567.607 -574.631)" fill="#ffff69"/>
                  </g>
                  <path id="Path_62976" data-name="Path 62976" d="M1606.225,255.252a.3.3,0,0,0-.129-.052.253.253,0,0,0-.055-.019l-.07-.005a1.339,1.339,0,0,1-.54-.239,1.76,1.76,0,0,1-.789-1.1c-.093-.452-.03-.729-.206-.729v.032c-.169.007-.109.282-.2.729a1.758,1.758,0,0,1-.789,1.1,1.339,1.339,0,0,1-.54.239l-.07.005a.257.257,0,0,0-.055.019.3.3,0,0,0-.128.052.146.146,0,0,0,0,.184.3.3,0,0,0,.128.052.25.25,0,0,0,.055.019l.07.005a1.338,1.338,0,0,1,.54.239,1.758,1.758,0,0,1,.789,1.1c.093.452.03.729.206.729v-.032c.169-.007.109-.282.2-.729a1.76,1.76,0,0,1,.789-1.1,1.34,1.34,0,0,1,.54-.239l.07-.005a.255.255,0,0,0,.055-.019.3.3,0,0,0,.129-.052.147.147,0,0,0,0-.184Z" transform="translate(-1583.056 -252.743)" fill="#fff"/>
                  <path id="Path_62977" data-name="Path 62977" d="M1411.477,569.734a.3.3,0,0,0-.128-.052.254.254,0,0,0-.055-.019l-.071-.005a1.343,1.343,0,0,1-.54-.239,1.758,1.758,0,0,1-.789-1.1c-.093-.452-.03-.729-.206-.729v.032c-.169.007-.109.282-.2.729a1.758,1.758,0,0,1-.789,1.1,1.339,1.339,0,0,1-.54.239l-.07.005a.25.25,0,0,0-.055.019.3.3,0,0,0-.128.052.147.147,0,0,0,0,.184.3.3,0,0,0,.128.052.261.261,0,0,0,.055.019l.07.005a1.337,1.337,0,0,1,.54.239,1.758,1.758,0,0,1,.789,1.1c.093.452.03.729.206.729v-.032c.169-.007.109-.282.2-.729a1.758,1.758,0,0,1,.789-1.1,1.34,1.34,0,0,1,.54-.239l.071-.005a.257.257,0,0,0,.055-.019.3.3,0,0,0,.128-.052.147.147,0,0,0,0-.184Z" transform="translate(-1406.237 -538.274)" fill="#fff"/>
                </g>
                <path id="Path_62978" data-name="Path 62978" d="M1548.924,681.926c-.73-.045-1.688.023-2.212-.6a3.084,3.084,0,0,1-.475-1.416,14.923,14.923,0,0,1-.209-1.7.541.541,0,0,0-1.079.062,15.825,15.825,0,0,0,.245,2.094,3.439,3.439,0,0,0,.735,1.8,3.929,3.929,0,0,0,3.063.919C1549.755,683.046,1549.649,681.97,1548.924,681.926Z" transform="translate(-1530.698 -638.261)" fill="url(#linear-gradient-12)"/>
              </g>
              <path id="Path_62979" data-name="Path 62979" d="M1363.047,582.968a22.432,22.432,0,0,1-1.161-5.943.542.542,0,0,0-1.081.063,22.465,22.465,0,0,0,1.141,6.238A.579.579,0,0,0,1363.047,582.968Z" transform="translate(-1360.805 -546.392)" fill="url(#linear-gradient-12)"/>
            </g>
          </g>
          <g id="Group_19409" data-name="Group 19409" transform="translate(-1391.229 494.325)">
            <path id="Path_62980" data-name="Path 62980" d="M1811.116,205.947l.005-.011q.06-.127.117-.257l.018-.04c.035-.081.07-.163.1-.245l.024-.058q.048-.118.094-.238l.027-.07q.044-.116.085-.234c.009-.026.019-.052.028-.078q.04-.116.078-.233l.027-.084q.037-.116.071-.233l.026-.089q.034-.117.065-.235l.024-.092q.031-.118.06-.237l.022-.094q.028-.119.054-.24c.007-.032.014-.064.02-.1q.025-.121.049-.243l.017-.1c.015-.082.03-.165.043-.248.005-.032.01-.063.015-.095.013-.084.026-.169.038-.254,0-.031.008-.062.012-.092.011-.087.022-.174.032-.261,0-.029.006-.058.009-.087.01-.09.019-.18.027-.271,0-.026,0-.052.006-.078.008-.095.016-.189.022-.285,0-.02,0-.04,0-.06.006-.1.012-.2.016-.307,0-.007,0-.014,0-.021q.015-.375.012-.759,0-.559-.046-1.136a11.648,11.648,0,0,0-.452-2.48,11.209,11.209,0,0,0-2.693-4.583,14.79,14.79,0,0,0-9.148-4.218c1.929-.172,3.733-.357,5.071-.535a10,10,0,0,0,2.207-.436.545.545,0,0,0,.2-.336c.079-.139.176-.315.278-.517a6.83,6.83,0,0,0,.8-2.408c.341-1.256,0-5.247-.627-7.53,0,0,0,0,0-.006a3.553,3.553,0,0,0-.7-1.534c-.642-.572-7.963.394-14.439,1.41-1.571.246-3.091.5-4.455.728-1.293.219-2.444.422-3.364.59l-.029-.06s-.1.036-.257.113l-.251.047a1.063,1.063,0,0,0-.678.428,1.811,1.811,0,0,0-.519.467,1.747,1.747,0,0,0-.155.244,3.9,3.9,0,0,0-.812,1.365l0,.013a8.886,8.886,0,0,0-.445,2.21s0,.006,0,.009a5.562,5.562,0,0,0,.018,1.1l.089.1,1.276,12.219a5.708,5.708,0,0,0,.1.646,5.912,5.912,0,0,0,4.022,4.325,2.47,2.47,0,0,0,.764.115c.036,0,.071,0,.106,0a2.464,2.464,0,0,0,1.237-.4,16.318,16.318,0,0,1,3.337-1.72,8,8,0,0,1,1.874-.445c.11-.011.22-.02.332-.027,2.318-.149,4.842.581,5.8,2.657a4.354,4.354,0,0,1,.376,1.4c.013.1.021.2.027.3a4.944,4.944,0,0,1-5.754.4,4.627,4.627,0,0,1-1.693-1.8,1.553,1.553,0,0,0-1.708-.8l-5.707,1.28a2.49,2.49,0,0,0-.5.165c-.06.027-.119.058-.176.089a.512.512,0,0,0-.179.008,1.05,1.05,0,0,0-.475.3,9.466,9.466,0,0,0-1.523,3.428c-.16.572-.249.977-.249.977l.137.188a2.3,2.3,0,0,0,.124.773,14.89,14.89,0,0,0,2.22,4.214,12.925,12.925,0,0,0,7.862,4.919c.264.052.533.1.806.136a15.2,15.2,0,0,0,2.567.135c.236-.006.474-.019.714-.036a18.938,18.938,0,0,0,3.4-.556,14.9,14.9,0,0,0,5.205-2.454,12.245,12.245,0,0,0,3.284-3.683,12.519,12.519,0,0,0,1.328-3.361Q1811.015,206.16,1811.116,205.947Zm-18.728-17.853.1-.006.132-.009.119-.008.118-.008.139-.009.109-.007.14-.009.123-.008.137-.009.115-.008.15-.01.117-.008.135-.009h.006a15.661,15.661,0,0,0-1.711.567l-.047-.45Z" transform="translate(0 -41.533)" opacity="0.32"/>
            <g id="Group_19408" data-name="Group 19408" transform="translate(1784.264 128.164)">
              <path id="Path_62981" data-name="Path 62981" d="M1819.255,521.245a18.9,18.9,0,0,1-10.754-7.266c-.4-.555-1.326-.021-.924.54a20.027,20.027,0,0,0,11.393,7.758A.536.536,0,0,0,1819.255,521.245Z" transform="translate(-1807.478 -477.248)" fill="url(#linear-gradient-12)"/>
              <g id="Group_19407" data-name="Group 19407" transform="translate(0.05 0)">
                <g id="Group_19406" data-name="Group 19406">
                  <path id="Path_62982" data-name="Path 62982" d="M1837.474,184.137a13.433,13.433,0,0,1-1.72,6.868,12.247,12.247,0,0,1-3.284,3.683,14.893,14.893,0,0,1-5.205,2.455,18.927,18.927,0,0,1-3.4.556c-.24.017-.478.03-.714.036a15.2,15.2,0,0,1-2.567-.135c-.273-.037-.542-.083-.806-.136a12.925,12.925,0,0,1-7.862-4.919,14.9,14.9,0,0,1-2.221-4.214,2.306,2.306,0,0,1-.124-.773l-.137-.188s.089-.4.249-.977a9.467,9.467,0,0,1,1.523-3.429,1.051,1.051,0,0,1,.475-.3.739.739,0,0,1,.417.051,3.638,3.638,0,0,1,.842.483,16.254,16.254,0,0,1,1.627,1.4l2.6-.584a1.551,1.551,0,0,1,1.708.8,4.563,4.563,0,0,0,1.693,1.8,5.191,5.191,0,0,0,4.377.44,4.036,4.036,0,0,0,1.269-.738,3.434,3.434,0,0,0,1.183-2.511,4.5,4.5,0,0,0-.032-.781,4.353,4.353,0,0,0-.376-1.4c-.963-2.076-3.486-2.806-5.8-2.657-.111.007-.222.016-.332.027a8.007,8.007,0,0,0-1.875.445,16.315,16.315,0,0,0-3.337,1.72,2.465,2.465,0,0,1-1.237.4c-.036,0-.071,0-.106,0a2.468,2.468,0,0,1-.763-.115,5.912,5.912,0,0,1-4.022-4.325,5.683,5.683,0,0,1-.1-.646l-1.276-12.219-.089-.1a5.55,5.55,0,0,1-.018-1.1s0-.006,0-.009a8.886,8.886,0,0,1,.445-2.211l0-.013a4.8,4.8,0,0,1,2.672-2.663l1.208,2.551c1.624-.282,3.555-.6,5.569-.919,6.476-1.016,13.8-1.981,14.439-1.41a3.548,3.548,0,0,1,.7,1.534s0,0,0,.006a20.088,20.088,0,0,1,.482,2.42l.026.183q.02.149.039.3a2.59,2.59,0,0,1,1.084,1.117c.271.814-.288,2.156-.734,3.03-.1.2-.2.377-.278.517a.546.546,0,0,1-.2.336,10.014,10.014,0,0,1-2.207.436c-1.848.246-4.583.5-7.312.726-.915.074-1.83.144-2.711.208l-.117.009c-1.517.11-2.928.2-4.057.267l.28,2.678.055.527.006.051.122-.048a15.59,15.59,0,0,1,1.957-.614c.38-.094.764-.172,1.149-.237a16.617,16.617,0,0,1,2.306-.224h0a16.7,16.7,0,0,1,2.222.086h0q.519.055,1.031.141a14.526,14.526,0,0,1,8.073,4.072,11.2,11.2,0,0,1,2.693,4.582,11.619,11.619,0,0,1,.452,2.48Q1837.473,183.556,1837.474,184.137Z" transform="translate(-1808.011 -155.314)" fill="#c44a1f"/>
                  <path id="Path_62983" data-name="Path 62983" d="M2019.275,475.876l-2.653,6.462a14.894,14.894,0,0,1-5.205,2.455c1.119-2.921,3.173-7.985,3.173-7.985S2019.168,475.876,2019.275,475.876Z" transform="translate(-1992.164 -442.964)" fill="#882a15"/>
                  <path id="Path_62984" data-name="Path 62984" d="M1890.038,219.607c1.087-.064,2.406-.151,3.817-.253l.117-.009,1.989-5.788-6.315.107-1.314,1.881s.261,1.729.559,3.486C1889.276,219.219,1889.657,219.415,1890.038,219.607Z" transform="translate(-1880.73 -205.474)" fill="#882a15"/>
                  <path id="Path_62985" data-name="Path 62985" d="M1954.2,323.061l-1.173,7.1c-.963-2.076-3.486-2.806-5.8-2.657l1.2-5.284C1948.783,322.314,1954.2,323.061,1954.2,323.061Z" transform="translate(-1934.045 -303.847)" fill="#882a15"/>
                  <path id="Path_62986" data-name="Path 62986" d="M1828.059,209.736l-.658-.464a4.494,4.494,0,0,0-.032-.781,4.352,4.352,0,0,0-.376-1.4c-.963-2.076-3.486-2.806-5.8-2.657-.111.007-.222.016-.332.027a8.006,8.006,0,0,0-1.875.444,16.318,16.318,0,0,0-3.337,1.72,2.465,2.465,0,0,1-1.237.4c-.036,0-.071,0-.106,0a2.466,2.466,0,0,1-.763-.115,5.912,5.912,0,0,1-4.022-4.325,5.683,5.683,0,0,1-.1-.646l-1.276-12.219-.089-.1a5.55,5.55,0,0,1-.018-1.1s0-.006,0-.009a8.886,8.886,0,0,1,.445-2.211l0-.013c.4,4.206,1.065,11.063,1.494,14.14.642,4.6,3.745,5.994,5.351,5.351s5.244-3.211,9.312-1.926S1828.059,209.736,1828.059,209.736Z" transform="translate(-1808.011 -180.784)" fill="#ffca05" opacity="0.22"/>
                  <path id="Path_62987" data-name="Path 62987" d="M1830.46,299.018l-1.771,4.352a2.469,2.469,0,0,1-.764-.115,5.912,5.912,0,0,1-4.022-4.325l1.847-6.227Z" transform="translate(-1822.399 -277.129)" fill="#ff8721"/>
                  <path id="Path_62988" data-name="Path 62988" d="M1986.213,202.251a.971.971,0,0,1-.053.191c-.255.761-1.391,3.541-2.3,5.733-1.848.246-4.583.5-7.312.726l2.275-5.9,7.307-.741Z" transform="translate(-1960.6 -195.238)" fill="#ff8721"/>
                  <path id="Path_62989" data-name="Path 62989" d="M1889.563,251.228c-.1.2-.2.377-.278.517a.547.547,0,0,1-.2.336,10.013,10.013,0,0,1-2.207.436c-1.848.246-4.583.5-7.312.726-.916.074-1.83.144-2.711.208l-.117.009c-1.517.11-2.928.2-4.057.267l.28,2.678-.859.034-2.676-3.211s.428-.214,6.85-.535C1880.994,252.456,1886.809,251.643,1889.563,251.228Z" transform="translate(-1863.614 -239.579)" fill="#ffca05" opacity="0.22"/>
                  <path id="Path_62990" data-name="Path 62990" d="M1863.007,454.4l-2.48,6.415a15.206,15.206,0,0,1-2.567-.135c-.273-.037-.542-.083-.806-.136a12.926,12.926,0,0,1-7.862-4.919c1.341-3.438,2.655-6.888,2.655-6.888Z" transform="translate(-1845.384 -418.394)" fill="#ff8721"/>
                  <g id="Group_19405" data-name="Group 19405" transform="translate(1.085)">
                    <path id="Path_62991" data-name="Path 62991" d="M1932.634,516.737a.556.556,0,0,0-.378-.157h-.107a.552.552,0,0,0-.378.157.6.6,0,0,0-.157.378.541.541,0,0,0,.157.378.556.556,0,0,0,.378.157h.107a.552.552,0,0,0,.378-.157.6.6,0,0,0,.157-.378A.541.541,0,0,0,1932.634,516.737Z" transform="translate(-1920.999 -479.815)" fill="#00676b"/>
                    <path id="Path_62992" data-name="Path 62992" d="M1848.924,154.1a12.6,12.6,0,0,1-6.933,11.759,15.985,15.985,0,0,1-3.764,1.366,19.1,19.1,0,0,1-2.909.436,15.463,15.463,0,0,1-3.28-.1c-.273-.038-.542-.084-.806-.136a13.353,13.353,0,0,1-10.083-9.133,2.274,2.274,0,0,1-.041-1.354,2.392,2.392,0,0,1,1.807-1.689l5.707-1.28a1.551,1.551,0,0,1,1.708.8,4.562,4.562,0,0,0,1.693,1.8c2.848,1.729,7.286.346,6.8-3.59a4.041,4.041,0,0,0-1.469-2.8,7.006,7.006,0,0,0-5.044-1.228,7.993,7.993,0,0,0-1.874.445,16.332,16.332,0,0,0-3.337,1.72,2.466,2.466,0,0,1-1.237.4,2.5,2.5,0,0,1-.87-.112,5.884,5.884,0,0,1-4.126-4.971l-.008-.071-1.368-13.1a1.742,1.742,0,0,1,.857-1.673,1.065,1.065,0,0,1,.678-.427c1.853-.346,4.99-.889,8.355-1.417,2.439-.382,5-.758,7.272-1.047,3.77-.479,6.766-.72,7.167-.364a3.028,3.028,0,0,1,.621,1.271c.026.085.051.173.076.263,0,0,0,0,0,.006.729,2.637,1.065,7.552.418,7.9a45.327,45.327,0,0,1-7.462.987c-.547.049-1.1.1-1.661.142-1.087.089-2.181.173-3.224.249-1.516.11-2.927.2-4.057.268l.34,3.256a16.256,16.256,0,0,1,5.7-1.126,15.21,15.21,0,0,1,11.164,4.3,11.209,11.209,0,0,1,2.694,4.583,11.6,11.6,0,0,1,.451,2.479Q1848.925,153.516,1848.924,154.1Z" transform="translate(-1819.478 -128.164)" fill="url(#linear-gradient-12)"/>
                    <path id="Path_62993" data-name="Path 62993" d="M1859.236,137.664s1.541,6.6.6,7.048-16.277,2.081-16.277,2.081l.662,5.443s7.847-2.9,13.348.056,8.454,7.355,5.626,14.693-13.332,9.288-18.433,6.051-6.663-7.3-5.6-8.02,5.531-2.389,6.4-1.361,4.207,4.746,9.034,1.989,1.745-9.958-4.439-9.808-7.972,3.169-9.668,2.178-3.548-14.388-3.091-16.411,17.683-4.415,19.468-4.5S1859.236,137.664,1859.236,137.664Z" transform="translate(-1835.643 -136.252)" fill="#fff100" opacity="0.5"/>
                    <path id="Path_62994" data-name="Path 62994" d="M1837.066,134.82c.68-.165,19.635-3.837,21.207-2.574s1.474,5.139.144,6.134-20.258,2.263-21.323.043A3.538,3.538,0,0,1,1837.066,134.82Z" transform="translate(-1834.991 -131.621)" fill="#fff900" opacity="0.5"/>
                    <path id="Path_62995" data-name="Path 62995" d="M1887.524,278.761a4.1,4.1,0,0,1,1.165,4.3,1.824,1.824,0,0,1-1.451,1.435c-2.053.228-4.756-4.721-11.353-4.552s-9.256,2.16-9.354.028,5.665-5.466,12.005-5.222A14.439,14.439,0,0,1,1887.524,278.761Z" transform="translate(-1862.077 -260.865)" fill="#fff100" opacity="0.5"/>
                    <path id="Path_62996" data-name="Path 62996" d="M1993.274,282.112c.033,6.917-4.3,11.647-10.7,13.126,2.7-4.041,4.926-8.716,4.409-13.114-.921-7.828-5.616-11.273-8.067-12.558a15.21,15.21,0,0,1,11.164,4.3,11.209,11.209,0,0,1,2.694,4.583,11.618,11.618,0,0,1,.451,2.479Q1993.275,281.531,1993.274,282.112Z" transform="translate(-1963.827 -256.179)" fill="#fff100" opacity="0.5"/>
                    <path id="Path_62997" data-name="Path 62997" d="M2009.186,137.775a45.331,45.331,0,0,1-7.462.987,12.093,12.093,0,0,0,.761-5.286,8.988,8.988,0,0,0-1.583-4.779c3.77-.479,6.766-.72,7.167-.364a3.028,3.028,0,0,1,.621,1.271c.026.085.051.173.076.263,0,0,0,0,0,.006C2009.5,132.512,2009.832,137.427,2009.186,137.775Z" transform="translate(-1983.729 -128.164)" fill="#fff100" opacity="0.5"/>
                    <path id="Path_62998" data-name="Path 62998" d="M1840.9,410.223s5.537-2.256,6.965-1.12,2.89,6.008,6.544,7.71,1.693,3.927-.9,4.313-7.139.327-11.545-5.745C1838.766,410.97,1840.9,410.223,1840.9,410.223Z" transform="translate(-1838.243 -382.221)" fill="#fff100" opacity="0.5"/>
                    <path id="Path_62999" data-name="Path 62999" d="M1836.908,139.431c.973.222,16.478-3.692,17.524-1.871s-9.479,6.308-14.6,5.608S1836.908,139.431,1836.908,139.431Z" transform="translate(-1834.833 -136.232)" fill="#ff0" opacity="0.5"/>
                    <path id="Path_63000" data-name="Path 63000" d="M1858.991,279.6c.656-.7,8.286-5.319,13.332-3.281s-13.012,7.271-13.915,5.577A1.5,1.5,0,0,1,1858.991,279.6Z" transform="translate(-1854.46 -261.829)" fill="#ff0" opacity="0.5"/>
                    <path id="Path_63001" data-name="Path 63001" d="M1989.887,473.039a.894.894,0,1,1-.932-.825A.88.88,0,0,1,1989.887,473.039Z" transform="translate(-1972.141 -439.647)" fill="#fff13c" opacity="0.5"/>
                    <path id="Path_63002" data-name="Path 63002" d="M1946.843,488.044a.756.756,0,1,1-.789-.7A.745.745,0,0,1,1946.843,488.044Z" transform="translate(-1933.419 -453.347)" fill="#fff13c" opacity="0.5"/>
                    <path id="Path_63003" data-name="Path 63003" d="M1933.12,456.022a.756.756,0,1,1-.789-.7A.745.745,0,0,1,1933.12,456.022Z" transform="translate(-1920.995 -424.356)" fill="#fff13c" opacity="0.5"/>
                    <path id="Path_63004" data-name="Path 63004" d="M2042.454,480.332a.275.275,0,1,1-.287-.254A.271.271,0,0,1,2042.454,480.332Z" transform="translate(-2020.851 -446.768)" fill="#fff13c" opacity="0.5"/>
                    <path id="Path_63005" data-name="Path 63005" d="M1983.681,503.691a.55.55,0,1,1-.574-.508A.542.542,0,0,1,1983.681,503.691Z" transform="translate(-1967.144 -467.685)" fill="#fff13c" opacity="0.5"/>
                    <path id="Path_63006" data-name="Path 63006" d="M1870.053,282.233a.55.55,0,1,1-.573-.508A.542.542,0,0,1,1870.053,282.233Z" transform="translate(-1864.271 -267.189)" fill="#fff100" opacity="0.5"/>
                    <path id="Path_63007" data-name="Path 63007" d="M1884.6,235.352a.4.4,0,1,1,.394-.418A.406.406,0,0,1,1884.6,235.352Z" transform="translate(-1878.045 -224.482)" fill="#fff100" opacity="0.5"/>
                    <path id="Path_63008" data-name="Path 63008" d="M1824.569,161.562a.3.3,0,0,0-.132-.053.26.26,0,0,0-.057-.02l-.072-.005a1.377,1.377,0,0,1-.555-.246,1.808,1.808,0,0,1-.811-1.129c-.1-.465-.031-.75-.212-.75v.033c-.173.007-.112.29-.206.749a1.808,1.808,0,0,1-.811,1.129,1.376,1.376,0,0,1-.555.246l-.072.005a.263.263,0,0,0-.057.02.305.305,0,0,0-.132.053.15.15,0,0,0,0,.189.305.305,0,0,0,.132.053.262.262,0,0,0,.057.02l.072.005a1.376,1.376,0,0,1,.555.246,1.808,1.808,0,0,1,.811,1.129c.1.465.031.75.212.75v-.033c.174-.007.112-.29.206-.749a1.808,1.808,0,0,1,.811-1.129,1.376,1.376,0,0,1,.555-.246l.072-.005a.265.265,0,0,0,.057-.02.306.306,0,0,0,.132-.053.15.15,0,0,0,0-.189Z" transform="translate(-1820.727 -156.406)" fill="#fff"/>
                    <path id="Path_63009" data-name="Path 63009" d="M2075.037,298.033a.289.289,0,0,0-.124-.05.239.239,0,0,0-.053-.018l-.068,0a1.293,1.293,0,0,1-.521-.231,1.7,1.7,0,0,1-.76-1.058c-.089-.436-.029-.7-.2-.7V296c-.163.006-.1.272-.193.7a1.694,1.694,0,0,1-.76,1.058,1.288,1.288,0,0,1-.521.231l-.068.005a.239.239,0,0,0-.053.018.284.284,0,0,0-.124.05.14.14,0,0,0,0,.177.286.286,0,0,0,.124.05.244.244,0,0,0,.053.018l.068,0a1.291,1.291,0,0,1,.521.231,1.694,1.694,0,0,1,.76,1.058c.09.436.029.7.2.7v-.031c.163-.006.1-.272.193-.7a1.7,1.7,0,0,1,.76-1.058,1.292,1.292,0,0,1,.521-.23l.068-.005a.238.238,0,0,0,.053-.018.289.289,0,0,0,.124-.05.141.141,0,0,0,0-.177Z" transform="translate(-2047.697 -280.086)" fill="#fff"/>
                    <path id="Path_63010" data-name="Path 63010" d="M1874.209,245.9c-.045-.171-.088-.343-.123-.516-.018-.087-.032-.174-.049-.261,0-.03-.01-.061-.015-.091l0-.018a11.089,11.089,0,0,1-.043-1.127,1.332,1.332,0,0,0-1.32-1.32,1.346,1.346,0,0,0-1.32,1.32,9.7,9.7,0,0,0,.327,2.715,1.32,1.32,0,0,0,2.546-.7Z" transform="translate(-1866.426 -231.739)" fill="#ffffae"/>
                    <path id="Path_63011" data-name="Path 63011" d="M2049.386,147.606l-.3-3.213a1.349,1.349,0,0,0-1.32-1.32,1.335,1.335,0,0,0-1.32,1.32l.3,3.213a1.349,1.349,0,0,0,1.32,1.32A1.335,1.335,0,0,0,2049.386,147.606Z" transform="translate(-2024.961 -141.661)" fill="#ffffae"/>
                    <g id="Group_19404" data-name="Group 19404" transform="translate(7.613 27.299)">
                      <path id="Path_63012" data-name="Path 63012" d="M1903.026,418.066l.069.053-.032-.027q-.064-.054-.125-.111a3.891,3.891,0,0,1-.291-.3c-.012-.014-.042-.052-.061-.076l-.014-.02c-.078-.115-.15-.235-.216-.357a1.333,1.333,0,0,0-1.806-.474,1.347,1.347,0,0,0-.474,1.806,5.525,5.525,0,0,0,1.618,1.784,1.329,1.329,0,0,0,1.017.133,1.321,1.321,0,0,0,.315-2.413Z" transform="translate(-1899.904 -416.575)" fill="#ffffae"/>
                      <path id="Path_63013" data-name="Path 63013" d="M1933.621,432.887c.073.062.053.042,0,0Z" transform="translate(-1930.43 -431.343)" fill="#ffffae"/>
                    </g>
                    <path id="Path_63014" data-name="Path 63014" d="M2068.379,354.111a1.32,1.32,0,0,0-2.546.7c.087.344.158.691.211,1.042,0,.026.009.079.015.134.009.1.018.191.025.286q.021.286.028.574a10.861,10.861,0,0,1-.033,1.092q-.011.143-.027.286c0,.021-.018.139-.025.194s-.023.14-.022.139q-.024.142-.052.283a10.914,10.914,0,0,1-.264,1.06q-.084.275-.181.546-.049.135-.1.269c-.011.027-.047.111-.062.145a11.239,11.239,0,0,1-1.1,1.9,1.325,1.325,0,0,0,.473,1.806,1.357,1.357,0,0,0,1.806-.473A12.182,12.182,0,0,0,2068.379,354.111Z" transform="translate(-2040.906 -331.841)" fill="#ffffae"/>
                    <path id="Path_63015" data-name="Path 63015" d="M2037.891,473.426a1.32,1.32,0,1,0-1.32,1.32A1.343,1.343,0,0,0,2037.891,473.426Z" transform="translate(-2014.826 -439.55)" fill="#ffffae"/>
                  </g>
                  <path id="Path_63016" data-name="Path 63016" d="M1959.681,322.1l0,.011C1959.653,322.106,1959.652,322.1,1959.681,322.1Z" transform="translate(-1945.305 -303.745)" fill="#933600"/>
                  <path id="Path_63017" data-name="Path 63017" d="M1849.39,461.121a12.245,12.245,0,0,1-3.284,3.683,14.9,14.9,0,0,1-5.205,2.455,18.932,18.932,0,0,1-3.4.556c-.24.017-.478.03-.714.036a15.2,15.2,0,0,1-2.567-.135c-.273-.037-.542-.084-.806-.136a12.926,12.926,0,0,1-7.862-4.919,14.9,14.9,0,0,1-2.221-4.214,2.305,2.305,0,0,1-.124-.773l-.137-.188s.089-.4.249-.977c1.517,4.636,4.646,9.62,11.1,10.288A17.4,17.4,0,0,0,1849.39,461.121Z" transform="translate(-1821.648 -425.431)" fill="#ffca05" opacity="0.22"/>
                  <path id="Path_63018" data-name="Path 63018" d="M1842.683,417.008l-.892.253a1.052,1.052,0,0,1,.475-.3A.739.739,0,0,1,1842.683,417.008Z" transform="translate(-1838.594 -389.61)" fill="#ddac17"/>
                </g>
                <path id="Path_63019" data-name="Path 63019" d="M1856.788,441.068a15.985,15.985,0,0,1-3.764,1.366,19.1,19.1,0,0,1-2.909.436,15.463,15.463,0,0,1-3.28-.1c-.273-.038-.542-.084-.806-.136a13.353,13.353,0,0,1-10.083-9.133,2.276,2.276,0,0,1-.041-1.354,13.892,13.892,0,0,0,7.564,8.744C1848,442.806,1852.977,442.2,1856.788,441.068Z" transform="translate(-1833.189 -403.376)" fill="#ffff69"/>
                <path id="Path_63020" data-name="Path 63020" d="M1850.525,324.219a7.007,7.007,0,0,0-5.044-1.228,7.99,7.99,0,0,0-1.874.445,16.334,16.334,0,0,0-3.337,1.72,2.465,2.465,0,0,1-1.237.4,2.5,2.5,0,0,1-.87-.112,5.883,5.883,0,0,1-4.126-4.971l-.008-.07a7.808,7.808,0,0,0,3.917,4.1c1.761.755,2.391-.881,6.668-1.761C1847.909,322.059,1849.86,323.4,1850.525,324.219Z" transform="translate(-1831.566 -302.202)" fill="#ffff69"/>
              </g>
            </g>
          </g>
        </g>
      </g>
    </g>
    <g transform="matrix(1, 0, 0, 1, -125, 576)" filter="url(#_600EUR)">
      <text id="_600EUR-2" data-name="600EUR" transform="translate(536.5 172)" fill="#f8ad2e" font-size="27" font-family="Montserrat-Bold, Montserrat" font-weight="700"><tspan x="-56.552" y="0">600EUR</tspan></text>
    </g>
    <g transform="matrix(1, 0, 0, 1, -125, 576)" filter="url(#_100_up_to_)">
      <text id="_100_up_to_2" data-name="100% up to " transform="translate(537 137)" fill="#fff" font-size="14" font-family="Montserrat-Medium, Montserrat" font-weight="500"><tspan x="-40.208" y="0">100% up to </tspan></text>
    </g>
  </g>
</svg>
