<svg xmlns="http://www.w3.org/2000/svg" width="66" height="65" viewBox="0 0 66 65">
  <defs>
    <style>
      .cls-1 {
        fill: #fff;
        fill-rule: evenodd;
      }
    </style>
  </defs>
  <path class="cls-1" d="M41.466,5.933h0A27.375,27.375,0,0,0,34.009,4.62l0-.009L30.837,0,21.411,2.087,20.392,7.625V7.633a27.37,27.37,0,0,0-6.211,4.341v0l-5.5-1.015L3.493,19.108l3.19,4.637h0A27.525,27.525,0,0,0,5.37,31.217H5.362l-4.6,3.173,2.084,9.439,5.53,1.024,0.009,0a27.478,27.478,0,0,0,4.333,6.218h0l-1.165,5.407,8.365,5.345,4.555-3.241h0A27.41,27.41,0,0,0,31.926,59.9l0,0.008,3,4.648,9.687-2.145,0.934-5.518,0-.009a27.484,27.484,0,0,0,6.211-4.339h0l5.4,1.166L62.49,45.33l-3.236-4.562h0A27.439,27.439,0,0,0,60.565,33.3l0.009,0,4.642-3-2.142-9.7-5.511-.934H57.557a27.414,27.414,0,0,0-4.335-6.218l0,0,1.014-5.5L46.1,2.74Zm6.686,36.025a18.019,18.019,0,1,1-5.5-24.907A18,18,0,0,1,48.152,41.959Zm-3.316-2.12a14.084,14.084,0,1,1-4.3-19.467A14.066,14.066,0,0,1,44.835,39.839Z"/>
</svg>
