<svg xmlns="http://www.w3.org/2000/svg" width="103" height="104" viewBox="0 0 103 104">
  <defs>
    <style>
      .cls-1 {
        fill: #fff;
        fill-rule: evenodd;
      }
    </style>
  </defs>
  <path class="cls-1" d="M55.2,0.863H47.075L44.947,8.976A43.84,43.84,0,0,0,40,10.036L35,3.278,27.515,6.443l1.22,8.483Q26.9,16.06,25.187,17.365L17.878,12.9l-5.744,5.755,4.384,7.519a43.43,43.43,0,0,0-2.863,4.432l-8.6-1.186L2.078,36.993l7.082,5.19q-0.409,1.775-.674,3.6l-8.5,2.065v8.137l8.493,2.234c0.206,1.435.484,2.847,0.823,4.234L2.237,67.586l3.089,7.528,8.647-1.16a42.978,42.978,0,0,0,2.541,3.873l-4.505,7.4,5.744,5.755,7.428-4.349q1.68,1.283,3.478,2.4L27.27,97.454l7.478,3.182,5.162-6.687a42.7,42.7,0,0,0,5.02,1.081l1.964,8.117h8.123l2.1-8a43.354,43.354,0,0,0,5.129-.972l4.851,6.556,7.482-3.168-1.15-8a43.951,43.951,0,0,0,3.962-2.621l6.825,4.168,5.744-5.753-4-6.872a43.448,43.448,0,0,0,3.293-4.969l7.8,1.074,2.971-7.571-6.337-4.643a44.022,44.022,0,0,0,.83-4.365l7.6-1.846V48.026l-7.594-2a43.2,43.2,0,0,0-.98-5.009l6.322-4.6L96.766,28.9l-7.836,1.05a43.227,43.227,0,0,0-2.963-4.4l4.116-6.763L84.34,13.03l-6.93,4.054a43.206,43.206,0,0,0-3.9-2.583l1.307-7.944-7.475-3.18-5,6.48a42.851,42.851,0,0,0-5.21-.991ZM61.468,52a9.985,9.985,0,1,1-9.985-10A9.994,9.994,0,0,1,61.468,52Z"/>
</svg>
