<svg xmlns="http://www.w3.org/2000/svg" width="18.626" height="22.126" viewBox="0 0 18.626 22.126">
  <path id="copy" d="M11.711,22.126H3.457A3.461,3.461,0,0,1,0,18.669V6.958A3.461,3.461,0,0,1,3.457,3.5h8.254a3.461,3.461,0,0,1,3.457,3.457V18.669A3.461,3.461,0,0,1,11.711,22.126ZM3.457,5.229A1.731,1.731,0,0,0,1.729,6.958V18.669A1.731,1.731,0,0,0,3.457,20.4h8.254a1.731,1.731,0,0,0,1.729-1.729V6.958a1.731,1.731,0,0,0-1.729-1.729ZM18.626,16.508V3.457A3.461,3.461,0,0,0,15.169,0H5.575a.864.864,0,1,0,0,1.729h9.594A1.731,1.731,0,0,1,16.9,3.457V16.508a.864.864,0,1,0,1.729,0Zm0,0" fill="#b4d9ff"/>
</svg>
