<svg id="Layer_1" data-name="Layer 1" xmlns="http://www.w3.org/2000/svg" xmlns:xlink="http://www.w3.org/1999/xlink" width="56.96" height="76.21" viewBox="0 0 56.96 76.21"><defs><style>.cls-1{fill:url(#linear-gradient);}.cls-2{fill:none;}.cls-3{fill:#2e83c5;}.cls-4{clip-path:url(#clip-path);}.cls-5{mask:url(#mask);}.cls-6{fill:url(#linear-gradient-2);}.cls-7{fill:#fff;}</style><linearGradient id="linear-gradient" x1="-76.43" y1="485.19" x2="-75.43" y2="485.19" gradientTransform="matrix(0, -38.99, -38.99, 0, 18943.92, -2923.71)" gradientUnits="userSpaceOnUse"><stop offset="0"/><stop offset="0.08" stop-color="#090909"/><stop offset="0.2" stop-color="#202020"/><stop offset="0.35" stop-color="#464646"/><stop offset="0.53" stop-color="#7a7a7a"/><stop offset="0.55" stop-color="gray"/><stop offset="1" stop-color="#fff"/></linearGradient><clipPath id="clip-path"><path class="cls-2" d="M38.72,0c-11.47.75-27.83,9.09-32,12-.65.45-2.14,1.73-2.14,1.73A15,15,0,0,0,0,25.11a15.23,15.23,0,0,0,1.82,6.52C7.75,42.75,23.72,65.1,29.71,71.06,33,74.28,36.37,76.18,41.28,76c7.11-.3,13.23-5.55,13.88-12.37,1.17-12.26,2.17-36.92,1.66-49.22C56.48,6.37,48.83,0,39.94,0c-.4,0-.81,0-1.22,0"/></clipPath><mask id="mask" x="-35.76" y="-26.86" width="128.68" height="129.91" maskUnits="userSpaceOnUse"><rect class="cls-1" x="-16.7" y="-9.59" width="90.57" height="95.36" transform="translate(-16.56 22.93) rotate(-34.55)"/></mask><linearGradient id="linear-gradient-2" x1="-76.43" y1="485.19" x2="-75.43" y2="485.19" gradientTransform="matrix(0, -38.99, -38.99, 0, 18943.93, -2923.71)" gradientUnits="userSpaceOnUse"><stop offset="0" stop-color="#2e83c5"/><stop offset="0.14" stop-color="#2f8cc7"/><stop offset="0.36" stop-color="#33a3cc"/><stop offset="0.55" stop-color="#37bcd2"/><stop offset="1" stop-color="#37bcd2"/></linearGradient></defs><title>logo</title><g id="logo"><path class="cls-3" d="M1.83,31.85C7.75,43,23.72,65.31,29.71,71.27,33,74.5,36.37,76.4,41.28,76.19c7.11-.3,13.23-5.55,13.88-12.36,1.17-12.26,2.17-36.92,1.66-49.22-.36-8.39-8.7-15-18.1-14.35-11.47.75-27.83,9.09-32,12C6,12.69,4.53,14,4.53,14A15,15,0,0,0,0,25.33a15.27,15.27,0,0,0,1.82,6.52"/><g class="cls-4"><g class="cls-5"><rect class="cls-6" x="-16.7" y="-9.59" width="90.57" height="95.36" transform="translate(-16.56 22.93) rotate(-34.55)"/></g></g><path class="cls-7" d="M48.62,41.89a.6.6,0,0,0-.51-.29H42.44a.62.62,0,0,0-.56.36l-3.3,7.32L35.29,42a.62.62,0,0,0-.56-.36H29.09a.61.61,0,0,0-.52.29.6.6,0,0,0,0,.58l9.39,19.78a.61.61,0,0,0,.55.35h.21a.59.59,0,0,0,.55-.35l9.42-19.78a.58.58,0,0,0,0-.58"/><path class="cls-7" d="M34.94,22.9a5.92,5.92,0,0,0-1.41.19v0a4.68,4.68,0,0,0-1-9.25H21.89a.93.93,0,0,0-.93.94V34.08a.73.73,0,0,0,.73.73H34.94a6,6,0,1,0,0-11.91"/></g></svg>