<svg id="Layer_1" data-name="Layer 1" xmlns="http://www.w3.org/2000/svg" xmlns:xlink="http://www.w3.org/1999/xlink" width="52.28" height="48.38" viewBox="0 0 52.28 48.38"><defs><style>.cls-1{fill:url(#linear-gradient);}.cls-2{fill:url(#linear-gradient-2);}.cls-3{fill:none;}.cls-4{clip-path:url(#clip-path);}.cls-5{mask:url(#mask);}.cls-6{fill:url(#linear-gradient-3);}.cls-7{fill:#2e83c5;}.cls-8{clip-path:url(#clip-path-2);}.cls-9{mask:url(#mask-2);}.cls-10{fill:url(#linear-gradient-4);}</style><linearGradient id="linear-gradient" x1="-234.19" y1="480.74" x2="-233.19" y2="480.74" gradientTransform="matrix(0, -41.9, -41.9, 0, 20243.83, -9745.38)" gradientUnits="userSpaceOnUse"><stop offset="0"/><stop offset="0.08" stop-color="#090909"/><stop offset="0.2" stop-color="#202020"/><stop offset="0.35" stop-color="#464646"/><stop offset="0.53" stop-color="#7a7a7a"/><stop offset="0.55" stop-color="gray"/><stop offset="1" stop-color="#fff"/></linearGradient><linearGradient id="linear-gradient-2" x1="-239.17" y1="480.04" x2="-238.17" y2="480.04" gradientTransform="matrix(-40.38, 0, 0, 40.38, -9602.7, -19360.18)" xlink:href="#linear-gradient"/><clipPath id="clip-path"><path class="cls-3" d="M107.6,3.25h0L86,8.09h0l-.33.08,0,0A11.75,11.75,0,0,0,81.58,10a12.17,12.17,0,0,0-4.33,14.13l0,.07.21.47c.08.19.16.38.25.57l15.16,34.2a8.94,8.94,0,0,0,.46,1.06l.22.48.07,0c.16.29.29.58.48.86a10.5,10.5,0,0,0,14.6,2.63L126,52.78a1.29,1.29,0,0,1,.16-.09l.1-.09.61-.42,0-.16a8.53,8.53,0,0,0,2.48-8.66l-9.18-32.95-.07,0a10.39,10.39,0,0,0-10-7.41,10.3,10.3,0,0,0-2.47.29"/></clipPath><mask id="mask" x="44.66" y="-23.03" width="116.34" height="116.86" maskUnits="userSpaceOnUse"><rect class="cls-1" x="61.63" y="-6.94" width="82.39" height="84.68" transform="translate(-1.3 66.76) rotate(-35.76)"/></mask><linearGradient id="linear-gradient-3" x1="-234.19" y1="480.74" x2="-233.19" y2="480.74" gradientTransform="matrix(0, -41.9, -41.9, 0, 20243.83, -9745.38)" gradientUnits="userSpaceOnUse"><stop offset="0" stop-color="#2e83c5"/><stop offset="0.14" stop-color="#2f8cc7"/><stop offset="0.36" stop-color="#33a3cc"/><stop offset="0.55" stop-color="#37bcd2"/><stop offset="1" stop-color="#37bcd2"/></linearGradient><clipPath id="clip-path-2"><path class="cls-3" d="M23.94.94a10.85,10.85,0,0,0-3.87,3C14.21,10.79,3.53,27.41,1.14,33-.15,36-.51,38.81.93,42c2.09,4.67,7.23,7.37,12,6A347.89,347.89,0,0,0,46.21,36c5.51-2.47,7.69-9.79,4.78-15.9C47.44,12.67,37.51,4,34.45,1.91c-.47-.32-1.72-1-1.72-1A10.91,10.91,0,0,0,28.32,0a10.66,10.66,0,0,0-4.38.94"/></clipPath><mask id="mask-2" x="-25.12" y="-27.1" width="103.62" height="103.6" maskUnits="userSpaceOnUse"><rect class="cls-2" x="-10.05" y="-11.89" width="73.49" height="73.18" transform="translate(-9.67 24.51) rotate(-42.48)"/></mask><linearGradient id="linear-gradient-4" x1="-239.17" y1="480.04" x2="-238.17" y2="480.04" gradientTransform="matrix(-40.38, 0, 0, 40.38, -9602.7, -19360.18)" xlink:href="#linear-gradient-3"/></defs><title>path-2</title><g id="path-3"><g class="cls-4"><g class="cls-5"><rect class="cls-6" x="61.63" y="-6.94" width="82.39" height="84.68" transform="translate(-1.3 66.76) rotate(-35.76)"/></g></g></g><g id="path-2"><path class="cls-7" d="M20.08,3.89C14.22,10.79,3.54,27.41,1.15,33-.14,36-.51,38.81.94,42c2.09,4.67,7.22,7.37,12,6A344.23,344.23,0,0,0,46.21,36c5.51-2.47,7.69-9.79,4.78-15.9C47.44,12.67,37.52,4,34.46,1.91c-.47-.32-1.73-1-1.73-1a10.71,10.71,0,0,0-12.65,3"/><g class="cls-8"><g class="cls-9"><rect class="cls-10" x="-10.05" y="-11.89" width="73.49" height="73.18" transform="translate(-9.67 24.51) rotate(-42.48)"/></g></g></g></svg>