<svg id="Layer_1" data-name="Layer 1" xmlns="http://www.w3.org/2000/svg" xmlns:xlink="http://www.w3.org/1999/xlink" width="49.42" height="64.02" viewBox="0 0 49.42 64.02"><defs><style>.cls-1{fill:url(#linear-gradient);}.cls-2{fill:url(#linear-gradient-2);}.cls-3{fill:url(#linear-gradient-3);}.cls-4{fill:none;}.cls-5{clip-path:url(#clip-path);}.cls-6{mask:url(#mask);}.cls-7{fill:url(#linear-gradient-4);}.cls-8{fill:#2e83c5;}.cls-9{clip-path:url(#clip-path-2);}.cls-10{mask:url(#mask-2);}.cls-11{fill:url(#linear-gradient-5);}.cls-12{clip-path:url(#clip-path-3);}.cls-13{mask:url(#mask-3);}.cls-14{fill:url(#linear-gradient-6);}</style><linearGradient id="linear-gradient" x1="-166.22" y1="470.57" x2="-165.22" y2="470.57" gradientTransform="matrix(-40.38, 0, 0, 40.38, -6584.17, -18987.38)" gradientUnits="userSpaceOnUse"><stop offset="0"/><stop offset="0.08" stop-color="#090909"/><stop offset="0.2" stop-color="#202020"/><stop offset="0.35" stop-color="#464646"/><stop offset="0.53" stop-color="#7a7a7a"/><stop offset="0.55" stop-color="gray"/><stop offset="1" stop-color="#fff"/></linearGradient><linearGradient id="linear-gradient-2" x1="-167.02" y1="473.12" x2="-166.02" y2="473.12" gradientTransform="matrix(0, 43.47, 43.47, 0, -20541.02, 7259.29)" xlink:href="#linear-gradient"/><linearGradient id="linear-gradient-3" x1="-159.73" y1="475.6" x2="-158.73" y2="475.6" gradientTransform="matrix(0, -38.99, -38.99, 0, 18486.61, -6180.92)" xlink:href="#linear-gradient"/><clipPath id="clip-path"><path class="cls-4" d="M96.89-8.53A11,11,0,0,0,93-5.58C87.16,1.33,76.47,17.94,74.09,23.53c-1.3,3-1.66,5.81-.21,9,2.08,4.67,7.22,7.36,12,6a344.23,344.23,0,0,0,33.32-12c5.51-2.46,7.69-9.79,4.78-15.9C120.38,3.2,110.46-5.51,107.4-7.56c-.47-.31-1.73-1-1.73-1a10.91,10.91,0,0,0-4.41-.94,10.62,10.62,0,0,0-4.37.94"/></clipPath><mask id="mask" x="47.83" y="-36.57" width="103.62" height="103.6" maskUnits="userSpaceOnUse"><rect class="cls-1" x="62.89" y="-21.35" width="73.49" height="73.18" transform="translate(15.87 71.29) rotate(-42.48)"/></mask><linearGradient id="linear-gradient-4" x1="-166.22" y1="470.57" x2="-165.22" y2="470.57" gradientTransform="matrix(-40.38, 0, 0, 40.38, -6584.17, -18987.38)" gradientUnits="userSpaceOnUse"><stop offset="0" stop-color="#2e83c5"/><stop offset="0.14" stop-color="#2f8cc7"/><stop offset="0.36" stop-color="#33a3cc"/><stop offset="0.55" stop-color="#37bcd2"/><stop offset="1" stop-color="#37bcd2"/></linearGradient><clipPath id="clip-path-2"><path class="cls-4" d="M.12,9.34a8.89,8.89,0,0,0-.06,1L0,10.42,0,11a9.71,9.71,0,0,0,.05,1.21L1.81,51.33c0,.22,0,.43,0,.65l0,.54.06,0a13,13,0,0,0,10.81,11.3,13.24,13.24,0,0,0,4.75-.16l0,0,.35-.08h0l22.81-5.37,0,0a11,11,0,0,0,8.59-9.06,10.75,10.75,0,0,0,0-3.4l.05-.06L42.48,10.51A9.06,9.06,0,0,0,36,3.5l-.12-.13-.79-.11-.13,0h-.2L12.77.14A10.21,10.21,0,0,0,11,0,11.06,11.06,0,0,0,.12,9.34"/></clipPath><mask id="mask-2" x="-1.08" y="-0.83" width="51.65" height="65.79" maskUnits="userSpaceOnUse"><rect class="cls-2" x="-0.54" y="-0.41" width="50.56" height="64.95" transform="translate(-0.54 0.42) rotate(-0.96)"/></mask><linearGradient id="linear-gradient-5" x1="-167.02" y1="473.12" x2="-166.02" y2="473.12" gradientTransform="matrix(0, 43.47, 43.47, 0, -20541.02, 7259.29)" xlink:href="#linear-gradient-4"/><clipPath id="clip-path-3"><path class="cls-4" d="M-44.58-9.55c-11.47.75-27.83,9.09-32,12-.65.44-2.14,1.73-2.14,1.73a14.92,14.92,0,0,0-4.52,11.35A15.27,15.27,0,0,0-81.47,22c5.91,11.12,21.89,33.46,27.88,39.42,3.24,3.22,6.66,5.13,11.57,4.92,7.11-.3,13.23-5.55,13.88-12.37C-27,41.76-26,17.1-26.49,4.8c-.34-8-8-14.39-16.87-14.39-.41,0-.81,0-1.22,0"/></clipPath><mask id="mask-3" x="-119.06" y="-36.46" width="128.68" height="129.91" maskUnits="userSpaceOnUse"><rect class="cls-3" x="-100.01" y="-19.18" width="90.57" height="95.36" transform="translate(-25.82 -26.01) rotate(-34.55)"/></mask><linearGradient id="linear-gradient-6" x1="-159.73" y1="475.6" x2="-158.73" y2="475.6" gradientTransform="matrix(0, -38.99, -38.99, 0, 18486.62, -6180.92)" xlink:href="#linear-gradient-4"/></defs><title>path-1</title><g id="path-2"><g class="cls-5"><g class="cls-6"><rect class="cls-7" x="62.89" y="-21.35" width="73.49" height="73.18" transform="translate(15.87 71.29) rotate(-42.48)"/></g></g></g><g id="path-1"><path class="cls-8" d="M.06,10.37,0,10.42,0,11c0,.41,0,.81.05,1.21L1.81,51.33l0,.65,0,.54.06,0a12.94,12.94,0,0,0,10.8,11.3,12.8,12.8,0,0,0,4.75-.16l0,0,.35-.08h0L40.7,58.28l0,0a10.85,10.85,0,0,0,8.55-12.46l0-.06L42.48,10.51A9.06,9.06,0,0,0,36,3.5l-.12-.13-.78-.1-.14,0h-.2L12.78.14A11.06,11.06,0,0,0,.12,9.34c0,.35,0,.69-.06,1"/><g class="cls-9"><g class="cls-10"><rect class="cls-11" x="-0.54" y="-0.41" width="50.56" height="64.95" transform="translate(-0.54 0.42) rotate(-0.96)"/></g></g></g><g id="logo"><g class="cls-12"><g class="cls-13"><rect class="cls-14" x="-100.01" y="-19.18" width="90.57" height="95.36" transform="translate(-25.82 -26.01) rotate(-34.55)"/></g></g></g></svg>