<svg id="Layer_1" data-name="Layer 1" xmlns="http://www.w3.org/2000/svg" xmlns:xlink="http://www.w3.org/1999/xlink" width="53.17" height="63.45" viewBox="0 0 53.17 63.45"><defs><style>.cls-1{fill:url(#linear-gradient);}.cls-2{fill:url(#linear-gradient-2);}.cls-3{fill:none;}.cls-4{fill:#2e83c5;}.cls-5{clip-path:url(#clip-path);}.cls-6{mask:url(#mask);}.cls-7{fill:url(#linear-gradient-3);}.cls-8{clip-path:url(#clip-path-2);}.cls-9{mask:url(#mask-2);}.cls-10{fill:url(#linear-gradient-4);}</style><linearGradient id="linear-gradient" x1="-310.71" y1="477.78" x2="-309.71" y2="477.78" gradientTransform="matrix(0, -41.9, -41.9, 0, 20043.45, -12953.84)" gradientUnits="userSpaceOnUse"><stop offset="0"/><stop offset="0.08" stop-color="#090909"/><stop offset="0.2" stop-color="#202020"/><stop offset="0.35" stop-color="#464646"/><stop offset="0.53" stop-color="#7a7a7a"/><stop offset="0.55" stop-color="gray"/><stop offset="1" stop-color="#fff"/></linearGradient><linearGradient id="linear-gradient-2" x1="-315.68" y1="477.08" x2="-314.68" y2="477.08" gradientTransform="matrix(-40.38, 0, 0, 40.38, -12768.84, -19243.74)" xlink:href="#linear-gradient"/><clipPath id="clip-path"><path class="cls-3" d="M31.09.3l0,0L9.51,5.14h0l-.33.07,0,0A11.94,11.94,0,0,0,5.07,7.08,12.18,12.18,0,0,0,.74,21.22l0,.06.21.47c.08.19.16.38.25.57L16.32,56.53a10.87,10.87,0,0,0,.47,1l.22.49h.07a9,9,0,0,0,.48.86,10.49,10.49,0,0,0,14.6,2.63L49.45,49.82a1.29,1.29,0,0,0,.16-.09l.1-.09.61-.41,0-.16a8.57,8.57,0,0,0,2.48-8.67L43.67,7.45l-.07,0a10.73,10.73,0,0,0-1.4-2.92A10.58,10.58,0,0,0,33.56,0a10.31,10.31,0,0,0-2.47.3"/></clipPath><mask id="mask" x="-31.85" y="-25.99" width="116.34" height="116.86" maskUnits="userSpaceOnUse"><rect class="cls-1" x="-14.88" y="-9.9" width="82.39" height="84.68" transform="translate(-14 21.49) rotate(-35.76)"/></mask><linearGradient id="linear-gradient-3" x1="-310.71" y1="477.78" x2="-309.71" y2="477.78" gradientTransform="matrix(0, -41.9, -41.9, 0, 20043.45, -12953.84)" gradientUnits="userSpaceOnUse"><stop offset="0" stop-color="#2e83c5"/><stop offset="0.14" stop-color="#2f8cc7"/><stop offset="0.36" stop-color="#33a3cc"/><stop offset="0.55" stop-color="#37bcd2"/><stop offset="1" stop-color="#37bcd2"/></linearGradient><clipPath id="clip-path-2"><path class="cls-3" d="M-52.57-2a11,11,0,0,0-3.87,3C-62.3,7.84-73,24.45-75.37,30c-1.29,3-1.65,5.81-.21,9,2.09,4.67,7.23,7.36,12,6a345.19,345.19,0,0,0,33.32-12c5.51-2.46,7.68-9.79,4.78-15.9C-29.08,9.71-39,1-42.06-1c-.47-.31-1.72-1-1.72-1A10.91,10.91,0,0,0-48.19-3,10.66,10.66,0,0,0-52.57-2"/></clipPath><mask id="mask-2" x="-101.63" y="-30.06" width="103.62" height="103.6" maskUnits="userSpaceOnUse"><rect class="cls-2" x="-86.56" y="-14.85" width="73.49" height="73.18" transform="translate(-27.76 -27.94) rotate(-42.48)"/></mask><linearGradient id="linear-gradient-4" x1="-315.68" y1="477.08" x2="-314.68" y2="477.08" gradientTransform="matrix(-40.38, 0, 0, 40.38, -12768.84, -19243.74)" xlink:href="#linear-gradient-3"/></defs><title>path-3</title><g id="path-3"><path class="cls-4" d="M17.08,58.09l-.07,0-.21-.49a8.88,8.88,0,0,1-.47-1L1.18,22.32c-.09-.19-.18-.38-.26-.57l-.2-.47,0-.06A12.19,12.19,0,0,1,5.07,7.08,11.9,11.9,0,0,1,9.16,5.25l0,0,.33-.07h0L31.07.28l0,0A10.55,10.55,0,0,1,42.2,4.49a10.69,10.69,0,0,1,1.41,2.93l.06,0L52.85,40.4a8.53,8.53,0,0,1-2.47,8.66l-.05.17-.62.41-.09.09-.17.09L32.16,61.57a10.48,10.48,0,0,1-14.59-2.63c-.2-.27-.32-.57-.49-.85"/><g class="cls-5"><g class="cls-6"><rect class="cls-7" x="-14.88" y="-9.9" width="82.39" height="84.68" transform="translate(-14 21.49) rotate(-35.76)"/></g></g></g><g id="path-2"><g class="cls-8"><g class="cls-9"><rect class="cls-10" x="-86.56" y="-14.85" width="73.49" height="73.18" transform="translate(-27.76 -27.94) rotate(-42.48)"/></g></g></g></svg>