<svg id="Layer_1" data-name="Layer 1" xmlns="http://www.w3.org/2000/svg" xmlns:xlink="http://www.w3.org/1999/xlink" width="47.53" height="53.03" viewBox="0 0 47.53 53.03"><defs><style>.cls-1{fill:url(#linear-gradient);}.cls-2{fill:url(#linear-gradient-2);}.cls-3{fill:none;}.cls-4{fill:#2e83c5;}.cls-5{clip-path:url(#clip-path);}.cls-6{mask:url(#mask);}.cls-7{fill:url(#linear-gradient-3);}.cls-8{clip-path:url(#clip-path-2);}.cls-9{mask:url(#mask-2);}.cls-10{fill:url(#linear-gradient-4);}</style><linearGradient id="linear-gradient" x1="-389.36" y1="459.98" x2="-388.36" y2="459.98" gradientTransform="matrix(0, -39.55, -39.55, 0, 18215.44, -15344.66)" gradientUnits="userSpaceOnUse"><stop offset="0"/><stop offset="0.08" stop-color="#090909"/><stop offset="0.2" stop-color="#202020"/><stop offset="0.35" stop-color="#464646"/><stop offset="0.53" stop-color="#7a7a7a"/><stop offset="0.55" stop-color="gray"/><stop offset="1" stop-color="#fff"/></linearGradient><linearGradient id="linear-gradient-2" x1="-390.49" y1="461.55" x2="-389.49" y2="461.55" gradientTransform="matrix(0, -41.9, -41.9, 0, 19283.65, -16312.56)" xlink:href="#linear-gradient"/><clipPath id="clip-path"><path class="cls-3" d="M6.78,1C2,2.86-.91,7.86.25,12.65A347.15,347.15,0,0,0,10.69,46.49c2.21,5.61,9.43,8.13,15.67,5.5,7.62-3.2,16.78-12.71,19-15.68.34-.45,1-1.68,1-1.68a10.73,10.73,0,0,0,.41-8.77,11,11,0,0,0-2.77-4C37.38,15.69,21.27,4.25,15.8,1.61A12,12,0,0,0,10.53.23,10.3,10.3,0,0,0,6.78,1"/></clipPath><mask id="mask" x="-6.85" y="-5.1" width="60.74" height="65.06" maskUnits="userSpaceOnUse"><rect class="cls-1" x="-3.75" y="-2.29" width="54.53" height="59.42" transform="translate(-2.87 2.75) rotate(-6.31)"/></mask><linearGradient id="linear-gradient-3" x1="-389.36" y1="459.98" x2="-388.36" y2="459.98" gradientTransform="matrix(0, -39.55, -39.55, 0, 18215.44, -15344.66)" gradientUnits="userSpaceOnUse"><stop offset="0" stop-color="#2e83c5"/><stop offset="0.14" stop-color="#2f8cc7"/><stop offset="0.36" stop-color="#33a3cc"/><stop offset="0.55" stop-color="#37bcd2"/><stop offset="1" stop-color="#37bcd2"/></linearGradient><clipPath id="clip-path-2"><path class="cls-3" d="M-48.69-15.94h0L-70.27-11.1h0l-.33.07,0,0a11.94,11.94,0,0,0-4.08,1.83A12.18,12.18,0,0,0-79,5l0,.06.21.47c.08.19.16.38.25.57l15.15,34.2A11,11,0,0,0-63,41.35l.22.49h.07c.16.29.29.58.48.86a10.49,10.49,0,0,0,14.6,2.63l17.29-11.75s.11-.05.16-.09l.1-.09.61-.41.05-.17a8.55,8.55,0,0,0,2.48-8.66L-36.11-8.78l-.07,0a10.73,10.73,0,0,0-1.4-2.92,10.58,10.58,0,0,0-8.64-4.49,10.83,10.83,0,0,0-2.47.29"/></clipPath><mask id="mask-2" x="-111.63" y="-42.22" width="116.34" height="116.86" maskUnits="userSpaceOnUse"><rect class="cls-2" x="-94.66" y="-26.13" width="82.39" height="84.68" transform="translate(-19.55 -28.19) rotate(-35.76)"/></mask><linearGradient id="linear-gradient-4" x1="-390.49" y1="461.55" x2="-389.49" y2="461.55" gradientTransform="matrix(0, -41.9, -41.9, 0, 19283.65, -16312.56)" xlink:href="#linear-gradient-3"/></defs><title>path-4</title><g id="path-4"><path class="cls-4" d="M44.1,22.22c-6.52-6.28-22.41-18-27.84-20.75-2.93-1.48-5.69-2-9-.79C2.46,2.47-.56,7.42.52,12.23a346,346,0,0,0,9.82,34c2.11,5.66,9.28,8.3,15.57,5.79,7.67-3.07,17-12.41,19.24-15.34.35-.45,1.08-1.66,1.08-1.66a10.75,10.75,0,0,0,.57-8.76,11,11,0,0,0-2.7-4.06"/><g class="cls-5"><g class="cls-6"><rect class="cls-7" x="-3.75" y="-2.29" width="54.53" height="59.42" transform="translate(-2.87 2.75) rotate(-6.31)"/></g></g></g><g id="path-3"><g class="cls-8"><g class="cls-9"><rect class="cls-10" x="-94.66" y="-26.13" width="82.39" height="84.68" transform="translate(-19.55 -28.19) rotate(-35.76)"/></g></g></g></svg>