<svg id="Layer_1" data-name="Layer 1" xmlns="http://www.w3.org/2000/svg" xmlns:xlink="http://www.w3.org/1999/xlink" width="68.34" height="52.86" viewBox="0 0 68.34 52.86"><defs><style>.cls-1{fill:url(#linear-gradient);}.cls-2{fill:none;}.cls-3{fill:#2e83c5;}.cls-4{clip-path:url(#clip-path);}.cls-5{mask:url(#mask);}.cls-6{fill:url(#linear-gradient-2);}</style><linearGradient id="linear-gradient" x1="-483.33" y1="473.45" x2="-482.33" y2="473.45" gradientTransform="matrix(58.88, 0, 0, -58.88, 28457.96, 27904.6)" gradientUnits="userSpaceOnUse"><stop offset="0"/><stop offset="0.08" stop-color="#090909"/><stop offset="0.2" stop-color="#202020"/><stop offset="0.35" stop-color="#464646"/><stop offset="0.53" stop-color="#7a7a7a"/><stop offset="0.55" stop-color="gray"/><stop offset="1" stop-color="#fff"/></linearGradient><clipPath id="clip-path"><path class="cls-2" d="M.4,13.28c-1.68,10.3,2.36,26.47,4.07,30.8.26.66,1.09,2.24,1.09,2.24a13.56,13.56,0,0,0,9.12,6.32,13.77,13.77,0,0,0,6.14-.28c11-3,34.07-12.53,40.57-16.61,3.51-2.21,5.89-4.85,6.71-9.24,1.19-6.34-2.21-12.84-8.11-14.8C49.39,8.18,27.78,2.25,16.79.2A12.45,12.45,0,0,0,14.61,0C7.89,0,1.64,5.66.4,13.28"/></clipPath><mask id="mask" x="-14.87" y="-18.09" width="97.76" height="89.22" maskUnits="userSpaceOnUse"><rect class="cls-1" x="-7.06" y="-8.43" width="82.13" height="69.89" transform="translate(-5.83 10) rotate(-15.42)"/></mask><linearGradient id="linear-gradient-2" x1="-483.33" y1="473.45" x2="-482.33" y2="473.45" gradientTransform="matrix(58.88, 0, 0, -58.88, 28457.96, 27904.6)" gradientUnits="userSpaceOnUse"><stop offset="0" stop-color="#2e83c5"/><stop offset="0.14" stop-color="#2f8cc7"/><stop offset="0.36" stop-color="#33a3cc"/><stop offset="0.55" stop-color="#37bcd2"/><stop offset="1" stop-color="#37bcd2"/></linearGradient></defs><title>path-5</title><g id="path-5"><path class="cls-3" d="M20.83,52.36c11-3,34.07-12.53,40.56-16.61,3.51-2.21,5.89-4.85,6.71-9.24,1.19-6.34-2.2-12.84-8.1-14.8C49.39,8.18,27.78,2.25,16.79.2,9.3-1.2,1.78,4.84.4,13.28c-1.67,10.3,2.37,26.47,4.07,30.8.26.67,1.1,2.25,1.1,2.25a13.58,13.58,0,0,0,9.11,6.31,13.8,13.8,0,0,0,6.15-.28"/><g class="cls-4"><g class="cls-5"><rect class="cls-6" x="-7.06" y="-8.43" width="82.13" height="69.89" transform="translate(-5.83 10) rotate(-15.42)"/></g></g></g></svg>