<?xml version="1.0" encoding="utf-8"?>
<!-- Generator: Adobe Illustrator 24.1.2, SVG Export Plug-In . SVG Version: 6.00 Build 0)  -->
<svg version="1.1" id="baccarat-clr" xmlns="http://www.w3.org/2000/svg" xmlns:xlink="http://www.w3.org/1999/xlink" x="0px"
	 y="0px" width="20px" height="20px" viewBox="0 0 20 20" style="enable-background:new 0 0 20 20;" xml:space="preserve">
<style type="text/css">
	.st0{fill:url(#symbol_1_);}
</style>
<g id="baccarat">
	
		<linearGradient id="symbol_1_" gradientUnits="userSpaceOnUse" x1="-905.5897" y1="526.5426" x2="-905.662" y2="527.0704" gradientTransform="matrix(22.09 0 0 -22.661 20015.2695 11949.3398)">
		<stop  offset="0" style="stop-color:#216947"/>
		<stop  offset="0.997" style="stop-color:#30AA76"/>
	</linearGradient>
	<path id="symbol" class="st0" d="M19.7,11.5c0,2.5-2,4.5-4.5,4.5c-1,0-1.9-0.3-2.7-0.9c-0.2-0.2-0.4-0.3-0.6-0.5
		c-0.4-0.4-0.7-0.9-0.9-1.5l0,0l0,0l0,0l0,0l0,0c0,0.8,0.1,1.7,0.2,2.5c0.2,1.2,0.6,2.3,1.3,3.2c0.2,0.3,0.5,0.6,0.8,0.9l0,0
		l0.1,0.1c0.2,0.1,0.3,0.2,0.5,0.3l-8.2,0c0.2-0.1,0.4-0.2,0.6-0.4h0c0.3-0.3,0.6-0.5,0.8-0.9c0.7-0.9,1.1-2,1.3-3.1l0-0.1
		c0.1-0.8,0.2-1.7,0.2-2.5l0,0l0,0l0,0c-0.2,0.5-0.5,1-0.9,1.5c-0.2,0.2-0.4,0.4-0.6,0.5c-2,1.5-4.8,1.1-6.3-0.9
		C0,12.5,0,10.3,1.2,8.8C2,7.7,10,0,10,0s8,7.7,8.8,8.8C19.4,9.6,19.8,10.5,19.7,11.5z"/>
</g>
</svg>
