<?xml version="1.0" encoding="utf-8"?>
<!-- Generator: Adobe Illustrator 24.1.2, SVG Export Plug-In . SVG Version: 6.00 Build 0)  -->
<svg version="1.1" id="blackjack-clr" xmlns="http://www.w3.org/2000/svg" xmlns:xlink="http://www.w3.org/1999/xlink" x="0px"
	 y="0px" width="26.8px" height="25.4px" viewBox="0 0 26.8 25.4" style="enable-background:new 0 0 26.8 25.4;"
	 xml:space="preserve">
<style type="text/css">
	.st0{fill:#C8C9CA;}
	.st1{fill:#D90032;}
	.st2{fill:#EDEEEF;}
	.st3{fill:#080F22;}
</style>
<g id="blackjack">
	<path id="card_1_" class="st0" d="M10.3,17.5l3-17c0.1-0.3,0.4-0.5,0.7-0.5l12.2,2.2c0.3,0.1,0.5,0.4,0.5,0.7l0,0l-3,17
		c-0.1,0.3-0.4,0.5-0.7,0.5c0,0,0,0,0,0l-12.2-2.2C10.4,18.2,10.2,17.9,10.3,17.5C10.3,17.5,10.3,17.5,10.3,17.5z"/>
	<path id="symbol" class="st1" d="M20.2,3.9l-1.3-0.2L11.8,16l1.7,0.3l1.6-2.9l5.4,0.9l0.6,3.2l1.7,0.3L20.2,3.9z M20.3,12.8
		l-4.4-0.8l3.2-5.8L20.3,12.8z"/>
	<path id="symbol_1_" class="st1" d="M15.8,1.8C15.3,2.3,14.7,2.7,14,3c0.4,0.6,0.8,1.2,1,1.9c0.5-0.5,1.1-0.9,1.8-1.2
		C16.4,3.1,16,2.5,15.8,1.8z"/>
	<path id="card" class="st2" d="M0.6,7.3l12.1-2.7C13,4.5,13.3,4.7,13.4,5c0,0,0,0,0,0l3.7,16.8c0.1,0.3-0.1,0.6-0.5,0.7l0,0
		L4.6,25.2c-0.3,0.1-0.6-0.1-0.7-0.5c0,0,0,0,0,0L0.1,8C0.1,7.6,0.3,7.3,0.6,7.3C0.6,7.3,0.6,7.3,0.6,7.3z"/>
	<path id="symbol_2_" class="st3" d="M8.5,7.9l2,9.1c0.2,0.8,0.2,1.6-0.2,2.3c-0.4,0.6-1,1-1.7,1.1c-0.3,0.1-0.6,0.1-0.9,0.1
		c-0.2,0-0.4-0.1-0.6-0.1c-0.2-0.1-0.4-0.2-0.7-0.3L6.3,20l-0.9,1.3l0.3,0.2c1,0.6,2.2,0.8,3.3,0.5c0.2,0,0.3-0.1,0.5-0.1
		c0.6-0.2,1.1-0.5,1.6-0.9c0.5-0.5,0.9-1.1,1.1-1.8c0.2-0.8,0.2-1.5,0-2.3l-2.1-9.3L8.5,7.9z"/>
	<path id="symbol_3_" class="st3" d="M4.6,10.7c0.4-0.1,0.7-0.6,0.6-1C5.1,9.3,4.8,9.1,4.5,9C4.3,9,4,9.1,3.8,9.2C4,9.1,4,8.8,4,8.6
		C4,8.2,3.6,7.9,3.2,8c0,0-0.1,0-0.1,0C2.7,8.1,2.5,8.5,2.5,8.9c0,0,0,0.1,0,0.1C2.7,9.2,2.8,9.3,3,9.4c-0.2-0.1-0.5,0-0.7,0.1
		c-0.4,0.2-0.5,0.8-0.2,1.1C2.3,11,2.6,11.1,3,11.1c0.4-0.1,0.6-0.4,0.7-0.8c0.1,0.3,0.1,0.6,0,0.9c-0.1,0.2-0.4,0.4-0.6,0.4v0.1
		l1.9-0.4l0-0.1c-0.3,0.1-0.5,0.1-0.7-0.1c-0.2-0.2-0.4-0.5-0.4-0.8C3.9,10.6,4.2,10.8,4.6,10.7z"/>
</g>
</svg>
