<svg xmlns="http://www.w3.org/2000/svg" xmlns:xlink="http://www.w3.org/1999/xlink" width="20.705" height="24" viewBox="0 0 20.705 24">
  <defs>
    <linearGradient id="linear-gradient" x1="0.5" x2="0.5" y2="1" gradientUnits="objectBoundingBox">
      <stop offset="0" stop-color="#ffd500"/>
      <stop offset="1" stop-color="#f70"/>
    </linearGradient>
  </defs>
  <g id="bonuses1" transform="translate(-54.295 -450)">
    <rect id="Rectangle_24813" data-name="Rectangle 24813" width="14" height="14" rx="2" transform="translate(61 460)" fill="url(#linear-gradient)"/>
    <g id="surface1" transform="translate(54.295 450)">
      <path id="Path_65521" data-name="Path 65521" d="M102.062,2.581a2.551,2.551,0,0,1-1.179,2.142L98.39,6.336a.669.669,0,0,1-.925-.168.615.615,0,0,1,.174-.89l2.493-1.626a1.309,1.309,0,0,0,.59-1.071,1.32,1.32,0,0,0-1.34-1.29,1.34,1.34,0,0,0-1.3.955L97.036,5.975a.668.668,0,0,1-.643.478.809.809,0,0,1-.174-.026.24.24,0,0,0-.375,0,.809.809,0,0,1-.174.026.668.668,0,0,1-.643-.478L93.981,2.245a1.341,1.341,0,0,0-1.3-.955,1.32,1.32,0,0,0-1.34,1.29,1.309,1.309,0,0,0,.59,1.071l2.493,1.626a.615.615,0,0,1,.174.89.669.669,0,0,1-.925.168L91.179,4.723A2.551,2.551,0,0,1,90,2.581,2.64,2.64,0,0,1,92.681,0a2.668,2.668,0,0,1,2.587,1.91l.764,2.71L96.8,1.91A2.668,2.668,0,0,1,99.382,0,2.64,2.64,0,0,1,102.062,2.581Zm0,0" transform="translate(-86.389)" fill="#fff"/>
      <path id="Path_65522" data-name="Path 65522" d="M230.807,2.581a2.576,2.576,0,0,1-1.136,2.142l-2.4,1.613a.641.641,0,0,1-.723-1.058l2.4-1.626a1.322,1.322,0,0,0,.568-1.071,1.294,1.294,0,0,0-2.542-.336l-1.007,3.729a.647.647,0,0,1-.619.478.752.752,0,0,1-.168-.026.477.477,0,0,1-.181-.09V4.62l.736-2.71a2.58,2.58,0,0,1,5.072.671Zm0,0" transform="translate(-215.321)" fill="#fff"/>
      <path id="Path_65523" data-name="Path 65523" d="M46.776,240v7.611a1.76,1.76,0,0,1-1.936,1.509h-12.9A1.76,1.76,0,0,1,30,247.611V240Zm0,0" transform="translate(-28.71 -227.095)" fill="rgba(255,255,255,0.46)"/>
      <path id="Path_65525" data-name="Path 65525" d="M19.357,121.936V127.1a.639.639,0,0,1-.645.645H.645A.639.639,0,0,1,0,127.1v-5.162A1.933,1.933,0,0,1,1.936,120H8.388l1.29,1.29,1.29-1.29h6.452A1.933,1.933,0,0,1,19.357,121.936Zm0,0" transform="translate(0 -114.838)" fill="rgba(255,255,255,0.46)"/>
      <path id="Path_65527" data-name="Path 65527" d="M105.189,124.973a.645.645,0,0,1,0-.912l3.871-3.871a.645.645,0,0,1,.912.912l-3.871,3.871A.645.645,0,0,1,105.189,124.973Zm0,0" transform="translate(-100.483 -114.838)" fill="#fff"/>
      <path id="Path_65528" data-name="Path 65528" d="M229.061,124.973l-3.871-3.871a.645.645,0,1,1,.912-.912l3.872,3.871a.645.645,0,1,1-.912.912Zm0,0" transform="translate(-215.321 -114.838)" fill="#fff"/>
      <path id="Path_65529" data-name="Path 65529" d="M195,120h2.581v16.862H195Zm0,0" transform="translate(-186.612 -114.838)" fill="#fff"/>
    </g>
  </g>
</svg>
