<svg xmlns="http://www.w3.org/2000/svg" xmlns:xlink="http://www.w3.org/1999/xlink" width="29.486" height="20.79" viewBox="0 0 29.486 20.79">
  <defs>
    <linearGradient id="linear-gradient" x1="0.5" x2="0.5" y2="1" gradientUnits="objectBoundingBox">
      <stop offset="0" stop-color="#d6a70c"/>
      <stop offset="1" stop-color="#ff6f00"/>
    </linearGradient>
  </defs>
  <g id="bonusWagering" transform="translate(0 -107.549)">
    <g id="Group_20486" data-name="Group 20486">
      <path id="Path_65564" data-name="Path 65564" d="M0,266.716H3.93a9.643,9.643,0,0,1,1.011-3.87L1.3,260.655A14.69,14.69,0,0,0,0,266.716Z" transform="translate(0 -142.066)" fill="url(#linear-gradient)"/>
      <path id="Path_65565" data-name="Path 65565" d="M283.738,113.059l-.762,5.707a9.681,9.681,0,0,1,3.9,2.2l4.456-4.261A14.693,14.693,0,0,0,283.738,113.059Z" transform="translate(-266.68 -2.97)" fill="url(#linear-gradient)"/>
      <path id="Path_65566" data-name="Path 65566" d="M36.539,162.78l3.744,2.254a9.743,9.743,0,0,1,3.085-2.688l-2.827-3.922a14.818,14.818,0,0,0-4,4.355Z" transform="translate(-34.435 -45.723)" fill="url(#linear-gradient)"/>
      <path id="Path_65567" data-name="Path 65567" d="M375.328,197.776l-4.5,4.307a9.65,9.65,0,0,1,1.945,5.375h6.185a14.685,14.685,0,0,0-3.626-9.683Z" transform="translate(-349.468 -82.808)" fill="url(#linear-gradient)"/>
      <path id="Path_65568" data-name="Path 65568" d="M138.4,115.47l.741-5.549c-.2-.008-.4-.013-.595-.013a14.675,14.675,0,0,0-7.177,1.863l2.987,4.143a9.686,9.686,0,0,1,3.063-.494,9.8,9.8,0,0,1,.982.049Z" transform="translate(-123.807)" fill="url(#linear-gradient)"/>
    </g>
    <path id="Path_65569" data-name="Path 65569" d="M209.981,225.816a4.1,4.1,0,0,0,8.194,0c0-2.263-4.1-12.73-4.1-12.73S209.981,223.553,209.981,225.816Z" transform="translate(-57.904 -180.542) rotate(30)" fill="rgba(255,255,255,0.52)" stroke="rgba(255,255,255,0.25)" stroke-width="1"/>
  </g>
</svg>
