<svg id="surface1" xmlns="http://www.w3.org/2000/svg" width="19.357" height="22.024" viewBox="0 0 19.357 22.024">
  <path id="Path_65521" data-name="Path 65521" d="M101.614,2.581a2.576,2.576,0,0,1-1.136,2.142l-2.4,1.613a.641.641,0,0,1-.723-1.058l2.4-1.626a1.322,1.322,0,0,0,.568-1.071,1.294,1.294,0,0,0-2.542-.336L96.775,5.975a.647.647,0,0,1-.619.478.752.752,0,0,1-.168-.026.226.226,0,0,0-.361,0,.752.752,0,0,1-.168.026.647.647,0,0,1-.619-.478L93.833,2.245a1.294,1.294,0,0,0-2.542.336,1.322,1.322,0,0,0,.568,1.071l2.4,1.626a.641.641,0,0,1-.723,1.058l-2.4-1.613A2.582,2.582,0,1,1,95.072,1.91l.736,2.71.736-2.71a2.58,2.58,0,0,1,5.072.671Zm0,0" transform="translate(-86.129)" fill="#ffd400"/>
  <path id="Path_65522" data-name="Path 65522" d="M230.807,2.581a2.576,2.576,0,0,1-1.136,2.142l-2.4,1.613a.641.641,0,0,1-.723-1.058l2.4-1.626a1.322,1.322,0,0,0,.568-1.071,1.294,1.294,0,0,0-2.542-.336l-1.007,3.729a.647.647,0,0,1-.619.478.752.752,0,0,1-.168-.026.477.477,0,0,1-.181-.09V4.62l.736-2.71a2.58,2.58,0,0,1,5.072.671Zm0,0" transform="translate(-215.321)" fill="#fdbf00"/>
  <path id="Path_65523" data-name="Path 65523" d="M46.776,240v9.765a1.933,1.933,0,0,1-1.936,1.936H39.679l-1.29-1.29L37.1,251.7H31.936A1.933,1.933,0,0,1,30,249.765V240Zm0,0" transform="translate(-28.71 -229.676)" fill="#ff7816"/>
  <path id="Path_65524" data-name="Path 65524" d="M233.388,240v9.765a1.933,1.933,0,0,1-1.936,1.936h-5.162L225,250.41V240Zm0,0" transform="translate(-215.321 -229.676)" fill="#ff4b00"/>
  <path id="Path_65525" data-name="Path 65525" d="M19.357,121.936V127.1a.639.639,0,0,1-.645.645H.645A.639.639,0,0,1,0,127.1v-5.162A1.933,1.933,0,0,1,1.936,120H8.388l1.29,1.29,1.29-1.29h6.452A1.933,1.933,0,0,1,19.357,121.936Zm0,0" transform="translate(0 -114.838)" fill="#ff9f00"/>
  <path id="Path_65526" data-name="Path 65526" d="M234.679,121.936V127.1a.639.639,0,0,1-.645.645H225V121.29l1.29-1.29h6.452A1.933,1.933,0,0,1,234.679,121.936Zm0,0" transform="translate(-215.321 -114.838)" fill="#ff7816"/>
  <path id="Path_65527" data-name="Path 65527" d="M105.189,124.973a.645.645,0,0,1,0-.912l3.871-3.871a.645.645,0,0,1,.912.912l-3.871,3.871A.645.645,0,0,1,105.189,124.973Zm0,0" transform="translate(-100.483 -114.838)" fill="#ffe470"/>
  <path id="Path_65528" data-name="Path 65528" d="M229.061,124.973l-3.871-3.871a.645.645,0,1,1,.912-.912l3.872,3.871a.645.645,0,1,1-.912.912Zm0,0" transform="translate(-215.321 -114.838)" fill="#ffd400"/>
  <path id="Path_65529" data-name="Path 65529" d="M195,120h2.581v16.862H195Zm0,0" transform="translate(-186.612 -114.838)" fill="#ffe470"/>
  <path id="Path_65530" data-name="Path 65530" d="M225,120h1.29v16.862H225Zm0,0" transform="translate(-215.321 -114.838)" fill="#ffd400"/>
</svg>
