<svg xmlns="http://www.w3.org/2000/svg" xmlns:xlink="http://www.w3.org/1999/xlink" width="38.77" height="37.989" viewBox="0 0 38.77 37.989">
  <defs>
    <clipPath id="clip-path">
      <path id="Path_62387" data-name="Path 62387" d="M5.939,1.268,4.089,5.633A.955.955,0,0,0,4.6,6.884l4.364,1.85a.967.967,0,0,0,1.257-.514L12.056,3.85A.946.946,0,0,0,11.548,2.6L7.184.761A.907.907,0,0,0,6.809.682a.948.948,0,0,0-.87.586" transform="translate(-4.014 -0.682)" fill="none"/>
    </clipPath>
    <linearGradient id="linear-gradient" x1="-2.88" y1="4.101" x2="-2.159" y2="4.101" gradientUnits="objectBoundingBox">
      <stop offset="0" stop-color="#ffd647"/>
      <stop offset="0.743" stop-color="#f29808"/>
      <stop offset="1" stop-color="#f29808"/>
    </linearGradient>
    <clipPath id="clip-path-2">
      <path id="Path_62388" data-name="Path 62388" d="M7.016,0A.944.944,0,0,0,6.6.1L2.428,2.225A.96.96,0,0,0,2.023,3.5L4.151,7.671a.949.949,0,0,0,1.263.417L9.592,5.96A.942.942,0,0,0,10,4.691L7.875.52A.961.961,0,0,0,7.035,0Z" transform="translate(-1.921)" fill="none"/>
    </clipPath>
    <linearGradient id="linear-gradient-2" x1="-1.358" y1="4.567" x2="-0.643" y2="4.567" gradientUnits="objectBoundingBox">
      <stop offset="0" stop-color="#216847"/>
      <stop offset="0.997" stop-color="#30aa76"/>
      <stop offset="1" stop-color="#30aa76"/>
    </linearGradient>
    <clipPath id="clip-path-3">
      <path id="Path_62389" data-name="Path 62389" d="M2.247,2.189A1.735,1.735,0,0,0,.512,3.924V18.565c0,.991,1.777,2.049,2.769,2.049h28a1.812,1.812,0,0,0,1.807-1.807V5.985a1.812,1.812,0,0,0-1.807-1.807H11.012L9.531,2.7A1.76,1.76,0,0,0,8.3,2.189Z" transform="translate(-0.512 -2.189)" fill="none"/>
    </clipPath>
    <linearGradient id="linear-gradient-3" x1="-0.037" y1="1.101" x2="0.13" y2="1.101" gradientUnits="objectBoundingBox">
      <stop offset="0" stop-color="#1f60ab"/>
      <stop offset="0.067" stop-color="#1f60ab"/>
      <stop offset="0.483" stop-color="#267fc3"/>
      <stop offset="1" stop-color="#2fa3df"/>
    </linearGradient>
    <clipPath id="clip-path-4">
      <path id="Path_62390" data-name="Path 62390" d="M6.51,3.436,2.218,15.411A2.381,2.381,0,0,0,3.65,18.445l17.168,6.148a2.37,2.37,0,0,0,3.029-1.433l4.292-11.969a2.376,2.376,0,0,0-1.433-3.041L9.544,2.009A2.355,2.355,0,0,0,6.51,3.436" transform="translate(-2.079 -1.864)" fill="none"/>
    </clipPath>
    <linearGradient id="linear-gradient-4" x1="-0.226" y1="0.938" x2="-0.055" y2="0.938" gradientUnits="objectBoundingBox">
      <stop offset="0" stop-color="#d90032"/>
      <stop offset="0.781" stop-color="#e54260"/>
      <stop offset="1" stop-color="#e95070"/>
    </linearGradient>
    <clipPath id="clip-path-5">
      <rect id="Rectangle_22662" data-name="Rectangle 22662" width="38.767" height="37.987" fill="none"/>
    </clipPath>
    <clipPath id="clip-path-6">
      <path id="Path_62392" data-name="Path 62392" d="M1.741,3.382A1.742,1.742,0,0,0,0,5.063v.1a1.576,1.576,0,0,0,.03.29L2.817,19.522a1.737,1.737,0,0,0,1.711,1.4H34.245a1.74,1.74,0,0,0,1.7-1.4L38.736,5.455a1.576,1.576,0,0,0,.03-.29v-.1a1.734,1.734,0,0,0-1.741-1.681Z" transform="translate(0 -3.382)" fill="none"/>
    </clipPath>
    <linearGradient id="linear-gradient-5" x1="0.044" y1="0.777" x2="0.186" y2="0.777" xlink:href="#linear-gradient-3"/>
  </defs>
  <g id="Group_18810" data-name="Group 18810" transform="translate(0 0)">
    <g id="Group_18799" data-name="Group 18799" transform="translate(24.262 4.124)">
      <g id="Group_18798" data-name="Group 18798" clip-path="url(#clip-path)">
        <rect id="Rectangle_22658" data-name="Rectangle 22658" width="8.378" height="8.257" transform="translate(-0.13 -0.002)" fill="url(#linear-gradient)"/>
      </g>
    </g>
    <g id="Group_18801" data-name="Group 18801" transform="translate(11.613 0.001)">
      <g id="Group_18800" data-name="Group 18800" clip-path="url(#clip-path-2)">
        <rect id="Rectangle_22659" data-name="Rectangle 22659" width="8.451" height="8.318" transform="translate(-0.134 -0.002)" fill="url(#linear-gradient-2)"/>
      </g>
    </g>
    <g id="Group_18803" data-name="Group 18803" transform="translate(3.095 13.234)">
      <g id="Group_18802" data-name="Group 18802" clip-path="url(#clip-path-3)">
        <rect id="Rectangle_22660" data-name="Rectangle 22660" width="36.066" height="25.758" transform="matrix(0.97, -0.242, 0.242, 0.97, -4.324, 1.076)" fill="url(#linear-gradient-3)"/>
      </g>
    </g>
    <g id="Group_18805" data-name="Group 18805" transform="translate(12.568 11.269)">
      <g id="Group_18804" data-name="Group 18804" clip-path="url(#clip-path-4)">
        <rect id="Rectangle_22661" data-name="Rectangle 22661" width="35.352" height="34.62" transform="translate(-11.422 8.323) rotate(-36.82)" fill="url(#linear-gradient-4)"/>
      </g>
    </g>
    <g id="Group_18807" data-name="Group 18807" transform="translate(0 0)">
      <g id="Group_18806" data-name="Group 18806" clip-path="url(#clip-path-5)">
        <path id="Path_62391" data-name="Path 62391" d="M30.3,20.77l-25.437,2.9A2.5,2.5,0,0,1,2.1,21.459L.579,8.136A2.517,2.517,0,0,1,2.785,5.367l25.431-2.89a2.493,2.493,0,0,1,2.769,2.2L32.5,18a2.5,2.5,0,0,1-2.2,2.769" transform="translate(2.843 12.413)" fill="#fff"/>
      </g>
    </g>
    <g id="Group_18809" data-name="Group 18809" transform="translate(0 20.446)">
      <g id="Group_18808" data-name="Group 18808" clip-path="url(#clip-path-6)">
        <rect id="Rectangle_22663" data-name="Rectangle 22663" width="42.489" height="33.432" transform="translate(-7.174 3.723) rotate(-27.436)" fill="url(#linear-gradient-5)"/>
      </g>
    </g>
  </g>
</svg>
