<?xml version="1.0" encoding="utf-8"?>
<!-- Generator: Adobe Illustrator 24.1.2, SVG Export Plug-In . SVG Version: 6.00 Build 0)  -->
<svg version="1.1" id="game-shows-clr" xmlns="http://www.w3.org/2000/svg" xmlns:xlink="http://www.w3.org/1999/xlink" x="0px"
	 y="0px" width="20px" height="20px" viewBox="0 0 20 20" style="enable-background:new 0 0 20 20;" xml:space="preserve">
<style type="text/css">
	.st0{fill:#F05B1E;}
	.st1{fill:#E0E1E1;}
	.st2{fill:#2FA3DF;}
	.st3{fill:#30AA76;}
	.st4{fill:#F29808;}
	.st5{fill:url(#Path_57129_1_);}
</style>
<g id="game-shows">
	<path id="Path_57121" class="st0" d="M19.6,11.7H8.8V8h10.8C19.9,8,20,8.4,20,8.7v2.4C20,11.5,19.9,11.7,19.6,11.7z"/>
	<path id="Path_57122" class="st1" d="M17.3,12l-0.1-4.3L14.9,4l-3.8-2.1L6.8,2L3.1,4.2L1.1,8l0.1,4.3L3.4,16l3.8,2.1l4.3-0.1
		l3.7-2.2L17.3,12z"/>
	<path id="Path_57123" class="st2" d="M9.1,10L1,8L3,4.2L9.1,10z"/>
	<path id="Path_57124" class="st2" d="M9.2,10l8.1,2l-2.1,3.8L9.2,10z"/>
	<path id="Path_57125" class="st3" d="M9.1,10l-5.7,6l-2.2-3.7L9.1,10z"/>
	<path id="Path_57126" class="st3" d="M9.2,10l5.7-6l2.2,3.7L9.2,10z"/>
	<path id="Path_57127" class="st4" d="M9.1,10.1l2.4,7.9l-4.3,0.1L9.1,10.1z"/>
	<path id="Path_57128" class="st4" d="M9.1,10L6.8,2l4.3-0.1L9.1,10z"/>
	
		<linearGradient id="Path_57129_1_" gradientUnits="userSpaceOnUse" x1="-907.3997" y1="526.8514" x2="-906.5922" y2="526.8514" gradientTransform="matrix(22.6131 0 0 -22.62 20519.082 11927.377)">
		<stop  offset="0" style="stop-color:#F05B1E"/>
		<stop  offset="0.362" style="stop-color:#E4431C"/>
		<stop  offset="0.728" style="stop-color:#DB321C"/>
		<stop  offset="1" style="stop-color:#D92C1C"/>
	</linearGradient>
	<path id="Path_57129" class="st5" d="M18.3,9.9c0-4.7-3.6-8.5-8.2-9c-0.3,0-0.6,0-0.9,0c-0.3,0-0.6,0-0.9,0C3.6,1.4,0,5.3,0,9.9V10
		c0,2.4,1,4.7,2.7,6.5c0.6,0.6,1.2,1,1.9,1.4C4.7,18,4.8,18.1,5,18.1c1.2,0.6,2.5,1,3.9,1c0.1,0,0.2,0,0.3,0s0.2,0,0.3,0
		c1.4,0,2.7-0.4,3.9-1c0.1-0.1,0.3-0.1,0.4-0.2c2.3-1.3,3.9-3.6,4.4-6.2v0c0.1-0.4,0.1-0.7,0.1-1.1C18.2,10.4,18.3,10.2,18.3,9.9
		L18.3,9.9z M17,10.3c-0.2,4.3-3.9,7.7-8.2,7.5c-4.1-0.2-7.3-3.4-7.5-7.5c0-0.1,0-0.2,0-0.3c0-4.3,3.5-7.9,7.9-7.9S17,5.7,17,10
		C17,10.1,17,10.2,17,10.3L17,10.3z"/>
	<path id="Path_57130" class="st4" d="M11,10c0,1-0.8,1.8-1.8,1.8c-1,0-1.8-0.8-1.8-1.8c0-1,0.8-1.8,1.8-1.8c0,0,0,0,0,0
		C10.2,8.2,11,9,11,10z"/>
	<path id="Path_57131" class="st4" d="M16.3,12.7L12.7,10c-0.1-0.1-0.1-0.1,0-0.2c0,0,0,0,0,0L16.3,7c0.1,0,0.2,0,0.2,0
		c0,0,0,0.1,0,0.1v1.3c0,0.1,0.1,0.1,0.1,0.1l2.3,0h0.7l0,0c0.2,0,0.2-0.1,0.2-0.3c0,0.1,0.1,0.2,0.1,0.3c0.1,0.3,0,2.4,0,2.7
		c0,0.1,0,0.2-0.1,0.3c0-0.1,0-0.3-0.2-0.3h-3c-0.1,0-0.1,0.1-0.1,0.1c0,0,0,0,0,0v1.1C16.5,12.6,16.4,12.7,16.3,12.7
		C16.3,12.7,16.3,12.7,16.3,12.7z"/>
</g>
</svg>
