<svg xmlns="http://www.w3.org/2000/svg" xmlns:xlink="http://www.w3.org/1999/xlink" width="68.801" height="36.292" viewBox="0 0 68.801 36.292">
  <defs>
    <linearGradient id="linear-gradient" x1="0.5" y1="0.297" x2="0.5" y2="0.915" gradientUnits="objectBoundingBox">
      <stop offset="0" stop-color="#ffd647"/>
      <stop offset="0.743" stop-color="#f29808"/>
    </linearGradient>
    <radialGradient id="radial-gradient" cx="0.5" cy="0.5" r="0.5" gradientTransform="translate(0)" gradientUnits="objectBoundingBox">
      <stop offset="0" stop-color="#43afe6"/>
      <stop offset="0.327" stop-color="#40abe3"/>
      <stop offset="0.589" stop-color="#38a1dc"/>
      <stop offset="0.742" stop-color="#3098d6"/>
      <stop offset="0.802" stop-color="#2d90d0"/>
      <stop offset="0.893" stop-color="#267ac0"/>
      <stop offset="0.928" stop-color="#2371b9"/>
    </radialGradient>
    <linearGradient id="linear-gradient-2" x1="0.5" y1="0.744" x2="0.5" y2="0.967" gradientUnits="objectBoundingBox">
      <stop offset="0" stop-color="#3098d6"/>
      <stop offset="0.336" stop-color="#3da8e1"/>
      <stop offset="0.588" stop-color="#43afe6"/>
      <stop offset="1" stop-color="#2371b9"/>
    </linearGradient>
    <linearGradient id="linear-gradient-3" x1="0.5" x2="0.5" y2="1" gradientUnits="objectBoundingBox">
      <stop offset="0" stop-color="#d1eefc"/>
      <stop offset="1" stop-color="#86caf1"/>
    </linearGradient>
    <linearGradient id="linear-gradient-4" x1="0.492" y1="-0.051" x2="0.498" y2="0.358" xlink:href="#linear-gradient"/>
    <linearGradient id="linear-gradient-5" x1="0.5" y1="1.091" x2="0.5" y2="0.072" gradientUnits="objectBoundingBox">
      <stop offset="0.067" stop-color="#1f60ab"/>
      <stop offset="0.483" stop-color="#267fc3"/>
      <stop offset="1" stop-color="#2fa3df"/>
    </linearGradient>
    <linearGradient id="linear-gradient-8" x1="0.5" y1="0.75" x2="0.5" y2="1.166" xlink:href="#linear-gradient-2"/>
  </defs>
  <g id="Group_19088" data-name="Group 19088" transform="translate(-1033 -1578)">
    <path id="Path_62707" data-name="Path 62707" d="M190.436,89.192a1.514,1.514,0,0,0-1.517,1.517v19.081h-9v3.036h10.515a1.517,1.517,0,0,0,1.52-1.517v-20.6A1.517,1.517,0,0,0,190.436,89.192Z" transform="translate(906.778 1494.156)" fill="url(#linear-gradient)"/>
    <circle id="Ellipse_503" data-name="Ellipse 503" cx="4.587" cy="4.587" r="4.587" transform="translate(1092.627 1578)" fill="url(#radial-gradient)"/>
    <rect id="Rectangle_22935" data-name="Rectangle 22935" width="58.474" height="28.885" rx="3" transform="translate(1033 1585.407)" fill="url(#linear-gradient-2)"/>
    <path id="Path_62708" data-name="Path 62708" d="M211.793,88.865H168.506a5.392,5.392,0,0,0-5.475,5.306v18.064a5.394,5.394,0,0,0,5.475,5.309h43.287a5.394,5.394,0,0,0,5.475-5.309l.377-18C218.435,90.584,215.375,88.353,211.793,88.865Z" transform="translate(871.922 1493.331)" fill="url(#linear-gradient-3)"/>
    <g id="Group_19087" data-name="Group 19087" transform="translate(1033.048 1580.113)">
      <path id="Path_62709" data-name="Path 62709" d="M214.048,121.016H169.2a6.8,6.8,0,0,1-6.789-6.786v-19.3a6.8,6.8,0,0,1,6.789-6.789h44.85a6.8,6.8,0,0,1,6.786,6.789v19.3A6.8,6.8,0,0,1,214.048,121.016ZM169.2,90.369a4.561,4.561,0,0,0-4.556,4.556v19.3a4.558,4.558,0,0,0,4.556,4.553h44.85a4.555,4.555,0,0,0,4.553-4.553v-19.3a4.558,4.558,0,0,0-4.553-4.556Z" transform="translate(-162.409 -88.136)" fill="url(#linear-gradient-4)"/>
    </g>
    <rect id="Rectangle_22998" data-name="Rectangle 22998" width="14.668" height="19.656" rx="0.293" transform="translate(1038.623 1587.327)" fill="url(#linear-gradient-5)"/>
    <rect id="Rectangle_22999" data-name="Rectangle 22999" width="14.668" height="19.656" rx="0.293" transform="translate(1054.927 1587.327)" fill="url(#linear-gradient-5)"/>
    <rect id="Rectangle_23000" data-name="Rectangle 23000" width="14.668" height="19.656" rx="0.293" transform="translate(1071.182 1587.327)" fill="url(#linear-gradient-5)"/>
    <path id="Path_62710" data-name="Path 62710" d="M175.952,94.378c-.754,1.419-4.124,6.915-4.124,12.809h-5.009c0-6.382,3.888-11.186,4.372-11.952h-2.638V97.12h-3.716V91.268h11.115Z" transform="translate(875.649 1498.44)" fill="url(#linear-gradient-8)"/>
    <path id="Path_62711" data-name="Path 62711" d="M181.274,94.378c-.754,1.419-4.124,6.915-4.124,12.809h-5.009c0-6.382,3.888-11.186,4.372-11.952h-2.638V97.12h-3.716V91.268h11.115Z" transform="translate(886.632 1498.44)" fill="url(#linear-gradient-8)"/>
    <path id="Path_62712" data-name="Path 62712" d="M186.582,94.378c-.757,1.419-4.127,6.915-4.127,12.809h-5.009c0-6.382,3.888-11.186,4.372-11.952H179.18V97.12h-3.716V91.268h11.118Z" transform="translate(897.58 1498.44)" fill="url(#linear-gradient-8)"/>
    <path id="Path_62713" data-name="Path 62713" d="M175.924,94.208c-.754,1.422-4.124,6.918-4.124,12.812h-5.009c0-6.382,3.888-11.186,4.372-11.952h-2.638v1.884h-3.716V91.1h11.115Z" transform="translate(875.592 1498.096)" fill="#def3fd"/>
    <path id="Path_62714" data-name="Path 62714" d="M181.248,94.208c-.757,1.422-4.127,6.918-4.127,12.812h-5.009c0-6.382,3.888-11.186,4.372-11.952h-2.635v1.884H170.13V91.1h11.118Z" transform="translate(886.573 1498.096)" fill="#def3fd"/>
    <path id="Path_62715" data-name="Path 62715" d="M186.551,94.208c-.754,1.422-4.124,6.918-4.124,12.812h-5.009c0-6.382,3.888-11.186,4.372-11.952h-2.638v1.884h-3.716V91.1h11.115Z" transform="translate(897.523 1498.096)" fill="#def3fd"/>
  </g>
</svg>
