<svg width="33" height="32" viewBox="0 0 33 32" fill="none" xmlns="http://www.w3.org/2000/svg">
<g clip-path="url(#clip0)">
<path d="M26.7772 11.4998L10.5523 3.58023C8.02546 8.81398 7.4163 14.126 8.53453 17.8049C8.76397 19.153 9.11002 20.4784 9.56875 21.766C9.78545 22.374 9.79501 23.0373 9.59593 23.6514C9.4658 23.8983 9.28506 24.1145 9.06567 24.2859C8.84628 24.4573 8.59324 24.58 8.32325 24.6457C8.11443 24.7004 7.05056 25.0186 6.89981 25.3131C6.49453 26.0974 7.57075 26.5312 9.02137 27.2421C10.472 27.953 11.7064 28.6391 12.0647 27.8362C12.1994 27.5379 11.7904 26.4976 11.7064 26.2963C11.5911 26.043 11.5306 25.7681 11.5287 25.4896C11.5267 25.2111 11.5835 24.9353 11.6952 24.6805C12.0513 24.1415 12.5769 23.7384 13.1879 23.5358C14.4758 23.099 15.7238 22.5513 16.9182 21.899C20.4817 20.5007 24.2504 16.7336 26.7772 11.4998Z" fill="url(#paint0_linear)"/>
<path d="M29.1768 13.952L29.157 13.9408C28.5756 13.5872 27.8981 13.4269 27.2209 13.4827C26.5437 13.5385 25.9012 13.8075 25.3847 14.2515C24.9703 14.6479 24.6624 15.1433 24.4895 15.6916C24.3167 16.2398 24.2846 16.8232 24.3962 17.3873C24.4348 17.5089 24.4968 17.6216 24.5788 17.7191C24.6608 17.8165 24.761 17.8967 24.8738 17.9551C24.9866 18.0136 25.1098 18.049 25.2363 18.0595C25.3627 18.07 25.49 18.0553 25.6108 18.0162C25.8417 17.9316 26.0338 17.7649 26.151 17.5477C26.2682 17.3304 26.3024 17.0776 26.2471 16.8367C26.2349 16.6231 26.2685 16.4092 26.3457 16.2098C26.4229 16.0103 26.5418 15.8299 26.6944 15.6808C26.9496 15.5635 27.2273 15.504 27.5079 15.5065C27.7885 15.5091 28.065 15.5737 28.318 15.6958H28.3292C28.6549 15.8539 28.9088 16.1304 29.0397 16.4695C29.1707 16.8086 29.1689 17.185 29.0347 17.5228C28.6727 18.788 26.9786 19.9787 24.5605 19.6953C23.0446 19.4145 21.4802 19.5816 20.0567 20.1763C19.6643 20.3546 19.3213 20.627 19.0579 20.9695C18.7944 21.3121 18.6185 21.7145 18.5455 22.1413C18.5179 22.3444 18.5549 22.5511 18.6513 22.7317C18.7476 22.9123 18.8983 23.0576 19.0818 23.1468C19.1745 23.191 19.2731 23.2212 19.3746 23.2363C19.6283 23.2702 19.8849 23.2014 20.0881 23.045C20.2913 22.8886 20.4245 22.6574 20.4583 22.4023C20.5003 22.0841 21.3034 21.2651 24.3431 21.6218C27.8535 22.0332 30.2987 20.144 30.8918 18.0597C31.1458 17.2821 31.1121 16.4383 30.797 15.6837C30.4819 14.929 29.9066 14.3141 29.1768 13.952Z" fill="url(#paint1_linear)"/>
<path d="M7.91833 14.2503C7.50305 12.7581 6.6655 11.4195 5.50763 10.3974C3.78765 8.65736 3.6715 6.58673 4.43512 5.51662C4.61428 5.20256 4.90527 4.96861 5.2493 4.86202C5.59333 4.75544 5.96476 4.78417 6.28855 4.94241L6.29966 4.94986C6.55206 5.07352 6.7742 5.25171 6.9502 5.47172C7.1262 5.69172 7.25173 5.94811 7.31782 6.22257C7.2958 6.43573 7.2286 6.64165 7.12075 6.82647C7.01289 7.01128 6.86689 7.17069 6.69259 7.29393C6.46974 7.39793 6.29291 7.58103 6.196 7.80809C6.09909 8.03516 6.08893 8.29023 6.16746 8.52438C6.25563 8.76532 6.43533 8.96117 6.66705 9.06885C6.89877 9.17653 7.16352 9.18723 7.40308 9.09858C7.91318 8.83857 8.34947 8.45278 8.6712 7.97723C8.99294 7.50169 9.18963 6.95189 9.24291 6.37917C9.26911 5.6951 9.08021 5.02012 8.7031 4.45024C8.32599 3.88036 7.77985 3.44458 7.14235 3.20487L7.12258 3.19741C6.38769 2.84326 5.55028 2.76835 4.76479 2.98649C3.9793 3.20463 3.29872 3.70111 2.84857 4.38436C1.59071 6.14551 1.62531 9.25021 4.12126 11.7683C6.28113 13.9445 6.13903 15.0892 5.91909 15.3192C5.82715 15.4099 5.75417 15.5182 5.70445 15.6377C5.65472 15.7573 5.62926 15.8856 5.62955 16.0151C5.62984 16.1447 5.65588 16.2729 5.70613 16.3922C5.75639 16.5115 5.82986 16.6194 5.9222 16.7098C6.01455 16.8001 6.12391 16.8709 6.24387 16.9181C6.36383 16.9653 6.49196 16.9879 6.62072 16.9845C6.74948 16.9812 6.87628 16.952 6.99366 16.8987C7.11104 16.8453 7.21663 16.7689 7.30422 16.6739C7.59714 16.3521 7.80646 15.9624 7.9136 15.5396C8.02073 15.1168 8.02236 14.6739 7.91833 14.2503Z" fill="url(#paint2_linear)"/>
<path d="M28.512 9.90706L10.7294 1.1211C10.5941 1.05422 10.4304 1.11038 10.364 1.24654L9.56806 2.87638C9.50157 3.01254 9.5574 3.17713 9.69277 3.24401L27.4753 12.03C27.6107 12.0969 27.7743 12.0407 27.8408 11.9045L28.6367 10.2747C28.7032 10.1385 28.6473 9.97394 28.512 9.90706Z" fill="url(#paint3_linear)"/>
<path d="M11.6743 29.9118L5.30216 26.8046C5.20137 26.7552 5.11131 26.6862 5.03713 26.6016C4.96296 26.5171 4.90615 26.4186 4.86997 26.3118C4.8338 26.2051 4.81897 26.0922 4.82635 25.9797C4.83372 25.8671 4.86315 25.7572 4.91294 25.6562L5.19836 25.0745C5.29882 24.8709 5.4752 24.7155 5.68906 24.6422C5.90292 24.5689 6.13692 24.5835 6.34008 24.683L12.7122 27.7902C12.9143 27.8915 13.0686 28.0689 13.1415 28.2839C13.2143 28.4989 13.1999 28.7342 13.1014 28.9386L12.816 29.5203C12.7667 29.6215 12.6981 29.712 12.614 29.7865C12.5299 29.861 12.432 29.9181 12.3259 29.9545C12.2199 29.9909 12.1077 30.0058 11.9959 29.9985C11.884 29.9911 11.7747 29.9617 11.6743 29.9118Z" fill="url(#paint4_linear)"/>
</g>
<defs>
<linearGradient id="paint0_linear" x1="7.41249" y1="12.0978" x2="25.0825" y2="20.3241" gradientUnits="userSpaceOnUse">
<stop stop-color="#FFD647"/>
<stop offset="0.743" stop-color="#F29808"/>
</linearGradient>
<linearGradient id="paint1_linear" x1="9.94526" y1="8.45838" x2="22.4842" y2="23.0593" gradientUnits="userSpaceOnUse">
<stop stop-color="#FFD647"/>
<stop offset="0.743" stop-color="#F29808"/>
</linearGradient>
<linearGradient id="paint2_linear" x1="8.14194" y1="11.0682" x2="25.8291" y2="14.3342" gradientUnits="userSpaceOnUse">
<stop stop-color="#FFD647"/>
<stop offset="0.743" stop-color="#F29808"/>
</linearGradient>
<linearGradient id="paint3_linear" x1="20.3341" y1="5.02858" x2="18.4083" y2="8.89717" gradientUnits="userSpaceOnUse">
<stop offset="0.173" stop-color="#FFD647"/>
<stop offset="1" stop-color="#F29808"/>
</linearGradient>
<linearGradient id="paint4_linear" x1="8.35362" y1="28.7844" x2="8.85005" y2="26.073" gradientUnits="userSpaceOnUse">
<stop offset="0.173" stop-color="#FFD647"/>
<stop offset="1" stop-color="#F29808"/>
</linearGradient>
<clipPath id="clip0">
<rect width="29" height="29" fill="white" transform="translate(2.05 1)"/>
</clipPath>
</defs>
</svg>
