<svg xmlns="http://www.w3.org/2000/svg" width="25.372" height="26.802" viewBox="0 0 25.372 26.802">
  <g id="liveCasino" transform="translate(-2073.408 -638.003)">
    <rect id="Rectangle_24815" data-name="Rectangle 24815" width="15" height="22" rx="2" transform="translate(2084.055 640.348) rotate(11)" fill="#b81144"/>
    <rect id="Rectangle_24816" data-name="Rectangle 24816" width="16" height="24" rx="2" transform="translate(2073.408 640.23) rotate(-8)" fill="rgba(255,255,255,0.35)"/>
    <g id="Group_20483" data-name="Group 20483" transform="translate(1306.928 178.619) rotate(8)">
      <path id="Path_65556" data-name="Path 65556" d="M847.851,375.807a7.882,7.882,0,0,0-.525.632l-.064-.057a2.118,2.118,0,0,0-1.646-.558,2.182,2.182,0,0,0-1.987,1.713,1.8,1.8,0,0,0-.045.759,2.7,2.7,0,0,0,.822,1.71c.2.18.391.363.6.535a14.469,14.469,0,0,0,3.321,2.031.113.113,0,0,0,.149-.037c.39-.415.794-.817,1.168-1.245a11.72,11.72,0,0,0,1.665-2.428,2.763,2.763,0,0,0,.142-2.166A2.21,2.21,0,0,0,847.851,375.807Z" transform="translate(-58.115 102.421) rotate(-8)" fill="#fff"/>
      <path id="Path_65557" data-name="Path 65557" d="M827.935,350.52a2.866,2.866,0,0,0-.2.245l-.025-.022a.823.823,0,0,0-.639-.217.846.846,0,0,0-.771.665.69.69,0,0,0-.017.294,1.042,1.042,0,0,0,.318.663c.077.07.152.141.23.208a5.635,5.635,0,0,0,1.288.788.044.044,0,0,0,.058-.014c.151-.161.308-.317.453-.483a4.587,4.587,0,0,0,.646-.941,1.072,1.072,0,0,0,.054-.84A.857.857,0,0,0,827.935,350.52Z" transform="matrix(0.996, -0.087, 0.087, 0.996, -29.485, 73.767)" fill="#fff"/>
      <path id="Path_65558" data-name="Path 65558" d="M877.818,413.943c-.077-.07-.152-.141-.231-.208a5.614,5.614,0,0,0-1.287-.788.044.044,0,0,0-.059.014c-.151.161-.307.317-.452.484a4.527,4.527,0,0,0-.646.941,1.077,1.077,0,0,0-.055.84.857.857,0,0,0,1.394.345,2.613,2.613,0,0,0,.2-.245l.025.022a.822.822,0,0,0,.639.216.845.845,0,0,0,.771-.665.681.681,0,0,0,.017-.294A1.043,1.043,0,0,0,877.818,413.943Z" transform="translate(-78.157 63.156) rotate(-7)" fill="#fff"/>
    </g>
  </g>
</svg>
