<svg xmlns="http://www.w3.org/2000/svg" width="29.402" height="22.347" viewBox="0 0 29.402 22.347">
  <g id="liveRTP" transform="translate(-5.045 1.255)">
    <g id="Group_20484" data-name="Group 20484" transform="translate(-41.146 -286.548)">
      <path id="Path_65559" data-name="Path 65559" d="M54.972,329.608a.721.721,0,0,1-.686.752H52.363a.722.722,0,0,1-.686-.752V319.381a.722.722,0,0,1,.686-.752h1.922a.722.722,0,0,1,.686.752Z" transform="translate(0 -22.721)" fill="#ffb300"/>
      <path id="Path_65560" data-name="Path 65560" d="M80.876,337.066a.667.667,0,0,1-.686.646H78.267a.667.667,0,0,1-.686-.646v-8.785a.667.667,0,0,1,.686-.646h1.922a.667.667,0,0,1,.686.646Z" transform="translate(-20.193 -30.072)" fill="#ffb300"/>
      <path id="Path_65561" data-name="Path 65561" d="M106.781,324.863a.762.762,0,0,1-.686.82h-1.922a.762.762,0,0,1-.686-.82V313.718a.762.762,0,0,1,.686-.82h1.922a.762.762,0,0,1,.686.82Z" transform="translate(-40.386 -18.042)" fill="#ffb300"/>
      <path id="Path_65562" data-name="Path 65562" d="M132.685,306.56c0,.6-.307,1.08-.686,1.08h-1.922c-.379,0-.686-.484-.686-1.08V291.875c0-.6.307-1.08.686-1.08H132c.379,0,.686.483.686,1.08Z" transform="translate(-60.579)" fill="#ffb300"/>
    </g>
    <path id="Path_65563" data-name="Path 65563" d="M665.36,460.545l-8.041,1.547a.18.18,0,0,0-.093.3l1.273,1.244-7.466,7.466a.188.188,0,0,1-.266,0l-4.827-4.826a.243.243,0,0,0-.343,0l-8.353,8.353a.243.243,0,0,0,0,.343l3.2,3.517a.243.243,0,0,0,.343,0l5.844-5.844a.188.188,0,0,1,.266,0l4.826,4.826a.243.243,0,0,0,.343,0l9.975-9.975,1.681,1.39a.18.18,0,0,0,.3-.093l1.548-8.04A.18.18,0,0,0,665.36,460.545Z" transform="translate(-631.629 -461.295)" fill="rgba(163,255,141,0.33)" stroke="rgba(255,255,255,0.24)" stroke-linejoin="round" stroke-width="1"/>
  </g>
</svg>
