<svg width="33" height="32" viewBox="0 0 33 32" fill="none" xmlns="http://www.w3.org/2000/svg">
<g clip-path="url(#clip0)">
<path d="M30.4582 8H1.84184C1.45976 8 1.15002 8.30974 1.15002 8.69182V22.3082C1.15002 22.6903 1.45976 23 1.84184 23H30.4582C30.8403 23 31.15 22.6903 31.15 22.3082V8.69182C31.15 8.30974 30.8403 8 30.4582 8Z" fill="url(#paint0_linear)"/>
<path d="M6.12912 20.0091V10.9864H7.81184V18.4764H10.85V20.0091H6.12912Z" fill="url(#paint1_linear)"/>
<path d="M11.9846 20.0091V10.9864H13.6673V20.0091H11.9846Z" fill="url(#paint2_linear)"/>
<path d="M16.6182 20.0091L14.5927 10.9864H16.3891L17.7327 18.1891L18.9464 10.9864H20.7191L18.8282 20.0091H16.6182Z" fill="url(#paint3_linear)"/>
<path d="M21.7637 20.0091V10.9864H26.4V12.4873H23.4346V14.5718H26.1928V16.0018H23.4346V18.4882H26.4682V20.0091H21.7637Z" fill="url(#paint4_linear)"/>
</g>
<defs>
<linearGradient id="paint0_linear" x1="16.15" y1="22.835" x2="16.15" y2="9.485" gradientUnits="userSpaceOnUse">
<stop stop-color="#D90032"/>
<stop offset="1" stop-color="#E95070"/>
</linearGradient>
<linearGradient id="paint1_linear" x1="8.48957" y1="20.0091" x2="8.48957" y2="10.9864" gradientUnits="userSpaceOnUse">
<stop stop-color="white"/>
<stop offset="1" stop-color="#EFEFEF"/>
</linearGradient>
<linearGradient id="paint2_linear" x1="12.8259" y1="20.0091" x2="12.8259" y2="10.9864" gradientUnits="userSpaceOnUse">
<stop stop-color="white"/>
<stop offset="1" stop-color="#EFEFEF"/>
</linearGradient>
<linearGradient id="paint3_linear" x1="17.6559" y1="20.0091" x2="17.6559" y2="10.9864" gradientUnits="userSpaceOnUse">
<stop stop-color="white"/>
<stop offset="1" stop-color="#EFEFEF"/>
</linearGradient>
<linearGradient id="paint4_linear" x1="24.1159" y1="20.0091" x2="24.1159" y2="10.9864" gradientUnits="userSpaceOnUse">
<stop stop-color="white"/>
<stop offset="1" stop-color="#EFEFEF"/>
</linearGradient>
<clipPath id="clip0">
<rect width="30" height="15" fill="white" transform="translate(1.15002 8)"/>
</clipPath>
</defs>
</svg>
