<svg id="Layer_1" data-name="Layer 1" xmlns="http://www.w3.org/2000/svg" xmlns:xlink="http://www.w3.org/1999/xlink" width="20" height="19.99" viewBox="0 0 20 19.99"><defs><style>.cls-1{fill:url(#linear-gradient);}.cls-2{fill:url(#linear-gradient-2);}.cls-3{fill:#dde7ec;}.cls-4{fill:url(#linear-gradient-3);}.cls-5{fill:url(#linear-gradient-4);}.cls-6{fill:url(#linear-gradient-5);}.cls-7{fill:url(#linear-gradient-6);}.cls-8{fill:#0d122d;}.cls-9{fill:#fce76c;}.cls-10{fill:url(#linear-gradient-7);}.cls-11{fill:url(#linear-gradient-8);}.cls-12{fill:url(#linear-gradient-9);}.cls-13{fill:url(#linear-gradient-10);}.cls-14{fill:url(#linear-gradient-11);}.cls-15{fill:url(#linear-gradient-12);}.cls-16{fill:url(#linear-gradient-13);}.cls-17{fill:url(#linear-gradient-14);}.cls-18{fill:url(#linear-gradient-15);}</style><linearGradient id="linear-gradient" x1="10" y1="8.45" x2="10" y2="16.79" gradientUnits="userSpaceOnUse"><stop offset="0" stop-color="#f2742e"/><stop offset="0" stop-color="#f2742e"/><stop offset="0.54" stop-color="#e8582a"/><stop offset="1" stop-color="#e14428"/></linearGradient><linearGradient id="linear-gradient-2" x1="10" y1="16.89" x2="10" y2="0.93" gradientUnits="userSpaceOnUse"><stop offset="0" stop-color="#e22343"/><stop offset="0.53" stop-color="#e22343"/><stop offset="1" stop-color="#f06882"/></linearGradient><linearGradient id="linear-gradient-3" x1="9.96" y1="6.5" x2="16.78" y2="6.5" gradientUnits="userSpaceOnUse"><stop offset="0" stop-color="#1a7b5a"/><stop offset="1" stop-color="#1fb689"/><stop offset="1" stop-color="#1fb689"/></linearGradient><linearGradient id="linear-gradient-4" x1="10.01" y1="13.25" x2="16.83" y2="13.25" xlink:href="#linear-gradient-3"/><linearGradient id="linear-gradient-5" x1="3.27" y1="6.5" x2="10.09" y2="6.5" xlink:href="#linear-gradient-3"/><linearGradient id="linear-gradient-6" x1="3.22" y1="13.25" x2="10.04" y2="13.25" xlink:href="#linear-gradient-3"/><linearGradient id="linear-gradient-7" x1="9.47" y1="7.51" x2="10.46" y2="7.51" gradientUnits="userSpaceOnUse"><stop offset="0" stop-color="#fbde60"/><stop offset="0.74" stop-color="#f0aa1e"/><stop offset="1" stop-color="#f0aa1e"/></linearGradient><linearGradient id="linear-gradient-8" x1="9.4" y1="5.2" x2="10.48" y2="5.2" xlink:href="#linear-gradient-7"/><linearGradient id="linear-gradient-9" x1="10.49" y1="10.01" x2="14.39" y2="10.01" xlink:href="#linear-gradient-7"/><linearGradient id="linear-gradient-10" x1="14.21" y1="9.98" x2="15.29" y2="9.98" xlink:href="#linear-gradient-7"/><linearGradient id="linear-gradient-11" x1="9.5" y1="12.48" x2="10.49" y2="12.48" xlink:href="#linear-gradient-7"/><linearGradient id="linear-gradient-12" x1="9.43" y1="14.79" x2="10.51" y2="14.79" xlink:href="#linear-gradient-7"/><linearGradient id="linear-gradient-13" x1="5.52" y1="10.04" x2="9.42" y2="10.04" xlink:href="#linear-gradient-7"/><linearGradient id="linear-gradient-14" x1="4.62" y1="10.01" x2="5.7" y2="10.01" xlink:href="#linear-gradient-7"/><linearGradient id="linear-gradient-15" x1="8.74" y1="10.05" x2="11.28" y2="10.05" xlink:href="#linear-gradient-7"/></defs><title>Artboard 2</title><path class="cls-1" d="M20,10A10,10,0,1,1,10,0,10,10,0,0,1,20,10Z"/><path class="cls-2" d="M18.27,10v.09A8.11,8.11,0,0,1,18,12.25a7.55,7.55,0,0,1-.57,1.48,8.13,8.13,0,0,1-1.23,1.79A7.69,7.69,0,0,1,15,16.58a8.28,8.28,0,0,1-1.87,1.08,9.29,9.29,0,0,1-1.5.45,8.75,8.75,0,0,1-1.63.16l-.51,0A7.73,7.73,0,0,1,8,18a8.12,8.12,0,0,1-2-.8,8.62,8.62,0,0,1-1.28-.89,8.12,8.12,0,0,1-1.45-1.59,8.1,8.1,0,0,1-1.39-3.44A9.22,9.22,0,0,1,1.73,10a2.71,2.71,0,0,1,0-.29,8.41,8.41,0,0,1,.35-2.15,8.63,8.63,0,0,1,.62-1.47A8.33,8.33,0,0,1,4,4.32,7.07,7.07,0,0,1,5.2,3.27a8.3,8.3,0,0,1,2-1,8.11,8.11,0,0,1,1.56-.4A7.84,7.84,0,0,1,10,1.73a8.53,8.53,0,0,1,1.61.15,8.75,8.75,0,0,1,2.09.72,8.68,8.68,0,0,1,1.36.86A8.28,8.28,0,0,1,16.61,5a7.09,7.09,0,0,1,.84,1.37,8,8,0,0,1,.68,2.09h0A8.2,8.2,0,0,1,18.27,10Z"/><path class="cls-3" d="M11.45,1.81,10,10,8.25,1.91A7.84,7.84,0,0,1,11.45,1.81Z"/><path class="cls-3" d="M11.45,18.14,10,10,8.25,18A8,8,0,0,0,11.45,18.14Z"/><path class="cls-4" d="M16.78,5.25,10,10,14.47,3A8,8,0,0,1,16.78,5.25Z"/><path class="cls-5" d="M16.83,14.5,10,9.79l4.51,6.92A8,8,0,0,0,16.83,14.5Z"/><path class="cls-3" d="M18.15,11.55,10,9.86l8.12-1.52A8,8,0,0,1,18.15,11.55Z"/><path class="cls-6" d="M3.27,5.25,10.09,10,5.58,3A7.85,7.85,0,0,0,3.27,5.25Z"/><path class="cls-7" d="M3.22,14.5,10,9.79,5.53,16.71A7.85,7.85,0,0,1,3.22,14.5Z"/><path class="cls-3" d="M1.9,11.55,10,9.86,1.89,8.34A8.24,8.24,0,0,0,1.9,11.55Z"/><circle class="cls-8" cx="10" cy="10" r="4.85"/><path class="cls-9" d="M10,14.94A4.94,4.94,0,1,1,14.94,10,4.94,4.94,0,0,1,10,14.94Zm0-9.7A4.76,4.76,0,1,0,14.76,10,4.76,4.76,0,0,0,10,5.24Z"/><path class="cls-9" d="M10,18.36A8.36,8.36,0,1,1,18.36,10,8.37,8.37,0,0,1,10,18.36ZM10,1.82A8.18,8.18,0,1,0,18.18,10,8.19,8.19,0,0,0,10,1.82Z"/><path class="cls-10" d="M10,9.46h0a.39.39,0,0,1-.38-.34,1.11,1.11,0,0,1,0-.17,11.77,11.77,0,0,1,.06-3.39h.67a11.23,11.23,0,0,1,.06,3.57A.39.39,0,0,1,10,9.46Z"/><path class="cls-11" d="M10.48,5.2a.54.54,0,1,1-1.08,0,.54.54,0,1,1,1.08,0Z"/><path class="cls-12" d="M10.49,10h0a.38.38,0,0,1,.34-.38l.17,0a11.77,11.77,0,0,1,3.39.06v.67a11.23,11.23,0,0,1-3.57.06A.4.4,0,0,1,10.49,10Z"/><path class="cls-13" d="M14.75,10.52a.54.54,0,1,1,.54-.54A.54.54,0,0,1,14.75,10.52Z"/><path class="cls-14" d="M10,10.53h0a.41.41,0,0,0-.39.34c0,.06,0,.12,0,.18a11.68,11.68,0,0,0,.06,3.38h.67a11.23,11.23,0,0,0,.06-3.57A.4.4,0,0,0,10,10.53Z"/><path class="cls-15" d="M10.51,14.79a.54.54,0,1,0-.54.54A.54.54,0,0,0,10.51,14.79Z"/><path class="cls-16" d="M9.42,10h0a.38.38,0,0,0-.34-.38l-.17,0a11.77,11.77,0,0,0-3.39.06v.67a11.23,11.23,0,0,0,3.57.06A.39.39,0,0,0,9.42,10Z"/><path class="cls-17" d="M5.16,10.55A.54.54,0,1,0,4.62,10,.54.54,0,0,0,5.16,10.55Z"/><path class="cls-18" d="M11.28,10.05A1.27,1.27,0,1,1,10,8.78,1.27,1.27,0,0,1,11.28,10.05Z"/></svg>