<svg xmlns="http://www.w3.org/2000/svg" xmlns:xlink="http://www.w3.org/1999/xlink" width="22.259" height="21.227" viewBox="0 0 22.259 21.227">
  <defs>
    <linearGradient id="linear-gradient" x1="0.5" x2="0.5" y2="1" gradientUnits="objectBoundingBox">
      <stop offset="0" stop-color="#ffbc64"/>
      <stop offset="1" stop-color="#ff5700"/>
    </linearGradient>
  </defs>
  <g id="myGames" transform="translate(-2 -13.65)">
    <g id="Layer_2" data-name="Layer 2" transform="translate(2 13.65)">
      <path id="Path_65549" data-name="Path 65549" d="M13.434,25.4c.733-2.551.686-4.9,1.1-6.526h-.008l-2.864-6.65a.578.578,0,0,0-1.061,0l-2.864,6.65-7.21.669A.578.578,0,0,0,.2,20.554l5.44,4.779L4.045,32.4a.578.578,0,0,0,.859.624l6.226-3.7A8.378,8.378,0,0,0,13.434,25.4Z" transform="translate(0 -11.877)" fill="url(#linear-gradient)"/>
    </g>
    <path id="Path_65550" data-name="Path 65550" d="M160.2,99.577l-7.21-.669-1.448-3.362a25.482,25.482,0,0,0-6.783,16.681l4.836-2.872,6.226,3.7a.578.578,0,0,0,.859-.624l-1.592-7.064,5.44-4.779A.578.578,0,0,0,160.2,99.577Z" transform="translate(-136.463 -78.258)" fill="rgba(255,255,255,0.38)"/>
  </g>
</svg>
