<svg width="32" height="32" viewBox="0 0 32 32" fill="none" xmlns="http://www.w3.org/2000/svg">
<rect width="32" height="32" fill="transparent"/>
<g clip-path="url(#clip0)">
<path d="M21.4567 22.7542C21.4567 22.7542 20.5862 8.44119 17.5475 7.97827L0.130577 17.6185C0.130577 17.6185 -0.195842 18.0785 0.183992 19.7333C0.719122 22.0628 1.72014 22.2853 1.72014 22.2853L6.37805 22.3951C6.82039 23.1489 7.44211 23.7817 8.18793 24.2372C8.93376 24.6928 9.7806 24.9571 10.6532 25.0065H10.7095C11.5421 25.0169 12.3615 24.7971 13.0771 24.3714C13.7927 23.9457 14.3768 23.3306 14.7651 22.594L21.4567 22.7542ZM10.664 23.9412C10.096 23.9124 9.54087 23.762 9.03607 23.5C8.53127 23.238 8.08864 22.8707 7.73813 22.4228L13.5039 22.5593C13.1799 23.0048 12.7518 23.364 12.2569 23.6058C11.762 23.8475 11.2155 23.9644 10.665 23.9461L10.664 23.9412Z" fill="url(#paint0_linear)"/>
<path d="M32 11.2158L29.723 12.3622L28.5815 14.6372L27.439 12.3622L25.164 11.2207L27.439 10.0792L28.5805 7.80418L29.722 10.0792L32 11.2158Z" fill="#F29808"/>
<path d="M29.0642 16.7263L27.716 17.4029L27.0443 18.7481L26.3678 17.3999L25.0196 16.7233L26.3678 16.0478L27.0443 14.7025L27.7209 16.0507L29.0642 16.7263Z" fill="#F29808"/>
<path d="M21.1184 23.1904C20.7306 20.6044 20.1999 18.0419 19.5288 15.5146C18.751 12.9701 17.7624 10.4949 16.5732 8.11478C16.5158 7.93351 16.5327 7.73684 16.6203 7.56805C16.7078 7.39925 16.8588 7.27213 17.0401 7.21465L17.6079 7.03364C17.6974 7.00525 17.7917 6.99481 17.8853 7.00293C17.9789 7.01104 18.07 7.03754 18.1533 7.08091C18.2367 7.12428 18.3106 7.18367 18.371 7.25567C18.4313 7.32767 18.4769 7.41088 18.505 7.50052C19.6963 9.87322 20.6841 12.3428 21.4576 14.8825C22.1499 17.411 22.6818 19.9806 23.0502 22.5762C23.108 22.757 23.0916 22.9535 23.0046 23.1223C22.9176 23.2911 22.7671 23.4184 22.5862 23.4763L22.0155 23.6573C21.8346 23.7144 21.6385 23.6972 21.4702 23.6097C21.302 23.5221 21.1754 23.3713 21.1184 23.1904Z" fill="url(#paint1_linear)"/>
</g>
<defs>
<linearGradient id="paint0_linear" x1="11.5437" y1="19.6599" x2="10.2169" y2="14.2573" gradientUnits="userSpaceOnUse">
<stop stop-color="#216947"/>
<stop offset="0.997" stop-color="#30AA76"/>
</linearGradient>
<linearGradient id="paint1_linear" x1="20.7609" y1="17.4817" x2="16.7351" y2="15.8103" gradientUnits="userSpaceOnUse">
<stop stop-color="#165135"/>
<stop offset="0.997" stop-color="#30AA76"/>
</linearGradient>
<clipPath id="clip0">
<rect width="32" height="18.0065" fill="white" transform="translate(0 7)"/>
</clipPath>
</defs>
</svg>
