<svg xmlns="http://www.w3.org/2000/svg" width="23.15" height="23.492" viewBox="0 0 23.15 23.492">
  <g id="promotions" transform="translate(-2.57 0.041)">
    <path id="Path_65552" data-name="Path 65552" d="M2385.08,799.57a4.724,4.724,0,0,0,.439-.224c1.756-1.014,2.547-2.931,1.767-4.282s-2.836-1.625-4.592-.611a4.677,4.677,0,0,0-.431.281Z" transform="translate(-2361.867 -790.771)" fill="#ff9901"/>
    <path id="Path_65553" data-name="Path 65553" d="M11.125,20.621,9.532,17.579,13.95,14.9l5.432-8.547L24.959,16.42l-1.308.216L16.2,17.868Z" transform="translate(-0.035 -1.688)" fill="#ff9901"/>
    <path id="Path_65551" data-name="Path 65551" d="M606,347.437l1.007-.632a.392.392,0,0,0,.133-.526l-.561-.987a.392.392,0,0,0-.533-.148l-1.358.763-1.206-1.408,2.449-1.45,9.742-1-7.838-13.457-5.784,7.894-6.167,3.483.723,1.223-1.575.861a.267.267,0,0,0-.1.368l2.1,3.652a.267.267,0,0,0,.364.1l1.615-.918.8,1.351.962-.552,4.5,5.194a.336.336,0,0,0,.42.072l2.24-1.267a.2.2,0,0,0,.053-.3Z" transform="translate(-592.069 -328.18)" fill="rgba(189,138,255,0.59)" stroke="rgba(255,255,255,0.43)" stroke-width="0.5"/>
  </g>
</svg>
