<?xml version="1.0" encoding="utf-8"?>
<!-- Generator: Adobe Illustrator 24.1.2, SVG Export Plug-In . SVG Version: 6.00 Build 0)  -->
<svg version="1.1" id="Layer_1" xmlns="http://www.w3.org/2000/svg" xmlns:xlink="http://www.w3.org/1999/xlink" x="0px" y="0px"
	 width="20px" height="20px" viewBox="0 0 20 20" style="enable-background:new 0 0 20 20;" xml:space="preserve">
<style type="text/css">
	.st0{fill:url(#SVGID_1_);}
	.st1{fill:url(#SVGID_2_);}
	.st2{fill:url(#SVGID_3_);}
	.st3{fill:url(#SVGID_4_);}
	.st4{fill:url(#SVGID_5_);}
	.st5{fill:url(#SVGID_6_);}
	.st6{fill:url(#SVGID_7_);}
	.st7{fill:url(#SVGID_8_);}
	.st8{fill:url(#SVGID_9_);}
	.st9{fill:url(#SVGID_10_);}
	.st10{fill:url(#SVGID_11_);}
	.st11{fill:url(#SVGID_12_);}
	.st12{fill:url(#SVGID_13_);}
</style>
<g transform="translate(0 0)">
	
		<linearGradient id="SVGID_1_" gradientUnits="userSpaceOnUse" x1="-697.1799" y1="341.2956" x2="-696.4669" y2="341.2956" gradientTransform="matrix(3.7629 0 0 -2.502 2633.4141 869.03)">
		<stop  offset="0" style="stop-color:#FFF9DF"/>
		<stop  offset="0.593" style="stop-color:#FFE177"/>
		<stop  offset="1" style="stop-color:#FEB137"/>
	</linearGradient>
	<path class="st0" d="M11.1,14.2l-1.2,1.2c0.6,0.7,1.7,0.8,2.4,0.2c0,0,0.1-0.1,0.1-0.1l0,0c0.2-0.2,0.1-0.4,0-0.6
		c-0.1-0.1-0.1-0.1-0.2-0.1C11.8,14.7,11.4,14.5,11.1,14.2z"/>
	
		<linearGradient id="SVGID_2_" gradientUnits="userSpaceOnUse" x1="-817.4832" y1="477.9224" x2="-817.041" y2="477.9224" gradientTransform="matrix(7.2194 0 0 -7.2143 5910.335 3465.3557)">
		<stop  offset="0" style="stop-color:#F2FBFF"/>
		<stop  offset="0.593" style="stop-color:#FAF7F7"/>
		<stop  offset="1" style="stop-color:#F3EAE6"/>
	</linearGradient>
	<path class="st1" d="M10.4,14.9l3,3c0.5,0.5,0.5,1.2,0,1.7c-0.5,0.5-1.2,0.5-1.7,0c0,0,0,0,0,0l-3-3L10.4,14.9z"/>
	
		<linearGradient id="SVGID_3_" gradientUnits="userSpaceOnUse" x1="-816.9031" y1="476.3167" x2="-816.0519" y2="476.3167" gradientTransform="matrix(7.1906 0 0 -7.058 5883.0073 3379.2463)">
		<stop  offset="0" style="stop-color:#F3EAE6"/>
		<stop  offset="1" style="stop-color:#CDBFBA"/>
	</linearGradient>
	<path class="st2" d="M8.6,16.7l0.2,0.2c0.4,0.4,1.2,0.5,1.6,0l0.1-0.1l0.2-0.2l2,2c0.3,0.4,0.5,0.9,0.3,1.3c0.6-0.3,0.9-1,0.7-1.6
		c-0.1-0.1-0.2-0.3-0.3-0.4l-3-3L8.6,16.7z"/>
	
		<linearGradient id="SVGID_4_" gradientUnits="userSpaceOnUse" x1="-867.3354" y1="505.0733" x2="-866.6862" y2="505.0733" gradientTransform="matrix(11.656 0 0 -11.656 10118.7266 5893.335)">
		<stop  offset="0" style="stop-color:#FFF9DF"/>
		<stop  offset="0.593" style="stop-color:#FFE177"/>
		<stop  offset="1" style="stop-color:#FEB137"/>
	</linearGradient>
	<ellipse class="st3" cx="12.6" cy="6.2" rx="4.1" ry="4.1"/>
	
		<linearGradient id="SVGID_5_" gradientUnits="userSpaceOnUse" x1="-854.4324" y1="497.7972" x2="-853.7636" y2="497.7972" gradientTransform="matrix(10.043 0 0 -10.043 8590.1152 5005.1011)">
		<stop  offset="0" style="stop-color:#FFE177"/>
		<stop  offset="1" style="stop-color:#FEB137"/>
	</linearGradient>
	<path class="st4" d="M9.5,3.5l5.8,5.8c0.1,0,0.1-0.1,0.2-0.2c0.6-0.6,0.9-1.3,1.1-2l-4.8-4.8c-0.8,0.2-1.5,0.5-2,1.1
		C9.6,3.4,9.6,3.4,9.5,3.5z"/>
	
		<linearGradient id="SVGID_6_" gradientUnits="userSpaceOnUse" x1="-908.4391" y1="528.0436" x2="-907.8763" y2="528.0436" gradientTransform="matrix(23.6535 0 0 -23.6535 21489.1035 12499.3555)">
		<stop  offset="0" style="stop-color:#F2FBFF"/>
		<stop  offset="0.593" style="stop-color:#FAF7F7"/>
		<stop  offset="1" style="stop-color:#F3EAE6"/>
	</linearGradient>
	<path class="st5" d="M5.6,6L5.6,6L2.6,8.9c-2,2-1.9,5.3,0.2,7.2c2,1.9,5.1,1.9,7.1,0l2.9-2.9l0,0c1.1-1.1,2.7-1.6,4.3-1.4l0.7-0.7
		L7.7,1L7,1.7C7.2,3.3,6.7,4.9,5.6,6z"/>
	
		<linearGradient id="SVGID_7_" gradientUnits="userSpaceOnUse" x1="-888.8947" y1="517.1563" x2="-888.4687" y2="517.1563" gradientTransform="matrix(15.905 0 0 -15.907 14146.6631 8232.9658)">
		<stop  offset="0" style="stop-color:#F3EAE6"/>
		<stop  offset="1" style="stop-color:#CDBFBA"/>
	</linearGradient>
	<path class="st6" d="M7.7,1l10.1,10.1l-0.7,0.7c-0.9-0.1-1.8,0-2.6,0.3L6.6,4.3C7,3.5,7.1,2.6,7,1.7L7.7,1z"/>
	
		<linearGradient id="SVGID_8_" gradientUnits="userSpaceOnUse" x1="-717.7571" y1="423.1966" x2="-717.1389" y2="423.1966" gradientTransform="matrix(4.1116 0 0 -4.1115 2951.7913 1756.0778)">
		<stop  offset="0" style="stop-color:#FE99A0"/>
		<stop  offset="0.593" style="stop-color:#FE646F"/>
		<stop  offset="1" style="stop-color:#E41F2D"/>
	</linearGradient>
	<path class="st7" d="M4.1,16.4l-0.8,0.8c-0.5,0.5-1.3,0.5-1.7,0c-0.5-0.5-0.5-1.2,0-1.7l0.8-0.8L4.1,16.4z"/>
	
		<linearGradient id="SVGID_9_" gradientUnits="userSpaceOnUse" x1="-872.8958" y1="508.4964" x2="-872.2628" y2="508.4964" gradientTransform="matrix(12.5405 0 0 -12.5405 10947.417 6389.9941)">
		<stop  offset="0" style="stop-color:#FE99A0"/>
		<stop  offset="0.593" style="stop-color:#FE646F"/>
		<stop  offset="1" style="stop-color:#E41F2D"/>
	</linearGradient>
	<path class="st8" d="M10,16L2.8,8.8L2.6,8.9c-2,2-1.9,5.3,0.2,7.2c2,1.9,5.1,1.9,7.1,0L10,16z"/>
	
		<linearGradient id="SVGID_10_" gradientUnits="userSpaceOnUse" x1="-894.3768" y1="520.1384" x2="-893.8483" y2="520.1384" gradientTransform="matrix(17.4868 0 0 -17.4883 15646.9775 9102.4678)">
		<stop  offset="0" style="stop-color:#FE99A0"/>
		<stop  offset="0.593" style="stop-color:#FE646F"/>
		<stop  offset="1" style="stop-color:#E41F2D"/>
	</linearGradient>
	<path class="st9" d="M16.7,11.9L6.9,2.1c-0.5-0.5-0.5-1.3,0-1.7c0.5-0.5,1.2-0.5,1.7,0l9.8,9.8c0.5,0.5,0.5,1.3,0,1.7
		C18,12.4,17.2,12.4,16.7,11.9L16.7,11.9z"/>
	<g transform="translate(19.78 0.204)">
		
			<linearGradient id="SVGID_11_" gradientUnits="userSpaceOnUse" x1="-124.3073" y1="344.4855" x2="-123.3543" y2="344.8996" gradientTransform="matrix(1.118 0 0 -2.575 134.0593 888.4088)">
			<stop  offset="0" style="stop-color:#FFF9DF"/>
			<stop  offset="0.593" style="stop-color:#FFE177"/>
			<stop  offset="1" style="stop-color:#FEB137"/>
		</linearGradient>
		<path class="st10" d="M-4.4,1.7c-0.2,0-0.4-0.2-0.4-0.4v-1c0-0.2,0.2-0.4,0.4-0.4C-4.2-0.1-4,0.1-4,0.3v1C-4,1.6-4.2,1.7-4.4,1.7z
			"/>
		<g transform="translate(2.634 4.088)">
			
				<linearGradient id="SVGID_12_" gradientUnits="userSpaceOnUse" x1="-602.9545" y1="76.7756" x2="-602.5404" y2="77.7279" gradientTransform="matrix(2.5735 0 0 -1.118 1550.2529 81.6984)">
				<stop  offset="0" style="stop-color:#FFF9DF"/>
				<stop  offset="0.593" style="stop-color:#FFE177"/>
				<stop  offset="1" style="stop-color:#FEB137"/>
			</linearGradient>
			<path class="st11" d="M-4.2-0.5h-1c-0.2,0-0.4-0.2-0.4-0.4c0-0.2,0.2-0.4,0.4-0.4h1c0.2,0,0.4,0.2,0.4,0.4
				C-3.8-0.7-3.9-0.5-4.2-0.5C-4.1-0.5-4.1-0.5-4.2-0.5z"/>
		</g>
		<g transform="translate(1.863 1.197)">
			
				<linearGradient id="SVGID_13_" gradientUnits="userSpaceOnUse" x1="-533.1581" y1="304.2308" x2="-532.6612" y2="304.727" gradientTransform="matrix(2.1601 0 0 -2.1601 1147.1818 657.3752)">
				<stop  offset="0" style="stop-color:#FFF9DF"/>
				<stop  offset="0.593" style="stop-color:#FFE177"/>
				<stop  offset="1" style="stop-color:#FEB137"/>
			</linearGradient>
			<path class="st12" d="M-5.2,1c-0.2-0.2-0.2-0.4,0-0.6l0.7-0.7c0.1-0.2,0.4-0.2,0.6,0c0.2,0.1,0.2,0.4,0,0.6c0,0,0,0,0,0L-4.7,1
				C-4.8,1.1-5.1,1.1-5.2,1z"/>
		</g>
	</g>
</g>
</svg>
