<?xml version="1.0" encoding="utf-8"?>
<!-- Generator: Adobe Illustrator 24.1.2, SVG Export Plug-In . SVG Version: 6.00 Build 0)  -->
<svg version="1.1" id="recently-played-clr" xmlns="http://www.w3.org/2000/svg" xmlns:xlink="http://www.w3.org/1999/xlink"
	 x="0px" y="0px" width="20px" height="20px" viewBox="0 0 20 20" style="enable-background:new 0 0 20 20;" xml:space="preserve">
<style type="text/css">
	.st0{fill:url(#circle_1_);}
	.st1{fill:url(#arrow_1_);}
</style>
<g id="recently-played">
	
		<linearGradient id="circle_1_" gradientUnits="userSpaceOnUse" x1="-905.4091" y1="526.0455" x2="-905.4091" y2="526.9545" gradientTransform="matrix(22 0 0 -22 19929 11593)">
		<stop  offset="0" style="stop-color:#5558FF"/>
		<stop  offset="1" style="stop-color:#00C0FF"/>
	</linearGradient>
	<circle id="circle" class="st0" cx="10" cy="10" r="10"/>
	
		<linearGradient id="arrow_1_" gradientUnits="userSpaceOnUse" x1="-824.6984" y1="512.4247" x2="-824.6984" y2="513.3338" gradientTransform="matrix(7.6558 0 0 -14.0364 6325.7095 7208.3799)">
		<stop  offset="0" style="stop-color:#ADDCFF"/>
		<stop  offset="0.503" style="stop-color:#EAF6FF"/>
		<stop  offset="1" style="stop-color:#EAF6FF"/>
	</linearGradient>
	<path id="arrow" class="st1" d="M13,15.4l-4.1-4.1c-0.3-0.3-0.4-0.6-0.4-1V4.5c0-0.8,0.6-1.5,1.4-1.5c0.8,0,1.5,0.6,1.5,1.4
		c0,0,0,0,0,0.1v5.2l3.7,3.7c0.6,0.6,0.6,1.5,0,2C14.5,15.9,13.5,15.9,13,15.4L13,15.4L13,15.4z"/>
</g>
</svg>
