<?xml version="1.0" encoding="utf-8"?>
<!-- Generator: Adobe Illustrator 24.1.2, SVG Export Plug-In . SVG Version: 6.00 Build 0)  -->
<svg version="1.1" id="recommended" xmlns="http://www.w3.org/2000/svg" xmlns:xlink="http://www.w3.org/1999/xlink" x="0px"
	 y="0px" width="20px" height="20px" viewBox="0 0 20 20" style="enable-background:new 0 0 20 20;" xml:space="preserve">
<style type="text/css">
	.st0{fill:url(#SVGID_1_);}
	.st1{fill:url(#SVGID_2_);}
</style>
<g id="recommended_1_">
	
		<linearGradient id="SVGID_1_" gradientUnits="userSpaceOnUse" x1="-820.4182" y1="522.5393" x2="-820.4182" y2="521.8645" gradientTransform="matrix(7.409 0 0 -18.523 6080.9775 9685.2451)">
		<stop  offset="0" style="stop-color:#28B0C9"/>
		<stop  offset="1" style="stop-color:#0071BA"/>
	</linearGradient>
	<path class="st0" d="M0,7.5v10c0,0.7,0.6,1.2,1.2,1.2H5V6.2H1.2C0.6,6.2,0,6.8,0,7.5C0,7.5,0,7.5,0,7.5z"/>
	
		<linearGradient id="SVGID_2_" gradientUnits="userSpaceOnUse" x1="-902.0641" y1="530.5875" x2="-902.0641" y2="529.9127" gradientTransform="matrix(20.3763 0 0 -25.9319 18393.8594 13760.4014)">
		<stop  offset="0" style="stop-color:#28B0C9"/>
		<stop  offset="1" style="stop-color:#0071BA"/>
	</linearGradient>
	<path class="st1" d="M17.7,7.5H14c-0.3,0-0.6-0.3-0.6-0.6c0-0.1,0-0.2,0.1-0.3l1.3-2.3c0.5-0.9,0.2-2-0.7-2.5
		c-0.1-0.1-0.3-0.1-0.5-0.2l-0.9-0.2c-0.2-0.1-0.5,0-0.6,0.2L7.1,7C6.5,7.6,6.2,8.3,6.2,9.1v6.5c0,1.7,1.4,3.1,3.1,3.1h6.2
		c1.4,0,2.6-0.9,3-2.3l1.3-6.1c0.3-1.2-0.5-2.5-1.7-2.8C18,7.5,17.9,7.5,17.7,7.5L17.7,7.5z"/>
</g>
</svg>
