<svg width="32" height="32" viewBox="0 0 32 32" fill="none" xmlns="http://www.w3.org/2000/svg">
<rect width="32" height="32" fill="transparent"/>
<g clip-path="url(#clip0)">
<path d="M31.9464 14.569C31.9665 14.7318 31.7889 14.8901 31.7889 15.0563C31.7889 19.2328 24.8184 22.5488 15.9994 22.5488C7.18047 22.5488 0.276977 19.3923 0.276977 15.2158C0.276977 15.053 0.0267929 14.8481 0.04578 14.6886H-0.00112915V19.5053C1.0588 23.735 7.81709 26.9978 15.9983 26.9978C24.1795 26.9978 30.9389 23.7361 31.9978 19.5053L31.9408 14.2677L31.9464 14.569Z" fill="url(#paint0_linear)"/>
<path d="M16.0017 23.6641C24.8324 23.6641 31.991 19.9679 31.991 15.4085C31.991 10.849 24.8324 7.15285 16.0017 7.15285C7.17096 7.15285 0.0122681 10.849 0.0122681 15.4085C0.0122681 19.9679 7.17096 23.6641 16.0017 23.6641Z" fill="url(#paint1_linear)"/>
<path d="M16.0006 19.3934C20.0921 19.3934 23.4089 17.7699 23.4089 15.7673C23.4089 13.7647 20.0921 12.1412 16.0006 12.1412C11.909 12.1412 8.59222 13.7647 8.59222 15.7673C8.59222 17.7699 11.909 19.3934 16.0006 19.3934Z" fill="#30AA76"/>
<path d="M16.0006 7C7.18495 7 0.0133972 10.7357 0.0133972 15.3309C0.0133972 19.9261 7.18383 23.6652 16.0006 23.6652C24.8173 23.6652 31.9911 19.9295 31.9911 15.3309C31.9911 10.7324 24.8195 7 16.0006 7ZM24.7391 21.5697L23.2313 20.2074C23.2079 20.1847 23.1787 20.1686 23.1469 20.161C23.115 20.1534 23.0816 20.1545 23.0504 20.1643L20.7808 20.8476C20.7442 20.8618 20.7117 20.885 20.6865 20.9149C20.6612 20.9448 20.6439 20.9806 20.6362 21.0188C20.6286 21.0571 20.6307 21.0967 20.6425 21.134C20.6543 21.1712 20.6754 21.2049 20.7038 21.2319L21.5158 21.9618C21.5761 22.0168 21.6205 22.0869 21.6444 22.1646C21.6683 22.2424 21.6708 22.3251 21.6517 22.4041C21.6325 22.4832 21.5925 22.5557 21.5356 22.6142C21.4787 22.6728 21.4071 22.7152 21.3281 22.7371C20.2345 22.9544 19.128 23.1024 18.0154 23.1801C17.9575 23.1805 17.9002 23.1691 17.8468 23.1467C17.7935 23.1244 17.7454 23.0914 17.7053 23.05C17.6653 23.0085 17.6342 22.9594 17.6139 22.9056C17.5937 22.8518 17.5848 22.7944 17.5877 22.7371V21.5786C17.5895 21.5225 17.5691 21.4679 17.531 21.4266C17.4928 21.3852 17.4398 21.3602 17.3833 21.3571H14.619C14.5623 21.3597 14.5089 21.3844 14.4706 21.426C14.4323 21.4675 14.4122 21.5224 14.4146 21.5786V22.7326C14.4175 22.79 14.4085 22.8473 14.3883 22.9011C14.3681 22.9549 14.337 23.0041 14.2969 23.0455C14.2569 23.087 14.2087 23.1199 14.1554 23.1423C14.1021 23.1647 14.0447 23.176 13.9868 23.1757C12.8731 23.098 11.7655 22.95 10.6708 22.7326C10.5923 22.71 10.5213 22.6672 10.465 22.6084C10.4087 22.5497 10.3692 22.4772 10.3505 22.3983C10.3317 22.3195 10.3344 22.2371 10.3583 22.1596C10.3822 22.0821 10.4265 22.0123 10.4865 21.9574L11.2951 21.2275C11.3241 21.201 11.3459 21.1675 11.3583 21.1304C11.3707 21.0932 11.3733 21.0535 11.3659 21.015C11.3585 20.9766 11.3414 20.9406 11.3161 20.9105C11.2908 20.8805 11.2582 20.8573 11.2214 20.8432L8.95187 20.1598C8.92005 20.1502 8.88621 20.1491 8.85383 20.1567C8.82144 20.1643 8.79168 20.1803 8.76758 20.203L7.25978 21.5653C7.20784 21.6133 7.14317 21.6457 7.07336 21.6587C7.00354 21.6716 6.93145 21.6646 6.86552 21.6384C6.06646 21.329 5.29465 20.9545 4.55802 20.5187C4.4862 20.4725 4.42867 20.4075 4.39182 20.3309C4.35498 20.2542 4.34025 20.169 4.34927 20.0846C4.35829 20.0002 4.39071 19.9199 4.44293 19.8526C4.49516 19.7853 4.56515 19.7337 4.64514 19.7035L6.41653 19.173C6.45318 19.1588 6.48565 19.1356 6.51092 19.1057C6.53619 19.0758 6.55345 19.04 6.56113 19.0018C6.56881 18.9635 6.56665 18.9239 6.55484 18.8867C6.54304 18.8494 6.52198 18.8157 6.49359 18.7887L5.28177 17.7022C5.25832 17.6795 5.22913 17.6635 5.19729 17.6559C5.16545 17.6483 5.13212 17.6494 5.10083 17.659L2.38009 18.4775C2.30635 18.4988 2.22786 18.4979 2.15465 18.4748C2.08144 18.4517 2.01684 18.4075 1.96908 18.3479C1.58524 17.8711 1.28163 17.3359 1.06998 16.763C1.04446 16.6986 1.03452 16.6291 1.04096 16.5601C1.0474 16.4912 1.07005 16.4247 1.10708 16.3661C1.14411 16.3074 1.1945 16.2581 1.25419 16.2222C1.31389 16.1863 1.38124 16.1648 1.45084 16.1594H4.24306C4.29926 16.1562 4.35193 16.1312 4.38959 16.0897C4.42725 16.0482 4.44684 15.9936 4.4441 15.9379V14.7273C4.44684 14.6716 4.42725 14.617 4.38959 14.5755C4.35193 14.534 4.29926 14.509 4.24306 14.5058H1.45084C1.38124 14.5004 1.31389 14.4789 1.25419 14.443C1.1945 14.4071 1.14411 14.3578 1.10708 14.2991C1.07005 14.2405 1.0474 14.174 1.04096 14.105C1.03452 14.0361 1.04446 13.9666 1.06998 13.9022C1.28014 13.3287 1.58388 12.7932 1.96908 12.3173C2.01684 12.2577 2.08144 12.2135 2.15465 12.1904C2.22786 12.1673 2.30635 12.1664 2.38009 12.1877L5.10083 13.0062C5.13212 13.0158 5.16545 13.0169 5.19729 13.0093C5.22913 13.0017 5.25832 12.9857 5.28177 12.963L6.48913 11.8754C6.51751 11.8484 6.53858 11.8147 6.55038 11.7774C6.56218 11.7402 6.56434 11.7006 6.55667 11.6623C6.54899 11.624 6.53172 11.5883 6.50645 11.5584C6.48118 11.5284 6.44872 11.5053 6.41206 11.4911L4.64068 10.9606C4.56068 10.9303 4.49069 10.8787 4.43847 10.8115C4.38624 10.7442 4.35383 10.6639 4.3448 10.5795C4.33578 10.4951 4.35051 10.4099 4.38736 10.3332C4.42421 10.2566 4.48173 10.1916 4.55356 10.1454C5.29244 9.70797 6.06603 9.3309 6.86663 9.01795C6.9329 8.99233 7.00514 8.98591 7.07494 8.99944C7.14475 9.01297 7.20924 9.04589 7.2609 9.09437L8.7687 10.4566C8.7928 10.4794 8.82256 10.4954 8.85494 10.503C8.88733 10.5106 8.92117 10.5095 8.95299 10.4998L11.2225 9.81649C11.2593 9.80238 11.2919 9.77919 11.3172 9.74913C11.3425 9.71906 11.3596 9.6831 11.367 9.64463C11.3744 9.60617 11.3718 9.56648 11.3594 9.5293C11.347 9.49213 11.3253 9.4587 11.2962 9.43217L10.4876 8.7023C10.4276 8.64732 10.3833 8.57753 10.3595 8.50005C10.3356 8.42257 10.3328 8.34019 10.3516 8.26133C10.3703 8.18247 10.4099 8.10996 10.4661 8.05122C10.5224 7.99248 10.5934 7.94962 10.6719 7.92702C11.7666 7.70967 12.8742 7.5617 13.9879 7.484C14.0459 7.48347 14.1033 7.4947 14.1567 7.51702C14.2101 7.53934 14.2583 7.57228 14.2984 7.61378C14.3385 7.65529 14.3696 7.70449 14.3897 7.75836C14.4099 7.81223 14.4187 7.86963 14.4157 7.92702V9.0844C14.4133 9.14063 14.4334 9.19551 14.4717 9.23703C14.51 9.27855 14.5634 9.30332 14.6201 9.3059H17.3844C17.4409 9.30275 17.4939 9.27782 17.5321 9.23643C17.5703 9.19504 17.5906 9.14047 17.5888 9.0844V7.93477C17.5859 7.87742 17.5948 7.82009 17.6151 7.76629C17.6353 7.71249 17.6664 7.66336 17.7064 7.62189C17.7465 7.58041 17.7946 7.54748 17.848 7.5251C17.9013 7.50273 17.9586 7.49138 18.0165 7.49175C19.1292 7.56944 20.2356 7.71741 21.3292 7.93477C21.4082 7.95666 21.4798 7.99907 21.5367 8.0576C21.5936 8.11614 21.6337 8.18869 21.6528 8.26774C21.6719 8.34678 21.6694 8.42947 21.6455 8.50723C21.6216 8.58499 21.5772 8.65502 21.5169 8.71005L20.7049 9.43992C20.6765 9.46696 20.6554 9.50066 20.6436 9.5379C20.6318 9.57513 20.6297 9.61471 20.6374 9.65299C20.645 9.69127 20.6623 9.72703 20.6876 9.75696C20.7128 9.78688 20.7453 9.81002 20.782 9.82424L23.0515 10.5076C23.0828 10.5173 23.1161 10.5184 23.148 10.5108C23.1798 10.5032 23.209 10.4872 23.2324 10.4644L24.7402 9.10212C24.7925 9.05359 24.8576 9.02067 24.9279 9.00715C24.9983 8.99363 25.071 9.00006 25.1378 9.0257C25.9384 9.33863 26.712 9.7157 27.4509 10.1532C27.522 10.1998 27.5789 10.265 27.6152 10.3415C27.6515 10.418 27.666 10.5029 27.657 10.587C27.648 10.6711 27.6159 10.7511 27.5642 10.8184C27.5125 10.8856 27.4432 10.9375 27.3638 10.9683L25.5891 11.4988C25.5524 11.5132 25.5201 11.5365 25.495 11.5666C25.4699 11.5966 25.4529 11.6325 25.4455 11.6709C25.4381 11.7092 25.4407 11.7488 25.4529 11.7859C25.4651 11.823 25.4866 11.8565 25.5153 11.8832L26.7193 12.9708C26.7435 12.9934 26.7733 13.0094 26.8056 13.0169C26.838 13.0245 26.8718 13.0235 26.9036 13.014L29.6244 12.1955C29.6976 12.1738 29.7757 12.1745 29.8484 12.1977C29.9212 12.2208 29.9852 12.2652 30.032 12.3251C30.4185 12.8002 30.7223 13.3358 30.9311 13.91C30.9566 13.9742 30.9666 14.0434 30.9604 14.1121C30.9541 14.1808 30.9317 14.2471 30.8951 14.3057C30.8584 14.3643 30.8085 14.4136 30.7492 14.4497C30.6899 14.4858 30.6229 14.5077 30.5536 14.5136H27.7614C27.7052 14.5167 27.6525 14.5418 27.6149 14.5833C27.5772 14.6248 27.5576 14.6793 27.5604 14.7351V15.9456C27.5576 16.0014 27.5772 16.056 27.6149 16.0974C27.6525 16.1389 27.7052 16.164 27.7614 16.1671H30.5536C30.6229 16.173 30.6899 16.1949 30.7492 16.231C30.8085 16.2671 30.8584 16.3164 30.8951 16.375C30.9317 16.4337 30.9541 16.5 30.9604 16.5687C30.9666 16.6374 30.9566 16.7066 30.9311 16.7707C30.7208 17.3442 30.4171 17.8796 30.032 18.3556C29.9852 18.4155 29.9212 18.4599 29.8484 18.483C29.7757 18.5062 29.6976 18.5069 29.6244 18.4852L26.9036 17.6667C26.8718 17.6572 26.838 17.6562 26.8056 17.6638C26.7733 17.6714 26.7435 17.6873 26.7193 17.7099L25.5153 18.7975C25.4866 18.8242 25.4651 18.8577 25.4529 18.8948C25.4407 18.9319 25.4381 18.9715 25.4455 19.0098C25.4529 19.0482 25.4699 19.0841 25.495 19.1141C25.5201 19.1442 25.5524 19.1675 25.5891 19.1819L27.3638 19.7124C27.4432 19.7432 27.5125 19.7951 27.5642 19.8623C27.6159 19.9296 27.648 20.0096 27.657 20.0937C27.666 20.1778 27.6515 20.2627 27.6152 20.3392C27.5789 20.4157 27.522 20.4809 27.4509 20.5275C26.7126 20.9652 25.939 21.3412 25.1378 21.6517C25.0704 21.677 24.9971 21.6827 24.9265 21.6682C24.8558 21.6537 24.7909 21.6195 24.7391 21.5697Z" fill="#E0E1E3"/>
<path d="M16.0017 18.1928C19.1507 18.1928 21.7034 17.0419 21.7034 15.6222C21.7034 14.2025 19.1507 13.0516 16.0017 13.0516C12.8527 13.0516 10.3 14.2025 10.3 15.6222C10.3 17.0419 12.8527 18.1928 16.0017 18.1928Z" fill="#D9D9D9"/>
<path d="M16.1134 9.688H15.89C15.7349 9.69547 15.5891 9.7635 15.4845 9.87722C15.3799 9.99095 15.3249 10.1411 15.3315 10.2949V15.4627C15.3249 15.6165 15.3799 15.7667 15.4845 15.8804C15.5891 15.9942 15.7349 16.0622 15.89 16.0697H16.1134C16.2684 16.0622 16.4142 15.9942 16.5189 15.8804C16.6235 15.7667 16.6785 15.6165 16.6718 15.4627V10.2994C16.6757 10.2228 16.6644 10.1463 16.6384 10.0741C16.6124 10.002 16.5724 9.93558 16.5205 9.87879C16.4686 9.822 16.406 9.77592 16.3361 9.74318C16.2662 9.71044 16.1905 9.69169 16.1134 9.688Z" fill="url(#paint2_linear)"/>
<path d="M19.9085 12.0526C19.769 12.063 19.6366 12.1177 19.531 12.2088L16.8293 11.3139L18.1629 10.5785C18.2064 10.5918 18.2332 10.6283 18.2745 10.6283C18.4053 10.6283 18.5307 10.5768 18.6232 10.4851C18.7157 10.3934 18.7676 10.269 18.7676 10.1393C18.7676 10.0097 18.7157 9.88528 18.6232 9.79358C18.5307 9.70188 18.4053 9.65036 18.2745 9.65036C18.1761 9.6549 18.0815 9.68992 18.0042 9.75052C17.9269 9.81111 17.8706 9.89423 17.8434 9.98816L15.995 11.0126L14.1465 9.98816C14.1201 9.89441 14.0645 9.8113 13.9877 9.75065C13.9109 9.69001 13.8168 9.65492 13.7187 9.65036C13.588 9.65036 13.4625 9.70188 13.3701 9.79358C13.2776 9.88528 13.2256 10.0097 13.2256 10.1393C13.2256 10.269 13.2776 10.3934 13.3701 10.4851C13.4625 10.5768 13.588 10.6283 13.7187 10.6283C13.7623 10.6283 13.7925 10.5918 13.8304 10.5785L15.1607 11.3139L12.4634 12.2088C12.3578 12.1177 12.2254 12.063 12.0859 12.0526C11.9107 12.0597 11.745 12.1336 11.6236 12.259C11.5021 12.3845 11.4343 12.5516 11.4343 12.7254C11.4343 12.8993 11.5021 13.0664 11.6236 13.1919C11.745 13.3173 11.9107 13.3912 12.0859 13.3983C12.2436 13.3943 12.3947 13.3342 12.5114 13.2288C12.6281 13.1235 12.7026 12.98 12.7214 12.8246L15.9905 11.7436L19.2596 12.8246C19.2791 12.9802 19.3544 13.1238 19.4716 13.2291C19.5889 13.3344 19.7404 13.3944 19.8985 13.3983C20.0737 13.3912 20.2393 13.3173 20.3608 13.1919C20.4822 13.0664 20.55 12.8993 20.55 12.7254C20.55 12.5516 20.4822 12.3845 20.3608 12.259C20.2393 12.1336 20.0737 12.0597 19.8985 12.0526H19.9085Z" fill="url(#paint3_linear)"/>
</g>
<defs>
<linearGradient id="paint0_linear" x1="-0.00112915" y1="20.6327" x2="31.9978" y2="20.6327" gradientUnits="userSpaceOnUse">
<stop offset="0.003" stop-color="#F05B1E"/>
<stop offset="0.519" stop-color="#E2401C"/>
<stop offset="1" stop-color="#D92C1C"/>
</linearGradient>
<linearGradient id="paint1_linear" x1="16.1296" y1="4.89081" x2="16.0869" y2="18.3478" gradientUnits="userSpaceOnUse">
<stop stop-color="#E95070"/>
<stop offset="0.193" stop-color="#E7496A"/>
<stop offset="0.472" stop-color="#E3355B"/>
<stop offset="0.804" stop-color="#DD1643"/>
<stop offset="1" stop-color="#D90032"/>
</linearGradient>
<linearGradient id="paint2_linear" x1="15.3323" y1="12.8788" x2="16.6739" y2="12.8788" gradientUnits="userSpaceOnUse">
<stop offset="0.003" stop-color="#FFE153"/>
<stop offset="0.026" stop-color="#FEDF51"/>
<stop offset="0.68" stop-color="#F5AB1C"/>
<stop offset="1" stop-color="#F29808"/>
</linearGradient>
<linearGradient id="paint3_linear" x1="11.4343" y1="11.5243" x2="20.55" y2="11.5243" gradientUnits="userSpaceOnUse">
<stop offset="0.003" stop-color="#FFE153"/>
<stop offset="0.026" stop-color="#FEDF51"/>
<stop offset="0.68" stop-color="#F5AB1C"/>
<stop offset="1" stop-color="#F29808"/>
</linearGradient>
<clipPath id="clip0">
<rect width="32" height="20" fill="white" transform="translate(0 7)"/>
</clipPath>
</defs>
</svg>
