<svg xmlns="http://www.w3.org/2000/svg" xmlns:xlink="http://www.w3.org/1999/xlink" width="21.727" height="25.454" viewBox="0 0 21.727 25.454">
  <defs>
    <linearGradient id="linear-gradient" x1="0.5" x2="0.5" y2="1" gradientUnits="objectBoundingBox">
      <stop offset="0" stop-color="#ff2a2a"/>
      <stop offset="1" stop-color="#ce0707"/>
    </linearGradient>
    <linearGradient id="linear-gradient-2" x1="0.5" x2="0.5" y2="1" gradientUnits="objectBoundingBox">
      <stop offset="0" stop-color="#6cd800"/>
      <stop offset="1" stop-color="#00b71e"/>
    </linearGradient>
  </defs>
  <g id="slots" transform="translate(8.863 -610.764) rotate(8)">
    <g id="Group_20478" data-name="Group 20478" transform="translate(-16.02 562.468) rotate(-8)">
      <path id="Path_65544" data-name="Path 65544" d="M247.26,205.013a5.9,5.9,0,1,0,5.9,5.9A5.907,5.907,0,0,0,247.26,205.013Z" transform="translate(-146.148 -139.531)" fill="url(#linear-gradient)"/>
      <g id="Group_20477" data-name="Group 20477" transform="translate(85.281 56)">
        <path id="Path_65545" data-name="Path 65545" d="M93.594,68.593c-.2-3.643-.7-7.14-4.525-8.964,2.477-1.189,7.957,2.627,9.489,6.433a5.855,5.855,0,0,1,1.064-.39c-2.114-4.406-5.51-7-10.471-7.315,0-.834-.855-1.6-.855-2.358,0,1.089-.855,2.142-.855,3.18l-1.67.094a.518.518,0,0,0-.477.625h0a.518.518,0,0,0,.506.409h.68a5.187,5.187,0,0,1,5.129,3.369,15.154,15.154,0,0,1,.869,5.017,6.461,6.461,0,0,1,1.112-.1Z" transform="translate(-85.281 -56)" fill="url(#linear-gradient-2)"/>
        <path id="Path_65546" data-name="Path 65546" d="M121.59,253.89h-.023a6.279,6.279,0,1,0,.023,0Z" transform="translate(-113.258 -241.297)" fill="rgba(255,87,87,0.54)"/>
        <path id="Path_65547" data-name="Path 65547" d="M270.57,313.4c-2.305-.512-2.433-3.629-2.433-3.671a.474.474,0,0,0-.47-.47h0a.485.485,0,0,0-.47.512h0c0,.171.171,3.885,3.2,4.568h.128a.45.45,0,0,0,.427-.512A.75.75,0,0,0,270.57,313.4Z" transform="translate(-262.908 -291.689)" fill="#fff" stroke="#fff" stroke-width="1.2"/>
      </g>
    </g>
  </g>
</svg>
