<?xml version="1.0" encoding="utf-8"?>
<!-- Generator: Adobe Illustrator 24.1.2, SVG Export Plug-In . SVG Version: 6.00 Build 0)  -->
<svg version="1.1" id="slots-clr" xmlns="http://www.w3.org/2000/svg" xmlns:xlink="http://www.w3.org/1999/xlink" x="0px" y="0px"
	 width="20px" height="20px" viewBox="0 0 20 20" style="enable-background:new 0 0 20 20;" xml:space="preserve">
<style type="text/css">
	.st0{fill:url(#neck_1_);}
	.st1{fill:url(#leaf_1_);}
	.st2{fill:url(#cherry_2_);}
	.st3{fill:url(#cherry_3_);}
</style>
<g id="slots">
	
		<linearGradient id="neck_1_" gradientUnits="userSpaceOnUse" x1="-873.9178" y1="513.0523" x2="-873.1461" y2="513.0523" gradientTransform="matrix(12.5722 0 0 -14.0238 10993.7363 7204.5498)">
		<stop  offset="0" style="stop-color:#1EB78A"/>
		<stop  offset="1" style="stop-color:#1A7B5A"/>
	</linearGradient>
	<path id="neck" class="st0" d="M16.3,4.5c-0.1-0.2-0.4-0.4-0.7-0.1l-0.9,0.8c0,0,0,0.1,0,0.1C12.4,5.4,10.3,6.4,8.7,8
		C8.1,8.6,7.5,9.3,7,10c-0.1,0.2-0.3,0.4-0.4,0.6c0,0.1,0.1,0.1,0.2,0.2L7,11c0.1-0.1,0.2-0.3,0.4-0.6C7.9,9.7,8.4,9,9.1,8.3
		c1.4-1.5,3.3-2.4,5.4-2.7c-1.2,1.8-1.8,4-1.5,6.2c0.1,0.9,0.2,1.7,0.4,2.5c0.1,0.3,0.1,0.5,0.2,0.7c0.1,0,0.2,0,0.2,0
		c0.1,0,0.2,0,0.2,0c-0.1-0.2-0.1-0.4-0.2-0.6c-0.2-0.9-0.4-1.7-0.5-2.6c-0.2-2.2,0.4-4.4,1.7-6.2c0,0,1.1-0.5,1.1-0.5
		C16.4,5,16.4,4.8,16.3,4.5C16.3,4.5,16.3,4.5,16.3,4.5z"/>
	
		<linearGradient id="leaf_1_" gradientUnits="userSpaceOnUse" x1="-876.1277" y1="479.7599" x2="-875.8129" y2="479.5055" gradientTransform="matrix(13.0163 0 0 -7.4674 11414.9395 3586.0981)">
		<stop  offset="0" style="stop-color:#1EB78A"/>
		<stop  offset="1" style="stop-color:#1A7B5A"/>
	</linearGradient>
	<path id="leaf" class="st1" d="M11.9,0C7-0.4,6.3,5.8,6.3,5.8S8.1,3.9,9.6,4c2.1,0.2,2.3,1.1,4.7,1.2c1.6,0,2.1-0.4,2.1-0.4
		c0.2-2.5-1.7-4.6-4.2-4.8C12.1,0,12,0,11.9,0z"/>
	
		<linearGradient id="cherry_2_" gradientUnits="userSpaceOnUse" x1="-853.874" y1="499.1709" x2="-853.6575" y2="499.8553" gradientTransform="matrix(9.9801 0 0 -10.2936 8526.4258 5153.6333)">
		<stop  offset="0" style="stop-color:#E32343"/>
		<stop  offset="1" style="stop-color:#F16883"/>
	</linearGradient>
	<path id="cherry_1_" class="st2" d="M9.4,13.8c0.4-0.9,0.2-1.9-0.5-2.6c-0.1-0.1-0.2-0.2-0.3-0.2c-0.8-0.5-1.4-1.2-1.8-2
		C6.8,8.9,6.7,8.8,6.7,8.7C6.1,7.9,5.1,7.6,4.2,7.9C3.8,8,3.4,8.1,3,8.4c-1.5,1.3-1.5,3.9,0.1,5.7s4.1,2.2,5.6,0.9
		C9.1,14.6,9.3,14.3,9.4,13.8z"/>
	
		<linearGradient id="cherry_3_" gradientUnits="userSpaceOnUse" x1="-864.4434" y1="485.2605" x2="-864.5099" y2="485.8498" gradientTransform="matrix(11.2171 0 0 -8.052 9710.6982 3926.0996)">
		<stop  offset="0" style="stop-color:#E32343"/>
		<stop  offset="0.614" style="stop-color:#F16883"/>
	</linearGradient>
	<path id="cherry" class="st3" d="M17.7,15.1c-0.4-0.8-1.3-1.4-2.2-1.3c-0.1,0-0.3,0-0.4,0c-0.9,0.2-1.8,0.2-2.7,0
		c-0.1,0-0.3,0-0.4,0c-0.9-0.1-1.8,0.4-2.2,1.3c-0.2,0.4-0.4,0.8-0.4,1.3c0,2,1.9,3.7,4.3,3.7s4.3-1.6,4.3-3.7
		C18.1,15.9,18,15.5,17.7,15.1z"/>
</g>
</svg>
