<?xml version="1.0" encoding="utf-8"?>
<!-- Generator: Adobe Illustrator 24.1.2, SVG Export Plug-In . SVG Version: 6.00 Build 0)  -->
<svg version="1.1" id="table-games-clr" xmlns="http://www.w3.org/2000/svg" xmlns:xlink="http://www.w3.org/1999/xlink" x="0px"
	 y="0px" width="20px" height="20px" viewBox="0 0 20 20" style="enable-background:new 0 0 20 20;" xml:space="preserve">
<style type="text/css">
	.st0{fill:url(#Path_57086_1_);}
	.st1{fill:none;stroke:#CCCCCC;stroke-width:0.115;stroke-miterlimit:10;}
	.st2{fill:#D9D9D9;}
	.st3{fill:url(#Path_57097_1_);}
	.st4{fill:#D3D5D6;}
</style>
<g id="table-games">
	
		<linearGradient id="Path_57086_1_" gradientUnits="userSpaceOnUse" x1="-890.8928" y1="517.9036" x2="-891.0235" y2="518.6746" gradientTransform="matrix(16.33 0 0 -16.33 14563.1621 8472.1328)">
		<stop  offset="0" style="stop-color:#1F60AB"/>
		<stop  offset="1" style="stop-color:#4DB8A7"/>
	</linearGradient>
	<path id="Path_57086" class="st0" d="M13.9,14.9c-3.4,0-6.1-2.7-6.1-6.1c0-3.4,2.7-6.1,6.1-6.1c3.4,0,6.1,2.7,6.1,6.1c0,0,0,0,0,0
		C20,12.2,17.3,14.9,13.9,14.9z"/>
	<path id="Path_57087" class="st1" d="M17.8,8.8c0,2.2-1.8,4-4,4s-4-1.8-4-4c0-2.2,1.8-4,4-4C16.1,4.8,17.8,6.6,17.8,8.8
		C17.8,8.8,17.8,8.8,17.8,8.8z"/>
	<path id="Path_57088" class="st2" d="M8.8,8.6l0,0.6c0,0.4-0.3,0.7-0.7,0.7l-0.1,0C7.9,9.3,7.9,8.7,8,8l0.1,0
		C8.4,8,8.8,8.2,8.8,8.6z"/>
	<path id="Path_57089" class="st2" d="M10.6,12.7c0.3,0.3,0.3,0.7,0,0.9l-0.1,0.1c-0.6-0.3-1-0.8-1.4-1.3l0.1-0.1
		c0.2-0.3,0.7-0.3,0.9-0.1L10.6,12.7z"/>
	<path id="Path_57090" class="st2" d="M14.8,14.5L14.8,14.5c-0.6,0.2-1.3,0.2-1.9,0.1v-0.1c0-0.4,0.3-0.7,0.6-0.7h0.6
		C14.5,13.8,14.8,14.1,14.8,14.5z"/>
	<path id="Path_57091" class="st2" d="M18.5,12.3L18.5,12.3c-0.3,0.6-0.8,1-1.3,1.4l-0.1-0.1c-0.3-0.3-0.3-0.7,0-0.9c0,0,0,0,0,0
		l0.5-0.4C17.9,12,18.3,12,18.5,12.3z"/>
	<path id="Path_57092" class="st2" d="M19.7,8c0.1,0.3,0.1,0.6,0.1,1c0,0.3-0.1,0.6-0.1,1h-0.1c-0.4,0-0.7-0.3-0.7-0.7l0-0.6
		C18.9,8.3,19.3,8,19.7,8L19.7,8z"/>
	<path id="Path_57093" class="st2" d="M18.7,5.3L18.7,5.3c-0.3,0.3-0.7,0.4-1,0.1L17.2,5C17,4.7,17,4.3,17.3,4L17.3,4
		C17.9,4.3,18.3,4.8,18.7,5.3z"/>
	<path id="Path_57094" class="st2" d="M14.8,2.9L14.8,2.9c0,0.5-0.3,0.8-0.6,0.8h-0.6c-0.4,0-0.7-0.3-0.6-0.7V2.9
		C13.5,2.8,14.1,2.8,14.8,2.9L14.8,2.9z"/>
	<path id="Path_57095" class="st2" d="M10.3,4.2c0.3,0.2,0.3,0.7,0,0.9L9.9,5.6C9.7,5.8,9.2,5.8,9,5.5L8.9,5.4
		C9.3,4.9,9.7,4.4,10.3,4.2L10.3,4.2z"/>
	<path id="Path_57096" class="st2" d="M13.5,10.4c-0.1,0-0.1,0-0.1-0.1l0,0c0,0,0-0.1,0-0.2l0,0v0l0,0l0,0l0,0c0,0,0-0.1,0.1-0.1
		l0,0c0-0.1,0.1-0.2,0.1-0.3l0,0c-0.1,0.1-0.3,0.1-0.4,0.1l0,0c-0.3,0-0.6-0.2-0.8-0.5l0,0c0-0.1-0.1-0.2-0.1-0.3l0,0
		c0-0.1,0-0.2,0.1-0.3l0,0c0-0.1,0.1-0.2,0.2-0.3l0,0c0.1-0.1,0.3-0.2,0.5-0.2l0,0c0-0.1,0-0.1,0-0.2l0,0c0-0.1,0-0.2,0.1-0.3l0,0
		c0-0.1,0.1-0.2,0.2-0.3l0,0c0.2-0.1,0.4-0.2,0.6-0.2l0,0c0.3,0,0.6,0.2,0.8,0.5l0,0c0,0.1,0.1,0.2,0.1,0.3l0,0c0,0.1,0,0.1,0,0.2
		l0,0c0.3,0,0.6,0.2,0.7,0.5l0,0c0,0.1,0.1,0.2,0.1,0.3l0,0c0,0.1,0,0.2-0.1,0.3l0,0c0,0.1-0.1,0.2-0.2,0.3l0,0
		c-0.2,0.1-0.4,0.2-0.6,0.2l0,0c-0.1,0-0.3,0-0.4-0.1l0,0c0,0.2,0.1,0.3,0.1,0.5l0,0c0,0,0,0.1,0,0.2l0,0c0,0-0.1,0.1-0.1,0.1
		L13.5,10.4L13.5,10.4z"/>
	
		<linearGradient id="Path_57097_1_" gradientUnits="userSpaceOnUse" x1="-890.7505" y1="517.9615" x2="-890.8812" y2="518.7325" gradientTransform="matrix(16.334 0 0 -16.334 14556.6729 8477.6201)">
		<stop  offset="0.531" style="stop-color:#D90032"/>
		<stop  offset="1" style="stop-color:#E95070"/>
	</linearGradient>
	<path id="Path_57097" class="st3" d="M6.1,17.4c-3.4,0-6.1-2.7-6.1-6.1c0-3.4,2.7-6.1,6.1-6.1s6.1,2.7,6.1,6.1
		C12.3,14.6,9.5,17.4,6.1,17.4z"/>
	<path id="Path_57098" class="st1" d="M10.1,11.2c0,2.2-1.8,4-4,4s-4-1.8-4-4s1.8-4,4-4l0,0C8.3,7.3,10.1,9,10.1,11.2
		C10.1,11.2,10.1,11.2,10.1,11.2z"/>
	<path id="Path_57099" class="st4" d="M1.1,11.1l0,0.6c0,0.4-0.3,0.7-0.7,0.7l-0.1,0c-0.2-0.6-0.2-1.3-0.1-1.9l0.1,0
		C0.7,10.5,1,10.7,1.1,11.1z"/>
	<path id="Path_57100" class="st4" d="M2.9,15.2c0.3,0.3,0.3,0.7,0,0.9l-0.1,0.1c-0.6-0.3-1-0.8-1.4-1.3l0.1-0.1
		c0.2-0.3,0.7-0.3,0.9-0.1L2.9,15.2z"/>
	<path id="Path_57101" class="st4" d="M7,17L7,17c-0.6,0.2-1.3,0.2-1.9,0.1V17c0-0.4,0.3-0.7,0.6-0.7h0.6C6.8,16.3,7.1,16.6,7,17z"
		/>
	<path id="Path_57102" class="st4" d="M10.8,14.8L10.8,14.8c-0.3,0.6-0.8,1-1.3,1.4l-0.1-0.1c-0.3-0.3-0.3-0.7,0-0.9l0.5-0.4
		C10.1,14.5,10.6,14.5,10.8,14.8z"/>
	<path id="Path_57103" class="st4" d="M12,10.5c0.1,0.3,0.1,0.6,0.1,1c0,0.3-0.1,0.6-0.1,1h-0.1c-0.4,0-0.7-0.3-0.7-0.7l0-0.6
		C11.2,10.7,11.5,10.5,12,10.5L12,10.5z"/>
	<path id="Path_57104" class="st4" d="M11,7.8L11,7.8c-0.3,0.3-0.7,0.4-1,0.1c0,0,0,0,0,0L9.5,7.5c-0.2-0.3-0.2-0.7,0-0.9
		c0,0,0,0,0,0l0.1-0.1C10.2,6.8,10.6,7.3,11,7.8z"/>
	<path id="Path_57105" class="st4" d="M7,5.4L7,5.4c0,0.5-0.3,0.8-0.6,0.8H5.8c-0.4,0-0.6-0.3-0.6-0.7V5.4C5.8,5.2,6.4,5.2,7,5.4z"
		/>
	<path id="Path_57106" class="st4" d="M2.6,6.6c0.3,0.2,0.3,0.7,0,0.9L2.2,8C1.9,8.3,1.5,8.3,1.3,8c0,0,0,0,0,0L1.2,7.9
		C1.5,7.4,2,6.9,2.6,6.6L2.6,6.6z"/>
	<path id="Path_57107" class="st2" d="M5.6,12.8c-0.1,0-0.1,0-0.1-0.1l0,0c0-0.1,0-0.1,0-0.2l0,0v0l0,0l0,0l0,0c0,0,0-0.1,0.1-0.1
		l0,0c0-0.1,0.1-0.2,0.1-0.3l0,0c-0.1,0-0.2,0-0.2,0l0,0c-0.2,0-0.3,0-0.4-0.1l0,0c-0.1-0.1-0.3-0.2-0.3-0.3l0,0
		c-0.1-0.1-0.1-0.2-0.1-0.4l0,0c0-0.1,0-0.3,0.1-0.4l0,0c0.1-0.1,0.2-0.2,0.2-0.4l0,0c0.2-0.2,0.4-0.4,0.6-0.6l0,0
		c0.2-0.2,0.4-0.3,0.6-0.5l0,0c0.2,0.1,0.4,0.3,0.5,0.4l0,0c0.2,0.2,0.4,0.4,0.7,0.6l0,0c0.1,0.1,0.2,0.3,0.3,0.5l0,0
		c0,0.1,0.1,0.2,0.1,0.3l0,0c0,0.1,0,0.2-0.1,0.4l0,0c-0.1,0.1-0.2,0.3-0.3,0.3l0,0c-0.1,0.1-0.3,0.1-0.5,0.1l0,0
		c-0.1,0-0.2,0-0.2,0l0,0c0,0.1,0.1,0.3,0.2,0.4l0,0c0,0,0.1,0.1,0,0.2l0,0c0,0.1-0.1,0.1-0.1,0.1L5.6,12.8L5.6,12.8z"/>
</g>
</svg>
