<?xml version="1.0" encoding="utf-8"?>
<!-- Generator: Adobe Illustrator 24.1.2, SVG Export Plug-In . SVG Version: 6.00 Build 0)  -->
<svg version="1.1" id="Layer_1" xmlns="http://www.w3.org/2000/svg" xmlns:xlink="http://www.w3.org/1999/xlink" x="0px" y="0px"
	 width="20px" height="20px" viewBox="0 0 20 20" style="enable-background:new 0 0 20 20;" xml:space="preserve">
<style type="text/css">
	.st0{fill:url(#SVGID_1_);}
	.st1{fill:url(#SVGID_2_);}
	.st2{fill:url(#SVGID_3_);}
	.st3{fill:url(#SVGID_4_);}
	.st4{fill:url(#SVGID_5_);}
	.st5{fill:url(#SVGID_6_);}
	.st6{fill:url(#SVGID_7_);}
	.st7{fill:url(#SVGID_8_);}
	.st8{fill:url(#SVGID_9_);}
	.st9{fill:url(#SVGID_10_);}
	.st10{fill:url(#SVGID_11_);}
	.st11{fill:url(#SVGID_12_);}
</style>
<g>
	
		<linearGradient id="SVGID_1_" gradientUnits="userSpaceOnUse" x1="-908.0592" y1="501.4569" x2="-907.2031" y2="501.4569" gradientTransform="matrix(23.3545 0 0 -10.684 21207.2813 5365.208)">
		<stop  offset="0" style="stop-color:#FFF9DF"/>
		<stop  offset="0.593" style="stop-color:#FFE177"/>
		<stop  offset="1" style="stop-color:#FEB137"/>
	</linearGradient>
	<path class="st0" d="M15.4,4.4c1.8,0,3.2,1.4,3.3,3.1c0,1.8-1.4,3.2-3.1,3.3c0,0-0.1,0-0.1,0H4.6c-1.8,0-3.2-1.4-3.3-3.1
		c0-1.8,1.4-3.2,3.1-3.3c0,0,0.1,0,0.1,0H15.4z M15.4,3.1H4.6C2,3.1,0,5.1,0,7.6c0,2.5,2,4.6,4.6,4.6h10.9c2.5,0,4.6-2.1,4.6-4.6
		C20,5.1,18,3.1,15.4,3.1z"/>
	<g transform="translate(2.244 3.812)">
		
			<linearGradient id="SVGID_2_" gradientUnits="userSpaceOnUse" x1="-529.8156" y1="381.4831" x2="-528.5262" y2="381.4831" gradientTransform="matrix(2.25 0 0 -3.183 1190.9 1221.2452)">
			<stop  offset="0" style="stop-color:#FFF9DF"/>
			<stop  offset="1" style="stop-color:#FFD15B"/>
		</linearGradient>
		<path class="st1" d="M1.1,6.8C0.5,6.6,0,6.1-0.3,5.6c0,0.7,0.1,1.5,0.4,2.2c0.5,0.3,1,0.5,1.6,0.5C1.4,7.9,1.2,7.3,1.1,6.8z"/>
		
			<linearGradient id="SVGID_3_" gradientUnits="userSpaceOnUse" x1="-342.7749" y1="372.5487" x2="-340.9128" y2="372.5487" gradientTransform="matrix(1.558 0 0 -3.026 532.8583 1128.0797)">
			<stop  offset="0" style="stop-color:#FFF9DF"/>
			<stop  offset="1" style="stop-color:#FFD15B"/>
		</linearGradient>
		<path class="st2" d="M1,0.9v-1.5C0.5-0.4,0.1-0.2-0.3,0.1V2C0,1.6,0.5,1.2,1,0.9z"/>
	</g>
	<g transform="translate(18.866 3.812)">
		
			<linearGradient id="SVGID_4_" gradientUnits="userSpaceOnUse" x1="-538.0501" y1="377.9801" x2="-537.3027" y2="377.9801" gradientTransform="matrix(2.203 0 0 -3.117 1182.8267 1185.1788)">
			<stop  offset="0" style="stop-color:#FEB137"/>
			<stop  offset="1" style="stop-color:#ECA026"/>
		</linearGradient>
		<path class="st3" d="M-2.2,6.8c-0.1,0.5-0.3,1.1-0.5,1.6c0.5-0.1,1-0.3,1.5-0.5C-1,7.1-0.8,6.4-0.8,5.7C-1.2,6.2-1.7,6.6-2.2,6.8z
			"/>
		
			<linearGradient id="SVGID_5_" gradientUnits="userSpaceOnUse" x1="-342.2214" y1="368.7173" x2="-341.1324" y2="368.7173" gradientTransform="matrix(1.512 0 0 -2.961 514.9362 1092.4904)">
			<stop  offset="0" style="stop-color:#FEB137"/>
			<stop  offset="1" style="stop-color:#ECA026"/>
		</linearGradient>
		<path class="st4" d="M-2.1-0.5v1.5c0.5,0.2,1,0.6,1.3,1.1V0.1C-1.2-0.2-1.7-0.4-2.1-0.5z"/>
	</g>
	
		<linearGradient id="SVGID_6_" gradientUnits="userSpaceOnUse" x1="-879.7087" y1="442.5684" x2="-878.7456" y2="442.5684" gradientTransform="matrix(13.7421 0 0 -4.856 12093.0088 2167.0281)">
		<stop  offset="0" style="stop-color:#FFF9DF"/>
		<stop  offset="0.593" style="stop-color:#FFE177"/>
		<stop  offset="1" style="stop-color:#FEB137"/>
	</linearGradient>
	<path class="st5" d="M14.7,17.6h-0.9c-1,0-1.8-0.8-1.8-1.8H8c0,1-0.8,1.8-1.8,1.8H5.3c-0.6,0-1.2,0.5-1.2,1.1
		c0,0.6,0.5,1.2,1.1,1.2c0,0,0,0,0,0h9.4c0.6,0,1.2-0.5,1.2-1.2c0,0,0,0,0,0C15.9,18.1,15.3,17.6,14.7,17.6z"/>
	
		<linearGradient id="SVGID_7_" gradientUnits="userSpaceOnUse" x1="-760.6268" y1="165.5972" x2="-760.0704" y2="165.5972" gradientTransform="matrix(5.044 0 0 -1.3652 3845.626 242.506)">
		<stop  offset="0" style="stop-color:#FFE177"/>
		<stop  offset="1" style="stop-color:#FEB137"/>
	</linearGradient>
	<path class="st6" d="M8,15.8c0,0.3-0.1,0.6-0.2,0.8c1.4,0.5,2.9,0.5,4.3,0C12,16.4,12,16.1,12,15.8H8z"/>
	
		<linearGradient id="SVGID_8_" gradientUnits="userSpaceOnUse" x1="-889.5361" y1="522.0467" x2="-888.6954" y2="522.0467" gradientTransform="matrix(16.032 0 0 -18.325 14264.2197 9574.8887)">
		<stop  offset="0" style="stop-color:#FFF9DF"/>
		<stop  offset="0.593" style="stop-color:#FFE177"/>
		<stop  offset="1" style="stop-color:#FEB137"/>
	</linearGradient>
	<path class="st7" d="M10,16.2c-3.8,0-6.9-3.1-6.9-6.9V0.5h13.7v8.8C16.9,13.2,13.8,16.2,10,16.2z"/>
	
		<linearGradient id="SVGID_9_" gradientUnits="userSpaceOnUse" x1="-889.1817" y1="522.0416" x2="-888.7348" y2="522.0416" gradientTransform="matrix(16.032 0 0 -18.3218 14264.2197 9573.1162)">
		<stop  offset="0" style="stop-color:#FFE177"/>
		<stop  offset="1" style="stop-color:#FEB137"/>
	</linearGradient>
	<path class="st8" d="M16.9,0.5v8.8c0,3.8-3.1,6.9-6.9,6.9c-0.3,0-0.5,0-0.8,0c3.5-0.4,6.1-3.3,6.1-6.8v-6H3.1V0.5H16.9z"/>
	
		<linearGradient id="SVGID_10_" gradientUnits="userSpaceOnUse" x1="-896.9356" y1="358.5047" x2="-895.9725" y2="358.5047" gradientTransform="matrix(18.3224 0 0 -2.748 16435.9434 986.3473)">
		<stop  offset="0" style="stop-color:#FFF9DF"/>
		<stop  offset="0.593" style="stop-color:#FFE177"/>
		<stop  offset="1" style="stop-color:#FEB137"/>
	</linearGradient>
	<path class="st9" d="M16.7,2.4H3.3c-0.6,0-1.2-0.5-1.2-1.2S2.7,0,3.3,0c0,0,0,0,0,0h13.3c0.6,0,1.2,0.5,1.2,1.2S17.3,2.4,16.7,2.4
		C16.7,2.4,16.7,2.4,16.7,2.4z"/>
	<g transform="translate(7.1 6.068)">
		
			<linearGradient id="SVGID_11_" gradientUnits="userSpaceOnUse" x1="-852.4963" y1="485.0448" x2="-851.7421" y2="485.0448" gradientTransform="matrix(9.1673 0 0 -8.8293 7813.2632 4285.5073)">
			<stop  offset="0" style="stop-color:#FE99A0"/>
			<stop  offset="0.593" style="stop-color:#FE646F"/>
			<stop  offset="1" style="stop-color:#E41F2D"/>
		</linearGradient>
		<path class="st10" d="M3.8-0.3l0.7,1.4L6,1.3c0.5,0.1,0.9,0.6,0.8,1.1c0,0.2-0.1,0.4-0.3,0.6L5.4,4l0.3,1.5c0.1,0.5-0.3,1-0.8,1.1
			c-0.2,0-0.4,0-0.6-0.1L2.9,5.9L1.5,6.6C1.1,6.8,0.5,6.6,0.2,6.2C0.1,6,0.1,5.7,0.1,5.5L0.4,4l-1.1-1.1c-0.4-0.4-0.4-1,0-1.4
			c0.2-0.2,0.3-0.3,0.6-0.3l1.5-0.2L2-0.3C2.3-0.8,2.8-1,3.3-0.8C3.5-0.7,3.7-0.5,3.8-0.3z"/>
		
			<linearGradient id="SVGID_12_" gradientUnits="userSpaceOnUse" x1="-834.9009" y1="463.3127" x2="-834.2314" y2="463.3127" gradientTransform="matrix(7.849 0 0 -6.4711 6554.5498 3002.0583)">
			<stop  offset="0" style="stop-color:#FE646F"/>
			<stop  offset="0.704" style="stop-color:#E41F2D"/>
			<stop  offset="1" style="stop-color:#C41926"/>
		</linearGradient>
		<path class="st11" d="M6,1.3L5.1,1.1l0,0c0,2.2-1.8,3.9-3.9,3.9C0.8,5.1,0.5,5,0.2,5L0.1,5.5C0,6.1,0.4,6.6,0.9,6.7
			c0.2,0,0.4,0,0.6-0.1l1.4-0.7l1.4,0.7c0.5,0.3,1.1,0.1,1.3-0.4C5.7,6,5.7,5.7,5.7,5.5L5.4,4l1.1-1.1c0.4-0.4,0.4-1,0-1.4
			C6.4,1.4,6.2,1.3,6,1.3z"/>
	</g>
</g>
</svg>
