<?xml version="1.0" encoding="utf-8"?>
<!-- Generator: Adobe Illustrator 24.1.2, SVG Export Plug-In . SVG Version: 6.00 Build 0)  -->
<svg version="1.1" id="live-roulette-clr" xmlns="http://www.w3.org/2000/svg" xmlns:xlink="http://www.w3.org/1999/xlink" x="0px"
	 y="0px" width="20px" height="20px" viewBox="0 0 20 20" style="enable-background:new 0 0 20 20;" xml:space="preserve">
<style type="text/css">
	.st0{fill:url(#bg_1_);}
	.st1{fill:url(#letter_4_);}
	.st2{fill:url(#letter_5_);}
	.st3{fill:url(#letter_6_);}
	.st4{fill:url(#letter_7_);}
</style>
<g id="live-roulette">
	
		<linearGradient id="bg_1_" gradientUnits="userSpaceOnUse" x1="-918.7631" y1="516.856" x2="-918.7631" y2="517.4155" gradientTransform="matrix(31.812 0 0 -15.906 29237.6914 8236.001)">
		<stop  offset="0" style="stop-color:#D90032"/>
		<stop  offset="1" style="stop-color:#E95070"/>
	</linearGradient>
	<path id="bg" class="st0" d="M0.5,5h19C19.8,5,20,5.2,20,5.5v9c0,0.3-0.2,0.5-0.5,0.5h-19C0.2,15,0,14.8,0,14.5v-9
		C0,5.2,0.2,5,0.5,5z"/>
	
		<linearGradient id="letter_4_" gradientUnits="userSpaceOnUse" x1="-759.3917" y1="494.735" x2="-759.3917" y2="495.3637" gradientTransform="matrix(5.005 0 0 -9.568 3805.646 4746.6279)">
		<stop  offset="0" style="stop-color:#FFFFFF"/>
		<stop  offset="1" style="stop-color:#EFEFEF"/>
	</linearGradient>
	<path id="letter" class="st1" d="M3.3,13V7h1.1v5h2v1H3.3z"/>
	
		<linearGradient id="letter_5_" gradientUnits="userSpaceOnUse" x1="-419.0839" y1="494.735" x2="-419.0839" y2="495.3637" gradientTransform="matrix(1.784 0 0 -9.568 755.428 4746.6279)">
		<stop  offset="0" style="stop-color:#FFFFFF"/>
		<stop  offset="1" style="stop-color:#EFEFEF"/>
	</linearGradient>
	<path id="letter_1_" class="st2" d="M7.2,13V7h1.1v6H7.2z"/>
	
		<linearGradient id="letter_6_" gradientUnits="userSpaceOnUse" x1="-803.3534" y1="494.735" x2="-803.3534" y2="495.3637" gradientTransform="matrix(6.497 0 0 -9.568 5230.3931 4746.6279)">
		<stop  offset="0" style="stop-color:#FFFFFF"/>
		<stop  offset="1" style="stop-color:#EFEFEF"/>
	</linearGradient>
	<path id="letter_2_" class="st3" d="M10.3,13L9,7h1.2l0.9,4.8L11.9,7H13l-1.3,6H10.3z"/>
	
		<linearGradient id="letter_7_" gradientUnits="userSpaceOnUse" x1="-760.0191" y1="494.735" x2="-760.0191" y2="495.3637" gradientTransform="matrix(4.989 0 0 -9.568 3807.0508 4746.6279)">
		<stop  offset="0" style="stop-color:#FFFFFF"/>
		<stop  offset="1" style="stop-color:#EFEFEF"/>
	</linearGradient>
	<path id="letter_3_" class="st4" d="M13.7,13V7h3.1v1h-2v1.4h1.8v1h-1.8V12h2v1L13.7,13z"/>
</g>
</svg>
