<svg xmlns="http://www.w3.org/2000/svg" width="25.037" height="25.037" viewBox="0 0 25.037 25.037"><ellipse cx="12.519" cy="12.519" rx="12.519" ry="12.519" transform="translate(0 0)" fill="#007ab9"/><g transform="translate(6.04 5.349)"><path d="M41.026,32.146v5.161H38.034V32.492c0-1.209-.432-2.035-1.515-2.035a1.637,1.637,0,0,0-1.535,1.094,2.048,2.048,0,0,0-.1.729v5.026H31.892s.04-8.155,0-9h2.993v1.275c-.006.01-.015.02-.02.029h.02v-.029a2.971,2.971,0,0,1,2.7-1.487c1.969,0,3.445,1.286,3.445,4.05ZM28.761,23.969a1.559,1.559,0,1,0-.039,3.11h.019a1.56,1.56,0,1,0,.02-3.11ZM27.246,37.307h2.991v-9H27.246Z" transform="translate(-27.068 -23.969)" fill="#f1f2f2"/></g></svg>