<svg xmlns="http://www.w3.org/2000/svg" xmlns:xlink="http://www.w3.org/1999/xlink" width="61.497" height="61.497" viewBox="0 0 61.497 61.497"><defs><linearGradient id="a" x1="0.5" x2="0.5" y2="1" gradientUnits="objectBoundingBox"><stop offset="0" stop-color="#e14e72"/><stop offset="1" stop-color="#dd1c4b"/></linearGradient></defs><g transform="translate(0 0)"><g transform="translate(5.301 26.507)"><path d="M40,200H56.965v20.146H40Z" transform="translate(-40 -200)" fill="#dd1c4b"/><path d="M168,200h16.965v20.146H168Z" transform="translate(-151.035 -200)" fill="#dd1c4b"/><path d="M296,200h16.965v20.146H296Z" transform="translate(-262.07 -200)" fill="#dd1c4b"/></g><path d="M0,112v46.653H61.5V112Zm6.362,31.809V123.663H21.206v20.146Zm16.965,0V123.663H38.171v20.146Zm16.965,0V123.663H55.136v20.146Z" transform="translate(0 -97.156)" fill="url(#a)"/><path d="M161.447,8.482H151.9L148.724,0l-3.181,8.482H136l7.422,5.3L141.3,22.266l7.422-4.241,7.422,4.241-2.121-8.482Z" transform="translate(-117.975 0)" fill="#f6f6f6"/><g transform="translate(8.482 29.688)"><path d="M69.3,237.784a1.06,1.06,0,0,1-1.06-1.06,19.28,19.28,0,0,1,3.195-10.6H66.121v1.06a1.06,1.06,0,1,1-2.121,0V225.06A1.06,1.06,0,0,1,65.06,224h8.482a1.06,1.06,0,0,1,.828,1.723l-.267.333a17.137,17.137,0,0,0-3.742,10.668A1.06,1.06,0,0,1,69.3,237.784Z" transform="translate(-64 -224)" fill="#f6f6f6"/><path d="M197.3,237.784a1.06,1.06,0,0,1-1.06-1.06,19.28,19.28,0,0,1,3.195-10.6h-5.315v1.06a1.06,1.06,0,1,1-2.121,0V225.06a1.06,1.06,0,0,1,1.06-1.06h8.482a1.06,1.06,0,0,1,.828,1.723l-.267.333a17.136,17.136,0,0,0-3.742,10.668A1.06,1.06,0,0,1,197.3,237.784Z" transform="translate(-175.035 -224)" fill="#f6f6f6"/><path d="M325.3,237.784a1.06,1.06,0,0,1-1.06-1.06,19.28,19.28,0,0,1,3.195-10.6h-5.315v1.06a1.06,1.06,0,1,1-2.121,0V225.06a1.06,1.06,0,0,1,1.06-1.06h8.482a1.06,1.06,0,0,1,.828,1.723l-.267.333a17.137,17.137,0,0,0-3.742,10.668A1.06,1.06,0,0,1,325.3,237.784Z" transform="translate(-286.07 -224)" fill="#f6f6f6"/></g><ellipse cx="4" cy="3" rx="4" ry="3" transform="translate(5.752 51.886)" fill="#f6f6f6"/><ellipse cx="2.5" cy="3" rx="2.5" ry="3" transform="translate(28.752 51.886)" fill="#f6f6f6"/><ellipse cx="3.5" cy="3" rx="3.5" ry="3" transform="translate(38.752 51.886)" fill="#ffd33f"/><ellipse cx="2" cy="3" rx="2" ry="3" transform="translate(17.752 51.886)" fill="#ffd33f"/><g transform="translate(3.181 6.362)"><ellipse cx="1.5" cy="3" rx="1.5" ry="3" transform="translate(48.571 45.524)" fill="#f6f6f6"/><path d="M39.9,53.3H34.6L31.952,48,29.3,53.3H24l4.241,4.241-1.06,4.241,4.771-2.121,4.771,2.121-1.06-4.241Z" transform="translate(-24 -48)" fill="#f6f6f6"/><path d="M335.9,53.3h-5.3L327.952,48,325.3,53.3H320l4.241,4.241-1.06,4.241,4.771-2.121,4.771,2.121-1.06-4.241Z" transform="translate(-280.769 -48)" fill="#f6f6f6"/></g></g></svg>