<svg xmlns="http://www.w3.org/2000/svg" width="56.124" height="62.225" viewBox="0 0 56.124 62.225"><g transform="translate(-155 -1853)"><g transform="translate(155 1874.962)"><circle cx="20" cy="20" r="20" transform="translate(0.001 0.038)" fill="#e83762"/><path d="M40.265,196.5c.016.331.025.663.025,1a20.118,20.118,0,0,1-40,3.079A20.118,20.118,0,1,0,40.265,196.5Z" transform="translate(-0.236 -179.43)" fill="#b21d48"/><g transform="translate(1.25 0.027)"><path d="M39.908,20.108l11.986-6.914a20.085,20.085,0,0,0-3.448-5.962l-11.978,6.91V.3a19.95,19.95,0,0,0-6.937,0V14.1L17.585,7.194a20.1,20.1,0,0,0-3.481,6L26.09,20.132,14.1,27.043A20.085,20.085,0,0,0,17.553,33l11.978-6.91V39.933a19.95,19.95,0,0,0,6.937,0v-13.8l11.945,6.91a20.1,20.1,0,0,0,3.481-6Z" transform="translate(-14.104)" fill="#f6f6e7"/><circle cx="1" cy="1" r="1" transform="translate(9.75 33.012)" fill="#f6f6e7"/><circle cx="1" cy="1" r="1" transform="translate(25.75 33.012)" fill="#f6f6e7"/><ellipse cx="1.5" cy="2" rx="1.5" ry="2" transform="translate(33.75 18.011)" fill="#f6f6e7"/><circle cx="1" cy="1" r="1" transform="translate(25.75 5.012)" fill="#f6f6e7"/><circle cx="1" cy="1" r="1" transform="translate(9.75 5.012)" fill="#f6f6e7"/><ellipse cx="1.5" cy="2" rx="1.5" ry="2" transform="translate(0.75 18.011)" fill="#f6f6e7"/></g><path d="M102.5,83.861a13.181,13.181,0,1,0,0,18.641h0A13.181,13.181,0,0,0,102.5,83.861Zm-4.464,17.731a9.712,9.712,0,1,1,3.555-13.267h0A9.712,9.712,0,0,1,98.037,101.592Z" transform="translate(-73.036 -73.036)" fill="#dd1c4b"/><path d="M122.953,107.251a11.1,11.1,0,1,0,0,15.7,11.1,11.1,0,0,0,0-15.7ZM119.2,122.183a8.179,8.179,0,1,1,2.991-11.174l0,0A8.178,8.178,0,0,1,119.2,122.183Z" transform="translate(-94.959 -94.955)" fill="#f6f6e7"/><circle cx="9" cy="9" r="9" transform="translate(11 11.038)" fill="#e14e72"/></g><g transform="translate(170.861 1853)"><circle cx="20" cy="20" r="20" transform="translate(0.139 0)" fill="#dd1c4b"/><path d="M40.265,196.5c.016.331.025.663.025,1a20.118,20.118,0,0,1-40,3.079A20.118,20.118,0,1,0,40.265,196.5Z" transform="translate(-0.236 -179.43)" fill="#b21d48"/><g transform="translate(1.25 0.027)"><path d="M39.908,20.108l11.986-6.914a20.085,20.085,0,0,0-3.448-5.962l-11.978,6.91V.3a19.95,19.95,0,0,0-6.937,0V14.1L17.585,7.194a20.1,20.1,0,0,0-3.481,6L26.09,20.132,14.1,27.043A20.085,20.085,0,0,0,17.553,33l11.978-6.91V39.933a19.95,19.95,0,0,0,6.937,0v-13.8l11.945,6.91a20.1,20.1,0,0,0,3.481-6Z" transform="translate(-14.104)" fill="#f6f6e7"/><circle cx="1" cy="1" r="1" transform="translate(9.889 32.973)" fill="#f6f6e7"/><circle cx="1" cy="1" r="1" transform="translate(25.889 32.973)" fill="#f6f6e7"/><ellipse cx="1.5" cy="2" rx="1.5" ry="2" transform="translate(33.889 17.973)" fill="#f6f6e7"/><circle cx="1" cy="1" r="1" transform="translate(25.889 4.973)" fill="#f6f6e7"/><circle cx="1" cy="1" r="1" transform="translate(9.889 4.973)" fill="#f6f6e7"/><ellipse cx="1.5" cy="2" rx="1.5" ry="2" transform="translate(0.889 17.973)" fill="#f6f6e7"/></g><path d="M102.5,83.861a13.181,13.181,0,1,0,0,18.641h0A13.181,13.181,0,0,0,102.5,83.861Zm-4.464,17.731a9.712,9.712,0,1,1,3.555-13.267h0A9.712,9.712,0,0,1,98.037,101.592Z" transform="translate(-73.036 -73.036)" fill="#dd1c4b"/><path d="M122.953,107.251a11.1,11.1,0,1,0,0,15.7,11.1,11.1,0,0,0,0-15.7ZM119.2,122.183a8.179,8.179,0,1,1,2.991-11.174l0,0A8.178,8.178,0,0,1,119.2,122.183Z" transform="translate(-94.959 -94.955)" fill="#f6f6e7"/><circle cx="9" cy="9" r="9" transform="translate(11.139 11)" fill="#dd1c4b"/></g></g></svg>