<svg xmlns="http://www.w3.org/2000/svg" width="45.5" height="55.794" viewBox="0 0 45.5 55.794"><g transform="translate(-1719.232 -1750.409)"><path d="M93.319,20.6l1.2-13.632A4.26,4.26,0,0,1,97.8,3.185L111.135.11a4.26,4.26,0,0,1,4.609,1.958L122.79,13.8a4.261,4.261,0,0,1-.437,4.989l-8.981,10.325a4.26,4.26,0,0,1-4.879,1.125L95.9,24.888A4.259,4.259,0,0,1,93.319,20.6Zm0,0" transform="translate(1625.929 1750.409)" fill="#abebf4"/><path d="M148.62,55.871l-4.255-7.086a16.615,16.615,0,0,0-1.663.619l-9.193,4a16.364,16.364,0,0,0-9.3,10.725l-.956,3.481,11.069,4.7a4.26,4.26,0,0,0,4.879-1.125l8.981-10.325a4.261,4.261,0,0,0,.437-4.989Zm0,0" transform="translate(1600.099 1708.336)" fill="#4d9de0"/><path d="M121.321,14.532,127.349.338a4.254,4.254,0,0,0-2.623-.23L111.393,3.183a4.26,4.26,0,0,0-2.33,1.441l7.985,6.453Zm0,0" transform="translate(1612.338 1750.41)" fill="#6ccee5"/><path d="M153.5,54.856l-5.754,1.327a2.813,2.813,0,0,0-2.17,2.5l-.516,5.883a2.813,2.813,0,0,0,1.7,2.834L152.2,69.7a2.813,2.813,0,0,0,3.222-.743l3.875-4.456a2.813,2.813,0,0,0,.289-3.294l-3.04-5.063a2.813,2.813,0,0,0-3.044-1.293Zm0,0" transform="translate(1581.301 1703.163)" fill="#ccf8ff"/><path d="M159.583,72.67l-2.762-4.6L152.3,70.035a16.394,16.394,0,0,0-7.254,6.146,2.807,2.807,0,0,0,1.712,2.674l5.436,2.308a2.812,2.812,0,0,0,3.222-.743l3.876-4.456a2.814,2.814,0,0,0,.289-3.295Zm0,0" transform="translate(1581.304 1691.704)" fill="#abebf4"/><path d="M166.347,136.969a9.52,9.52,0,0,1-5.184-3.6l-5.866-8.134a9.354,9.354,0,0,1-1.44-7.984l3.244-11.82a9.356,9.356,0,0,1,5.315-6.131l9.195-4a9.487,9.487,0,0,1,11.479,3.15l5.865,8.134a9.354,9.354,0,0,1,1.44,7.984l-3.244,11.82a9.354,9.354,0,0,1-5.314,6.13l-9.2,4A9.515,9.515,0,0,1,166.347,136.969Zm0,0" transform="translate(1573.997 1668.897)" fill="#f2587d"/><g transform="translate(1728.042 1763.543)"><path d="M218.257,95.8a9.519,9.519,0,0,0-6.3.449l-9.195,4a9.412,9.412,0,0,0-2.611,1.693l12.321,14.916Zm0,0" transform="translate(-194.266 -95.461)" fill="#dd1c4b"/><path d="M157.34,257.492a9.4,9.4,0,0,0,1.383,2.8l5.866,8.134a9.436,9.436,0,0,0,4.961,3.444l6-20.9Zm0,0" transform="translate(-157.34 -229.57)" fill="#dd1c4b"/><path d="M303.79,219.521l3.245-11.82a9.366,9.366,0,0,0-.06-5.2l-18.209,6.537,12.413,14.83a9.364,9.364,0,0,0,2.611-4.351Zm0,0" transform="translate(-270.683 -187.777)" fill="#dd1c4b"/></g><path d="M216.971,144.151l-9.2,4a2.6,2.6,0,0,0-1.469,1.694l-3.244,11.82a2.6,2.6,0,0,0,.4,2.207l5.865,8.133a2.688,2.688,0,0,0,3.251.893l9.2-4a2.6,2.6,0,0,0,1.469-1.695l3.244-11.82a2.6,2.6,0,0,0-.4-2.207l-5.865-8.134A2.687,2.687,0,0,0,216.971,144.151Zm0,0" transform="translate(1531.35 1626.284)" fill="#d54a6c"/><path d="M283.855,38.011l.558,1.02a6.063,6.063,0,0,0,2.409,2.409l1.02.558a1.5,1.5,0,0,1,0,2.64l-1.02.557a6.063,6.063,0,0,0-2.409,2.409l-.558,1.02a1.5,1.5,0,0,1-2.639,0l-.558-1.02a6.064,6.064,0,0,0-2.409-2.409l-1.02-.557a1.5,1.5,0,0,1,0-2.64l1.02-.558a6.063,6.063,0,0,0,2.409-2.409l.558-1.02A1.5,1.5,0,0,1,283.855,38.011Zm0,0" transform="translate(1467.983 1718.303)" fill="#d2c362"/><path d="M131.08,185.235l.451.827a4.916,4.916,0,0,0,1.952,1.952l.826.452a1.219,1.219,0,0,1,0,2.139l-.826.451a4.917,4.917,0,0,0-1.952,1.953l-.451.826a1.219,1.219,0,0,1-2.139,0l-.452-.826a4.913,4.913,0,0,0-1.952-1.953l-.826-.451a1.219,1.219,0,0,1,0-2.139l.826-.452a4.911,4.911,0,0,0,1.952-1.952l.452-.827A1.219,1.219,0,0,1,131.08,185.235Zm0,0" transform="translate(1598.527 1591.206)" fill="#d2c362"/></g></svg>