<svg xmlns="http://www.w3.org/2000/svg" xmlns:xlink="http://www.w3.org/1999/xlink" width="66.098" height="66.112" viewBox="0 0 66.098 66.112"><defs><linearGradient id="a" x1="0.5" x2="0.5" y2="1" gradientUnits="objectBoundingBox"><stop offset="0" stop-color="#e14e72"/><stop offset="1" stop-color="#dd2754"/></linearGradient></defs><ellipse cx="21" cy="20.5" rx="21" ry="20.5" transform="translate(11.304 12.063)" fill="url(#a)"/><g transform="translate(0 0)"><g transform="translate(0 0)"><g transform="translate(0 0)"><path d="M66.013,40.871l-3.566-7.836,3.522-7.879a1.438,1.438,0,0,0-.46-1.754l-6.987-5.061-.877-8.626a1.438,1.438,0,0,0-1.28-1.28L47.74,7.544,42.708.6A1.438,1.438,0,0,0,40.954.125L33.075,3.662,25.2.125A1.438,1.438,0,0,0,23.442.6L18.381,7.587l-8.626.891a1.438,1.438,0,0,0-1.28,1.28L7.6,18.385.64,23.4a1.438,1.438,0,0,0-.474,1.754L3.7,33.035.165,40.914A1.438,1.438,0,0,0,.64,42.668l6.987,5.061L8.5,56.355a1.438,1.438,0,0,0,1.28,1.28l8.626.891,5.061,6.987a1.438,1.438,0,0,0,1.754.474l7.85-3.58,7.879,3.537a1.438,1.438,0,0,0,1.754-.474l5.061-6.987,8.626-.891a1.438,1.438,0,0,0,1.28-1.28l.877-8.626,6.987-5.061A1.438,1.438,0,0,0,66.013,40.871Zm-9.7,4.888a1.437,1.437,0,0,0-.589,1.021l-.834,8.066-8.066.834a1.437,1.437,0,0,0-1.021.589l-4.744,6.57-7.4-3.321a1.437,1.437,0,0,0-1.179,0l-7.4,3.321-4.744-6.57a1.438,1.438,0,0,0-1.021-.589l-8.066-.834L10.4,46.78a1.437,1.437,0,0,0-.589-1.021l-6.57-4.744,3.321-7.39a1.437,1.437,0,0,0,0-1.179l-3.321-7.39,6.57-4.744A1.438,1.438,0,0,0,10.4,19.29l.834-8.066,8.066-.834A1.438,1.438,0,0,0,20.322,9.8l4.744-6.57,7.4,3.321a1.437,1.437,0,0,0,1.179,0l7.4-3.321L45.8,9.8a1.437,1.437,0,0,0,1.021.589l8.066.834.834,8.066a1.438,1.438,0,0,0,.589,1.021l6.57,4.744-3.321,7.39a1.437,1.437,0,0,0,0,1.179l3.321,7.39Z" transform="translate(-0.04 0)" fill="#dd1c4b"/></g></g><path d="M11.254.731,8.571,6.172l-6,.875A1.316,1.316,0,0,0,1.84,9.291l4.344,4.233L5.156,19.5a1.314,1.314,0,0,0,1.907,1.385l5.371-2.823L17.8,20.887A1.315,1.315,0,0,0,19.711,19.5l-1.027-5.979,4.344-4.233A1.316,1.316,0,0,0,22.3,7.047l-6-.875L13.613.731a1.316,1.316,0,0,0-2.359,0Z" transform="translate(20.527 21.916)" fill="#f6f6f6"/></g></svg>