<svg xmlns="http://www.w3.org/2000/svg" xmlns:xlink="http://www.w3.org/1999/xlink" width="64.648" height="37.88" viewBox="0 0 64.648 37.88"><defs><linearGradient id="a" x1="0.5" y1="1" x2="0.5" gradientUnits="objectBoundingBox"><stop offset="0" stop-color="#dd1c4b"/><stop offset="1" stop-color="#e14e72"/></linearGradient></defs><g transform="translate(0 -49.396)"><g transform="translate(0 49.396)"><path d="M64.531,209.973c0-.026-.01-.053-.016-.079l-3.993-18.008A13.265,13.265,0,0,0,41.5,182.419a66.215,66.215,0,0,1-7.076,2.8,7.363,7.363,0,0,1-2.022.369,14.033,14.033,0,0,1-2.488-.369c-2.386-.264-4.317-1.557-6.774-2.8a13.265,13.265,0,0,0-19.018,9.468s-4,18.06-4.009,18.087a7.581,7.581,0,0,0,7.459,8.907c2.958,0,3.655-.62,10.323-6.553,1.457-1.3,3.245-2.887,5.433-4.811H41.316c2.213,1.946,4.015,3.549,5.484,4.856,6.62,5.892,7.312,6.507,10.272,6.507a7.581,7.581,0,0,0,7.459-8.907Z" transform="translate(0 -181)" fill="url(#a)"/></g><g transform="translate(11.49 34.244)"><g transform="translate(0 0)"><path d="M104.258,68.336a5.682,5.682,0,1,0,5.682,5.682A5.688,5.688,0,0,0,104.258,68.336Zm-5.682-3.788h1.894a1.894,1.894,0,0,0,0-3.788H98.576V58.866a1.894,1.894,0,0,0-3.788,0V60.76H92.894a1.894,1.894,0,0,0,0,3.788h1.894v1.894a1.894,1.894,0,1,0,3.788,0Zm9.47-3.788a1.894,1.894,0,1,0,1.894,1.894A1.894,1.894,0,0,0,108.046,60.76Zm11.364,7.576a5.682,5.682,0,1,0,5.682,5.682A5.688,5.688,0,0,0,119.41,68.336Zm11.364-7.576H128.88V58.866a1.894,1.894,0,0,0-3.788,0V60.76H123.2a1.894,1.894,0,0,0,0,3.788h1.894v1.894a1.894,1.894,0,0,0,3.788,0V64.548h1.894a1.894,1.894,0,0,0,0-3.788Zm-17.046,1.894a1.894,1.894,0,1,0,1.894-1.894A1.894,1.894,0,0,0,113.728,62.654Z" transform="translate(-91 -34.244)" fill="#f6f6f6"/></g></g></g></svg>