<svg xmlns="http://www.w3.org/2000/svg" xmlns:xlink="http://www.w3.org/1999/xlink" width="61.054" height="61.054" viewBox="0 0 61.054 61.054"><defs><linearGradient id="a" x1="0.5" x2="0.5" y2="1" gradientUnits="objectBoundingBox"><stop offset="0" stop-color="#cb4558"/><stop offset="1" stop-color="#e14e72"/></linearGradient></defs><g transform="translate(-0.007)"><path d="M220,39.7l-.241-1.038A37.794,37.794,0,0,0,205.638,17l-3.818-2.863,1.28-1.706,3.818,2.863A39.943,39.943,0,0,1,221.84,38.181l.241,1.04Z" transform="translate(-175.446 -10.773)" fill="#f6f6f6"/><path d="M114.313,52.159H112.18v-1.6a51.692,51.692,0,0,1,8.71-28.771l.6-.888,1.774,1.184-.592.888a49.56,49.56,0,0,0-8.352,27.586Z" transform="translate(-97.476 -18.114)" fill="#f6f6f6"/><path d="M251.6,202.748a8.3,8.3,0,0,0-8.817-2.144,7.445,7.445,0,0,1-5.3,0,8.237,8.237,0,0,0-8.68,2.01,16,16,0,1,0,22.787.133Z" transform="translate(-195.069 -174.184)" fill="url(#a)"/><path d="M27.633,242.757a8.3,8.3,0,0,0-8.817-2.144,7.445,7.445,0,0,1-5.3,0,8.237,8.237,0,0,0-8.674,2.01,16,16,0,1,0,22.787.133Z" transform="translate(-0.17 -208.861)" fill="#dd1c4b"/><path d="M162.313,0h8.532a2.133,2.133,0,0,1,2.133,2.133h0a2.133,2.133,0,0,1-2.133,2.133h-8.532a2.133,2.133,0,0,1-2.133-2.133h0A2.133,2.133,0,0,1,162.313,0Z" transform="translate(-139.189 0)" fill="#1f9342"/><path d="M198.267,343.662a1.5,1.5,0,0,1-1.482-1.739,14.831,14.831,0,0,0,.187-2.374,1.5,1.5,0,0,1,3,0,18.127,18.127,0,0,1-.229,2.848,1.5,1.5,0,0,1-1.478,1.265Z" transform="translate(-170.901 -295.182)" fill="#eff2fa"/><path d="M145.539,393.513a1.368,1.368,0,0,1-.513-2.637,13.261,13.261,0,0,0,6.2-5.13,1.368,1.368,0,0,1,2.3,1.471,15.964,15.964,0,0,1-7.478,6.188A1.351,1.351,0,0,1,145.539,393.513Z" transform="translate(-127.346 -334.589)" fill="#eff2fa"/><path d="M373.779,359.447a1.444,1.444,0,0,1-.614-2.753,14.139,14.139,0,0,0,5-3.926,1.444,1.444,0,0,1,2.251,1.805,17.055,17.055,0,0,1-6.035,4.735,1.441,1.441,0,0,1-.607.135Z" transform="translate(-325.697 -305.93)" fill="#eff2fa"/></g></svg>