<svg xmlns="http://www.w3.org/2000/svg" width="61.41" height="61.41" viewBox="0 0 61.41 61.41"><path d="M153.718,125.685l-15.266-15.266a8.9,8.9,0,0,0-5.269-2.569,1.774,1.774,0,0,0-2,1.567l-21.716,21.716a1.8,1.8,0,0,0-1.567,2,8.9,8.9,0,0,0,2.569,5.269l15.266,15.266a8.992,8.992,0,0,0,12.72,0l15.266-15.266a8.992,8.992,0,0,0,0-12.72Z" transform="translate(-94.944 -94.898)" fill="#e14e72"/><g transform="translate(33.552 33.602)"><path d="M368.19,287.3a3.6,3.6,0,1,1,2.544-1.055A3.578,3.578,0,0,1,368.19,287.3Z" transform="translate(-354.415 -280.159)" fill="#f6f6f6"/><path d="M283.332,371.8a3.6,3.6,0,1,1,2.544-1.051A3.572,3.572,0,0,1,283.332,371.8Z" transform="translate(-279.736 -354.478)" fill="#f6f6f6"/></g><path d="M30.585,0H9A9,9,0,0,0,0,9V30.585a9,9,0,0,0,9,9H30.585a9,9,0,0,0,9-9V9A9,9,0,0,0,30.585,0Z" fill="#dd1c4b"/><g transform="translate(23.388 8.996)"><path d="M198.6,82.2a3.6,3.6,0,1,1,3.6-3.6A3.6,3.6,0,0,1,198.6,82.2Z" transform="translate(-195 -75)" fill="#f6f6f6"/><path d="M198.6,202.2a3.6,3.6,0,1,1,3.6-3.6A3.6,3.6,0,0,1,198.6,202.2Z" transform="translate(-195 -180.607)" fill="#f6f6f6"/></g><g transform="translate(8.996 8.996)"><path d="M78.6,82.2a3.6,3.6,0,1,1,3.6-3.6A3.6,3.6,0,0,1,78.6,82.2Z" transform="translate(-75 -75)" fill="#e4feff"/><path d="M78.6,202.2a3.6,3.6,0,1,1,3.6-3.6A3.6,3.6,0,0,1,78.6,202.2Z" transform="translate(-75 -180.607)" fill="#e4feff"/></g></svg>