<svg xmlns="http://www.w3.org/2000/svg" width="46.315" height="70.952" viewBox="0 0 46.315 70.952"><g transform="translate(0 0)"><path d="M241,452h4.157v8.315H241Z" transform="translate(-219.921 -389.363)" fill="#dd1c4b"/><path d="M97.5,389.669v-2.079a6.2,6.2,0,0,1,2.3-4.8,93.986,93.986,0,0,1-4.592-12.8L88.891,374.2l3.865,15.468Z" transform="translate(-88.891 -318.718)" fill="#dd1c4b"/><path d="M346.682,387.732v2.079h4.742l3.865-15.468-6.284-4.189a85.863,85.863,0,0,1-4.627,12.778A6.2,6.2,0,0,1,346.682,387.732Z" transform="translate(-308.974 -318.859)" fill="#dd1c4b"/><path d="M180.644.609,179.6,0l-1.048.609a38.984,38.984,0,0,0-11.243,12h24.582a38.985,38.985,0,0,0-11.244-12Z" transform="translate(-156.439 0)" fill="#e14e72"/><circle cx="6.236" cy="6.236" r="6.236" transform="translate(16.922 25.082)" fill="#f6f6f6"/><path d="M150.551,166.869V152.319h4.157v14.551h6.236c4.313-10.956,8.315-22.891,8.315-35.476a26.393,26.393,0,0,0-2.2-10.393H138.2a26.393,26.393,0,0,0-2.2,10.393c0,12.524,4.122,24.8,8.315,35.476Zm2.079-41.712a10.393,10.393,0,1,1-10.393,10.393A10.4,10.4,0,0,1,152.629,125.157Z" transform="translate(-129.472 -104.232)" fill="#dd1c4b"/></g></svg>