<svg xmlns="http://www.w3.org/2000/svg" width="54.182" height="62.049" viewBox="0 0 54.182 62.049"><g transform="translate(-31 0.56)"><path d="M220.03,391h-7.224A1.788,1.788,0,0,0,211,392.806v2.131a14.454,14.454,0,0,0,4.154,10.09,1.745,1.745,0,0,0,2.528,0,14.454,14.454,0,0,0,4.154-10.09v-2.131A1.788,1.788,0,0,0,220.03,391Z" transform="translate(-158.327 -344.08)" fill="#e14e72"/><path d="M261.418,392.806v2.131a14.454,14.454,0,0,1-4.154,10.09,1.694,1.694,0,0,1-1.264.542V391h3.612A1.788,1.788,0,0,1,261.418,392.806Z" transform="translate(-197.909 -344.08)" fill="#dd1c4b"/><path d="M399.093,181c-3.208,0-4.518,5.235-5.052,9.848l5.052,4.6,5.05-4.631C403.606,186.213,402.293,181,399.093,181Z" transform="translate(-319.329 -159.365)" fill="#dd1c4b"/><path d="M39.095,181c-3.2,0-4.515,5.22-5.052,9.828l5.052,4.621,5.05-4.619C43.609,186.221,42.3,181,39.095,181Z" transform="translate(-2.677 -159.365)" fill="#e14e72"/><path d="M85.182,170.867c0,2.709-.253,16.255-5.418,16.255-2.24,0-3.757-2.384-4.66-7.224H69.686l-3.107,3.07a1.694,1.694,0,0,1-1.264.542H50.867a1.694,1.694,0,0,1-1.264-.542L46.5,179.9H41.078c-.9,4.84-2.42,7.224-4.66,7.224-5.165,0-5.418-13.546-5.418-16.255a57.12,57.12,0,0,1,.361-6.43,13.426,13.426,0,0,0,5.057,1.012,13.283,13.283,0,0,0,5.057-1.012c.181,1.517.289,3.106.325,4.624h4.19a90.858,90.858,0,0,1,3.648-16.76l8.453-1.3,8.453,1.3a86.225,86.225,0,0,1,3.648,16.76h4.19c.036-1.553.144-3.106.325-4.588a14.543,14.543,0,0,0,10.114-.036A57.092,57.092,0,0,1,85.182,170.867Z" transform="translate(0 -132.977)" fill="#cae8f9"/><path d="M283.091,170.867c0,2.709-.253,16.255-5.418,16.255-2.24,0-3.757-2.384-4.66-7.224H267.6l-3.107,3.07a1.694,1.694,0,0,1-1.264.542H256V151l8.453,1.3a86.225,86.225,0,0,1,3.648,16.76h4.19c.036-1.553.144-3.106.325-4.588a14.543,14.543,0,0,0,10.114-.036A57.1,57.1,0,0,1,283.091,170.867Z" transform="translate(-197.909 -132.977)" fill="#b7e0f6"/><g transform="translate(77.11 -0.56)"><ellipse cx="2.5" cy="1" rx="2.5" ry="1" transform="translate(-0.211 16)" fill="#1689fc"/><ellipse cx="2.5" cy="2" rx="2.5" ry="2" transform="translate(-0.211 7)" fill="#1689fc"/><ellipse cx="2.5" cy="2" rx="2.5" ry="2" transform="translate(-0.211 0)" fill="#1689fc"/></g><g transform="translate(35.745 -0.56)"><circle cx="1" cy="1" r="1" transform="translate(0.155 16)" fill="#17ace8"/><ellipse cx="1" cy="2" rx="1" ry="2" transform="translate(0.155 7)" fill="#17ace8"/><ellipse cx="1" cy="2" rx="1" ry="2" transform="translate(0.155 0)" fill="#17ace8"/></g><g transform="translate(49.638 7.186)"><path d="M216.418,211A5.411,5.411,0,0,0,211,216.418v7.224a5.418,5.418,0,0,0,10.836,0v-7.224A5.411,5.411,0,0,0,216.418,211Z" transform="translate(-207.966 -192.939)" fill="#e14e72"/><path d="M202.7,73.137a16.608,16.608,0,0,1-16.905,0C187.063,69.344,190.242,61,194.252,61S201.44,69.344,202.7,73.137Z" transform="translate(-185.799 -61)" fill="#e14e72"/></g><g transform="translate(58.091 7.186)"><path d="M264.453,73.137A15.689,15.689,0,0,1,256,75.449V61C260.009,61,263.188,69.344,264.453,73.137Z" transform="translate(-256 -61)" fill="#dd1c4b"/><path d="M261.418,216.418v7.224A5.411,5.411,0,0,1,256,229.061V211A5.411,5.411,0,0,1,261.418,216.418Z" transform="translate(-256 -192.939)" fill="#dd1c4b"/></g></g></svg>