<svg xmlns="http://www.w3.org/2000/svg" width="54.006" height="65.836" viewBox="0 0 54.006 65.836"><g transform="translate(-46)"><path d="M149.187,370.185H117.4l4.668-14.286h22.451Z" transform="translate(-62.219 -310.135)" fill="#6f7d96"/><path d="M256.893,370.185H241V355.9h11.225Z" transform="translate(-169.926 -310.135)" fill="#66728b"/><path d="M227.929,0,226,2.571V22.148l1.929,3.055,1.768.161,14.1-14.1,1.858-3.787A25.109,25.109,0,0,0,227.929,0Z" transform="translate(-156.854)" fill="#dd1c4b"/><path d="M258.73,58.114,241,75.844l2.412,1.929h20.894l1.768-1.929A25,25,0,0,0,258.73,58.114Z" transform="translate(-169.926 -50.641)" fill="#f6f6f6"/><path d="M241,196l.488,2.417L254.87,211.8l3.86,1.931A25,25,0,0,0,266.074,196Z" transform="translate(-169.926 -170.797)" fill="#dd1c4b"/><path d="M227.929,196,226,199.057v19.608l1.929,2.41a25,25,0,0,0,17.73-7.344Z" transform="translate(-156.854 -170.797)" fill="#f6f6f6"/><path d="M103.114,213.73a25,25,0,0,0,17.73,7.344V196l-3.576,1.648L103.2,211.712Z" transform="translate(-49.77 -170.797)" fill="#ff507e"/><path d="M46,182.929a25,25,0,0,0,7.344,17.73l17.73-17.73L68.584,181H49.3Z" transform="translate(0 -157.726)" fill="#f6f6f6"/><path d="M53.344,58.114A25,25,0,0,0,46,75.844H71.074l-1.362-3.291L55.535,58.376Z" transform="translate(0 -50.641)" fill="#ff507e"/><path d="M103.114,7.473l17.73,17.73V0A25.109,25.109,0,0,0,103.114,7.473Z" transform="translate(-49.77)" fill="#f6f6f6"/><path d="M118.434,455.858a3.869,3.869,0,0,1-3.858,3.858H79.858a3.858,3.858,0,0,1,0-7.715h34.718A3.869,3.869,0,0,1,118.434,455.858Z" transform="translate(-26.142 -393.879)" fill="#495a79"/><path d="M262.217,455.858a3.869,3.869,0,0,1-3.858,3.858H241V452h17.359A3.869,3.869,0,0,1,262.217,455.858Z" transform="translate(-169.926 -393.879)" fill="#42516d"/><path d="M358.653,136.182l-11.573,5.786a1.935,1.935,0,0,0,0,3.472l11.573,5.786a1.936,1.936,0,0,0,2.777-1.736V137.918A1.936,1.936,0,0,0,358.653,136.182Z" transform="translate(-261.424 -118.501)" fill="#495a79"/><path d="M361.43,196v5.786a1.936,1.936,0,0,1-2.777,1.736l-11.573-5.786A1.974,1.974,0,0,1,346,196Z" transform="translate(-261.424 -170.797)" fill="#42516d"/><path d="M207.573,156.786A5.786,5.786,0,1,1,201.786,151,5.779,5.779,0,0,1,207.573,156.786Z" transform="translate(-130.712 -131.583)" fill="#495a79"/><path d="M246.786,156.786A5.779,5.779,0,0,1,241,162.573V151A5.779,5.779,0,0,1,246.786,156.786Z" transform="translate(-169.926 -131.583)" fill="#42516d"/><path d="M229.858,182.929A1.929,1.929,0,1,1,227.929,181,1.91,1.91,0,0,1,229.858,182.929Z" transform="translate(-156.854 -157.726)" fill="#e1e4fb"/><path d="M242.929,182.929A1.91,1.91,0,0,1,241,184.858V181A1.91,1.91,0,0,1,242.929,182.929Z" transform="translate(-169.926 -157.726)" fill="#a8aff1"/></g></svg>